<?xml version="1.0" encoding="UTF-8"?>
<svg width="56px" height="56px" viewBox="0 0 56 56" version="1.1" xmlns="http://www.w3.org/2000/svg" xmlns:xlink="http://www.w3.org/1999/xlink">
    <!-- Generator: Sketch 63.1 (92452) - https://sketch.com -->
    <title>Group 5</title>
    <desc>Created with Sketch.</desc>
    <g id="Page-1" stroke="none" stroke-width="1" fill="none" fill-rule="evenodd">
        <g id="3" transform="translate(-984.000000, -603.000000)" fill="#7044B6" fill-rule="nonzero">
            <g id="Group-2" transform="translate(960.000000, 579.000000)">
                <g id="Group-5" transform="translate(24.000000, 24.000000)">
                    <path d="M27.9981435,0 C28.8841003,0 29.6162891,0.658359057 29.7321681,1.51253537 L29.7481435,1.75 L29.7481435,5.25 C29.7481435,6.21649831 28.9646418,7 27.9981435,7 C27.1121867,7 26.3799979,6.34164094 26.2641189,5.48746463 L26.2481435,5.25 L26.2481435,1.75 C26.2481435,0.783501688 27.0316452,0 27.9981435,0 Z" id="Path"></path>
                    <path d="M14.2478102,17.5 C15.2143085,17.5 15.9978102,18.2835017 15.9978102,19.25 C15.9978102,20.1359568 15.3394511,20.8681456 14.4852748,20.9840246 L14.2478102,21 L10.4981435,21 C9.53164519,21 8.7481435,20.2164983 8.7481435,19.25 C8.7481435,18.3640432 9.40650255,17.6318544 10.2606789,17.5159754 L10.4981435,17.5 L14.2478102,17.5 Z" id="Path"></path>
                    <path d="M45.4981435,17.5 C46.4646418,17.5 47.2481435,18.2835017 47.2481435,19.25 C47.2481435,20.1359568 46.5897844,20.8681456 45.7356081,20.9840246 L45.4981435,21 L41.7484768,21 C40.7819785,21 39.9984768,20.2164983 39.9984768,19.25 C39.9984768,18.3640432 40.6568359,17.6318544 41.5110122,17.5159754 L41.7484768,17.5 L45.4981435,17.5 Z" id="Path"></path>
                    <path d="M12.3262533,6.57968332 C12.9473142,5.95816706 13.9195087,5.90133002 14.6047884,6.40940602 L14.8011268,6.57877644 L17.9861268,9.76144311 C18.6697947,10.4446101 18.6702008,11.5526488 17.9870337,12.2363167 C17.3659728,12.8578329 16.3937783,12.91467 15.7084986,12.406594 L15.5121602,12.2372236 L12.3271602,9.05455689 C11.6434923,8.37138985 11.6430862,7.26335121 12.3262533,6.57968332 Z" id="Path"></path>
                    <path d="M41.1951602,6.57877644 C41.878828,5.89560941 42.9868667,5.89601543 43.6700337,6.57968332 C44.2910947,7.20119959 44.3472192,8.17343548 43.8386411,8.85834265 L43.6691268,9.05455689 L40.4841268,12.2372236 C39.8004589,12.9203906 38.6924203,12.9199846 38.0092533,12.2363167 C37.3881923,11.6148004 37.3320678,10.6425645 37.8406459,9.95765735 L38.0101602,9.76144311 L41.1951602,6.57877644 Z" id="Path"></path>
                    <path d="M17.766373,16.88202 C16.7472348,21.2917618 18.6797058,25.8248193 22.468107,28.1676018 L22.7481435,28.3313333 L22.7481435,31.5 C22.7481435,32.4664983 23.5316452,33.25 24.4981435,33.25 L31.4981435,33.25 L31.7356081,33.2340246 C32.5897844,33.1181456 33.2481435,32.3859568 33.2481435,31.5 L33.2481435,28.3313333 L33.5660391,28.1443264 C36.6023959,26.2483577 38.4968641,22.9016834 38.4981541,19.2506155 C38.5036401,14.0062641 34.6370089,9.56138916 29.4412151,8.84046459 C24.2454199,8.11953985 19.3146886,11.3437685 17.8918128,16.3926737 L17.766373,16.88202 Z M28.9601928,12.3072524 C32.4240559,12.7878688 35.0018112,15.75112 34.9981532,19.2481675 C34.9971705,22.0299154 33.348438,24.5455132 30.7992648,25.6559429 L30.5708237,25.7761587 C30.0641728,26.0925551 29.7481435,26.6510859 29.7481435,27.2603333 L29.7481435,29.75 L26.2481435,29.75 L26.2481435,27.2603333 C26.2481435,26.5644949 25.8358907,25.934768 25.1981445,25.6564323 C21.9930482,24.2576113 20.3120074,20.7079953 21.2605913,17.3420585 C22.2091752,13.9761217 25.4963294,11.8266359 28.9601928,12.3072524 Z" id="Path"></path>
                    <path d="M31.4981435,35 C32.4646418,35 33.2481435,35.7835017 33.2481435,36.75 C33.2481435,37.6359568 32.5897844,38.3681456 31.7356081,38.4840246 L31.4981435,38.5 L24.4981435,38.5 C23.5316452,38.5 22.7481435,37.7164983 22.7481435,36.75 C22.7481435,35.8640432 23.4065026,35.1318544 24.2606789,35.0159754 L24.4981435,35 L31.4981435,35 Z" id="Path"></path>
                    <path d="M44.3921435,31.5 C40.0429011,31.5 36.5171435,35.0257576 36.5171435,39.375 C36.5171435,43.7242424 40.0429011,47.25 44.3921435,47.25 C48.7413859,47.25 52.2671435,43.7242424 52.2671435,39.375 C52.2671435,35.0257576 48.7413859,31.5 44.3921435,31.5 Z M44.3921435,35 C46.8083893,35 48.7671435,36.9587542 48.7671435,39.375 C48.7671435,41.7912458 46.8083893,43.75 44.3921435,43.75 C41.9758977,43.75 40.0171435,41.7912458 40.0171435,39.375 C40.0171435,36.9587542 41.9758977,35 44.3921435,35 Z" id="Oval"></path>
                    <path d="M44.3909768,45.4980997 C49.5758478,45.4980997 54.1932928,48.7780371 55.9005519,53.6737651 C56.2187976,54.5863651 55.7369783,55.5841626 54.8243784,55.9024084 C53.9117784,56.2206541 52.9139809,55.7388348 52.5957351,54.8262349 C51.3786921,51.336248 48.0870831,48.9980997 44.3909768,48.9980997 C40.6948705,48.9980997 37.4032616,51.336248 36.1862185,54.8262349 C35.8679728,55.7388348 34.8701752,56.2206541 33.9575753,55.9024084 C33.0449754,55.5841626 32.5631561,54.5863651 32.8814018,53.6737651 C34.5886609,48.7780371 39.2061059,45.4980997 44.3909768,45.4980997 Z" id="Path"></path>
                    <path d="M11.6041435,31.5 C7.25490109,31.5 3.7291435,35.0257576 3.7291435,39.375 C3.7291435,43.7242424 7.25490109,47.25 11.6041435,47.25 C15.9533859,47.25 19.4791435,43.7242424 19.4791435,39.375 C19.4791435,35.0257576 15.9533859,31.5 11.6041435,31.5 Z M11.6041435,35 C14.0203893,35 15.9791435,36.9587542 15.9791435,39.375 C15.9791435,41.7912458 14.0203893,43.75 11.6041435,43.75 C9.18789772,43.75 7.2291435,41.7912458 7.2291435,39.375 C7.2291435,36.9587542 9.18789772,35 11.6041435,35 Z" id="Oval"></path>
                    <path d="M11.6076435,45.4980997 C16.7925144,45.4980997 21.4099595,48.7780371 23.1172185,53.6737651 C23.4354642,54.5863651 22.953645,55.5841626 22.041045,55.9024084 C21.1284451,56.2206541 20.1306475,55.7388348 19.8124018,54.8262349 C18.5953588,51.336248 15.3037498,48.9980997 11.6076435,48.9980997 C7.91153719,48.9980997 4.61992822,51.336248 3.40288519,54.8262349 C3.08463946,55.7388348 2.08684191,56.2206541 1.17424197,55.9024084 C0.261642034,55.5841626 -0.220177254,54.5863651 0.0980684715,53.6737651 C1.80532754,48.7780371 6.42277256,45.4980997 11.6076435,45.4980997 Z" id="Path"></path>
                </g>
            </g>
        </g>
    </g>
</svg>