<?xml version="1.0" encoding="UTF-8" standalone="no"?>
<svg
   xmlns:dc="http://purl.org/dc/elements/1.1/"
   xmlns:cc="http://creativecommons.org/ns#"
   xmlns:rdf="http://www.w3.org/1999/02/22-rdf-syntax-ns#"
   xmlns:svg="http://www.w3.org/2000/svg"
   xmlns="http://www.w3.org/2000/svg"
   xmlns:sodipodi="http://sodipodi.sourceforge.net/DTD/sodipodi-0.dtd"
   xmlns:inkscape="http://www.inkscape.org/namespaces/inkscape"
   width="80"
   height="40"
   viewBox="0 0 80 40"
   version="1.1"
   id="svg5"
   sodipodi:docname="missingimage.svg"
   inkscape:version="0.92.4 (5da689c313, 2019-01-14)">
  <metadata
     id="metadata11">
    <rdf:RDF>
      <cc:Work
         rdf:about="">
        <dc:format>image/svg+xml</dc:format>
        <dc:type
           rdf:resource="http://purl.org/dc/dcmitype/StillImage" />
        <dc:title>Voluntarily Logo</dc:title>
      </cc:Work>
    </rdf:RDF>
  </metadata>
  <defs
     id="defs9" />
  <sodipodi:namedview
     pagecolor="#ffffff"
     bordercolor="#666666"
     borderopacity="1"
     objecttolerance="10"
     gridtolerance="10"
     guidetolerance="10"
     inkscape:pageopacity="0"
     inkscape:pageshadow="2"
     inkscape:window-width="3060"
     inkscape:window-height="1671"
     id="namedview7"
     showgrid="false"
     inkscape:zoom="16.68772"
     inkscape:cx="42.606514"
     inkscape:cy="28.035067"
     inkscape:window-x="140"
     inkscape:window-y="55"
     inkscape:window-maximized="1"
     inkscape:current-layer="svg5" />
  <title
     id="title">Voluntarily Logo</title>
  <g
     id="Transparent-V"
     strokeWidth="1"
     fillRule="evenodd"
     transform="matrix(0.4625539,0,0,0.4625539,32.898442,12.954188)"
     style="fill:none;stroke:none">
    <path
       d="M 31.696209,0.72307122 C 32.027618,1.174993 32.087873,1.6720995 31.876977,2.2144056 L 19.494382,32.809357 c -0.150641,0.331409 -0.354002,0.579962 -0.610092,0.745667 -0.256089,0.165705 -0.549833,0.248556 -0.881243,0.248556 h -3.976891 c -0.753203,0 -1.25031,-0.331405 -1.491335,-0.994223 L 0.15222654,2.2144056 C -0.08879841,1.7022276 -0.04360691,1.2051211 0.2878024,0.72307122 0.6192117,0.24102133 1.0560629,0 1.598369,0 h 15.094112 c 0.421793,0 0.790857,0.15817025 1.107203,0.47451549 0.316345,0.31634524 0.474515,0.70047301 0.474515,1.15239481 v 3.2990124 c 0,0.4519218 -0.15817,0.8360495 -0.474515,1.1523948 -0.316346,0.3163452 -0.68541,0.4745155 -1.107203,0.4745155 H 9.100233 L 16.014602,23.951734 25.098184,0.99422294 C 25.339209,0.33140433 25.836315,0 26.589518,0 h 3.796124 c 0.572434,0 1.009286,0.24102133 1.310567,0.72307122 z"
       id="V"
       fillRule="nonzero"
       inkscape:connector-curvature="0"
       style="fill:#000000" />
  </g>
  <ellipse
     style="fill:none;stroke:#000068;stroke-width:1.14340186;stroke-opacity:1"
     id="path830"
     cx="40.35902"
     cy="19.416002"
     rx="11.164106"
     ry="11.104182" />
  <path
     style="fill:none;fill-rule:evenodd;stroke:#000000;stroke-width:1px;stroke-linecap:butt;stroke-linejoin:miter;stroke-opacity:1"
     d="M 32.239275,12.195124 48.239064,27.535745"
     id="path832"
     inkscape:connector-curvature="0" />
</svg>
