<?xml version="1.0" encoding="UTF-8"?>
<svg width="192px" height="32px" viewBox="0 0 192 32" version="1.1" xmlns="http://www.w3.org/2000/svg" xmlns:xlink="http://www.w3.org/1999/xlink">
    <!-- Generator: Sketch 54.1 (76490) - https://sketchapp.com -->
    <title>Artboard</title>
    <desc>Created with Sketch.</desc>
    <g id="Artboard" stroke="none" stroke-width="1" fill="none" fill-rule="evenodd">
        <g id="Group">
            <rect id="Rectangle" x="0" y="0" width="192" height="32"></rect>
            <path d="M24.8328426,7.384 C25.0088435,7.6240012 25.0408432,7.88799856 24.9288426,8.176 L18.3528426,24.424 C18.2728422,24.6000009 18.1648433,24.7319996 18.0288426,24.82 C17.892842,24.9080004 17.7368435,24.952 17.5608426,24.952 L15.4488426,24.952 C15.0488406,24.952 14.7848433,24.7760018 14.6568426,24.424 L8.08084265,8.176 C7.95284201,7.90399864 7.97684177,7.64000128 8.15284265,7.384 C8.32884353,7.12799872 8.56084121,7 8.84884265,7 L16.8648426,7 C17.0888438,7 17.2848418,7.08399916 17.4528426,7.252 C17.6208435,7.42000084 17.7048426,7.6239988 17.7048426,7.864 L17.7048426,9.616 C17.7048426,9.8560012 17.6208435,10.0599992 17.4528426,10.228 C17.2848418,10.3960008 17.0888438,10.48 16.8648426,10.48 L12.8328426,10.48 L16.5048426,19.72 L21.3288426,7.528 C21.4568433,7.17599824 21.7208406,7 22.1208426,7 L24.1368426,7 C24.4408442,7 24.6728418,7.12799872 24.8328426,7.384 Z M34.6368426,7 C37.2608558,7 39.4128342,7.8799912 41.0928426,9.64 C42.7408509,11.3680086 43.5648426,13.4879874 43.5648426,16 C43.5648426,18.5120126 42.7408509,20.6319914 41.0928426,22.36 C39.4128342,24.1200088 37.2608558,25 34.6368426,25 C32.0128295,25 29.860851,24.1200088 28.1808426,22.36 C26.5328344,20.6319914 25.7088426,18.5120126 25.7088426,16 C25.7088426,13.4879874 26.5328344,11.3680086 28.1808426,9.64 C29.860851,7.8799912 32.0128295,7 34.6368426,7 Z M34.6368426,21.568 C36.2848509,21.568 37.6128376,21.0400053 38.6208426,19.984 C39.5968475,18.9599949 40.0848426,17.6320082 40.0848426,16 C40.0848426,14.3839919 39.5968475,13.0560052 38.6208426,12.016 C37.6128376,10.9599947 36.2848509,10.432 34.6368426,10.432 C32.9888344,10.432 31.6608477,10.9599947 30.6528426,12.016 C29.6768378,13.0560052 29.1888426,14.3839919 29.1888426,16 C29.1888426,17.6320082 29.6768378,18.9599949 30.6528426,19.984 C31.6608477,21.0400053 32.9888344,21.568 34.6368426,21.568 Z M57.4728426,21.208 C57.7128438,21.208 57.9128418,21.2919992 58.0728426,21.46 C58.2328434,21.6280008 58.3128426,21.8239989 58.3128426,22.048 L58.3128426,23.776 C58.3128426,24.0000011 58.2328434,24.1959992 58.0728426,24.364 C57.9128418,24.5320008 57.7128438,24.616 57.4728426,24.616 L46.9848426,24.616 C46.7608415,24.616 46.5648435,24.5320008 46.3968426,24.364 C46.2288418,24.1959992 46.1448426,24 46.1448426,23.776 L46.1448426,7.84 C46.1448426,7.61599888 46.2288418,7.42000084 46.3968426,7.252 C46.5648435,7.08399916 46.7608415,7 46.9848426,7 L48.7848426,7 C49.0088437,7 49.2048418,7.08399916 49.3728426,7.252 C49.5408435,7.42000084 49.6248426,7.61599888 49.6248426,7.84 L49.6248426,21.208 L57.4728426,21.208 Z M74.5488426,7 C74.7728437,7 74.9688418,7.08399916 75.1368426,7.252 C75.3048435,7.42000084 75.3888426,7.61599888 75.3888426,7.84 L75.3888426,16.912 C75.3888426,19.2480117 74.6768497,21.1519926 73.2528426,22.624 C71.8288355,24.0800073 69.9968538,24.808 67.7568426,24.808 C65.5328315,24.808 63.7088497,24.0800073 62.2848426,22.624 C60.8608355,21.1519926 60.1488426,19.2480117 60.1488426,16.912 L60.1488426,7.84 C60.1488426,7.61599888 60.2328418,7.42000084 60.4008426,7.252 C60.5688435,7.08399916 60.7648415,7 60.9888426,7 L62.7888426,7 C63.0128437,7 63.2088418,7.08399916 63.3768426,7.252 C63.5448435,7.42000084 63.6288426,7.61599888 63.6288426,7.84 L63.6288426,16.96 C63.6288426,18.4480074 64.0528384,19.5839961 64.9008426,20.368 C65.6208462,21.0400034 66.5728367,21.376 67.7568426,21.376 C68.9248485,21.376 69.8848389,21.0400034 70.6368426,20.368 C71.4848469,19.567996 71.9088426,18.4320074 71.9088426,16.96 L71.9088426,7.84 C71.9088426,7.61599888 71.9888418,7.42000084 72.1488426,7.252 C72.3088434,7.08399916 72.5008415,7 72.7248426,7 L74.5488426,7 Z M93.3768426,7 C93.6008437,7 93.7968418,7.08399916 93.9648426,7.252 C94.1328434,7.42000084 94.2168426,7.61599888 94.2168426,7.84 L94.2168426,23.776 C94.2168426,24.0000011 94.1328434,24.1959992 93.9648426,24.364 C93.7968418,24.5320008 93.6008437,24.616 93.3768426,24.616 L91.2648426,24.616 C90.9928412,24.616 90.7688435,24.5040011 90.5928426,24.28 L82.2648426,12.88 L82.2648426,23.776 C82.2648426,24.0000011 82.1808434,24.1959992 82.0128426,24.364 C81.8448418,24.5320008 81.6488437,24.616 81.4248426,24.616 L79.6248426,24.616 C79.4008415,24.616 79.2048434,24.5320008 79.0368426,24.364 C78.8688418,24.1959992 78.7848426,24 78.7848426,23.776 L78.7848426,7.84 C78.7848426,7.61599888 78.8688418,7.42000084 79.0368426,7.252 C79.2048434,7.08399916 79.4008415,7 79.6248426,7 L81.7128426,7 C82.0168441,7 82.2408419,7.11199888 82.3848426,7.336 L90.7368426,18.688 L90.7368426,7.84 C90.7368426,7.61599888 90.8168418,7.42000084 90.9768426,7.252 C91.1368434,7.08399916 91.3288415,7 91.5528426,7 L93.3768426,7 Z M109.972843,7 C110.196843,7 110.388842,7.08399916 110.548843,7.252 C110.708843,7.42000084 110.788843,7.61599888 110.788843,7.84 L110.788843,9.568 C110.788843,9.79200112 110.708843,9.98799916 110.548843,10.156 C110.388842,10.3240008 110.196844,10.408 109.972843,10.408 L105.244843,10.408 L105.244843,23.776 C105.244843,24.0000011 105.160843,24.1959992 104.992843,24.364 C104.824842,24.5320008 104.628844,24.616 104.404843,24.616 L102.604843,24.616 C102.364841,24.616 102.164843,24.5320008 102.004843,24.364 C101.844842,24.1959992 101.764843,24.0000011 101.764843,23.776 L101.764843,10.408 L97.0368426,10.408 C96.8128415,10.408 96.6168434,10.3240008 96.4488426,10.156 C96.2808417,9.98799916 96.1968426,9.79200112 96.1968426,9.568 L96.1968426,7.84 C96.1968426,7.61599888 96.2808417,7.42000084 96.4488426,7.252 C96.6168434,7.08399916 96.8128415,7 97.0368426,7 L109.972843,7 Z M128.320843,23.368 C128.400843,23.4960006 128.440843,23.6319993 128.440843,23.776 C128.440843,24.0000011 128.360843,24.1959992 128.200843,24.364 C128.040842,24.5320008 127.840844,24.616 127.600843,24.616 L125.608843,24.616 C125.432842,24.616 125.276843,24.5720004 125.140843,24.484 C125.004842,24.3959996 124.904843,24.2720008 124.840843,24.112 L123.088843,19.984 L116.296843,19.984 L114.568843,24.112 C114.504842,24.2720008 114.404843,24.3959996 114.268843,24.484 C114.132842,24.5720004 113.976843,24.616 113.800843,24.616 L111.808843,24.616 C111.504841,24.616 111.272843,24.4880013 111.112843,24.232 C110.920842,23.9919988 110.896842,23.7360014 111.040843,23.464 L117.808843,7.504 C117.872843,7.3439992 117.972842,7.22000044 118.108843,7.132 C118.244843,7.04399956 118.400842,7 118.576843,7 L120.832843,7 C121.008843,7 121.164842,7.04399956 121.300843,7.132 C121.436843,7.22000044 121.536842,7.3439992 121.600843,7.504 L128.320843,23.368 Z M117.712843,16.648 L121.696843,16.648 L119.704843,11.872 L117.712843,16.648 Z M145.084843,23.32 C145.260843,23.5920014 145.268843,23.8799985 145.108843,24.184 C144.948842,24.4720014 144.708844,24.616 144.388843,24.616 L142.228843,24.616 C141.924841,24.616 141.692843,24.4880013 141.532843,24.232 L137.932843,18.496 L133.684843,18.496 L133.684843,23.776 C133.684843,24.0000011 133.600843,24.1959992 133.432843,24.364 C133.264842,24.5320008 133.068844,24.616 132.844843,24.616 L131.044843,24.616 C130.820841,24.616 130.624843,24.5320008 130.456843,24.364 C130.288842,24.1959992 130.204843,24 130.204843,23.776 L130.204843,7.84 C130.204843,7.61599888 130.288842,7.42000084 130.456843,7.252 C130.624843,7.08399916 130.820841,7 131.044843,7 L138.676843,7 C140.516852,7 142.004837,7.5199948 143.140843,8.56 C144.292848,9.61600528 144.868843,11.039991 144.868843,12.832 C144.868843,13.9840058 144.616845,14.9719959 144.112843,15.796 C143.60884,16.6200041 142.868847,17.2399979 141.892843,17.656 C141.828842,17.6880002 141.764843,17.7159999 141.700843,17.74 C141.636842,17.7640001 141.572843,17.7919998 141.508843,17.824 L145.084843,23.32 Z M133.684843,15.112 L138.364843,15.112 C139.740849,15.112 140.67684,14.7200039 141.172843,13.936 C141.332843,13.6479986 141.412843,13.2800022 141.412843,12.832 C141.412843,12.0799962 141.164845,11.4880022 140.668843,11.056 C140.12484,10.6079978 139.388847,10.384 138.460843,10.384 L133.684843,10.384 L133.684843,15.112 Z M150.328843,7 C150.552844,7 150.748842,7.08399916 150.916843,7.252 C151.084843,7.42000084 151.168843,7.61599888 151.168843,7.84 L151.168843,23.776 C151.168843,24.0000011 151.084843,24.1959992 150.916843,24.364 C150.748842,24.5320008 150.552844,24.616 150.328843,24.616 L148.528843,24.616 C148.304841,24.616 148.108843,24.5320008 147.940843,24.364 C147.772842,24.1959992 147.688843,24 147.688843,23.776 L147.688843,7.84 C147.688843,7.61599888 147.772842,7.42000084 147.940843,7.252 C148.108843,7.08399916 148.304841,7 148.528843,7 L150.328843,7 Z M166.084843,21.208 C166.324844,21.208 166.524842,21.2919992 166.684843,21.46 C166.844843,21.6280008 166.924843,21.8239989 166.924843,22.048 L166.924843,23.776 C166.924843,24.0000011 166.844843,24.1959992 166.684843,24.364 C166.524842,24.5320008 166.324844,24.616 166.084843,24.616 L155.596843,24.616 C155.372841,24.616 155.176843,24.5320008 155.008843,24.364 C154.840842,24.1959992 154.756843,24 154.756843,23.776 L154.756843,7.84 C154.756843,7.61599888 154.840842,7.42000084 155.008843,7.252 C155.176843,7.08399916 155.372841,7 155.596843,7 L157.396843,7 C157.620844,7 157.816842,7.08399916 157.984843,7.252 C158.152843,7.42000084 158.236843,7.61599888 158.236843,7.84 L158.236843,21.208 L166.084843,21.208 Z M183.016843,7 C183.352844,7 183.600842,7.15199848 183.760843,7.456 C183.920843,7.74400144 183.904843,8.03199856 183.712843,8.32 L177.184843,17.728 L177.184843,23.776 C177.184843,24.0000011 177.100843,24.1959992 176.932843,24.364 C176.764842,24.5320008 176.568844,24.616 176.344843,24.616 L174.544843,24.616 C174.320841,24.616 174.124843,24.5320008 173.956843,24.364 C173.788842,24.1959992 173.704843,24.0000011 173.704843,23.776 L173.704843,17.728 L167.152843,8.32 C166.960842,8.03199856 166.944842,7.74400144 167.104843,7.456 C167.248843,7.15199848 167.496841,7 167.848843,7 L170.032843,7 C170.304844,7 170.536842,7.1199988 170.728843,7.36 L175.432843,14.128 L180.136843,7.36 C180.328843,7.1199988 180.560841,7 180.832843,7 L183.016843,7 Z" id="Voluntarily" fill="#000000" fill-rule="nonzero"></path>
        </g>
    </g>
</svg>