<svg id="Layer_1" data-name="Layer 1" xmlns="http://www.w3.org/2000/svg" viewBox="0 0 93 8.56"><title>Vocationally logo</title><path d="M55.76,14.13V18.9c0,.54-.11.64-.65.65-1,0-1,0-1-1V11.86c0-.62.08-.65.67-.71a1.43,1.43,0,0,1,1.47.73c1,1.47,2.12,2.9,3.19,4.35l.34.44c0-.23,0-.37,0-.5V11.81c0-.55.1-.64.65-.65,1,0,1,0,1,1v6.73c0,.58-.09.61-.67.67a1.45,1.45,0,0,1-1.49-.75c-1-1.5-2.14-2.95-3.22-4.42a3,3,0,0,0-.22-.28Z" transform="translate(0 -11.14)"/><path d="M17,15.43a4.13,4.13,0,0,1-4.24,4.26,4.15,4.15,0,0,1-4.28-4.32,4.16,4.16,0,0,1,4.25-4.23A4.14,4.14,0,0,1,17,15.43Zm-4.27-2.66a2.49,2.49,0,0,0-2.59,2.64,2.48,2.48,0,0,0,2.62,2.65,2.47,2.47,0,0,0,2.58-2.63A2.48,2.48,0,0,0,12.68,12.77Z" transform="translate(0 -11.14)"/><path d="M53.23,15.43a4.26,4.26,0,1,1-8.52-.06,4.26,4.26,0,0,1,8.52.06ZM49,12.77a2.49,2.49,0,0,0-2.59,2.64,2.6,2.6,0,1,0,5.2,0A2.48,2.48,0,0,0,49,12.77Z" transform="translate(0 -11.14)"/><path d="M2.29,12.81,4,17.18c.29-.74.55-1.37.8-2,.48-1.2,1-2.39,1.43-3.6a.55.55,0,0,1,.65-.43h.51c.63,0,.77.2.54.77L5.83,17.2c-.28.69-.57,1.39-.85,2.09a.56.56,0,0,1-.6.4c-1.36,0-1,.13-1.51-1C1.94,16.45,1,14.17.1,11.9c-.22-.55-.09-.75.52-.75H4c.45,0,.56.12.57.56,0,1.1,0,1.1-1.07,1.1Z" transform="translate(0 -11.14)"/><path d="M32.29,19.53c-.73,0-.73,0-1-.67-.18-.43-.38-.85-.54-1.28a.37.37,0,0,0-.41-.26H27.67a.36.36,0,0,0-.41.27c-.21.53-.44,1.05-.65,1.57a.51.51,0,0,1-.55.37c-.21,0-.42,0-.63,0-.55,0-.7-.23-.49-.72L26.56,15c.49-1.14,1-2.27,1.46-3.42a.59.59,0,0,1,.65-.43c1.36,0,1-.18,1.57,1,.92,2.11,1.81,4.24,2.71,6.36C33.33,19.41,33.25,19.53,32.29,19.53ZM30,15.73,29,13.47l-1,2.26Z" transform="translate(0 -11.14)"/><path d="M70,19.53c-.73,0-.73,0-1-.67-.18-.43-.38-.85-.54-1.28a.37.37,0,0,0-.41-.26H65.36a.36.36,0,0,0-.41.27c-.21.53-.44,1.05-.65,1.57a.52.52,0,0,1-.55.37c-.21,0-.42,0-.63,0-.55,0-.7-.23-.49-.72L64.25,15c.49-1.14,1-2.27,1.45-3.42a.61.61,0,0,1,.66-.43c1.35,0,1-.18,1.57,1,.92,2.11,1.81,4.24,2.71,6.36C71,19.41,70.94,19.53,70,19.53Zm-2.34-3.8-.94-2.26-1,2.26Z" transform="translate(0 -11.14)"/><path d="M36.15,12.76h-2c-.55,0-.64-.09-.64-.65v-.2c0-.71.06-.77.76-.77h5.61c.49,0,.6.12.61.61,0,1,0,1-1,1H38a.67.67,0,0,0-.16.06v6c0,.63-.07.7-.71.7-.94,0-.94,0-.94-.94V12.76Z" transform="translate(0 -11.14)"/><path d="M89,14.58c.67-1,1.32-1.9,2-2.82.14-.2.31-.48.51-.52a4.43,4.43,0,0,1,1.26,0c.29,0,.34.38.14.68l-1.61,2.31,0,.06a8.39,8.39,0,0,0-1.33,2,8.33,8.33,0,0,0-.07,2.4c0,.89,0,.89-.92.89h-.2c-.41,0-.54-.13-.54-.55,0-.82,0-1.64,0-2.45A1,1,0,0,0,88,16c-.93-1.35-1.88-2.69-2.81-4-.1-.15-.2-.44-.13-.55a1,1,0,0,1,.56-.24,1.4,1.4,0,0,1,1.61.8C87.73,12.89,88.37,13.7,89,14.58Z" transform="translate(0 -11.14)"/><path d="M81.09,18h3.1c1,0,1.22.19,1,1.23a.41.41,0,0,1-.45.4H79.9a.42.42,0,0,1-.46-.44V11.86c0-.58.08-.66.67-.66,1,0,1,0,1,1V18Z" transform="translate(0 -11.14)"/><path d="M73.81,18h3.1c1,0,1.21.19,1,1.23a.41.41,0,0,1-.45.4H72.61a.4.4,0,0,1-.45-.44,1.69,1.69,0,0,1,0-.23v-7c0-.58.09-.66.67-.66,1,0,1,0,1,1V18Z" transform="translate(0 -11.14)"/><path d="M43.55,15.36v3.56c0,.49-.12.6-.62.6-1,0-1,0-1-1V11.8c0-.56.1-.66.68-.66,1,0,1,0,1,1Z" transform="translate(0 -11.14)"/><path d="M21.82,18.06a2.47,2.47,0,0,1-2.41-2.65,2.47,2.47,0,0,1,2.41-2.63h1.39a.72.72,0,0,0,.24-1.4A4.54,4.54,0,0,0,22,11.14a4.17,4.17,0,0,0-4.25,4.24A4.16,4.16,0,0,0,22,19.7a4.81,4.81,0,0,0,1.43-.23.73.73,0,0,0-.24-1.41Z" transform="translate(0 -11.14)"/><path d="M59.75,8.27" transform="translate(0 -11.14)"/></svg>