<?xml version="1.0" encoding="UTF-8"?>
<svg width="120px" height="120px" viewBox="0 0 120 120" version="1.1" xmlns="http://www.w3.org/2000/svg" xmlns:xlink="http://www.w3.org/1999/xlink">
    <!-- Generator: Sketch 54.1 (76490) - https://sketchapp.com -->
    <title>Transparent V Black</title>
    <desc>Created with Sketch.</desc>
    <g id="Transparent-V-Black" stroke="none" stroke-width="1" fill="none" fill-rule="evenodd">
        <path d="M105.1266,14.0748663 C106.079402,15.3716642 106.252636,16.7981206 105.646308,18.3542781 L70.0463477,106.147059 C69.613256,107.098044 69.028591,107.811272 68.2923351,108.286765 C67.5560792,108.762257 66.7115631,109 65.7587613,109 L54.3251976,109 C52.1597391,109 50.7305579,108.049029 50.0376112,106.147059 L14.4376513,18.3542781 C13.7447046,16.8845738 13.8746301,15.4581174 14.8274319,14.0748663 C15.7802336,12.6916152 17.0361807,12 18.5953109,12 L61.9908824,12 C63.2035391,12 64.2645979,12.4538725 65.1740904,13.361631 C66.083583,14.2693896 66.5383225,15.3716513 66.5383225,16.6684492 L66.5383225,26.1350267 C66.5383225,27.4318247 66.083583,28.5340864 65.1740904,29.4418449 C64.2645979,30.3496035 63.2035391,30.8034759 61.9908824,30.8034759 L40.1631697,30.8034759 L60.0419794,80.7299465 L86.1572785,14.8529412 C86.8502252,12.9509709 88.2794064,12 90.4448649,12 L101.358721,12 C103.00447,12 104.260417,12.6916152 105.1266,14.0748663 Z" id="V" fill="#fff" fill-rule="nonzero"></path>
    </g>
</svg>