<svg width="240" height="184" viewBox="0 0 240 184" fill="none" xmlns="http://www.w3.org/2000/svg">
<path opacity="0.1" d="M102.101 7.07244C92.3461 3.00738 82.0369 -0.395871 71.5125 0.0372693C56.0277 0.661422 41.1965 10.2013 33.9108 24.2097C27.7378 36.0767 26.9767 49.9883 24.3181 63.1574C21.0426 79.3854 14.77 94.8062 8.06693 109.888C4.46607 117.978 0.668362 126.264 0.0778408 135.145C-0.743639 147.472 5.00672 159.758 14.022 167.967C23.0373 176.175 35.0183 180.493 47.0308 181.437C53.4268 181.94 60.1089 181.475 65.791 178.424C71.8012 175.195 76.1815 169.36 82.2154 166.18C87.8082 163.221 94.3486 162.817 100.626 163.202C108.849 163.706 116.952 165.471 124.665 168.437C133.438 171.816 141.598 176.707 150.354 180.132C159.109 183.557 168.891 185.47 177.84 182.61C186.239 179.92 192.889 173.409 198.881 166.804C208.716 155.964 217.686 144.331 225.704 132.019C231.108 123.722 236.137 114.967 238.528 105.296C243.094 86.8079 236.808 65.9472 222.862 53.3189C211.314 42.859 195.805 38.3177 180.628 35.5629C166.788 33.0501 150.787 32.8941 138.047 26.3458C125.896 20.0909 114.841 12.3831 102.101 7.07244Z" fill="#F86D70"/>
<path d="M200.481 108.56C200.172 107.529 200.204 106.424 200.574 105.413C201.165 103.873 202.606 102.761 203.113 101.187C204.055 98.264 201.516 95.5272 199.959 92.8777C198.53 90.4195 197.883 87.5801 198.104 84.7407C198.346 81.6923 199.586 78.7769 199.681 75.7206C199.765 72.8726 198.849 70.1021 197.944 67.403C197.197 65.1723 196.436 62.9157 195.173 60.9351C192.784 57.1901 188.54 54.8363 184.175 54.4473C182.115 54.2627 180.101 54.9375 178.077 54.6736C175.266 54.3084 172.608 53.5741 169.742 53.4828C167.02 53.4014 164.01 53.7487 162.155 55.7572C160.738 57.2953 160.285 59.5161 158.988 61.1593C157.147 63.4913 153.928 64.2911 151.891 66.4504C151.012 67.4047 150.394 68.5733 150.099 69.841C149.804 71.1088 149.842 72.432 150.21 73.6804C150.492 74.6013 150.953 75.4566 151.253 76.3715C152.512 80.1939 150.859 84.2823 149.859 88.1801C149.747 88.4986 149.726 88.8427 149.8 89.1724C149.958 89.6487 150.454 89.8988 150.866 90.1806C152.215 91.1054 152.903 92.7805 153.035 94.4178C153.167 96.0551 152.79 97.6865 152.42 99.2861C151.475 103.353 150.295 107.709 147.182 110.414C146.617 109.057 145.949 107.746 145.183 106.492C143.279 103.384 141.87 99.5461 141.846 95.8725C141.845 95.8613 141.845 95.85 141.846 95.8388C141.846 95.6403 141.856 95.4419 141.868 95.2434C142.114 90.909 143.975 86.7274 143.934 82.4128C143.934 82.0635 143.924 81.7135 143.904 81.3629C143.662 77.6695 141.899 74.2539 139.879 71.1619C138.371 68.8538 136.672 66.625 134.496 64.944C131.131 62.366 126.855 61.2467 122.655 60.6552C118.454 60.0638 114.632 59.5081 110.398 59.2223C105.845 58.9147 100.834 58.7421 97.2345 61.5642C92.5412 65.2437 92.281 72.3507 88.7033 77.1336C86.5744 79.9796 83.184 82.1786 82.0624 85.4115C81.759 84.6182 81.5061 83.8061 81.3054 82.9804C81.2936 82.9248 81.2818 82.8712 81.27 82.8156C82.6226 78.9147 82.9373 74.7251 82.1826 70.6637C82.2717 70.006 82.3171 69.343 82.3186 68.6791C82.3407 67.9567 82.263 67.2347 82.088 66.5337C81.5814 64.6007 80.1838 63.0547 78.8336 61.588C78.342 61.0281 77.8082 60.5072 77.2369 60.0301C73.7033 55.7197 68.7629 52.8144 63.2981 51.8329C57.8332 50.8515 52.1998 51.858 47.404 54.6725C42.6081 57.487 38.9621 61.9263 37.1172 67.1976C35.2723 72.4689 35.3485 78.2289 37.3324 83.4487C37.1589 84.8023 36.6385 86.1181 35.6825 87.0727C35.2469 87.5073 34.6831 88.0511 34.7777 88.6068C34.7484 88.765 34.7705 88.9286 34.8408 89.0732C34.9377 89.2464 35.0725 89.395 35.235 89.5078C36.6141 90.5689 38.3315 91.0843 40.0625 90.9566C41.5231 95.2787 44.3867 98.9798 48.1916 101.463C48.1916 101.596 48.187 101.724 48.1778 101.848C48.1778 102.069 48.1601 102.287 48.1502 102.509C48.1502 102.559 48.1502 102.608 48.1502 102.658C48.1502 102.64 48.1502 102.62 48.1502 102.6C48.1502 102.581 41.2866 111.609 34.9433 111.944C31.5568 112.123 28.602 114.423 26.3628 117.053C23.6741 120.208 22.0144 123.836 21.8724 124.84C21.6103 126.682 19.781 135.633 19.781 135.633H72.4785C71.8556 138.856 71.0159 142.962 71.0159 142.962H156.327C156.129 140.201 155.911 137.649 155.708 135.488H166.433L166.421 135.553H215.898L219.036 130.812C218.257 116.997 210.163 109.402 200.481 108.56ZM77.302 93.1278C78.415 93.7307 79.6107 94.1641 80.8501 94.4138C81.3882 94.525 81.9894 94.5944 82.4487 94.2908C82.7531 94.0593 82.9784 93.7381 83.0933 93.3719L83.117 93.4314C84.4475 96.8053 85.6795 100.286 85.918 103.91C85.9397 104.252 85.9535 104.593 85.9555 104.936C85.9608 107.004 85.5371 109.049 84.7116 110.942C80.255 108.582 75.9571 105.93 71.8458 103.003L71.5678 102.884C71.5678 102.906 71.6644 103.154 71.7787 103.573C71.8063 103.674 71.8359 103.785 71.8655 103.904C71.5836 102.987 71.3273 102.051 71.1026 101.096C71.077 100.983 71.0514 100.87 71.0257 100.757C73.7101 98.7731 75.866 96.1525 77.302 93.1278Z" fill="url(#paint0_linear)"/>
<path d="M168.952 54.1846C166.273 54.1033 163.309 54.4466 161.485 56.4233C160.09 57.9356 159.644 60.1226 158.367 61.7401C156.555 64.0363 153.388 64.8223 151.381 66.9478C150.515 67.8871 149.907 69.0374 149.616 70.2853C149.326 71.5332 149.364 72.8358 149.725 74.0647C150.003 74.9697 150.457 75.8131 150.752 76.7122C151.992 80.483 150.374 84.4979 149.372 88.3342C149.261 88.6488 149.241 88.989 149.315 89.3146C149.469 89.783 149.96 90.0291 150.364 90.3069C151.691 91.2178 152.369 92.8651 152.489 94.4746C152.609 96.0842 152.248 97.6917 151.884 99.2655C150.916 103.433 149.694 107.921 146.333 110.546C144.914 111.667 143.017 112.576 142.647 114.363C142.213 116.454 144.196 118.233 146.098 119.179C151.683 121.958 158.166 121.997 164.275 123.236C169.654 124.327 175.019 126.395 180.464 125.689C182.89 125.375 185.21 124.516 187.507 123.665L201.806 118.36C202.21 118.235 202.59 118.043 202.929 117.79C203.791 117.068 203.82 115.694 203.351 114.668C202.882 113.642 202.03 112.856 201.281 112.015C199.649 110.175 198.407 107.577 199.298 105.279C199.89 103.763 201.299 102.669 201.798 101.111C202.724 98.2335 200.221 95.5384 198.703 92.9306C197.299 90.5136 196.662 87.7222 196.878 84.9305C197.116 81.9298 198.337 79.06 198.425 76.0513C198.508 73.249 197.607 70.5221 196.716 67.8647C195.981 65.6697 195.232 63.4489 193.988 61.498C191.636 57.8125 187.46 55.4965 183.162 55.1115C181.134 54.9309 179.153 55.5937 177.16 55.3357C174.391 54.9924 171.773 54.27 168.952 54.1846Z" fill="#F7D6C8"/>
<path d="M172.951 132.937C172.951 132.937 156.74 122.705 163.044 110.908C164.503 108.181 165.148 105.601 165.28 103.245C165.314 102.625 165.314 102.003 165.28 101.382C165.28 101.352 165.28 101.322 165.28 101.293C165.259 100.972 165.23 100.657 165.195 100.348C164.444 94.12 160.47 90.0615 160.47 90.0615C160.47 90.0615 187.359 82.1607 182.857 89.2835C180.767 92.5899 181.392 95.8328 182.792 99.1888C182.939 99.5421 183.097 99.8993 183.261 100.255C184.877 103.793 187.12 107.459 187.747 111.434C189.032 119.595 172.951 132.937 172.951 132.937Z" fill="#EFB7B9"/>
<path opacity="0.1" d="M182.857 89.2824C180.767 92.5888 181.392 95.8317 182.792 99.1877C180.198 100.872 177.22 101.862 174.14 102.067C171.061 102.271 167.98 101.682 165.189 100.355C164.444 94.119 160.47 90.0604 160.47 90.0604C160.47 90.0604 187.361 82.1576 182.857 89.2824Z" fill="black"/>
<path d="M172.95 101.719C182.968 101.719 191.09 93.5413 191.09 83.454C191.09 73.3668 182.968 65.1895 172.95 65.1895C162.931 65.1895 154.809 73.3668 154.809 83.454C154.809 93.5413 162.931 101.719 172.95 101.719Z" fill="#EFB7B9"/>
<path opacity="0.1" d="M165.28 101.389C165.28 101.359 165.28 101.329 165.28 101.299L165.301 101.264C165.29 101.307 165.282 101.349 165.28 101.389Z" fill="black"/>
<path opacity="0.1" d="M172.951 132.937C172.951 132.937 156.74 122.704 163.044 110.908C164.503 108.181 165.148 105.601 165.28 103.245C165.648 106.158 167.645 109.78 171.28 114.793C172.857 116.977 173.535 120.029 173.75 123.079L174.111 123.343L175.885 122.264C176.082 118.89 176.76 115.48 178.364 113.063C182.581 106.712 183.582 103.537 183.271 100.246C184.887 103.785 187.13 107.45 187.757 111.426C189.032 119.594 172.951 132.937 172.951 132.937Z" fill="black"/>
<path d="M198.939 108.357C189.281 107.65 183.17 100.101 183.17 100.101C183.684 103.637 182.849 106.803 178.344 113.596C176.75 116.005 176.074 119.409 175.877 122.791L174.102 123.871L173.742 123.607C173.527 120.558 172.851 117.502 171.272 115.321C166.77 109.103 164.767 105.022 165.289 101.784C165.289 101.784 160.336 109.879 150.687 110.528C141.038 111.177 132.932 118.042 132.158 130.606L135.245 134.881H165.693L165.682 134.947H214.37L217.468 130.277C216.694 116.559 208.598 109.063 198.939 108.357Z" fill="#F86D70"/>
<path opacity="0.05" d="M198.939 108.357C189.281 107.65 183.17 100.101 183.17 100.101C183.684 103.637 182.849 106.803 178.344 113.596C176.75 116.005 176.074 119.409 175.877 122.791L174.102 123.871L173.742 123.607C173.527 120.558 172.851 117.502 171.272 115.321C166.77 109.103 164.767 105.022 165.289 101.784C165.289 101.784 160.336 109.879 150.687 110.528C141.038 111.177 132.932 118.042 132.158 130.606L135.245 134.881H165.693L165.682 134.947H214.37L217.468 130.277C216.694 116.559 208.598 109.063 198.939 108.357Z" fill="black"/>
<path opacity="0.1" d="M185.214 74.6269C184.426 76.5917 183.026 78.2508 181.497 79.7075C179.384 81.7219 176.726 83.4962 173.821 83.3593C175.405 81.8735 176.551 79.9769 177.134 77.8777C175.301 78.9534 173.916 80.6562 172.165 81.8688C170.415 83.0814 167.941 83.7066 166.23 82.4404C169.338 80.8673 171.919 78.4117 173.655 75.3771C169.5 76.4627 167.367 81.1742 163.624 83.2898C161.87 84.2821 159.818 84.6552 157.807 84.6116C156.378 84.5818 154.785 84.2464 153.989 83.0516C153.524 82.357 153.415 81.4838 153.398 80.6443C153.311 76.8378 154.85 73.1027 157.222 70.1396C159.593 67.1766 162.741 64.924 166.108 63.1755C167.306 62.5524 168.556 61.9848 169.89 61.7863C171.55 61.5442 173.241 61.8994 174.87 62.2765C176.987 62.7647 179.116 63.3006 181.065 64.2611C185.226 66.3351 187.044 70.094 185.214 74.6269Z" fill="black"/>
<path d="M185.214 74.3661C184.426 76.3309 183.026 77.9901 181.497 79.4468C179.384 81.4612 176.726 83.2355 173.821 83.0985C175.405 81.6128 176.551 79.7161 177.134 77.617C175.301 78.6926 173.916 80.3954 172.165 81.6081C170.415 82.8207 167.941 83.4458 166.23 82.1796C169.338 80.6066 171.919 78.1509 173.655 75.1163C169.5 76.2019 167.367 80.9134 163.624 83.0291C161.87 84.0214 159.818 84.3945 157.807 84.3508C156.378 84.3211 154.785 83.9857 153.989 82.7909C153.524 82.0963 153.415 81.223 153.398 80.3835C153.311 76.577 154.85 72.8419 157.222 69.8789C159.593 66.9158 162.741 64.6633 166.108 62.9148C167.306 62.2916 168.556 61.724 169.89 61.5256C171.55 61.2834 173.241 61.6387 174.87 62.0158C176.987 62.504 179.116 63.0398 181.065 64.0004C185.226 66.0704 187.044 69.8332 185.214 74.3661Z" fill="#F7D6C8"/>
<path d="M60.1311 98.5585C72.8498 98.5585 83.1604 88.1775 83.1604 75.372C83.1604 62.5665 72.8498 52.1855 60.1311 52.1855C47.4124 52.1855 37.1018 62.5665 37.1018 75.372C37.1018 88.1775 47.4124 98.5585 60.1311 98.5585Z" fill="#C3705A"/>
<path d="M80.781 119.997C80.781 119.997 59.6894 125.437 59.167 125.951C58.6446 126.465 41.4126 127.376 46.4292 116.754C48.2723 112.854 49.0391 107.557 49.2717 102.415C49.2815 102.197 49.2914 101.981 49.2993 101.764C49.6166 93.1451 48.4891 85.147 48.4891 85.147C48.4891 85.147 72.9318 75.4223 71.1321 90.1999C70.6826 93.8754 71.0552 97.5688 71.8713 101.042C72.1433 102.201 72.4626 103.334 72.8174 104.434C75.6717 113.293 80.781 119.997 80.781 119.997Z" fill="#ECB4B6"/>
<path opacity="0.1" d="M71.8694 101.046C68.6276 103.466 64.7293 104.832 60.6956 104.961C56.662 105.09 52.6854 103.976 49.2975 101.768C49.6148 93.149 48.4873 85.1509 48.4873 85.1509C48.4873 85.1509 72.9299 75.4262 71.1302 90.2038C70.6828 93.8813 71.0553 97.5747 71.8694 101.046Z" fill="black"/>
<path d="M60.066 104.581C71.008 104.581 79.8783 95.6498 79.8783 84.6331C79.8783 73.6164 71.008 64.6855 60.066 64.6855C49.1239 64.6855 40.2537 73.6164 40.2537 84.6331C40.2537 95.6498 49.1239 104.581 60.066 104.581Z" fill="#ECB4B6"/>
<path opacity="0.1" d="M80.781 119.997C80.781 119.997 59.6894 125.437 59.167 125.951C58.6446 126.465 41.4126 127.376 46.4292 116.754C48.2723 112.854 49.0391 107.557 49.2717 102.415C49.4688 105.102 50.9945 111.61 51.1896 113.775C51.2021 113.902 51.2272 114.027 51.2646 114.148C51.5504 115.111 52.5695 116.22 53.7975 117.272L53.8704 117.334C55.398 118.624 57.2935 119.391 59.2829 119.525C61.2722 119.659 63.2523 119.152 64.9366 118.078C66.6898 116.966 68.3725 115.745 69.975 114.422C72.2694 112.515 72.985 109.945 73.0737 107.674C73.1104 106.584 73.0244 105.494 72.8174 104.423C75.6717 113.293 80.781 119.997 80.781 119.997Z" fill="black"/>
<path d="M107.414 135.025H21.3362C21.3362 135.025 23.1378 126.217 23.3941 124.403C23.534 123.411 25.1682 119.839 27.8154 116.737C30.0192 114.157 32.9267 111.884 36.26 111.708C42.4988 111.378 49.254 102.511 49.254 102.511C49.4038 105.091 50.9847 111.829 51.1838 114.039C51.1962 114.166 51.2213 114.291 51.2587 114.413C51.5445 115.375 52.5636 116.485 53.7916 117.536L53.8646 117.598C55.3918 118.889 57.2872 119.656 59.2766 119.791C61.2661 119.925 63.2463 119.418 64.9308 118.344C66.6837 117.232 68.3663 116.011 69.9691 114.688C72.2636 112.781 72.9791 110.211 73.0678 107.941C73.113 106.434 72.9316 104.929 72.5297 103.477C72.4173 103.064 72.3326 102.822 72.3207 102.8L72.5947 102.918C72.5947 102.918 84.2503 111.452 94.9282 114.94C96.1796 115.351 97.3605 115.953 98.429 116.727C99.2945 117.357 100.091 118.077 100.806 118.876C102.252 120.522 103.447 122.374 104.354 124.371C106.83 129.655 107.414 135.025 107.414 135.025Z" fill="#F86D70"/>
<path opacity="0.05" d="M107.414 135.025H21.3362C21.3362 135.025 23.1378 126.217 23.3941 124.403C23.534 123.411 25.1682 119.839 27.8154 116.737C30.0192 114.157 32.9267 111.884 36.26 111.708C42.4988 111.378 49.254 102.511 49.254 102.511C49.4038 105.091 50.9847 111.829 51.1838 114.039C51.1962 114.166 51.2213 114.291 51.2587 114.413C51.5445 115.375 52.5636 116.485 53.7916 117.536L53.8646 117.598C55.3918 118.889 57.2872 119.656 59.2766 119.791C61.2661 119.925 63.2463 119.418 64.9308 118.344C66.6837 117.232 68.3663 116.011 69.9691 114.688C72.2636 112.781 72.9791 110.211 73.0678 107.941C73.113 106.434 72.9316 104.929 72.5297 103.477C72.4173 103.064 72.3326 102.822 72.3207 102.8L72.5947 102.918C72.5947 102.918 84.2503 111.452 94.9282 114.94C96.1796 115.351 97.3605 115.953 98.429 116.727C99.2945 117.357 100.091 118.077 100.806 118.876C102.252 120.522 103.447 122.374 104.354 124.371C106.83 129.655 107.414 135.025 107.414 135.025Z" fill="black"/>
<path opacity="0.1" d="M69.5906 77.9345C70.1031 79.9191 70.7733 82.1241 72.5335 83.158C72.7694 83.2719 72.9867 83.4211 73.1781 83.6006C73.6118 84.075 73.4797 84.8152 73.4147 85.4582C73.1899 87.6651 74.1322 89.9018 75.6776 91.4836C77.223 93.0653 79.3144 94.0318 81.4728 94.4764C82.0011 94.5856 82.5944 94.655 83.0498 94.3553C83.3575 94.1199 83.5837 93.7928 83.6963 93.4206C84.2975 91.811 84.0433 90.003 83.5406 88.3598C83.038 86.7165 82.2968 85.1486 81.9164 83.4716C81.0116 79.4924 82.2101 75.3803 82.7502 71.3336C82.9295 69.988 83.034 68.6008 82.6891 67.2889C82.1903 65.3877 80.8145 63.8635 79.4859 62.4206C78.7704 61.6446 78.039 60.8548 77.1205 60.3467C74.4121 58.8562 70.9251 60.18 68.0333 59.0944C66.8763 58.6598 65.8926 57.8659 64.7908 57.3082C62.451 56.1174 59.6775 56.052 57.113 56.5938C54.5485 57.1356 52.1456 58.2489 49.7664 59.3524L47.947 60.182C45.3845 61.3728 42.6386 62.7183 41.2588 65.209C39.7903 67.8605 40.1983 71.2542 38.7298 73.9057C38.2843 74.6996 37.6634 75.4617 37.5471 76.3746C37.4682 77.0335 37.6693 77.6924 37.8566 78.3294C38.3139 79.8794 38.7121 81.4731 38.6766 83.0926C38.6411 84.712 38.1286 86.3712 36.9892 87.5104C36.5083 87.9906 35.8657 88.6059 36.1613 89.2191C36.2584 89.3906 36.3932 89.5372 36.5556 89.6478C37.4913 90.3633 38.5913 90.8293 39.7535 91.0028C40.9158 91.1763 42.1027 91.0515 43.2044 90.6401C44.0677 90.3087 44.8838 89.7768 45.3727 88.9929C45.6976 88.4186 45.933 87.7974 46.0705 87.1511C46.6934 84.8152 47.3202 82.4396 47.2709 80.0203C47.2433 78.6311 46.991 77.23 47.1921 75.8526C47.3931 74.4753 48.1915 73.0563 49.522 72.6772C50.5076 72.3934 51.5622 72.7367 52.5911 72.7268C54.0735 72.7149 55.8909 71.0597 57.2648 71.546C58.4475 71.9667 59.3838 74.2451 60.3615 75.1183C62.8413 77.3471 66.3026 78.512 69.5906 77.9345Z" fill="black"/>
<path d="M69.5909 77.6749C70.1034 79.6595 70.7736 81.8645 72.5339 82.8984C72.7663 83.0099 72.9809 83.1558 73.1706 83.3311C73.6042 83.8054 73.4722 84.5457 73.4071 85.1887C73.1824 87.3956 74.1246 89.6323 75.67 91.2141C77.2154 92.7958 79.3069 93.7623 81.4653 94.2069C81.9936 94.316 82.5869 94.3855 83.0423 94.0858C83.35 93.8504 83.5762 93.5233 83.6888 93.1511C84.29 91.5415 84.0357 89.7335 83.5331 88.0902C83.0304 86.447 82.2893 84.8791 81.9088 83.2021C81.0041 79.2229 82.2025 75.1108 82.7426 71.0641C82.922 69.7185 83.0265 68.3313 82.6815 67.0194C82.1828 65.1181 80.8069 63.5939 79.4784 62.1511C78.7628 61.3751 78.0315 60.5852 77.1129 60.0772C74.4045 58.5867 70.9175 59.9105 68.0258 58.8249C66.8687 58.3902 65.8851 57.5964 64.7832 57.0387C62.4434 55.8479 59.67 55.7824 57.1055 56.3242C54.541 56.866 52.1381 57.9794 49.7589 59.0829L47.9631 59.9164C45.4006 61.1072 42.6548 62.4528 41.2749 64.9435C39.8064 67.595 40.2144 70.9887 38.7459 73.6401C38.3004 74.434 37.6795 75.1961 37.5632 76.109C37.4844 76.7679 37.6854 77.4268 37.8727 78.0639C38.33 79.6139 38.7282 81.2075 38.6927 82.827C38.6572 84.4465 38.1447 86.1056 37.0054 87.2448C36.5244 87.7251 35.8818 88.3403 36.1775 88.9536C36.2745 89.125 36.4094 89.2717 36.5717 89.3822C37.5074 90.0977 38.6074 90.5638 39.7696 90.7372C40.9319 90.9107 42.1189 90.786 43.2205 90.3746C44.0839 90.0431 44.8999 89.5112 45.3888 88.7273C45.7138 88.153 45.9491 87.5319 46.0866 86.8856C46.7095 84.5497 47.3363 82.1741 47.287 79.7548C47.2594 78.3656 47.0071 76.9644 47.2082 75.5871C47.4092 74.2097 48.2076 72.7907 49.5381 72.4117C50.5237 72.1279 51.5783 72.4712 52.6072 72.4613C54.0896 72.4494 55.907 70.7942 57.2809 71.2804C58.4636 71.7012 59.3999 73.9795 60.3776 74.8528C62.8416 77.0894 66.303 78.2544 69.5909 77.6749Z" fill="#C3705A"/>
<path d="M135.59 86.1475H90.4299V125.138H135.59V86.1475Z" fill="#463A3E"/>
<path opacity="0.05" d="M135.59 86.1475H90.4299V125.138H135.59V86.1475Z" fill="black"/>
<path d="M129.114 142.236H90.4792C90.978 139.404 92.4366 136.3 95.2791 132.954C97.5234 130.324 99.3591 127.366 100.723 124.182C101.09 123.332 101.419 122.479 101.709 121.624C102.563 119.086 103.144 116.463 103.442 113.801C103.442 113.725 103.459 113.65 103.467 113.574C103.667 111.735 103.747 109.884 103.708 108.033C103.708 107.9 103.708 107.771 103.708 107.636C103.57 103.096 102.824 98.5954 101.49 94.256L101.441 94.1012C101.021 92.7695 100.714 92.0213 100.714 92.0213C100.714 92.0213 101.48 91.6026 102.746 90.9853L102.852 90.9337C107.506 88.6832 118.523 83.9875 123.38 87.3336L123.459 87.3872C125.158 88.6058 126.073 90.8424 125.643 94.5676C125.643 94.5815 125.643 94.5974 125.643 94.6113C125.643 94.6807 125.627 94.7482 125.621 94.8097C125.361 97.3773 125.238 99.957 125.253 102.538C125.253 102.667 125.253 102.796 125.253 102.935C125.253 103.539 125.259 104.152 125.273 104.773C125.273 104.856 125.273 104.939 125.273 105.023C125.312 107.027 125.401 109.097 125.525 111.197C125.696 114.108 125.941 117.073 126.223 119.983C126.343 121.227 126.473 122.464 126.617 123.68C126.633 123.823 126.648 123.97 126.664 124.111C126.83 125.593 127.001 127.046 127.177 128.455L127.189 128.546C127.859 134.143 128.6 139.029 129.114 142.236Z" fill="#C17174"/>
<path opacity="0.1" d="M125.628 94.5757C125.628 94.5895 125.628 94.6054 125.628 94.6193C125.35 97.2561 125.218 99.9063 125.233 102.558C125.233 102.687 125.233 102.816 125.233 102.955C122.639 105.986 119.158 108.112 115.289 109.028C111.42 109.944 107.362 109.602 103.698 108.051C103.698 107.918 103.698 107.789 103.698 107.654C103.559 103.06 102.797 98.5057 101.431 94.1192C101.012 92.7875 100.704 92.0393 100.704 92.0393C100.704 92.0393 101.471 91.6205 102.736 91.0033C107.345 88.7607 118.591 83.9182 123.444 87.3953C125.141 88.6138 126.055 90.8505 125.628 94.5757Z" fill="black"/>
<path d="M110.993 109.127C121.37 109.127 129.783 100.657 129.783 90.2095C129.783 79.7617 121.37 71.292 110.993 71.292C100.616 71.292 92.2041 79.7617 92.2041 90.2095C92.2041 100.657 100.616 109.127 110.993 109.127Z" fill="#C17174"/>
<path opacity="0.1" d="M111.989 142.108H71.9048C71.9048 142.108 73.7064 133.3 73.9627 131.486C74.1027 130.494 75.7368 126.921 78.3841 123.819C81.7843 121.089 85.9957 119.584 90.3452 119.547C98.0111 119.431 100.242 122.089 100.848 124.054C101.059 124.712 101.113 125.412 101.005 126.096L102.456 128.211L111.989 142.108Z" fill="black"/>
<path d="M111.861 142.237H71.7766C71.7766 142.237 73.5783 133.429 73.8345 131.615C73.9745 130.623 75.6086 127.05 78.2559 123.948C81.6561 121.217 85.8675 119.713 90.217 119.675C97.8829 119.56 100.114 122.218 100.719 124.183C100.931 124.841 100.985 125.541 100.877 126.225L102.328 128.34L111.861 142.237Z" fill="#F86D70"/>
<path opacity="0.1" d="M155.617 142.108H113.619C115.622 137.818 120.871 126.378 121.163 123.733C121.275 122.709 122.359 121.748 123.794 120.932C124.247 120.671 124.714 120.434 125.192 120.222L125.278 120.182C125.541 120.066 125.807 119.958 126.077 119.859C129.71 118.52 133.701 118.551 137.312 119.948C140.76 121.268 145.197 123.046 148.651 124.711L148.678 124.725C149.565 125.154 150.391 125.572 151.119 125.975C152.573 126.779 153.636 127.513 154.044 128.101C154.231 128.371 154.438 129.587 154.665 131.475C154.966 134.027 155.296 137.814 155.617 142.108Z" fill="black"/>
<path d="M155.745 142.237H113.747C115.75 137.946 120.999 126.507 121.291 123.862C121.403 122.837 122.487 121.877 123.922 121.061C124.376 120.8 124.842 120.563 125.32 120.351L125.407 120.311C125.669 120.195 125.936 120.087 126.205 119.988C129.838 118.649 133.829 118.68 137.441 120.077C140.888 121.397 145.325 123.175 148.779 124.84L148.806 124.854C149.693 125.283 150.519 125.701 151.247 126.104C152.702 126.908 153.764 127.642 154.172 128.23C154.359 128.5 154.566 129.716 154.793 131.604C155.096 134.156 155.424 137.944 155.745 142.237Z" fill="#F86D70"/>
<path opacity="0.1" d="M148.986 121.487C148.986 122.097 148.97 122.708 148.937 123.319C148.918 123.617 148.896 123.915 148.87 124.212C148.852 124.427 148.83 124.639 148.809 124.851L148.781 125.097C148.46 127.983 147.866 130.853 147.795 133.752C147.795 133.889 147.795 134.026 147.795 134.163C147.782 136.886 148.219 139.567 148.812 142.237H124.626C124.587 141.743 124.567 141.244 124.573 140.754C124.573 140.312 124.6 139.869 124.646 139.424C125.018 135.771 126.873 132.351 127.153 128.721L127.165 128.555C127.183 128.283 127.193 128.009 127.189 127.735C127.189 127.711 127.189 127.687 127.189 127.662C127.158 126.461 126.974 125.27 126.643 124.117C126.627 124.059 126.611 124.002 126.595 123.944C126.257 122.801 125.863 121.674 125.413 120.57L125.326 120.35C124.669 118.699 123.98 117.062 123.512 115.42C123.141 114.198 122.949 112.928 122.943 111.65C122.943 111.421 122.957 111.193 122.974 110.965C122.99 110.778 123.012 110.592 123.039 110.403C123.082 110.109 123.14 109.817 123.213 109.528C123.607 107.964 124.449 106.497 125.255 105.045C126.152 103.427 127.007 101.828 127.161 100.127C127.18 99.9117 127.188 99.6957 127.183 99.4798C127.177 99.2017 127.15 98.9244 127.104 98.6502C126.897 97.4436 126.28 96.358 125.773 95.2446C125.722 95.1315 125.671 95.0183 125.622 94.9032C125.622 94.8854 125.606 94.8675 125.6 94.8496C124.614 92.5574 124.043 90.1123 123.441 87.6792C123.416 87.574 123.39 87.4688 123.363 87.3656C123.215 86.7702 123.063 86.1748 122.901 85.5794C122.018 82.3326 120.761 79.052 118.368 76.7081C115.975 74.3643 112.158 73.1775 109.162 74.6699C106.57 75.9698 105.167 78.8793 104.534 81.7213C103.901 84.5633 103.85 87.5303 103.028 90.3247C102.969 90.5284 102.903 90.7315 102.831 90.934C102.795 91.0372 102.76 91.1324 102.724 91.2455C102.371 92.2577 101.936 93.26 101.467 94.2562L101.417 94.3614C99.9193 97.5706 98.1788 100.724 98.1236 103.949V103.991C98.1236 104.078 98.1236 104.164 98.1236 104.251C98.1338 105.017 98.2492 105.779 98.4666 106.513C98.8608 107.835 99.5744 108.988 100.406 110.086C100.57 110.301 100.739 110.515 100.911 110.727C101.739 111.751 102.638 112.743 103.424 113.799L103.45 113.833C104.048 114.612 104.553 115.46 104.954 116.359C105.429 117.485 105.678 118.694 105.684 119.918C105.691 121.141 105.456 122.353 104.993 123.484C104.77 124.007 104.514 124.514 104.226 125.004C103.72 125.885 103.162 126.743 102.722 127.66C102.575 127.967 102.442 128.281 102.328 128.598C101.343 131.154 101.13 133.983 100.325 136.62C99.7025 138.645 98.7332 140.545 97.4613 142.235H71.8359C72.1336 140.768 73.61 133.502 73.8426 131.871C73.9826 130.879 75.6167 127.306 78.264 124.204C78.0412 124.381 77.8264 124.56 77.6194 124.738C75.9499 126.171 74.5034 127.847 73.3281 129.712C73.3853 129.533 73.4444 129.352 73.5036 129.174C73.8643 128.09 74.2546 127.017 74.6508 125.957C75.798 122.904 77.0753 119.791 79.3619 117.476C80.653 116.171 82.2241 115.164 83.4541 113.801C85.6224 111.401 86.5192 108.077 86.4936 104.818C86.4936 104.481 86.4798 104.146 86.4581 103.81C86.2236 100.238 85.0113 96.8184 83.6985 93.4902C82.9928 91.704 82.2438 89.8265 82.2773 87.9332C82.2794 87.6676 82.2985 87.4025 82.3344 87.1393C82.8765 83.2157 86.8189 80.8659 89.1863 77.7004C92.7068 72.9909 92.963 65.9911 97.5815 62.3751C101.13 59.5966 106.058 59.7673 110.538 60.069C114.705 60.3508 118.466 60.8966 122.602 61.48C126.737 62.0635 130.934 63.159 134.251 65.7252C136.394 67.3804 138.066 69.5734 139.55 71.8458C141.537 74.8902 143.273 78.2522 143.512 81.886C143.53 82.146 143.54 82.404 143.54 82.66C143.581 86.9071 141.75 91.0233 141.507 95.2882C141.497 95.4867 141.49 95.6852 141.488 95.8836C141.486 95.8942 141.486 95.9048 141.488 95.9154C141.444 99.6128 142.854 103.495 144.772 106.632C147.496 111.104 148.954 116.241 148.986 121.487Z" fill="black"/>
<path d="M148.986 121.487C148.986 122.011 148.966 122.537 148.936 123.059C148.918 123.357 148.896 123.655 148.869 123.952C148.843 124.25 148.814 124.545 148.781 124.838C148.459 127.723 147.866 130.593 147.795 133.493C147.795 133.715 147.795 133.939 147.795 134.161C147.809 136.882 148.266 139.565 148.869 142.235H124.648C124.602 141.741 124.575 141.242 124.571 140.752C124.566 140.222 124.59 139.692 124.644 139.165C125.016 135.511 126.871 132.091 127.151 128.461C127.171 128.196 127.184 127.93 127.186 127.668C127.186 127.606 127.186 127.543 127.186 127.481C127.161 126.196 126.963 124.921 126.597 123.69C126.259 122.547 125.864 121.421 125.414 120.317C124.732 118.592 124.001 116.879 123.512 115.156C123.168 114.014 122.976 112.831 122.943 111.638C122.937 111.323 122.948 111.007 122.974 110.693C122.99 110.507 123.012 110.32 123.039 110.131C123.082 109.837 123.14 109.545 123.213 109.256C123.607 107.692 124.448 106.226 125.255 104.773C126.154 103.153 127.013 101.55 127.165 99.847C127.177 99.718 127.183 99.5871 127.186 99.4501C127.196 99.0852 127.169 98.7203 127.108 98.3606C126.901 97.1539 126.284 96.0683 125.777 94.9549C125.726 94.8418 125.675 94.7287 125.625 94.6136C124.626 92.3074 124.048 89.8505 123.445 87.3895C123.272 86.687 123.094 85.9844 122.907 85.2878C122.024 82.0409 120.766 78.7603 118.373 76.4165C115.98 74.0726 112.17 72.9096 109.176 74.41C106.584 75.71 105.18 78.6194 104.547 81.4614C103.915 84.3034 103.863 87.2704 103.041 90.0648C102.951 90.3724 102.844 90.68 102.744 90.9857C102.377 92.0316 101.92 93.0695 101.439 94.1015C99.8994 97.394 98.1076 100.633 98.1451 103.949V103.991C98.1553 104.757 98.2707 105.519 98.4881 106.253C98.8823 107.575 99.5959 108.728 100.428 109.826C100.592 110.041 100.76 110.255 100.932 110.467C101.77 111.503 102.679 112.505 103.471 113.573C104.069 114.353 104.574 115.201 104.975 116.099C105.451 117.225 105.699 118.434 105.706 119.658C105.713 120.881 105.478 122.093 105.015 123.224C104.791 123.747 104.535 124.254 104.248 124.744C103.741 125.625 103.183 126.483 102.744 127.4C102.596 127.707 102.464 128.021 102.35 128.338C101.364 130.895 101.151 133.723 100.347 136.36C99.6911 138.49 98.6536 140.48 97.2856 142.233H71.7766C71.7766 142.233 73.5783 133.425 73.8345 131.611C73.9626 130.704 75.3444 127.642 77.6113 124.738C77.8084 124.472 78.0331 124.206 78.2559 123.944C76.4022 125.419 74.7957 127.184 73.4974 129.172L73.322 129.45C73.732 128.182 74.1834 126.929 74.6466 125.695C75.7939 122.643 77.0712 119.529 79.3578 117.215C80.6489 115.909 82.2199 114.902 83.4499 113.539C85.5552 111.203 86.4658 107.982 86.4895 104.807C86.4895 104.382 86.4895 103.959 86.454 103.538C86.2194 99.9661 85.0072 96.5466 83.6944 93.2184C83.0222 91.5076 82.3145 89.7254 82.2731 87.9115C82.264 87.5619 82.2831 87.2121 82.3303 86.8656C82.8743 82.9638 86.8167 80.6239 89.1841 77.4485C92.7046 72.739 92.9609 65.7392 97.5793 62.1232C101.127 59.3447 106.055 59.5154 110.536 59.817C114.703 60.0988 118.464 60.6446 122.6 61.2281C126.735 61.8116 130.938 62.9051 134.251 65.4633C136.394 67.1284 138.065 69.3115 139.55 71.5859C141.537 74.6303 143.273 77.9923 143.512 81.6261C143.535 81.9715 143.545 82.3161 143.539 82.6601C143.506 86.814 141.744 90.8507 141.507 95.0303C141.491 95.3122 141.483 95.592 141.487 95.8758C141.486 95.8863 141.486 95.897 141.487 95.9076C141.511 99.5275 142.899 103.302 144.771 106.361C147.544 110.911 149.003 116.149 148.986 121.487Z" fill="#463A3E"/>
<defs>
<linearGradient id="paint0_linear" x1="119.404" y1="142.958" x2="119.404" y2="51.4664" gradientUnits="userSpaceOnUse">
<stop stop-color="#808080" stop-opacity="0.25"/>
<stop offset="0.54" stop-color="#808080" stop-opacity="0.12"/>
<stop offset="1" stop-color="#808080" stop-opacity="0.1"/>
</linearGradient>
</defs>
</svg>
