<svg width="240" height="184" viewBox="0 0 240 184" fill="none" xmlns="http://www.w3.org/2000/svg">
<path opacity="0.1" d="M102.101 7.07244C92.3461 3.00738 82.0369 -0.395871 71.5125 0.0372693C56.0277 0.661422 41.1965 10.2013 33.9108 24.2097C27.7378 36.0767 26.9767 49.9883 24.3181 63.1574C21.0426 79.3854 14.77 94.8062 8.06693 109.888C4.46607 117.978 0.668362 126.264 0.0778408 135.145C-0.743639 147.472 5.00672 159.758 14.022 167.967C23.0373 176.175 35.0183 180.493 47.0308 181.437C53.4268 181.94 60.1089 181.475 65.791 178.424C71.8012 175.195 76.1815 169.36 82.2154 166.18C87.8082 163.221 94.3486 162.817 100.626 163.202C108.849 163.706 116.952 165.471 124.665 168.437C133.438 171.816 141.598 176.707 150.354 180.132C159.109 183.557 168.891 185.47 177.84 182.61C186.239 179.92 192.889 173.409 198.881 166.804C208.716 155.964 217.686 144.331 225.704 132.019C231.108 123.722 236.137 114.967 238.528 105.296C243.094 86.8079 236.808 65.9472 222.862 53.3189C211.314 42.859 195.805 38.3177 180.628 35.5629C166.788 33.0501 150.787 32.8941 138.047 26.3458C125.896 20.0909 114.841 12.3831 102.101 7.07244Z" fill="#F86D70"/>
<path d="M179.327 67.2376L181.765 66.6406C182.696 66.6406 183.615 66.434 184.455 66.0356C185.296 65.6372 186.038 65.057 186.627 64.3371C187.215 63.6171 187.637 62.7754 187.86 61.8729C188.083 60.9703 188.103 60.0294 187.917 59.1184C187.917 56.944 187.053 54.8587 185.514 53.3212C183.975 51.7837 181.888 50.9199 179.711 50.9199H179.711C178.634 50.9199 177.567 51.132 176.571 51.544C175.576 51.956 174.671 52.5599 173.909 53.3212C173.147 54.0825 172.543 54.9863 172.13 55.981C171.718 56.9756 171.506 58.0417 171.506 59.1184C171.192 60.2154 171.172 61.3756 171.447 62.4829C171.723 63.5902 172.285 64.6057 173.077 65.4278C173.869 66.2499 174.863 66.8498 175.96 67.1674C177.057 67.485 178.218 67.5092 179.327 67.2376Z" fill="#2F2E41"/>
<path d="M183.419 63.6094L187.15 70.0204L186.105 73.1516L180.733 72.2569L178.047 66.5913L183.419 63.6094Z" fill="#FFB8B8"/>
<path d="M187.544 56.7581C189.695 56.7581 191.439 55.0159 191.439 52.8669C191.439 50.7178 189.695 48.9756 187.544 48.9756C185.393 48.9756 183.65 50.7178 183.65 52.8669C183.65 55.0159 185.393 56.7581 187.544 56.7581Z" fill="#2F2E41"/>
<path d="M183.948 50.7783C183.948 50.2027 184.075 49.6342 184.322 49.1139C184.568 48.5935 184.927 48.1342 185.372 47.7692C185.818 47.4042 186.339 47.1425 186.898 47.003C187.457 46.8635 188.04 46.8497 188.604 46.9626C188.106 46.7279 187.563 46.6017 187.012 46.5924C186.461 46.583 185.914 46.6906 185.408 46.9082C184.901 47.1257 184.447 47.4482 184.075 47.8543C183.703 48.2604 183.421 48.7409 183.248 49.2639C183.076 49.7869 183.016 50.3405 183.074 50.8882C183.132 51.4359 183.305 51.965 183.583 52.4407C183.861 52.9164 184.236 53.3278 184.685 53.6476C185.134 53.9674 185.645 54.1884 186.186 54.2959C185.517 53.9822 184.951 53.4848 184.555 52.8619C184.159 52.2391 183.948 51.5164 183.948 50.7783Z" fill="#2F2E41"/>
<path d="M159.394 114.749C159.394 114.749 158.797 118.924 160.886 118.626C162.975 118.327 162.378 114.749 162.378 114.749H159.394Z" fill="#FFB8B8"/>
<path d="M157.305 153.514L155.812 158.285L159.394 159.776L160.886 153.514H157.305Z" fill="#FFB8B8"/>
<path d="M183.568 156.629L183.511 161.628L187.37 162.028L186.999 155.602L183.568 156.629Z" fill="#FFB8B8"/>
<path d="M168.049 92.6826L185.956 93.2789L187.15 133.535L191.03 156.794L181.479 158.583L173.421 119.818L163.871 155.004L155.215 154.11L168.049 92.6826Z" fill="#2F2E41"/>
<path d="M157.902 158.285C157.902 158.285 156.409 155.602 155.216 157.093C154.022 158.584 149.247 164.249 149.247 164.249C149.247 164.249 143.874 169.617 152.53 169.02C152.53 169.02 155.216 169.02 155.812 167.231C155.812 167.231 160.886 166.336 160.886 164.845C160.886 163.355 159.787 158.128 159.787 158.128L157.902 158.285Z" fill="#2F2E41"/>
<path d="M185.658 160.968C185.658 160.968 184.166 158.284 182.972 159.775C181.778 161.266 177.003 166.932 177.003 166.932C177.003 166.932 171.63 172.299 180.286 171.703C180.286 171.703 182.972 171.703 183.569 169.914C183.569 169.914 188.642 169.019 188.642 167.528C188.642 166.037 187.543 160.81 187.543 160.81L185.658 160.968Z" fill="#2F2E41"/>
<path d="M177.749 68.3808C181.54 68.3808 184.613 65.3102 184.613 61.5224C184.613 57.7347 181.54 54.6641 177.749 54.6641C173.958 54.6641 170.884 57.7347 170.884 61.5224C170.884 65.3102 173.958 68.3808 177.749 68.3808Z" fill="#FFB8B8"/>
<path d="M188.791 71.3626L178.047 71.0645L171.78 78.221C171.78 78.221 166.109 83.8866 168.795 88.0613V94.9197H186.105L190.582 83.2903L188.791 71.3626Z" fill="#D0CDE1"/>
<path d="M187.747 88.8063C187.747 88.8063 181.613 76.0707 184.979 71.2563L186.196 68.3802L189.538 67.6348V68.5293L198.193 69.4239L196.104 84.3334L194.313 118.625L177.45 115.494L187.299 94.621L187.747 88.8063Z" fill="#575A89"/>
<path d="M179.539 69.8711L169.84 76.2822C169.84 76.2822 164.766 86.4207 163.572 91.1917C162.378 95.9628 154.619 115.643 154.619 115.643H163.871L176.406 75.3876L180.435 71.362L179.539 69.8711Z" fill="#575A89"/>
<path d="M193.119 89.7012L187.747 90.5957C187.747 90.5957 182.673 93.5777 183.867 97.1559C185.061 100.734 188.642 93.2795 188.642 93.2795L194.91 92.6831L193.119 89.7012Z" fill="#FFB8B8"/>
<path d="M195.805 70.6165L198.193 69.4238L208.34 89.7007L196.402 95.3663L191.627 88.8063L197.894 87.0171L193.417 79.5623L195.805 70.6165Z" fill="#575A89"/>
<path d="M182.219 53.3919L176.968 52.4326L172.933 54.9663C171.941 55.5891 171.148 56.4832 170.65 57.5424C170.151 58.6016 169.967 59.7815 170.119 60.9422L174.162 59.913L175.064 57.6431L176.145 59.4081L178.8 58.7322L184.912 66.293L185.401 58.9891L182.219 53.3919Z" fill="#2F2E41"/>
<path d="M181.341 62.3359C181.729 62.1952 181.837 61.5166 181.584 60.8201C181.33 60.1236 180.811 59.673 180.424 59.8137C180.036 59.9543 179.928 60.633 180.181 61.3295C180.435 62.026 180.954 62.4766 181.341 62.3359Z" fill="#FFB8B8"/>
<path d="M44.1105 84.252H22.7842V105.559H44.1105V84.252Z" fill="#E6E6E6"/>
<path d="M40.3477 88.167H26.7764V101.726H40.3477V88.167Z" fill="#F86D70"/>
<path d="M54.895 42H12V71.7821H54.895V42Z" fill="#F86D70"/>
<path d="M33.4473 47.8105C31.6499 47.8105 29.8928 48.3431 28.3983 49.3408C26.9038 50.3385 25.739 51.7566 25.0512 53.4157C24.3633 55.0749 24.1833 56.9005 24.534 58.6619C24.8847 60.4232 25.7502 62.0411 27.0212 63.3109C28.2921 64.5808 29.9115 65.4456 31.6743 65.7959C33.4372 66.1463 35.2645 65.9665 36.9251 65.2792C38.5857 64.592 40.005 63.4282 41.0036 61.935C42.0022 60.4418 42.5352 58.6863 42.5352 56.8905C42.5282 54.4845 41.5684 52.1791 39.8656 50.4778C38.1629 48.7765 35.8554 47.8176 33.4473 47.8105ZM33.4473 50.5345C33.9865 50.5345 34.5136 50.6943 34.962 50.9936C35.4103 51.2929 35.7598 51.7183 35.9661 52.2161C36.1725 52.7138 36.2265 53.2615 36.1213 53.7899C36.0161 54.3183 35.7564 54.8037 35.3751 55.1846C34.9938 55.5656 34.5081 55.825 33.9792 55.9301C33.4503 56.0352 32.9021 55.9813 32.404 55.7751C31.9058 55.569 31.48 55.2198 31.1804 54.7719C30.8808 54.3239 30.7209 53.7972 30.7209 53.2585C30.7233 52.5368 31.0114 51.8453 31.5221 51.335C32.0329 50.8247 32.725 50.5369 33.4473 50.5345ZM33.4473 63.648C32.3703 63.6431 31.3107 63.3757 30.3605 62.8691C29.4103 62.3625 28.5982 61.6319 27.9945 60.7407C28.0382 58.9247 31.6297 57.9251 33.4473 57.9251C35.2649 57.9251 38.8564 58.9247 38.9001 60.7407C38.2957 61.6312 37.4834 62.3613 36.5334 62.8679C35.5834 63.3744 34.5241 63.6422 33.4473 63.648V63.648Z" fill="white"/>
<path d="M86.7577 84.252H65.4314V105.559H86.7577V84.252Z" fill="#E6E6E6"/>
<path d="M82.9946 88.167H69.4233V101.726H82.9946V88.167Z" fill="#F86D70"/>
<path d="M97.542 42H54.647V71.7821H97.542V42Z" fill="#F86D70"/>
<path d="M76.0948 47.8105C74.2973 47.8105 72.5403 48.3431 71.0458 49.3408C69.5513 50.3385 68.3865 51.7566 67.6986 53.4157C67.0108 55.0749 66.8308 56.9005 67.1815 58.6619C67.5321 60.4232 68.3977 62.0411 69.6686 63.3109C70.9396 64.5808 72.5589 65.4456 74.3218 65.7959C76.0847 66.1463 77.912 65.9665 79.5726 65.2792C81.2332 64.592 82.6525 63.4282 83.6511 61.935C84.6497 60.4418 85.1827 58.6863 85.1827 56.8905C85.1756 54.4845 84.2159 52.1791 82.5131 50.4778C80.8103 48.7765 78.5029 47.8176 76.0948 47.8105ZM76.0948 50.5345C76.634 50.5345 77.1611 50.6943 77.6095 50.9936C78.0578 51.2929 78.4073 51.7183 78.6136 52.2161C78.82 52.7138 78.874 53.2615 78.7688 53.7899C78.6636 54.3183 78.4039 54.8037 78.0226 55.1846C77.6413 55.5656 77.1555 55.825 76.6267 55.9301C76.0978 56.0352 75.5496 55.9813 75.0514 55.7751C74.5532 55.569 74.1274 55.2198 73.8279 54.7719C73.5283 54.3239 73.3684 53.7972 73.3684 53.2585C73.3708 52.5368 73.6588 51.8453 74.1696 51.335C74.6804 50.8247 75.3724 50.5369 76.0948 50.5345ZM76.0948 63.648C75.0177 63.6431 73.9582 63.3757 73.008 62.8691C72.0578 62.3625 71.2456 61.6319 70.642 60.7407C70.6857 58.9247 74.2772 57.9251 76.0948 57.9251C77.9124 57.9251 81.5038 58.9247 81.5475 60.7407C80.9432 61.6312 80.1309 62.3613 79.1809 62.8679C78.2308 63.3744 77.1716 63.6422 76.0948 63.648V63.648Z" fill="white"/>
<path d="M140.219 42H97.324V71.7821H140.219V42Z" fill="#E6E6E6"/>
<path d="M118.772 47.8105C116.974 47.8105 115.217 48.3431 113.723 49.3408C112.228 50.3385 111.063 51.7566 110.375 53.4157C109.688 55.0749 109.508 56.9005 109.858 58.6619C110.209 60.4232 111.074 62.0411 112.345 63.3109C113.616 64.5808 115.236 65.4456 116.999 65.7959C118.761 66.1463 120.589 65.9665 122.249 65.2792C123.91 64.592 125.329 63.4282 126.328 61.935C127.326 60.4418 127.859 58.6863 127.859 56.8905C127.852 54.4845 126.893 52.1791 125.19 50.4778C123.487 48.7765 121.18 47.8176 118.772 47.8105ZM118.772 50.5345C119.311 50.5345 119.838 50.6943 120.286 50.9936C120.735 51.2929 121.084 51.7183 121.29 52.2161C121.497 52.7138 121.551 53.2615 121.446 53.7899C121.34 54.3183 121.081 54.8037 120.699 55.1846C120.318 55.5656 119.832 55.825 119.303 55.9301C118.775 56.0352 118.226 55.9813 117.728 55.7751C117.23 55.569 116.804 55.2198 116.505 54.7719C116.205 54.3239 116.045 53.7972 116.045 53.2585C116.048 52.5368 116.336 51.8453 116.846 51.335C117.357 50.8247 118.049 50.5369 118.772 50.5345ZM118.772 63.648C117.694 63.6431 116.635 63.3758 115.685 62.8691C114.735 62.3625 113.922 61.6319 113.319 60.7407C113.362 58.9247 116.954 57.9251 118.772 57.9251C120.589 57.9251 124.181 58.9247 124.224 60.7407C123.62 61.6312 122.808 62.3613 121.858 62.8679C120.908 63.3744 119.848 63.6422 118.772 63.648V63.648Z" fill="white"/>
<path d="M129.434 84.252H108.108V105.559H129.434V84.252Z" fill="#E6E6E6"/>
<path d="M125.671 88.167H112.1V101.726H125.671V88.167Z" fill="white"/>
<path d="M32.752 97.8371L30.3984 94.8136L31.7671 93.7498L32.8813 95.1814L36.6462 91.2109L37.9051 92.4024L32.752 97.8371Z" fill="white"/>
<path d="M75.3597 97.8371L73.0061 94.8136L74.3748 93.7498L75.489 95.1814L79.2539 91.2109L80.5128 92.4024L75.3597 97.8371Z" fill="white"/>
<path d="M117.968 97.8371L115.614 94.8136L116.983 93.7498L118.097 95.1814L121.862 91.2109L123.121 92.4024L117.968 97.8371Z" fill="#E6E6E6"/>
</svg>
