<svg width="240" height="184" viewBox="0 0 240 184" fill="none" xmlns="http://www.w3.org/2000/svg">
<path opacity="0.1" d="M102.101 7.07244C92.3461 3.00738 82.0369 -0.395871 71.5125 0.0372693C56.0277 0.661422 41.1965 10.2013 33.9108 24.2097C27.7378 36.0767 26.9767 49.9883 24.3181 63.1574C21.0426 79.3854 14.77 94.8062 8.06693 109.888C4.46607 117.978 0.668362 126.264 0.0778408 135.145C-0.743639 147.472 5.00672 159.758 14.022 167.967C23.0373 176.175 35.0183 180.493 47.0308 181.437C53.4268 181.94 60.1089 181.475 65.791 178.424C71.8012 175.195 76.1815 169.36 82.2154 166.18C87.8082 163.221 94.3486 162.817 100.626 163.202C108.849 163.706 116.952 165.471 124.665 168.437C133.438 171.816 141.598 176.707 150.354 180.132C159.109 183.557 168.891 185.47 177.84 182.61C186.239 179.92 192.889 173.409 198.881 166.804C208.716 155.964 217.686 144.331 225.704 132.019C231.108 123.722 236.137 114.967 238.528 105.296C243.094 86.8079 236.808 65.9472 222.862 53.3189C211.314 42.859 195.805 38.3177 180.628 35.5629C166.788 33.0501 150.787 32.8941 138.047 26.3458C125.896 20.0909 114.841 12.3831 102.101 7.07244Z" fill="#F86D70"/>
<path d="M76.3903 132.439C73.6631 128.382 72.479 123.481 73.0526 118.625C73.6263 113.769 75.9197 109.28 79.5171 105.971C83.1145 102.663 87.7776 100.754 92.6607 100.59C97.5438 100.427 102.324 102.021 106.134 105.082C109.943 108.144 112.531 112.47 113.427 117.277C114.323 122.083 113.468 127.052 111.017 131.282C108.566 135.512 104.681 138.723 100.068 140.333C95.4544 141.942 90.4172 141.844 85.8698 140.056C85.575 141.109 85.0239 142.072 84.2657 142.86C83.5076 143.648 82.5661 144.235 81.5256 144.569C80.4851 144.903 79.378 144.974 78.3035 144.775C77.229 144.576 76.2205 144.114 75.3684 143.429C74.5163 142.744 73.8471 141.859 73.4208 140.852C72.9945 139.845 72.8244 138.748 72.9256 137.659C73.0269 136.57 73.3964 135.523 74.001 134.612C74.6057 133.701 75.4266 132.954 76.3903 132.439Z" fill="#F86D70"/>
<path d="M85.3182 122.925C86.624 122.925 87.6826 121.865 87.6826 120.559C87.6826 119.252 86.624 118.192 85.3182 118.192C84.0124 118.192 82.9539 119.252 82.9539 120.559C82.9539 121.865 84.0124 122.925 85.3182 122.925Z" fill="white"/>
<path d="M93.3849 122.925C94.6907 122.925 95.7492 121.865 95.7492 120.559C95.7492 119.252 94.6907 118.192 93.3849 118.192C92.0791 118.192 91.0205 119.252 91.0205 120.559C91.0205 121.865 92.0791 122.925 93.3849 122.925Z" fill="white"/>
<path d="M101.452 122.925C102.757 122.925 103.816 121.865 103.816 120.559C103.816 119.252 102.757 118.192 101.452 118.192C100.146 118.192 99.0872 119.252 99.0872 120.559C99.0872 121.865 100.146 122.925 101.452 122.925Z" fill="white"/>
<path d="M95.7526 47.1523C95.7526 47.1523 106.302 47.4394 108.044 48.0737C109.786 48.7081 110.565 53.2444 110.565 53.2444L102.375 55.8208L96.2483 55.4735L91.6377 55.7996L94.2121 49.0519L95.7526 47.1523Z" fill="#2F2E41"/>
<path d="M96.2078 43.6885C96.2078 43.6885 96.9019 46.3713 95.3615 48.2708C93.821 50.1704 101.984 56.9393 101.984 56.9393L106.29 56.1986C106.29 56.1986 105.341 47.9554 106.615 45.868C107.89 43.7806 96.2078 43.6885 96.2078 43.6885Z" fill="#9F616A"/>
<path opacity="0.1" d="M96.2078 43.6885C96.2078 43.6885 96.9019 46.3713 95.3615 48.2708C93.821 50.1704 101.984 56.9393 101.984 56.9393L106.29 56.1986C106.29 56.1986 105.341 47.9554 106.615 45.868C107.89 43.7806 96.2078 43.6885 96.2078 43.6885Z" fill="black"/>
<path d="M124.845 122.127L115.344 134.736L121.828 138.525L130.752 123.913L124.845 122.127Z" fill="#9F616A"/>
<path d="M118.181 134.948C118.181 134.948 114.682 130.88 114.838 131.787C114.994 132.694 112.349 140.388 114.81 141.133C117.271 141.877 138.377 143.851 138.667 141.466C138.957 139.081 132.371 137.411 132.371 137.411C132.371 137.411 128.458 133.648 127.59 134.031C126.723 134.413 118.181 134.948 118.181 134.948Z" fill="#2F2E41"/>
<path d="M122.714 134.169L130.303 147.108L136.032 143.787L128.38 133.194L122.714 134.169Z" fill="#9F616A"/>
<path d="M134.694 103.386L132.442 106.575C132.442 106.575 121.705 121.499 122.845 122.704C123.985 123.909 128.734 128.463 131.149 127.58C133.564 126.698 142.145 111.445 142.145 111.445L139.907 102.489L134.694 103.386Z" fill="#2F2E41"/>
<path d="M88.4421 100.367C88.4421 100.367 90.8466 104.858 96.941 106.378C103.035 107.898 109.403 111.006 109.629 110.967C109.856 110.928 110.497 110.585 110.653 111.492C110.808 112.399 112.48 113.98 112.48 113.98C112.48 113.98 119.212 136.874 121.783 136.898C124.354 136.923 129.637 135.08 129.747 134.361C129.857 133.641 121.875 110.262 121.797 109.808L120.862 104.365C120.862 104.365 131.418 106.052 132.403 106.349C133.387 106.647 142.145 111.446 142.145 111.446C142.145 111.446 151.072 105.006 142.722 98.5031C134.372 92 120.019 87.2298 120.019 87.2298L114.87 85.7804L110.383 85.5123L109.722 82.9766L99.094 83.5902L88.0029 88.3002L88.4421 100.367Z" fill="#2F2E41"/>
<path d="M102.469 49.028C107.041 49.028 110.747 45.3187 110.747 40.743C110.747 36.1673 107.041 32.458 102.469 32.458C97.8964 32.458 94.1899 36.1673 94.1899 40.743C94.1899 45.3187 97.8964 49.028 102.469 49.028Z" fill="#9F616A"/>
<path d="M94.979 47.4027L95.9746 47.2314C95.9746 47.2314 97.773 54.161 103.336 55.3057C103.336 55.3057 106.081 52.0147 105.964 51.4594C105.847 50.9041 108.138 47.9414 109.356 49.5999C110.574 51.2585 109.059 80.4748 110.082 80.9994C111.106 81.5239 113.301 82.0803 111.534 84.0188C109.767 85.9573 102.748 88.5657 101.194 87.6656C99.6393 86.7654 96.4628 79.1388 95.0888 76.573C93.7148 74.0072 91.5157 65.2784 91.5157 65.2784C91.5157 65.2784 88.7075 55.7204 90.4356 53.555C92.1637 51.3897 94.979 47.4027 94.979 47.4027Z" fill="#D0CDE1"/>
<path d="M102.902 83.371C102.717 85.4062 102.4 87.4272 101.954 89.4213C101.548 91.0438 101.075 92.0235 100.535 91.9817C99.1588 91.8787 98.5331 93.8992 98.2105 96.2286C97.8656 98.7 97.8656 101.519 97.6765 102.515C97.4263 103.832 95.8245 104.837 92.6237 104.542C90.7174 104.325 88.8466 103.865 87.0563 103.175C82.7349 101.603 82.8628 88.8508 83.5858 79.3885C84.028 73.5886 84.6926 69.0217 84.6926 69.0217C84.6926 69.0217 83.38 65.1032 82.9601 62.4175C82.8765 61.9275 82.8346 61.4313 82.835 60.9342C82.8989 58.5881 87.1787 52.2483 89.7649 48.2992C92.3539 44.3501 95.8856 47.2472 95.8856 47.2472L94.6565 50.9598C94.6565 50.9598 96.5614 53.9015 96.5753 56.7012C96.5892 59.5009 101.136 61.5214 102.768 62.8767C103.794 63.7284 103.769 75.0971 102.902 83.371Z" fill="#2F2E41"/>
<path d="M106.497 48.5742C106.497 48.5742 106.795 48.9271 108.161 48.755C109.799 48.5485 112.052 49.1157 112.575 50.6811C113.535 53.5517 116.24 65.229 116.24 65.229C116.24 65.229 117.366 78.5791 117.873 81.5277C118.379 84.4762 118.128 87.0881 118.627 88.6368C119.126 90.1855 113.698 85.7485 111.697 86.3262C109.696 86.9039 108.411 79.419 108.662 76.8071C108.914 74.1952 109.126 71.3565 108.432 68.6738C107.738 65.991 108.968 58.8907 108.922 57.264C108.876 55.6373 104.511 51.5375 106.497 48.5742Z" fill="#2F2E41"/>
<path d="M112.354 90.0664C112.354 90.0664 121.12 94.8521 121.959 101.664C122.798 108.475 110.235 95.0683 110.235 95.0683L112.354 90.0664Z" fill="#9F616A"/>
<path d="M117.358 85.2348C117.358 85.2348 120.044 98.7836 124.228 98.0639C128.412 97.3442 121.891 84.4551 121.891 84.4551L117.358 85.2348Z" fill="#9F616A"/>
<path d="M131.687 144.301C131.687 144.301 129.545 146.771 129.014 146.396C128.482 146.02 127.261 151.134 128.362 152.112C129.463 153.09 133.706 154.696 133.752 156.322C133.798 157.949 145.176 157.627 145.583 155.922C145.99 154.217 144.156 150.33 142.867 149.617C141.578 148.905 136.812 142.349 136.812 142.349C136.812 142.349 133.079 142.894 131.687 144.301Z" fill="#2F2E41"/>
<path opacity="0.1" d="M110.958 98.3526C108.925 96.9165 103.25 96.5603 98.2105 96.2291C95.9998 96.0872 93.9113 95.948 92.3068 95.7226C90.7606 95.5083 89.3701 94.0945 88.1354 91.9877C86.2639 88.7956 84.7511 84.0088 83.5859 79.3889C84.0281 73.5891 84.6927 69.0221 84.6927 69.0221C84.6927 69.0221 83.3801 65.1036 82.9602 62.418C83.2562 62.0057 83.6375 61.6621 84.0781 61.4105C89.423 59.1145 94.5259 81.71 95.1738 85.2556C95.185 85.314 95.1933 85.3697 95.2017 85.417C95.5159 87.2427 98.9113 88.8039 101.954 89.4218C103.828 89.8031 105.572 89.8281 106.375 89.3327C108.486 88.0358 114.977 93.2262 115.469 93.3737C115.961 93.524 113.878 100.42 110.958 98.3526Z" fill="black"/>
<path d="M84.0791 60.0191C84.0791 60.0191 80.1944 61.8548 81.9013 70.4348C83.6081 79.0147 87.0467 93.6016 92.3054 94.3316C97.5641 95.0617 108.035 94.8951 110.957 96.9612C113.878 99.0273 115.961 92.1308 115.468 91.9819C114.976 91.833 108.485 86.6447 106.375 87.9418C104.264 89.2389 95.7085 86.9743 95.2021 84.0258C94.6957 81.0772 89.5113 57.6836 84.0791 60.0191Z" fill="#2F2E41"/>
<path d="M112.072 55.9043L116.342 65.8187C116.342 65.8187 116.771 65.6041 117.271 67.1528C117.77 68.7015 118.004 70.0624 118.879 71.0795C119.753 72.0966 123.645 86.6056 123.762 87.286C123.879 87.9665 118.387 90.3122 117.159 88.4217C115.932 86.5312 112.072 55.9043 112.072 55.9043Z" fill="#2F2E41"/>
<path d="M97.7585 40.628C98.0758 40.5433 98.1224 40.1217 98.133 39.7932C98.19 38.0342 99.2484 36.2293 100.931 35.7172C101.576 35.5401 102.252 35.5028 102.914 35.608C103.857 35.7338 104.768 36.0381 105.599 36.5045C106.037 36.7511 106.467 37.048 106.964 37.1233C107.292 37.173 108.713 37.5866 109.04 37.6448C109.759 37.7728 110.427 38.4162 111.116 38.1768C111.776 37.9477 111.922 37.0928 111.938 36.3941C111.974 34.8024 110.767 32.5994 109.703 31.4152C108.896 30.5166 107.681 30.1018 106.493 29.8861C105.106 29.663 103.699 29.5774 102.295 29.6305C100.394 29.6644 98.44 29.8113 96.7258 30.6345C95.0116 31.4577 93.5717 33.0961 93.4895 34.9971C93.4724 35.3931 93.5132 35.7908 93.4799 36.1858C93.3988 37.1493 92.8875 38.0196 92.6477 38.9563C92.4762 39.6436 92.4506 40.3592 92.5724 41.0571C92.6943 41.7549 92.9609 42.4194 93.3551 43.0077C93.9913 43.9447 94.9912 44.7922 94.9545 45.9244L96.3339 44.4941C96.54 44.3367 96.6858 44.1133 96.7471 43.8612C96.8085 43.6091 96.7815 43.3436 96.6708 43.109L96.1826 41.203C96.057 40.8627 96.0423 40.4915 96.1403 40.1423C96.6637 38.8478 97.2295 40.7694 97.7585 40.628Z" fill="#2F2E41"/>
<path d="M174.722 73.9535C171.035 68.4838 169.435 61.8765 170.21 55.3298C170.986 48.7832 174.086 42.7306 178.949 38.2698C183.812 33.809 190.116 31.2352 196.717 31.0154C203.318 30.7955 209.78 32.944 214.93 37.0712C220.081 41.1985 223.578 47.0313 224.789 53.5118C226.001 59.9923 224.845 66.6914 221.532 72.3943C218.218 78.0972 212.967 82.4262 206.73 84.5964C200.494 86.7665 193.684 86.634 187.537 84.223C187.138 85.6428 186.393 86.9417 185.368 88.0036C184.344 89.0655 183.071 89.8572 181.664 90.3078C180.258 90.7584 178.761 90.8538 177.308 90.5855C175.856 90.3172 174.493 89.6936 173.341 88.7705C172.189 87.8473 171.284 86.6535 170.708 85.2959C170.132 83.9383 169.902 82.4592 170.038 80.9911C170.175 79.523 170.675 78.1117 171.492 76.8836C172.31 75.6554 173.419 74.6487 174.722 73.9535Z" fill="#F86D70"/>
<path d="M181.24 55.6426L214.094 55.6426V53.0538L181.24 53.0538V55.6426Z" fill="white"/>
<path d="M181.24 59.958L214.094 59.958V57.3692L181.24 57.3692V59.958Z" fill="white"/>
<path d="M181.24 64.2725H214.094V61.6836L181.24 61.6836V64.2725Z" fill="white"/>
<path d="M50.5357 116.954C54.2224 111.484 55.8232 104.877 55.0477 98.3298C54.2722 91.7832 51.1718 85.7306 46.3087 81.2698C41.4456 76.809 35.1419 74.2352 28.5407 74.0154C21.9394 73.7955 15.4778 75.944 10.3275 80.0713C5.17726 84.1985 1.67943 90.0313 0.468333 96.5118C-0.74276 102.992 0.413078 109.691 3.72624 115.394C7.03941 121.097 12.2905 125.426 18.5273 127.596C24.7641 129.767 31.5736 129.634 37.7209 127.223C38.1194 128.643 38.8645 129.942 39.8893 131.004C40.9142 132.066 42.1869 132.857 43.5935 133.308C45.0001 133.758 46.4967 133.854 47.9493 133.585C49.4019 133.317 50.7652 132.694 51.9171 131.77C53.0691 130.847 53.9736 129.654 54.5499 128.296C55.1262 126.938 55.3562 125.459 55.2193 123.991C55.0825 122.523 54.583 121.112 53.7656 119.884C52.9482 118.655 51.8384 117.649 50.5357 116.954Z" fill="#F86D70"/>
<path d="M44.018 96.0537H11.1633V98.6425H44.018V96.0537Z" fill="white"/>
<path d="M44.018 100.368H11.1633V102.957H44.018V100.368Z" fill="white"/>
<path d="M44.018 104.684H11.1633V107.272H44.018V104.684Z" fill="white"/>
</svg>
