<?xml version="1.0" encoding="UTF-8"?><svg width="64" height="64" version="1.1" viewBox="0 0 64 64" xmlns="http://www.w3.org/2000/svg" xmlns:xlink="http://www.w3.org/1999/xlink"><!--Generated by IJSVG (https://github.com/iconjar/IJSVG)--><g transform="scale(2.66667)"><path fill="none" stroke="#6549AA" stroke-linecap="round" stroke-linejoin="round" stroke-width="1" d="M8.5,11.5l1.06581e-14,1.50996e-07c8.33927e-08,0.552285 0.447715,1 1,1h2v3.5l3.5,-3.5h7.5l-4.37114e-08,-1.77636e-15c0.552285,2.41411e-08 1,-0.447715 1,-1v-10v0c0,-0.552285 -0.447715,-1 -1,-1h-13l-4.37114e-08,9.99201e-16c-0.552285,2.41411e-08 -1,0.447715 -1,1c0,2.22045e-16 0,6.66134e-16 0,6.66134e-16Z"></path><path fill="none" stroke="#6549AA" stroke-linecap="round" stroke-linejoin="round" stroke-width="1" d="M5.09099,8.65901c0.87868,0.87868 0.87868,2.3033 0,3.18198c-0.87868,0.87868 -2.3033,0.87868 -3.18198,0c-0.87868,-0.87868 -0.87868,-2.3033 -4.44089e-16,-3.18198c0.87868,-0.87868 2.3033,-0.87868 3.18198,0"></path><path fill="none" stroke="#6549AA" stroke-linecap="round" stroke-linejoin="round" stroke-width="1" d="M3.5,13.5l-1.31134e-07,3.55271e-15c-1.65685,7.24234e-08 -3,1.34315 -3,3c0,0 0,3.55271e-15 0,3.55271e-15v2h1.5l0.5,5h2l0.5,-5h1.5v-2l2.66454e-15,-1.31134e-07c0,-1.65685 -1.34315,-3 -3,-3c-4.06383e-08,0 -9.04959e-08,1.77636e-15 -1.31134e-07,3.55271e-15Z"></path><path fill="none" stroke="#6549AA" stroke-linecap="round" stroke-linejoin="round" stroke-width="1" d="M16.5,9.5h-1.09278e-08c0.138071,-6.03528e-09 0.25,0.111929 0.25,0.25c6.03528e-09,0.138071 -0.111929,0.25 -0.25,0.25c-0.138071,6.03528e-09 -0.25,-0.111929 -0.25,-0.25l3.55271e-15,3.7749e-08c-2.08482e-08,-0.138071 0.111929,-0.25 0.25,-0.25"></path><path fill="none" stroke="#6549AA" stroke-linecap="round" stroke-linejoin="round" stroke-width="1" d="M15,5l1.77636e-14,2.26494e-07c-1.25089e-07,-0.828427 0.671573,-1.5 1.5,-1.5c0.828427,-1.25089e-07 1.5,0.671573 1.5,1.5c1.25089e-07,0.828427 -0.671573,1.5 -1.5,1.5v1"></path></g></svg>