<?xml version="1.0" encoding="UTF-8"?><svg width="56" height="56" version="1.1" viewBox="0 0 56 56" xmlns="http://www.w3.org/2000/svg" xmlns:xlink="http://www.w3.org/1999/xlink"><!--Generated by IJSVG (https://github.com/iconjar/IJSVG)--><g transform="scale(2.33333)"><path fill="none" stroke="#000" stroke-linecap="round" stroke-linejoin="round" stroke-width="1" d="M0.5,12.5h2l-3.85924e-07,2.18214e-08c4.23362,-0.239382 7.53397,-3.75975 7.5,-8c0,-1.581 3,-1.781 3,1.219l-5.51573e-07,7.02985e-06c-0.153302,1.95385 -0.488079,3.88919 -1,5.781h8l-6.55671e-08,1.77636e-15c0.828427,-3.62117e-08 1.5,0.671573 1.5,1.5c3.62117e-08,0.828427 -0.671573,1.5 -1.5,1.5h-0.999998l-6.55671e-08,1.77636e-15c0.828427,-3.62117e-08 1.5,0.671573 1.5,1.5c3.62117e-08,0.828427 -0.671573,1.5 -1.5,1.5h-1"></path><path fill="none" stroke="#000" stroke-linecap="round" stroke-linejoin="round" stroke-width="1" d="M18,17.5v0h-6.55671e-08c0.828427,-3.62117e-08 1.5,0.671573 1.5,1.5c3.62117e-08,0.828427 -0.671573,1.5 -1.5,1.5h-1h-6.55671e-08c0.828427,-3.62117e-08 1.5,0.671573 1.5,1.5c3.62117e-08,0.828427 -0.671573,1.5 -1.5,1.5h-6.5c-4,0 -2,-2 -10,-2"></path><path fill="none" stroke="#000" stroke-linecap="round" stroke-linejoin="round" stroke-width="1" d="M3.5,7.5v-2"></path><path fill="none" stroke="#000" stroke-linecap="round" stroke-linejoin="round" stroke-width="1" d="M2.5,6.5h2"></path><path fill="none" stroke="#000" stroke-linecap="round" stroke-linejoin="round" stroke-width="1" d="M7.5,2.5v-2"></path><path fill="none" stroke="#000" stroke-linecap="round" stroke-linejoin="round" stroke-width="1" d="M6.5,1.5h2"></path><path fill="none" stroke="#000" stroke-linecap="round" stroke-linejoin="round" stroke-width="1" d="M17.5,4.5v-2"></path><path fill="none" stroke="#000" stroke-linecap="round" stroke-linejoin="round" stroke-width="1" d="M16.5,3.5h2"></path><path fill="none" stroke="#000" stroke-linecap="round" stroke-linejoin="round" stroke-width="1" d="M22.5,9.5v-2"></path><path fill="none" stroke="#000" stroke-linecap="round" stroke-linejoin="round" stroke-width="1" d="M21.5,8.5h2"></path></g></svg>