<?xml version="1.0" encoding="UTF-8"?><svg width="56" height="56" version="1.1" viewBox="0 0 56 56" xmlns="http://www.w3.org/2000/svg" xmlns:xlink="http://www.w3.org/1999/xlink"><!--Generated by IJSVG (https://github.com/iconjar/IJSVG)--><g transform="scale(2.33333)"><path fill="none" stroke="#000" stroke-linecap="round" stroke-linejoin="round" stroke-width="1" d="M21.7426,2.25736c2.34315,2.34315 2.34315,6.14214 0,8.48528c-2.34315,2.34315 -6.14214,2.34315 -8.48528,1.77636e-15c-2.34315,-2.34315 -2.34315,-6.14214 -1.77636e-15,-8.48528c2.34315,-2.34315 6.14214,-2.34315 8.48528,0"></path><path fill="none" stroke="#000" stroke-linecap="round" stroke-linejoin="round" stroke-width="1" d="M15.625,5.042l2.13163e-14,2.83117e-07c-1.56361e-07,-1.03553 0.839466,-1.875 1.875,-1.875c1.03553,-1.56361e-07 1.875,0.839466 1.875,1.875c1.56361e-07,1.03553 -0.839466,1.875 -1.875,1.875v1"></path><path fill="none" stroke="#000" stroke-linecap="round" stroke-linejoin="round" stroke-width="1" d="M17.5,9.917h-1.09278e-08c0.138071,-6.03528e-09 0.25,0.111929 0.25,0.25c6.03528e-09,0.138071 -0.111929,0.25 -0.25,0.25c-0.138071,6.03528e-09 -0.25,-0.111929 -0.25,-0.25l3.55271e-15,3.7749e-08c-2.08482e-08,-0.138071 0.111929,-0.25 0.25,-0.25"></path><path fill="none" stroke="#000" stroke-linecap="round" stroke-linejoin="round" stroke-width="1" d="M7.5,23.5l0.5,-6h2.5v-3.5v0c0,-2.76142 -2.23858,-5 -5,-5c-2.76142,0 -5,2.23858 -5,5v3.5h2.5l0.5,6Z"></path><path fill="none" stroke="#000" stroke-linecap="round" stroke-linejoin="round" stroke-width="1" d="M7.97487,1.52513c1.36684,1.36684 1.36684,3.58291 0,4.94975c-1.36684,1.36684 -3.58291,1.36684 -4.94975,8.88178e-16c-1.36684,-1.36684 -1.36684,-3.58291 -8.88178e-16,-4.94975c1.36684,-1.36684 3.58291,-1.36684 4.94975,-8.88178e-16"></path></g></svg>