<?xml version="1.0" encoding="UTF-8"?>
<svg width="48px" height="48px" viewBox="0 0 48 48" version="1.1" xmlns="http://www.w3.org/2000/svg" xmlns:xlink="http://www.w3.org/1999/xlink">
    <!-- Generator: Sketch 63.1 (92452) - https://sketch.com -->
    <title>chat</title>
    <desc>Created with Sketch.</desc>
    <g id="chat" stroke="none" stroke-width="1" fill="none" fill-rule="evenodd">
        <g id="Group" transform="translate(-0.000000, 0.000000)" fill="#000000" fill-rule="nonzero">
            <g id="Group-2" transform="translate(0.000000, -0.000000)">
                <path d="M41.1842877,31.373617 C41.7257618,31.373617 42.1647133,31.8125685 42.1647133,32.3540426 C42.1647133,32.8353528 41.8178874,33.2356576 41.3605205,33.3186721 L41.1842877,33.3344681 L26.4779048,33.3344681 C25.9364307,33.3344681 25.4974792,32.8955166 25.4974792,32.3540426 C25.4974792,31.8727323 25.8443051,31.4724275 26.301672,31.389413 L26.4779048,31.373617 L41.1842877,31.373617 Z" id="Path"></path>
                <path d="M36.2821601,35.2953191 C36.8236342,35.2953191 37.2625856,35.7342706 37.2625856,36.2757447 C37.2625856,36.757055 36.9157598,37.1573597 36.4583928,37.2403742 L36.2821601,37.2561702 L26.4779048,37.2561702 C25.9364307,37.2561702 25.4974792,36.8172188 25.4974792,36.2757447 C25.4974792,35.7944344 25.8443051,35.3941296 26.301672,35.3111151 L26.4779048,35.2953191 L36.2821601,35.2953191 Z" id="Path"></path>
                <path d="M37.2245295,14.7071218 C34.6603873,14.6045607 32.0971113,15.6084642 30.2287614,17.4768141 C28.3604115,19.345164 27.356508,21.9084399 27.4590692,24.5486944 C27.4795123,25.0749651 27.9120883,25.4910638 28.4387558,25.4910638 L46.0864154,25.4910638 C46.613083,25.4910638 47.045659,25.0749651 47.0661021,24.5486944 C47.1686632,21.9084399 46.1647597,19.345164 44.2964098,17.4768141 C42.42806,15.6084642 39.864784,14.6045607 37.2245295,14.7071218 Z M37.2245295,16.6664952 C39.394825,16.5851462 41.4279508,17.3814172 42.9098788,18.8633452 L43.21687,19.1891592 C44.2047254,20.3021377 44.8357601,21.6784772 45.0400167,23.1395553 L45.0824597,23.5302128 L29.4407507,23.5302128 L29.4851545,23.1395553 C29.7098368,21.5323694 30.4509205,20.0277171 31.6152925,18.8633452 C33.0972205,17.3814172 35.1303463,16.5851462 37.2245295,16.6664952 Z" id="Path"></path>
                <path d="M37.2625856,0 C33.4722671,0 30.3996069,3.07266024 30.3996069,6.86297872 C30.3996069,10.6532972 33.4722671,13.7259574 37.2625856,13.7259574 C41.0529041,13.7259574 44.1255643,10.6532972 44.1255643,6.86297872 C44.1255643,3.07266024 41.0529041,0 37.2625856,0 Z M37.2625856,1.96085106 C39.969956,1.96085106 42.1647133,4.15560838 42.1647133,6.86297872 C42.1647133,9.57034907 39.969956,11.7651064 37.2625856,11.7651064 C34.5552153,11.7651064 32.360458,9.57034907 32.360458,6.86297872 C32.360458,4.15560838 34.5552153,1.96085106 37.2625856,1.96085106 Z" id="Oval"></path>
                <path d="M32.6681976,1.83546411 C33.1554649,1.59931847 33.7419069,1.8028928 33.9780526,2.29016008 C35.043179,4.48796164 37.2710074,5.88340738 39.7236611,5.88260431 C40.7361161,5.89294361 41.7351944,5.65086595 42.6306272,5.17824357 C43.1094914,4.92549214 43.702583,5.10879273 43.9553344,5.58765689 C44.2080858,6.06652105 44.0247852,6.65961267 43.5459211,6.91236409 C42.3623824,7.53705289 41.0418504,7.85701911 39.7139923,7.8434042 C36.5199852,7.84452121 33.6064601,6.01957541 32.2135016,3.14531907 C31.977356,2.65805178 32.1809303,2.07160974 32.6681976,1.83546411 Z" id="Path"></path>
                <path d="M9.77261462,36.2764836 C7.20847236,36.1739224 4.64519638,37.1778259 2.77684651,39.0461758 C0.908496643,40.9145257 -0.0954068804,43.4778016 0.00715427853,46.1180561 C0.0275973567,46.6443268 0.460173374,47.0604255 0.986840941,47.0604255 L18.6345005,47.0604255 C19.1611681,47.0604255 19.5937441,46.6443268 19.6141872,46.1180561 C19.7167483,43.4778016 18.7128448,40.9145257 16.8444949,39.0461758 C14.9761451,37.1778259 12.4128691,36.1739224 9.77261462,36.2764836 Z M9.77261462,38.2358569 C11.9429101,38.154508 13.9760359,38.9507789 15.4579639,40.4327069 L15.7649551,40.7585209 C16.7528106,41.8714994 17.3838452,43.2478389 17.5881018,44.708917 L17.6305448,45.0995745 L1.98883583,45.0995745 L2.03323963,44.708917 C2.25792191,43.1017311 2.99900562,41.5970788 4.1633776,40.4327069 C5.64530557,38.9507789 7.6784314,38.154508 9.77261462,38.2358569 Z" id="Path"></path>
                <path d="M9.81067073,21.5693617 C6.02035224,21.5693617 2.947692,24.6420219 2.947692,28.4323404 C2.947692,32.2226589 6.02035224,35.2953191 9.81067073,35.2953191 C13.6009892,35.2953191 16.6736495,32.2226589 16.6736495,28.4323404 C16.6736495,24.6420219 13.6009892,21.5693617 9.81067073,21.5693617 Z M9.81067073,23.5302128 C12.5180411,23.5302128 14.7127984,25.7249701 14.7127984,28.4323404 C14.7127984,31.1397108 12.5180411,33.3344681 9.81067073,33.3344681 C7.10330038,33.3344681 4.90854307,31.1397108 4.90854307,28.4323404 C4.90854307,25.7249701 7.10330038,23.5302128 9.81067073,23.5302128 Z" id="Oval"></path>
                <path d="M5.25703352,23.359064 C5.74574952,23.1259313 6.33092348,23.3331225 6.56405614,23.8218385 C7.62213724,26.039894 9.8609751,27.4522264 12.3293629,27.451974 C13.3243988,27.4628987 14.3070719,27.2308626 15.192122,26.7759978 C15.6737156,26.5284865 16.2647718,26.7182476 16.5122831,27.1998411 C16.7597945,27.6814346 16.5700333,28.2724909 16.0884398,28.5200022 C14.9196289,29.1207037 13.6218954,29.4271343 12.3187235,29.4127659 C9.10530246,29.4131733 6.17780332,27.5664107 4.79425894,24.6660866 C4.56112628,24.1773706 4.76831751,23.5921966 5.25703352,23.359064 Z" id="Path"></path>
                <path d="M44.1255643,27.4519149 L24.5170537,27.4519149 C22.8926315,27.4519149 21.5757771,28.7687693 21.5757771,30.3931915 L21.5757771,40.1974468 L21.5892414,40.4807114 C21.7317654,41.9722365 22.9881857,43.1387234 24.5170537,43.1387234 L26.4779048,43.1387234 L26.4779048,46.08 L26.4902107,46.2393719 C26.6033242,46.9587189 27.471647,47.3249039 28.0707973,46.8455837 L32.7036069,43.1387234 L44.1255643,43.1387234 C45.7499866,43.1387234 47.0668409,41.821869 47.0668409,40.1974468 L47.0668409,30.3931915 C47.0668409,28.7687693 45.7499866,27.4519149 44.1255643,27.4519149 Z M24.5170537,29.412766 L44.1255643,29.412766 C44.6670384,29.412766 45.1059899,29.8517174 45.1059899,30.3931915 L45.1059899,40.1974468 C45.1059899,40.7389209 44.6670384,41.1778723 44.1255643,41.1778723 L32.360458,41.1778723 L32.1952859,41.1918841 C32.032467,41.219713 31.8783727,41.2884088 31.747991,41.3927142 L28.4387558,44.038754 L28.4387558,42.1582979 C28.4387558,41.6168238 27.9998044,41.1778723 27.4583303,41.1778723 L24.5170537,41.1778723 C23.9755796,41.1778723 23.5366282,40.7389209 23.5366282,40.1974468 L23.5366282,30.3931915 C23.5366282,29.8517174 23.9755796,29.412766 24.5170537,29.412766 Z" id="Path"></path>
                <path d="M19.614926,3.92170213 C20.1564001,3.92170213 20.5953516,4.36065359 20.5953516,4.90212766 C20.5953516,5.38343794 20.2485257,5.78374271 19.7911588,5.86675722 L19.614926,5.88255319 L4.90854307,5.88255319 C4.367069,5.88255319 3.92811754,5.44360173 3.92811754,4.90212766 C3.92811754,4.42081738 4.27494338,4.02051261 4.73231034,3.9374981 L4.90854307,3.92170213 L19.614926,3.92170213 Z" id="Path"></path>
                <path d="M14.7127984,7.84340426 C15.2542725,7.84340426 15.6932239,8.28235572 15.6932239,8.82382979 C15.6932239,9.30514007 15.3463981,9.70544484 14.8890311,9.78845935 L14.7127984,9.80425532 L4.90854307,9.80425532 C4.367069,9.80425532 3.92811754,9.36530386 3.92811754,8.82382979 C3.92811754,8.3425195 4.27494338,7.94221474 4.73231034,7.85920022 L4.90854307,7.84340426 L14.7127984,7.84340426 Z" id="Path"></path>
                <path d="M22.5562026,6.44386672e-14 L2.947692,6.44386672e-14 C1.3232698,6.44386672e-14 0.00641540905,1.31685439 0.00641540905,2.9412766 L0.00641540905,12.7455319 L0.0198797459,13.0287965 C0.162403703,14.5203216 1.41882404,15.6868085 2.947692,15.6868085 L14.3069022,15.6868085 L18.9216605,20.3017762 L19.0505901,20.4114188 C19.6754082,20.8591475 20.5953516,20.4237454 20.5953516,19.6085106 L20.5953516,15.6868085 L22.5562026,15.6868085 C24.1806249,15.6868085 25.4974792,14.3699541 25.4974792,12.7455319 L25.4974792,2.9412766 C25.4974792,1.31685439 24.1806249,6.44386672e-14 22.5562026,6.44386672e-14 Z M2.947692,1.96085106 L22.5562026,1.96085106 C23.0976767,1.96085106 23.5366282,2.39980253 23.5366282,2.9412766 L23.5366282,12.7455319 C23.5366282,13.287006 23.0976767,13.7259574 22.5562026,13.7259574 L19.614926,13.7259574 L19.4386933,13.7417534 C18.9813264,13.8247679 18.6345005,14.2250727 18.6345005,14.706383 L18.6345005,17.2417634 L15.4060639,14.0131174 C15.2221985,13.829252 14.9728234,13.7259574 14.7127984,13.7259574 L2.947692,13.7259574 C2.40621794,13.7259574 1.96726647,13.287006 1.96726647,12.7455319 L1.96726647,2.9412766 C1.96726647,2.39980253 2.40621794,1.96085106 2.947692,1.96085106 Z" id="Path"></path>
            </g>
        </g>
    </g>
</svg>