<?xml version="1.0" encoding="UTF-8"?><svg width="64" height="64" version="1.1" viewBox="0 0 64 64" xmlns="http://www.w3.org/2000/svg" xmlns:xlink="http://www.w3.org/1999/xlink"><!--Generated by IJSVG (https://github.com/iconjar/IJSVG)--><g transform="scale(2.66667)"><path fill="none" stroke="#6549AA" stroke-linecap="round" stroke-linejoin="round" stroke-width="1" d="M9.425,19.575l-1.925,1.925v-4h-6h-4.37114e-08c-0.552285,-2.41411e-08 -1,-0.447715 -1,-1c0,0 0,-3.55271e-15 0,-3.55271e-15v-15l1.06581e-14,1.50996e-07c-8.33927e-08,-0.552285 0.447715,-1 1,-1h18l-4.37114e-08,9.99201e-16c0.552285,-2.41411e-08 1,0.447715 1,1v7"></path><path fill="none" stroke="#6549AA" stroke-linecap="round" stroke-linejoin="round" stroke-width="1" d="M11.5,18.5l1.06581e-14,1.50996e-07c8.33927e-08,0.552285 0.447715,1 1,1h4l4,4v-4h2h-4.37114e-08c0.552285,2.41411e-08 1,-0.447715 1,-1v-7v0c0,-0.552285 -0.447715,-1 -1,-1h-10l-4.37114e-08,1.77636e-15c-0.552285,2.41411e-08 -1,0.447715 -1,1c0,0 0,0 0,0Z"></path><path fill="none" stroke="#6549AA" stroke-linecap="round" stroke-linejoin="round" stroke-width="1" d="M14.5,14.75h-1.09278e-08c0.138071,-6.03528e-09 0.25,0.111929 0.25,0.25c6.03528e-09,0.138071 -0.111929,0.25 -0.25,0.25c-0.138071,6.03528e-09 -0.25,-0.111929 -0.25,-0.25l3.55271e-15,3.7749e-08c-2.08482e-08,-0.138071 0.111929,-0.25 0.25,-0.25"></path><path fill="none" stroke="#6549AA" stroke-linecap="round" stroke-linejoin="round" stroke-width="1" d="M17.5,14.75h-1.09278e-08c0.138071,-6.03528e-09 0.25,0.111929 0.25,0.25c6.03528e-09,0.138071 -0.111929,0.25 -0.25,0.25c-0.138071,6.03528e-09 -0.25,-0.111929 -0.25,-0.25l3.55271e-15,3.7749e-08c-2.08482e-08,-0.138071 0.111929,-0.25 0.25,-0.25"></path><path fill="none" stroke="#6549AA" stroke-linecap="round" stroke-linejoin="round" stroke-width="1" d="M20.5,14.75h-1.09278e-08c0.138071,-6.03528e-09 0.25,0.111929 0.25,0.25c6.03528e-09,0.138071 -0.111929,0.25 -0.25,0.25c-0.138071,6.03528e-09 -0.25,-0.111929 -0.25,-0.25l3.55271e-15,3.7749e-08c-2.08482e-08,-0.138071 0.111929,-0.25 0.25,-0.25"></path><path fill="none" stroke="#6549AA" stroke-linecap="round" stroke-linejoin="round" stroke-width="1" d="M7.5,4.5v2"></path><path fill="none" stroke="#6549AA" stroke-linecap="round" stroke-linejoin="round" stroke-width="1" d="M13.5,4.5v2"></path><path fill="none" stroke="#6549AA" stroke-linecap="round" stroke-linejoin="round" stroke-width="1" d="M9.473,13.5l-1.62803e-07,-2.81003e-08c-1.2188,-0.210369 -2.34239,-0.793476 -3.216,-1.669"></path></g></svg>