<svg width="32" height="32" viewBox="0 0 32 32" fill="none" xmlns="http://www.w3.org/2000/svg">
<path fill-rule="evenodd" clip-rule="evenodd" d="M16 0C24.8366 0 32 7.16344 32 16C32 24.8366 24.8366 32 16 32C7.16344 32 0 24.8366 0 16C0 7.16344 7.16344 0 16 0ZM16 1.33333C7.89982 1.33333 1.33333 7.89982 1.33333 16C1.33333 24.1002 7.89982 30.6667 16 30.6667C24.1002 30.6667 30.6667 24.1002 30.6667 16C30.6667 7.89982 24.1002 1.33333 16 1.33333ZM21.7006 10.7292C21.9778 10.4214 22.452 10.3966 22.7598 10.6737C23.0676 10.9509 23.0925 11.4251 22.8153 11.7329L13.8707 21.667C13.7671 21.782 13.636 21.8575 13.4964 21.8925C13.2287 21.9705 12.9279 21.8954 12.7288 21.6743L9.19569 17.7503C8.91853 17.4425 8.94338 16.9683 9.2512 16.6911C9.55902 16.4139 10.0332 16.4388 10.3104 16.7466L13.2965 20.063L21.7006 10.7292Z" fill="#653CAD"/>
</svg>
