<?xml version="1.0" encoding="UTF-8"?><svg width="64" height="64" version="1.1" viewBox="0 0 64 64" xmlns="http://www.w3.org/2000/svg" xmlns:xlink="http://www.w3.org/1999/xlink"><!--Generated by IJSVG (https://github.com/iconjar/IJSVG)--><g transform="scale(2.66667)"><path fill="none" stroke="#6549AA" stroke-linecap="round" stroke-linejoin="round" stroke-width="1" d="M6.542,8.5l1.24345e-14,1.50996e-07c8.33927e-08,0.552285 0.447715,1 1,1h1l3,3v-3h7l-4.37114e-08,-1.77636e-15c0.552285,2.41411e-08 1,-0.447715 1,-1v-7v0c0,-0.552285 -0.447715,-1 -1,-1h-11l-4.37114e-08,9.99201e-16c-0.552285,2.41411e-08 -1,0.447715 -1,1c0,2.22045e-16 0,6.66134e-16 0,6.66134e-16Z"></path><path fill="none" stroke="#6549AA" stroke-linecap="round" stroke-linejoin="round" stroke-width="1" d="M6.63299,12.159c0.87868,0.87868 0.87868,2.3033 0,3.18198c-0.87868,0.87868 -2.3033,0.87868 -3.18198,0c-0.87868,-0.87868 -0.87868,-2.3033 -4.44089e-16,-3.18198c0.87868,-0.87868 2.3033,-0.87868 3.18198,0"></path><path fill="none" stroke="#6549AA" stroke-linecap="round" stroke-linejoin="round" stroke-width="1" d="M8.21,18.27l-1.00922e-10,-9.51985e-11c-1.86092,-1.75535 -4.79249,-1.66977 -6.54785,0.19115c-0.540743,0.573264 -0.926286,1.27501 -1.12015,2.03885h6"></path><path fill="none" stroke="#6549AA" stroke-linecap="round" stroke-linejoin="round" stroke-width="1" d="M20.633,12.159c0.87868,0.87868 0.87868,2.3033 0,3.18198c-0.87868,0.87868 -2.3033,0.87868 -3.18198,0c-0.87868,-0.87868 -0.87868,-2.3033 0,-3.18198c0.87868,-0.87868 2.3033,-0.87868 3.18198,0"></path><path fill="none" stroke="#6549AA" stroke-linecap="round" stroke-linejoin="round" stroke-width="1" d="M15.873,18.27l3.84373e-08,-3.62475e-08c1.86155,-1.7555 4.79374,-1.66952 6.54924,0.192027c0.540436,0.573085 0.925829,1.2745 1.11976,2.03797h-6"></path><path fill="none" stroke="#6549AA" stroke-linecap="round" stroke-linejoin="round" stroke-width="1" d="M13.633,15.159c0.87868,0.87868 0.87868,2.3033 0,3.18198c-0.87868,0.87868 -2.3033,0.87868 -3.18198,0c-0.87868,-0.87868 -0.87868,-2.3033 0,-3.18198c0.87868,-0.87868 2.3033,-0.87868 3.18198,0"></path><path fill="none" stroke="#6549AA" stroke-linecap="round" stroke-linejoin="round" stroke-width="1" d="M16.542,23.5l-6.44701e-08,-2.52826e-07c-0.633742,-2.48528 -3.16221,-3.98625 -5.64749,-3.35251c-1.64674,0.419915 -2.93259,1.70577 -3.35251,3.35251Z"></path><path fill="none" stroke="#6549AA" stroke-linecap="round" stroke-linejoin="round" stroke-width="1" d="M15.542,3l2,2l-2,2"></path><path fill="none" stroke="#6549AA" stroke-linecap="round" stroke-linejoin="round" stroke-width="1" d="M10.542,3l-2,2l2,2"></path><path fill="none" stroke="#6549AA" stroke-linecap="round" stroke-linejoin="round" stroke-width="1" d="M14.04,3l-2,4"></path></g></svg>