<?xml version="1.0" encoding="UTF-8"?><svg width="64" height="64" version="1.1" viewBox="0 0 64 64" xmlns="http://www.w3.org/2000/svg" xmlns:xlink="http://www.w3.org/1999/xlink"><!--Generated by IJSVG (https://github.com/iconjar/IJSVG)--><g transform="scale(2.66667)"><path fill="none" stroke="#6549AA" stroke-linecap="round" stroke-linejoin="round" stroke-width="1" d="M3.5,22.5l-2.014,-2.517l-2.28622e-07,-2.85797e-07c-0.638481,-0.798154 -0.986224,-1.78989 -0.986,-2.812v-5.171l1.70974e-14,2.26494e-07c-1.25089e-07,-0.828427 0.671573,-1.5 1.5,-1.5h2.26494e-07l-6.55671e-08,1.77636e-15c0.828427,-3.62117e-08 1.5,0.671573 1.5,1.5v3.75"></path><path fill="none" stroke="#6549AA" stroke-linecap="round" stroke-linejoin="round" stroke-width="1" d="M8,22.5v-3.136l2.35151e-08,-2.56618e-05c0.000812927,-0.889912 -0.262662,-1.76002 -0.757014,-2.5l-1.14299,-1.70998l2.84086e-08,4.73718e-08c-0.397659,-0.663102 -1.25757,-0.878285 -1.92068,-0.480627c-0.0190546,0.0114269 -0.0378344,0.0233058 -0.0563235,0.0356266v0l-5.40915e-08,3.60913e-08c-0.587265,0.391839 -0.790894,1.15963 -0.475,1.791l1.352,2.25"></path><path fill="none" stroke="#6549AA" stroke-linecap="round" stroke-linejoin="round" stroke-width="1" d="M20.5,22.5l2.014,-2.517l-1.71246e-08,2.14071e-08c0.638481,-0.798154 0.986224,-1.78989 0.986,-2.812v-5.171v0c0,-0.828427 -0.671573,-1.5 -1.5,-1.5c0,0 -6.00053e-12,0 -6.00053e-12,0v0l-6.55671e-08,1.77636e-15c-0.828427,3.62117e-08 -1.5,0.671573 -1.5,1.5c0,0 0,1.77636e-15 0,1.77636e-15v3.75"></path><path fill="none" stroke="#6549AA" stroke-linecap="round" stroke-linejoin="round" stroke-width="1" d="M16,22.5v-3.136l-2.33431e-08,-2.54735e-05c-0.000812964,-0.889912 0.262662,-1.76002 0.757014,-2.5l1.14299,-1.70998l3.73953e-08,-6.23571e-08c0.397659,-0.663102 1.25757,-0.878285 1.92068,-0.480627c0.0190546,0.0114269 0.0378344,0.0233058 0.0563235,0.0356266v0l-4.98073e-08,-3.31865e-08c0.587625,0.391533 0.791701,1.15939 0.476,1.791l-1.353,2.25"></path><path fill="none" stroke="#6549AA" stroke-linecap="round" stroke-linejoin="round" stroke-width="1" d="M16.5,2l4,4l-4,4"></path><path fill="none" stroke="#6549AA" stroke-linecap="round" stroke-linejoin="round" stroke-width="1" d="M8.5,2l-4,4l4,4"></path><path fill="none" stroke="#6549AA" stroke-linecap="round" stroke-linejoin="round" stroke-width="1" d="M13.5,1.5l-2,9"></path></g></svg>