<?xml version="1.0" encoding="UTF-8"?>
<svg width="56px" height="56px" viewBox="0 0 56 56" version="1.1" xmlns="http://www.w3.org/2000/svg" xmlns:xlink="http://www.w3.org/1999/xlink">
    <!-- Generator: Sketch 63.1 (92452) - https://sketch.com -->
    <title>Group 7</title>
    <desc>Created with Sketch.</desc>
    <g id="Page-1" stroke="none" stroke-width="1" fill="none" fill-rule="evenodd">
        <g id="3" transform="translate(-984.000000, -774.000000)" fill="#7B4DBE" fill-rule="nonzero">
            <g id="Group-2" transform="translate(960.000000, 750.000000)">
                <g id="Group-7" transform="translate(24.000000, 24.000000)">
                    <path d="M31.7208965,14.3772298 L14.0785631,32.0195631 C13.8107708,32.2873555 13.6370765,32.6347932 13.5835604,33.0097086 L12.3468937,41.6733753 C12.182025,42.8283895 13.172183,43.8182487 14.3271474,43.6530316 L22.9884807,42.4140316 C23.3632011,42.360428 23.7104389,42.1867682 23.9781035,41.9191035 L41.6204369,24.2767702 C44.3541195,21.5430876 44.3541195,17.1109124 41.6204369,14.3772298 C38.8867543,11.6435472 34.4545791,11.6435472 31.7208965,14.3772298 Z M39.3858293,17.1179249 C40.5070715,18.4926459 40.4269827,20.5204769 39.1455631,21.8018965 L21.9146667,39.0296667 L16.1396667,39.8556667 L16.9656667,34.0806667 L34.1957702,16.8521035 C35.5626178,15.485256 37.7787156,15.485256 39.1455631,16.8521035 L39.3858293,17.1179249 Z" id="Path"></path>
                    <path d="M28,0 C12.536027,0 0,12.536027 0,28 C0,43.463973 12.536027,56 28,56 C43.463973,56 56,43.463973 56,28 C56,12.536027 43.463973,0 28,0 Z M28,3.5 C41.5309764,3.5 52.5,14.4690236 52.5,28 C52.5,41.5309764 41.5309764,52.5 28,52.5 C14.4690236,52.5 3.5,41.5309764 3.5,28 C3.5,14.4690236 14.4690236,3.5 28,3.5 Z" id="Oval"></path>
                </g>
            </g>
        </g>
    </g>
</svg>