<?xml version="1.0" encoding="UTF-8"?>
<svg width="24px" height="24px" viewBox="0 0 24 24" version="1.1" xmlns="http://www.w3.org/2000/svg" xmlns:xlink="http://www.w3.org/1999/xlink">
    <!-- Generator: Sketch 63.1 (92452) - https://sketch.com -->
    <title>download</title>
    <desc>Created with Sketch.</desc>
    <defs>
        <path d="M19.586,-8.22670927e-08 C20.1162461,-8.22670927e-08 20.6248509,0.210267946 20.9999912,0.585 L20.9999912,0.585 L23.414,2.99999992 C23.7893438,3.37523045 23.9999912,3.88426385 23.9999912,4.415 L23.9999912,4.415 L23.9999912,18.499 C23.9999912,19.6035695 23.1045695,20.499 21.9999912,20.499 L21.9999912,20.499 L14.265,20.499 C14.1847158,20.499 14.1095632,20.45953 14.0640206,20.3934133 C14.0184779,20.3272966 14.0083741,20.2430074 14.037,20.168 C14.2040629,19.6945731 14.3259397,19.206396 14.401,18.71 C14.4183158,18.5900165 14.5207756,18.5007361 14.642,18.4999999 L14.642,18.4999999 L21.4999912,18.4999999 C21.7761424,18.4999999 21.9999912,18.2761424 21.9999912,17.9999999 L21.9999912,17.9999999 L21.9999912,4.621 C21.9999719,4.48864755 21.947469,4.36170554 21.854,4.268 L21.854,4.268 L19.732,2.146 C19.6382945,2.05253105 19.5113525,2.00002812 19.379,1.99999992 L19.379,1.99999992 L8.49999116,1.99999992 C8.22385763,1.99999992 7.99999116,2.22385763 7.99999116,2.49999992 L7.99999116,2.49999992 L7.99999116,9.36 C8.00100068,9.43054932 7.97166067,9.4981322 7.91943584,9.54557454 C7.86721101,9.59301687 7.79712937,9.61575109 7.727,9.608 C7.28,9.559 6.608,9.531 6.242,9.525 C6.10660109,9.52172799 5.99886823,9.41043372 5.99999116,9.275 L5.99999116,9.275 L5.99999116,1.99999992 C5.99999116,0.8954305 6.8954305,-8.22670927e-08 7.99999116,-8.22670927e-08 L7.99999116,-8.22670927e-08 Z M16.5,11 C17.0522847,11 17.5,11.4477153 17.5,12 C17.4983467,12.5511128 17.0511153,12.9970025 16.5,12.997 L16.5,12.997 L13.238,12.997 C13.1589288,12.9986564 13.0841176,12.9612508 13.038,12.897 C12.6868651,12.4019046 12.2809617,11.9480308 11.828,11.544 C11.7907439,11.5123815 11.7686949,11.4664088 11.7673593,11.4175624 C11.7660236,11.3687161 11.7855274,11.3216072 11.821,11.288 C11.9996349,11.1049476 12.2442322,11.0012009 12.5,11 L12.5,11 Z M19,6.5 C19.5522847,6.5 20,6.94771525 20,7.5 C20,8.05228475 19.5522847,8.5 19,8.5 L19,8.5 L12,8.5 C11.4477153,8.5 11,8.05228475 11,7.5 C11,6.94771525 11.4477153,6.5 12,6.5 L12,6.5 Z M6.5,24 C10.0898509,24 13,21.0898509 13,17.5 C13,13.9101491 10.0898509,11 6.5,11 C2.91014913,11 0,13.9101491 0,17.5 C0.00440789624,21.0880235 2.91197652,23.9955921 6.5,24 Z M4.109,18.312 C3.98908323,18.1618304 3.9658447,17.9562217 4.0492193,17.7830754 C4.13259391,17.6099292 4.30782578,17.4998893 4.5,17.5 L5.25,17.5 C5.38807119,17.5 5.5,17.3880712 5.5,17.25 L5.5,14.5 C5.5,13.9477153 5.94771525,13.5 6.5,13.5 C7.05228475,13.5 7.5,13.9477153 7.5,14.5 L7.5,17.25 C7.5,17.3880712 7.61192881,17.5 7.75,17.5 L8.5,17.5 C8.69217422,17.4998893 8.86740609,17.6099292 8.9507807,17.7830754 C9.0341553,17.9562217 9.01091677,18.1618304 8.891,18.312 L6.891,20.812 C6.7927963,20.9255211 6.65010328,20.9907575 6.5,20.9907575 C6.34989672,20.9907575 6.2072037,20.9255211 6.109,20.812 L4.109,18.312 Z" id="path-1"></path>
    </defs>
    <g id="download" stroke="none" stroke-width="1" fill="none" fill-rule="evenodd">
        <g id="Icon-/-Download">
            <g id="Group" transform="translate(11.000000, 11.000000)"></g>
            <g id="Black">
                <mask id="mask-2" fill="white">
                    <use xlink:href="#path-1"></use>
                </mask>
                <use id="Mask" fill="#000000" fill-rule="nonzero" xlink:href="#path-1"></use>
                <g id="Colour-/-Purple-/-500---Primary" mask="url(#mask-2)" fill="#653CAD">
                    <rect id="Rectangle" x="0" y="0" width="24" height="24"></rect>
                </g>
            </g>
        </g>
    </g>
</svg>