<?xml version="1.0" encoding="UTF-8"?>
<svg width="60px" height="55px" viewBox="0 0 60 55" version="1.1" xmlns="http://www.w3.org/2000/svg" xmlns:xlink="http://www.w3.org/1999/xlink">
    <!-- Generator: Sketch 63.1 (92452) - https://sketch.com -->
    <title>Group 7</title>
    <desc>Created with Sketch.</desc>
    <g id="Page-1" stroke="none" stroke-width="1" fill="none" fill-rule="evenodd">
        <g id="3" transform="translate(-982.000000, -859.000000)">
            <g id="Group-2" transform="translate(960.000000, 835.000000)">
                <g id="Group-7" transform="translate(16.000000, 16.000000)">
                    <rect id="Rectangle" x="0" y="0" width="72" height="72"></rect>
                    <g id="Group-6" transform="translate(6.000000, 8.000000)" fill="#783CBD" fill-rule="nonzero">
                        <path d="M51.125,31 C52.0742394,31 52.8587274,31.6945326 52.9828835,32.5956417 L53,32.8461538 L53,53.1538462 C53,54.0884819 52.2946153,54.8609008 51.3794264,54.9831468 L51.125,55 L36.125,55 C35.1757606,55 34.3912726,54.3054674 34.2671165,53.4043583 L34.25,53.1538462 L34.25,38.3846154 C34.25,37.4499797 33.5446153,36.6775607 32.6294264,36.5553147 L32.375,36.5384615 L28.625,36.5384615 C27.6757606,36.5384615 26.8912726,37.2329942 26.7671165,38.1341032 L26.75,38.3846154 L26.75,53.1538462 C26.75,54.0884819 26.0446153,54.8609008 25.1294264,54.9831468 L24.875,55 L9.875,55 C8.92576059,55 8.1412726,54.3054674 8.01711654,53.4043583 L8,53.1538462 L8,32.8461538 C8,31.8265512 8.83946609,31 9.875,31 C10.8242394,31 11.6087274,31.6945326 11.7328835,32.5956417 L11.75,32.8461538 L11.75,51.3076923 L23,51.3076923 L23,38.3846154 C23,35.4532579 25.312904,33.0537971 28.239878,32.8589312 L28.625,32.8461538 L32.375,32.8461538 C35.35216,32.8461538 37.7891123,35.1234747 37.987023,38.0054183 L38,38.3846154 L38,51.3076923 L49.2475,51.3076923 L49.25,32.8461538 C49.25,31.9115181 49.9553847,31.1390992 50.8705736,31.0168532 L51.125,31 Z" id="Path"></path>
                        <path d="M26.024375,1.62949447 C28.1163385,-0.439736294 31.4455492,-0.538271092 33.6555187,1.33406117 L33.9783252,1.62969253 L59.4508252,26.8330009 C60.1830583,27.5574957 60.1830583,28.732134 59.4508252,29.4566289 C58.7851588,30.1152605 57.7434996,30.1751362 57.0094709,29.6362557 L56.7991748,29.4566289 L31.326875,4.25351857 C30.6612503,3.59512697 29.61985,3.53527318 28.886004,4.07385677 L28.6757602,4.25338487 L3.20076015,29.4566932 C2.46849118,30.1811525 1.28130684,30.1810949 0.549109728,29.4565645 C-0.116524013,28.7979005 -0.176988026,27.7672465 0.367684143,27.0410014 L0.549239845,26.8329365 L26.024375,1.62949447 Z" id="Path"></path>
                        <path d="M50.1428571,6 C51.0830562,6 51.8600729,6.71060978 51.9830465,7.63257786 L52,7.88888889 L52,21.1111111 C52,22.1543156 51.1685288,23 50.1428571,23 C49.2026581,23 48.4256414,22.2893902 48.3026678,21.3674221 L48.2857143,21.1111111 L48.2857143,9.77777778 L42.7142857,9.77777778 L42.7142857,11.6666667 C42.7142857,12.6229375 42.015619,13.4132365 41.1091461,13.5383122 L40.8571429,13.5555556 C39.9169438,13.5555556 39.1399271,12.8449458 39.0169535,11.9229777 L39,11.6666667 L39,7.88888889 C39,6.93261807 39.6986668,6.14231906 40.6051396,6.01724333 L40.8571429,6 L50.1428571,6 Z" id="Path"></path>
                    </g>
                </g>
            </g>
        </g>
    </g>
</svg>