<?xml version="1.0" encoding="UTF-8"?>
<svg width="56px" height="56px" viewBox="0 0 56 56" version="1.1" xmlns="http://www.w3.org/2000/svg" xmlns:xlink="http://www.w3.org/1999/xlink">
    <!-- Generator: Sketch 63.1 (92452) - https://sketch.com -->
    <title>Group 4</title>
    <desc>Created with Sketch.</desc>
    <g id="Page-1" stroke="none" stroke-width="1" fill="none" fill-rule="evenodd">
        <g id="3" transform="translate(-984.000000, -731.000000)" fill="#7044B6" fill-rule="nonzero">
            <g id="Group-2" transform="translate(960.000000, 707.000000)">
                <g id="Group-4" transform="translate(24.000000, 24.000000)">
                    <path d="M12,0 C7.02943725,0 3,4.02943725 3,9 C3,13.9705627 7.02943725,18 12,18 C16.9705627,18 21,13.9705627 21,9 C21,4.02943725 16.9705627,0 12,0 Z M12,3.6 C14.9823376,3.6 17.4,6.01766235 17.4,9 C17.4,11.9823376 14.9823376,14.4 12,14.4 C9.01766235,14.4 6.6,11.9823376 6.6,9 C6.6,6.01766235 9.01766235,3.6 12,3.6 Z" id="Oval"></path>
                    <path d="M12,17 C13.012522,17 13.8493092,17.6771693 13.9817424,18.5557507 L14,18.8 L14,33.2 C14,34.1941125 13.1045695,35 12,35 C10.987478,35 10.1506908,34.3228307 10.0182576,33.4442493 L10,33.2 L10,18.8 C10,17.8058875 10.8954305,17 12,17 Z" id="Path"></path>
                    <path d="M12.5,17 C5.59644064,17 0,22.5557392 0,29.4090909 L0,36.5 L0.0163014667,36.7405486 C0.134545331,37.6058181 0.881676749,38.2727273 1.78571429,38.2727273 L3.74047619,38.2727271 L5.36600502,54.4036657 C5.45729105,55.3098871 6.22544384,56 7.14285714,56 L17.8571429,56 L18.1032494,55.9832459 C18.9086264,55.8727389 19.5510077,55.2275033 19.633995,54.4036657 L21.2571429,38.2727271 L23.2142857,38.2727273 C24.2005085,38.2727273 25,37.4790502 25,36.5 L25,29.4090909 C25,22.5557392 19.4035594,17 12.5,17 Z M12.9741871,20.5577407 C17.6848546,20.8024439 21.4285714,24.671751 21.4285714,29.4090909 L21.4285714,34.7272726 L19.6428571,34.7272727 L19.3967506,34.7440268 C18.5913736,34.8545338 17.9489923,35.4997694 17.866005,36.323607 L16.2404762,52.4545453 L8.75714286,52.4545453 L7.13399498,36.323607 L7.09271337,36.0821699 C6.90181125,35.297614 6.19115495,34.7272727 5.35714286,34.7272727 L3.57142857,34.7272726 L3.57142857,29.4090909 C3.57142857,24.5138397 7.56888617,20.5454545 12.5,20.5454545 L12.9741871,20.5577407 Z" id="Path"></path>
                    <path d="M54.2222222,0 C55.2040618,0 56,0.8954305 56,2 C56,3.01252204 55.3311908,3.84930923 54.4634561,3.98174236 L54.2222222,4 L25.7777778,4 C24.7959382,4 24,3.1045695 24,2 C24,0.987477959 24.6688092,0.150690771 25.5365439,0.0182576427 L25.7777778,0 L54.2222222,0 Z" id="Path"></path>
                    <path d="M54.25,37 C55.2164983,37 56,37.8954305 56,39 C56,40.012522 55.3416409,40.8493092 54.4874646,40.9817424 L54.25,41 L29.75,41 C28.7835017,41 28,40.1045695 28,39 C28,37.987478 28.6583591,37.1506908 29.5125354,37.0182576 L29.75,37 L54.25,37 Z" id="Path"></path>
                    <path d="M47.5,19 C44.4624339,19 42,21.4624339 42,24.5 C42,27.5375661 44.4624339,30 47.5,30 C50.5375661,30 53,27.5375661 53,24.5 C53,21.4624339 50.5375661,19 47.5,19 Z M47.5,22.6666667 C48.512522,22.6666667 49.3333333,23.487478 49.3333333,24.5 C49.3333333,25.512522 48.512522,26.3333333 47.5,26.3333333 C46.487478,26.3333333 45.6666667,25.512522 45.6666667,24.5 C45.6666667,23.487478 46.487478,22.6666667 47.5,22.6666667 Z" id="Oval"></path>
                    <path d="M33.5,23 C30.4624339,23 28,25.4624339 28,28.5 C28,31.5375661 30.4624339,34 33.5,34 C36.5375661,34 39,31.5375661 39,28.5 C39,25.4624339 36.5375661,23 33.5,23 Z M33.5,26.6666667 C34.512522,26.6666667 35.3333333,27.487478 35.3333333,28.5 C35.3333333,29.512522 34.512522,30.3333333 33.5,30.3333333 C32.487478,30.3333333 31.6666667,29.512522 31.6666667,28.5 C31.6666667,27.487478 32.487478,26.6666667 33.5,26.6666667 Z" id="Oval"></path>
                    <path d="M46.2896,8.1586493 C47.9027709,7.76214061 49.6118928,8.1180511 50.9227049,9.12345507 C52.1243602,10.0451348 52.8684857,11.4183704 52.9841618,12.899435 L53,13.3057768 L53,24.693883 C53,25.6707122 52.1941125,26.4625887 51.2,26.4625887 C50.2887302,26.4625887 49.5356217,25.7971925 49.4164319,24.9338859 L49.4,24.693883 L49.4,13.3057768 C49.4,12.761332 49.1445648,12.2471083 48.7075683,11.9119284 C48.3434538,11.6326495 47.887138,11.5037163 47.4338279,11.5450169 L47.1629641,11.5903844 L39.9632,13.3590321 C39.2510985,13.5340628 38.7279305,14.1123607 38.6203987,14.8084747 L38.6,15.0744825 L38.6,28.2312943 C38.6,29.2081235 37.7941125,30 36.8,30 C35.8887302,30 35.1356217,29.3346038 35.0164319,28.4712972 L35,28.2312943 L35,15.0742884 C35.0002568,12.7752074 36.5041286,10.7548127 38.6960499,10.0397293 L39.0898359,9.927297 L46.2896,8.1586493 Z" id="Path"></path>
                </g>
            </g>
        </g>
    </g>
</svg>