<?xml version="1.0" encoding="UTF-8"?>
<svg width="48px" height="48px" viewBox="0 0 48 48" version="1.1" xmlns="http://www.w3.org/2000/svg" xmlns:xlink="http://www.w3.org/1999/xlink">
    <!-- Generator: Sketch 63.1 (92452) - https://sketch.com -->
    <title>kind</title>
    <desc>Created with Sketch.</desc>
    <g id="kind" stroke="none" stroke-width="1" fill="none" fill-rule="evenodd">
        <g id="Group" fill="#000000" fill-rule="nonzero">
            <path d="M43.9048216,30.6552929 C44.0819432,30.1321807 44.6495949,29.8516999 45.1727071,30.0288216 C45.6958193,30.2059432 45.9763001,30.7735949 45.7991784,31.2967071 C45.1557985,33.1968695 44.2747536,35.0080622 43.177003,36.6871983 C42.8747937,37.1494623 42.2550656,37.2792123 41.7928017,36.977003 C41.3305377,36.6747937 41.2007877,36.0550656 41.502997,35.5928017 C42.5084997,34.0547694 43.3155072,32.3957777 43.9048216,30.6552929 Z" id="Path"></path>
            <path d="M36.1784664,41.0853519 C36.626175,40.7619706 37.2512668,40.8627578 37.5746481,41.3104664 C37.8980294,41.758175 37.7972422,42.3832668 37.3495336,42.7066481 C35.7178343,43.8852295 33.9320305,44.8341801 32.0421576,45.5269119 C31.5236109,45.7169849 30.9491611,45.4507043 30.7590881,44.9321576 C30.5690151,44.4136109 30.8352957,43.8391611 31.3538424,43.6490881 C33.0718149,43.0193663 34.6951843,42.156731 36.1784664,41.0853519 Z" id="Path"></path>
            <path d="M18.3838743,44.2359923 C20.1522621,44.7237154 21.9763325,44.9805363 23.8106412,45.0000566 C24.3628946,45.0059336 24.8058203,45.4583877 24.7999434,46.0106412 C24.7940664,46.5628946 24.3416123,47.0058203 23.7893588,46.9999434 C21.7825068,46.9785869 19.7868561,46.6976083 17.8521257,46.1640077 C17.3197189,46.0171694 17.007154,45.4665325 17.1539923,44.9341257 C17.2845152,44.4608753 17.7340889,44.161327 18.2063091,44.2037325 L18.3838743,44.2359923 Z" id="Path"></path>
            <path d="M6.17806445,36.9029316 C6.61054121,36.559446 7.23958292,36.6315877 7.58306844,37.0640645 C8.72206696,38.4981581 10.0462372,39.7748532 11.5209432,40.8607557 C11.9656673,41.1882291 12.0607178,41.814219 11.7332443,42.2589432 C11.4057709,42.7036673 10.779781,42.7987178 10.3350568,42.4712443 C8.71794971,41.2804845 7.2659145,39.8805086 6.01693156,38.3079355 C5.67344605,37.8754588 5.7455877,37.2464171 6.17806445,36.9029316 Z" id="Path"></path>
            <path d="M2.00704963,23.9588388 C2.55887111,23.9362226 3.02454491,24.3652281 3.04716118,24.9170496 C3.12232755,26.7510577 3.43314084,28.5677742 3.9719469,30.3224603 C4.13406437,30.8504152 3.83749455,31.4098294 3.30953966,31.5719469 C2.78158477,31.7340644 2.22217058,31.4374946 2.0600531,30.9095397 C1.47089134,28.9908641 1.13103008,27.004361 1.04883882,24.9989504 C1.02622255,24.4471289 1.45522814,23.9814551 2.00704963,23.9588388 Z" id="Path"></path>
            <path d="M4.82299702,11.3128017 C5.12520632,10.8505377 5.74493435,10.7207877 6.20719833,11.022997 C6.66946231,11.3252063 6.79921227,11.9449344 6.49700298,12.4071983 C5.49150033,13.9452306 4.68449279,15.6042223 4.09517842,17.3447071 C3.91805677,17.8678193 3.35040509,18.1483001 2.8272929,17.9711784 C2.3041807,17.7940568 2.02369994,17.2264051 2.20082158,16.7032929 C2.84420149,14.8031305 3.72524643,12.9919378 4.82299702,11.3128017 Z" id="Path"></path>
            <path d="M15.9578424,2.4730881 C16.4763891,2.28301511 17.0508389,2.54929569 17.2409119,3.06784241 C17.4309849,3.58638914 17.1647043,4.16083891 16.6461576,4.3509119 C14.9281851,4.98063368 13.3048157,5.84326896 11.8215336,6.91464813 C11.373825,7.23802941 10.7487332,7.13724221 10.4253519,6.68953361 C10.1019706,6.24182501 10.2027578,5.61673315 10.6504664,5.29335187 C12.2821657,4.11477047 14.0679695,3.16581986 15.9578424,2.4730881 Z" id="Path"></path>
            <path d="M24.210711,1.00005736 C26.2181305,1.02156014 28.2143453,1.30251931 30.1497133,1.8359479 C30.6821446,1.98269729 30.9948015,2.533282 30.8480521,3.06571328 C30.7013027,3.59814455 30.150718,3.91080149 29.6182867,3.7640521 C27.8491161,3.27643103 26.0243237,3.01959888 24.189289,2.99994264 C23.6370359,2.99402709 23.1941418,2.54154203 23.1999988,1.98928897 C23.2059729,1.4370359 23.658458,0.994141824 24.210711,1.00005736 Z" id="Path"></path>
            <path d="M36.2667557,5.74105684 C36.5942291,5.29633268 37.220219,5.20128222 37.6649432,5.52875568 C39.2820503,6.71951554 40.7340855,8.11949136 41.9830684,9.69206445 C42.326554,10.1245412 42.2544123,10.7535829 41.8219355,11.0970684 C41.3894588,11.440554 40.7604171,11.3684123 40.4169316,10.9359355 C39.277933,9.50184194 37.9537628,8.22514684 36.4790568,7.13924432 C36.0343327,6.81177085 35.9392822,6.185781 36.2667557,5.74105684 Z" id="Path"></path>
            <path d="M44.6904603,16.4280531 C45.2184152,16.2659356 45.7778294,16.5625054 45.9399469,17.0904603 C46.5291087,19.0091359 46.8689699,20.995639 46.9511612,23.0010496 C46.9737774,23.5528711 46.5447719,24.0185449 45.9929504,24.0411612 C45.4411289,24.0637774 44.9754551,23.6347719 44.9528388,23.0829504 C44.8776725,21.2489423 44.5668592,19.4322258 44.0280531,17.6775397 C43.8659356,17.1495848 44.1625054,16.5901706 44.6904603,16.4280531 Z" id="Path"></path>
            <path d="M24,9 C15.7157288,9 9,15.7157288 9,24 C9,32.2842712 15.7157288,39 24,39 C32.2842712,39 39,32.2842712 39,24 C39,15.7157288 32.2842712,9 24,9 Z M24,11 C31.1797017,11 37,16.8202983 37,24 C37,31.1797017 31.1797017,37 24,37 C16.8202983,37 11,31.1797017 11,24 C11,16.8202983 16.8202983,11 24,11 Z" id="Oval"></path>
            <path d="M27.3925877,28.1246072 C27.8760538,27.857626 28.4844115,28.0331216 28.7513928,28.5165877 C29.018374,29.0000538 28.8428784,29.6084115 28.3594123,29.8753928 C25.6462398,31.3736699 22.3537602,31.3736699 19.6405877,29.8753928 C19.1571216,29.6084115 18.981626,29.0000538 19.2486072,28.5165877 C19.5155885,28.0331216 20.1239462,27.857626 20.6074123,28.1246072 C22.718861,29.2905985 25.281139,29.2905985 27.3925877,28.1246072 Z" id="Path"></path>
            <path d="M19.5,20 L19.7035411,20.0136932 C20.4356922,20.1130181 21,20.7406085 21,21.5 C21,22.3284271 20.3284271,23 19.5,23 C18.6715729,23 18,22.3284271 18,21.5 C18,20.7406085 18.5643078,20.1130181 19.2964589,20.0136932 L19.5,20 Z" id="Path"></path>
            <path d="M28.5,20 L28.7035411,20.0136932 C29.4356922,20.1130181 30,20.7406085 30,21.5 C30,22.3284271 29.3284271,23 28.5,23 C27.6715729,23 27,22.3284271 27,21.5 C27,20.7406085 27.5643078,20.1130181 28.2964589,20.0136932 L28.5,20 Z" id="Path"></path>
        </g>
    </g>
</svg>