<?xml version="1.0" encoding="UTF-8"?><svg width="64" height="64" version="1.1" viewBox="0 0 64 64" xmlns="http://www.w3.org/2000/svg" xmlns:xlink="http://www.w3.org/1999/xlink"><!--Generated by IJSVG (https://github.com/iconjar/IJSVG)--><g transform="scale(2.66667)"><path fill="none" stroke="#6549AA" stroke-linecap="round" stroke-linejoin="round" stroke-width="1" d="M10.5,14h-4l-4.37114e-08,-1.77636e-15c-0.552285,-2.41411e-08 -1,-0.447715 -1,-1c0,0 0,0 0,0v-1l1.24345e-14,1.50996e-07c-8.33927e-08,-0.552285 0.447715,-1 1,-1h11l-4.37114e-08,1.77636e-15c0.552285,-2.41411e-08 1,0.447715 1,1v1v0c0,0.552285 -0.447715,1 -1,1h-4"></path><path fill="none" stroke="#6549AA" stroke-linecap="round" stroke-linejoin="round" stroke-width="1" d="M13.5,14h3.5l-0.434,6.071l3.53444e-08,-4.96576e-07c-0.0373233,0.52438 -0.474294,0.930327 -1,0.929h-7.135l3.71946e-08,-9.38591e-11c-0.525705,0.00132662 -0.962676,-0.40462 -1,-0.929l-0.431,-6.071h3.5"></path><path fill="none" stroke="#6549AA" stroke-linecap="round" stroke-linejoin="round" stroke-width="1" d="M10.5,11v10"></path><path fill="none" stroke="#6549AA" stroke-linecap="round" stroke-linejoin="round" stroke-width="1" d="M13.5,21v-10"></path><path fill="none" stroke="#6549AA" stroke-linecap="round" stroke-linejoin="round" stroke-width="1" d="M8.5,9.688c0.6,0.604 3.5,1.312 3.5,1.312c0,0 -0.709,-2.9 -1.312,-3.5l1.06505e-07,1.06505e-07c-0.604199,-0.6042 -1.5838,-0.6042 -2.188,-2.1301e-07c-0.6042,0.604199 -0.6042,1.5838 -2.1301e-07,2.188c0,0 0,0 0,0Z"></path><path fill="none" stroke="#6549AA" stroke-linecap="round" stroke-linejoin="round" stroke-width="1" d="M15.5,9.688c-0.6,0.604 -3.5,1.312 -3.5,1.312c0,0 0.709,-2.9 1.312,-3.5l-6.52291e-09,6.52291e-09c0.6042,-0.6042 1.5838,-0.6042 2.188,-1.30458e-08c0.6042,0.6042 0.6042,1.5838 1.30458e-08,2.188Z"></path><path fill="none" stroke="#6549AA" stroke-linecap="round" stroke-linejoin="round" stroke-width="1" d="M12,4.5v-1.5"></path><path fill="none" stroke="#6549AA" stroke-linecap="round" stroke-linejoin="round" stroke-width="1" d="M19.07,7.43l1.06,-1.06"></path><path fill="none" stroke="#6549AA" stroke-linecap="round" stroke-linejoin="round" stroke-width="1" d="M22,14h1.5"></path><path fill="none" stroke="#6549AA" stroke-linecap="round" stroke-linejoin="round" stroke-width="1" d="M4.93,7.43l-1.06,-1.06"></path><path fill="none" stroke="#6549AA" stroke-linecap="round" stroke-linejoin="round" stroke-width="1" d="M2,14h-1.5"></path></g></svg>