<?xml version="1.0" encoding="UTF-8"?><svg width="56" height="56" version="1.1" viewBox="0 0 56 56" xmlns="http://www.w3.org/2000/svg" xmlns:xlink="http://www.w3.org/1999/xlink"><!--Generated by IJSVG (https://github.com/iconjar/IJSVG)--><g transform="scale(2.33333)"><path fill="none" stroke="#000" stroke-linecap="round" stroke-linejoin="round" stroke-width="1" d="M11.5,23.5l-2.653,-3.079l2.33199e-08,2.80057e-08c-0.53047,-0.63706 -0.44406,-1.58353 0.193,-2.114c0.63706,-0.53047 1.58353,-0.44406 2.114,0.193l2.346,2.826v-9.826l1.77636e-14,2.26494e-07c-1.25089e-07,-0.828427 0.671573,-1.5 1.5,-1.5c0.828427,-1.25089e-07 1.5,0.671573 1.5,1.5c0,0 0,1.77636e-15 0,1.77636e-15v6h3l-1.74846e-07,3.55271e-15c2.20914,-9.65645e-08 4,1.79086 4,4v2"></path><path fill="none" stroke="#000" stroke-linecap="round" stroke-linejoin="round" stroke-width="1" d="M13.5,8v-4.5v0c0,-0.552285 -0.447715,-1 -1,-1h-11h-4.37114e-08c-0.552285,2.41411e-08 -1,0.447715 -1,1c0,0 0,0 0,0v17l1.13243e-14,-1.50996e-07c-8.33927e-08,0.552285 0.447715,1 1,1h4.5"></path><path fill="none" stroke="#000" stroke-linecap="round" stroke-linejoin="round" stroke-width="1" d="M15.5,8v-6.5v0c0,-0.552285 -0.447715,-1 -1,-1h-11.5"></path><path fill="none" stroke="#000" stroke-linecap="round" stroke-linejoin="round" stroke-width="1" d="M3.5,15.5h7"></path><path fill="none" stroke="#000" stroke-linecap="round" stroke-linejoin="round" stroke-width="1" d="M8.23744,6.01256c0.683418,0.683418 0.683418,1.79146 0,2.47487c-0.683418,0.683418 -1.79146,0.683418 -2.47487,0c-0.683418,-0.683418 -0.683418,-1.79146 -8.88178e-16,-2.47487c0.683418,-0.683418 1.79146,-0.683418 2.47487,-8.88178e-16"></path><path fill="none" stroke="#000" stroke-linecap="round" stroke-linejoin="round" stroke-width="1" d="M10.5,12.5l-5.01434e-08,-1.96642e-07c-0.49291,-1.933 -2.4595,-3.10042 -4.39249,-2.60751c-1.2808,0.3266 -2.28091,1.32671 -2.60751,2.60751Z"></path></g></svg>