<?xml version="1.0" encoding="UTF-8"?><svg width="56" height="56" version="1.1" viewBox="0 0 56 56" xmlns="http://www.w3.org/2000/svg" xmlns:xlink="http://www.w3.org/1999/xlink"><!--Generated by IJSVG (https://github.com/iconjar/IJSVG)--><g transform="scale(2.33333)"><path fill="none" stroke="#FFF" stroke-linecap="round" stroke-linejoin="round" stroke-width="1.5" d="M21.75,15.75v3"></path><path fill="none" stroke="#FFF" stroke-linecap="round" stroke-linejoin="round" stroke-width="1.5" d="M2.25,18.75v-10.5l1.68754e-14,2.26494e-07c-1.25089e-07,-0.828427 0.671573,-1.5 1.5,-1.5h3.75"></path><path fill="none" stroke="#FFF" stroke-linecap="round" stroke-linejoin="round" stroke-width="1.5" d="M14.584,18.75l-3.60999e-08,6.31856e-08c-0.815349,1.4271 -2.63322,1.92303 -4.06032,1.10768c-0.461521,-0.263681 -0.843999,-0.646159 -1.10768,-1.10768h-8.666v1.5l3.55271e-14,4.52987e-07c2.50178e-07,1.65685 1.34315,3 3,3h16.5l-1.31134e-07,-3.55271e-15c1.65685,7.24234e-08 3,-1.34315 3,-3v-1.5Z"></path><path fill="none" stroke="#FFF" stroke-linecap="round" stroke-linejoin="round" stroke-width="1.5" d="M18.658,1.011l7.39972e-08,2.21124e-08c-3.36707,-1.00617 -6.91228,0.907707 -7.91845,4.27477c-0.447793,1.4985 -0.328021,3.10943 0.33645,4.52523l-2.063,4.189l4.722,-1.29l-4.43059e-07,-2.48167e-07c3.07756,1.7238 6.96983,0.626368 8.69363,-2.45119c1.7238,-3.07756 0.626368,-6.96983 -2.45119,-8.69363c-0.41762,-0.233918 -0.860213,-0.420147 -1.31944,-0.55518Z"></path><path fill="none" stroke="#FFF" stroke-linecap="round" stroke-linejoin="round" stroke-width="1.5" d="M14.62,4.5v0"></path><path fill="none" stroke="#FFF" stroke-linecap="round" stroke-linejoin="round" stroke-width="1.5" d="M14.625,4.5h-1.63918e-08c-0.207107,9.05293e-09 -0.375,0.167893 -0.375,0.375c9.05293e-09,0.207107 0.167893,0.375 0.375,0.375c0.207107,-9.05293e-09 0.375,-0.167893 0.375,-0.375v0c0,-0.207107 -0.167893,-0.375 -0.375,-0.375"></path><path fill="none" stroke="#FFF" stroke-linecap="round" stroke-linejoin="round" stroke-width="1.5" d="M19.12,4.5v0"></path><path fill="none" stroke="#FFF" stroke-linecap="round" stroke-linejoin="round" stroke-width="1.5" d="M19.125,4.5h-1.63918e-08c-0.207107,9.05293e-09 -0.375,0.167893 -0.375,0.375c9.05293e-09,0.207107 0.167893,0.375 0.375,0.375c0.207107,-9.05293e-09 0.375,-0.167893 0.375,-0.375v0c0,-0.207107 -0.167893,-0.375 -0.375,-0.375"></path><path fill="none" stroke="#FFF" stroke-linecap="round" stroke-linejoin="round" stroke-width="1.5" d="M19.5,8.25l8.28428e-08,-1.00102e-06c-0.111091,1.34236 -1.28144,2.34552 -2.625,2.25l-9.11111e-10,6.47731e-11c-1.34355,0.095518 -2.51391,-0.907643 -2.625,-2.25"></path></g></svg>