<?xml version="1.0" encoding="UTF-8"?><svg width="56" height="56" version="1.1" viewBox="0 0 56 56" xmlns="http://www.w3.org/2000/svg" xmlns:xlink="http://www.w3.org/1999/xlink"><!--Generated by IJSVG (https://github.com/iconjar/IJSVG)--><g transform="scale(2.33333)"><path fill="none" stroke="#000" stroke-linecap="round" stroke-linejoin="round" stroke-width="1" d="M13.5178,1.23223c0.976311,0.976311 0.976311,2.55922 0,3.53553c-0.976311,0.976311 -2.55922,0.976311 -3.53553,0c-0.976311,-0.976311 -0.976311,-2.55922 0,-3.53553c0.976311,-0.976311 2.55922,-0.976311 3.53553,-4.44089e-16"></path><path fill="none" stroke="#000" stroke-linecap="round" stroke-linejoin="round" stroke-width="1" d="M21.25,22.5v0c0,0.552285 -0.447715,1 -1,1h-7h-4.37114e-08c-0.552285,-2.41411e-08 -1,-0.447715 -1,-1c0,0 0,-3.55271e-15 0,-3.55271e-15v-4l1.06581e-14,1.50996e-07c-8.33927e-08,-0.552285 0.447715,-1 1,-1h7h-4.37114e-08c0.552285,-2.41411e-08 1,0.447715 1,1Z"></path><path fill="none" stroke="#000" stroke-linecap="round" stroke-linejoin="round" stroke-width="1" d="M15.25,17.5v-0.5l1.77636e-14,2.26494e-07c-1.25089e-07,-0.828427 0.671573,-1.5 1.5,-1.5c0.828427,-1.25089e-07 1.5,0.671573 1.5,1.5c0,0 0,3.55271e-15 0,3.55271e-15v0.5"></path><path fill="none" stroke="#000" stroke-linecap="round" stroke-linejoin="round" stroke-width="1" d="M15.251,11v3l1.77636e-14,-1.73927e-07c-1.25089e-07,0.828427 0.671573,1.5 1.5,1.5c0.828427,1.25089e-07 1.5,-0.671573 1.5,-1.5c7.10543e-15,-3.2517e-08 1.06581e-14,-6.99115e-08 1.42109e-14,-1.02429e-07v-3.5v0c0,-1.65685 -1.34315,-3 -3,-3h-5.074l-3.30494e-08,-5.88685e-12c-0.306719,-5.46396e-05 -0.596448,-0.140864 -0.786,-0.382l-3.961,-5.045l3.98774e-09,5.21433e-09c-0.503253,-0.658048 -1.44467,-0.783534 -2.10272,-0.280281c-0.658048,0.503253 -0.783534,1.44467 -0.280281,2.10272c0.00786827,0.0102885 0.0158695,0.0204746 0.0240016,0.0305558l6.18,8.011v0v10.063l1.77636e-14,2.26494e-07c1.25089e-07,0.828427 0.671573,1.5 1.5,1.5"></path></g></svg>