<?xml version="1.0" encoding="UTF-8"?>
<svg width="72px" height="72px" viewBox="0 0 72 72" version="1.1" xmlns="http://www.w3.org/2000/svg" xmlns:xlink="http://www.w3.org/1999/xlink">
    <!-- Generator: Sketch 63.1 (92452) - https://sketch.com -->
    <title>Artboard</title>
    <desc>Created with Sketch.</desc>
    <g id="Artboard" stroke="none" stroke-width="1" fill="none" fill-rule="evenodd">
        <g id="search-square" fill="#7044B6" fill-rule="nonzero">
            <path d="M66,72 L6,72 C2.6862915,72 0,69.3137085 0,66 L0,6 C0,2.6862915 2.6862915,0 6,0 L66,0 C69.3137085,0 72,2.6862915 72,6 L72,66 C72,69.3137085 69.3137085,72 66,72 Z M7.5,6 C6.67157288,6 6,6.67157288 6,7.5 L6,64.5 C6,65.3284271 6.67157288,66 7.5,66 L64.5,66 C65.3284271,66 66,65.3284271 66,64.5 L66,7.5 C66,6.67157288 65.3284271,6 64.5,6 L7.5,6 Z" id="Shape"></path>
            <path d="M45.717,42.438 C45.4633691,42.1845531 45.4255932,41.7866467 45.627,41.49 C49.970199,35.0145672 48.689241,26.300057 42.6663508,21.3483501 C36.6434606,16.3966432 27.8457297,16.8249798 22.3323547,22.3383547 C16.8189798,27.8517297 16.3906432,36.6494606 21.3423501,42.6723508 C26.294057,48.695241 35.0085672,49.976199 41.484,45.633 C41.7809581,45.4328122 42.1780179,45.4705077 42.432,45.723 L50.037,53.325 C50.952433,54.2261631 52.421567,54.2261631 53.337,53.325 C54.2425955,52.4184093 54.2425955,50.9495907 53.337,50.043 L45.717,42.438 Z M33.099,43.557 C27.3265198,43.557 22.647,38.8774802 22.647,33.105 C22.647,27.3325198 27.3265198,22.653 33.099,22.653 C38.8714802,22.653 43.551,27.3325198 43.551,33.105 C43.5443871,38.8747388 38.8687388,43.5503871 33.099,43.557 L33.099,43.557 Z" id="Shape"></path>
        </g>
    </g>
</svg>