<?xml version="1.0" encoding="UTF-8"?>
<svg width="48px" height="48px" viewBox="0 0 48 48" version="1.1" xmlns="http://www.w3.org/2000/svg" xmlns:xlink="http://www.w3.org/1999/xlink">
    <!-- Generator: Sketch 63.1 (92452) - https://sketch.com -->
    <title>shield</title>
    <desc>Created with Sketch.</desc>
    <g id="shield" stroke="none" stroke-width="1" fill="none" fill-rule="evenodd">
        <g id="Group" fill="#000000" fill-rule="nonzero">
            <path d="M45,0.06 L3.00976185,0.0700000284 C1.35314575,0.07 0.01,1.41314575 0.01,3.07 L-0.0159985644,18.4123055 C0.0216720585,32.6777292 9.96767687,44.995639 23.9007382,48.0369951 L24.336087,48.0350268 C38.0226065,44.9175759 47.7649566,32.8482196 47.9809834,18.8711627 L47.9999994,3.0610568 C47.9999994,1.40314575 46.6568542,0.06 45,0.06 Z M3.01,2.07 L45.0002382,2.05999997 C45.5522847,2.05999997 46,2.50771525 46,3.05999997 L45.9839965,18.1989432 L45.9808762,18.8532061 C45.7733007,31.6916206 36.972058,42.7981623 24.527788,45.932501 L24.108,46.032 L24.3272618,46.0830049 C11.3108493,43.241738 2.01918689,31.734217 1.98399651,18.4113587 L2.00999856,3.07169447 C2.01,2.51771525 2.45771525,2.07 3.01,2.07 Z" id="Path"></path>
            <path d="M30.978,14.292 L16.9735715,14.3540098 C15.3211458,14.354 13.978,15.6971458 13.978,17.354 L14.0320106,29.1065965 C14.0402675,30.7579876 15.3809899,32.092 17.032,32.092 L31.0364285,32.0299902 C31.8302427,32.03001 32.5955865,31.7118812 33.1586288,31.1460237 C33.7216571,30.5801802 34.0359664,29.8132796 34.0320496,29.015047 L33.9779894,17.2773975 C33.9697325,15.6260124 32.6290101,14.292 30.978,14.292 Z M16.978,16.354 L30.978,16.292 C31.5283515,16.292 31.9752608,16.7366726 31.9780125,17.287 L32.0320479,29.0246025 C32.0333554,29.2910634 31.9285764,29.5467193 31.7408929,29.7353412 C31.5532122,29.9239604 31.2980976,30.0300033 31.0320125,30.03 L17.0275715,30.0920098 C16.4816485,30.0920098 16.0347392,29.6473274 16.0319875,29.097 L15.9779894,17.3494035 C15.9779894,16.8017153 16.4257153,16.354 16.978,16.354 Z" id="Path"></path>
            <path d="M24.3898091,6.07307705 L23.927303,6.05994534 C22.0707786,6.06866554 20.293753,6.81447697 18.9871422,8.13333997 C17.6805315,9.45220289 16.9513377,11.2361118 16.9598697,13.0926362 L16.9598697,15.34 C16.9598697,15.8940429 17.4103969,16.342483 17.9644342,16.3400002 L29.9644999,16.2859899 C30.5150226,16.2835125 30.96,15.8365282 30.96,15.286 L30.96,13.034 C30.9519642,11.1727506 30.2064358,9.39510401 28.8874835,8.08796711 C27.6811332,6.89242354 26.0822154,6.17716807 24.3898091,6.07307705 Z M23.942,8.058 L24.2951635,8.07063783 C25.4758368,8.14365217 26.6179695,8.65457064 27.4796471,9.50852919 L27.7498749,9.79843286 C28.5229921,10.6967142 28.9548495,11.8445836 28.9600093,13.0383224 L28.9600093,14.29 L18.958,14.336 L18.9599343,13.088 C18.9537753,11.7572378 19.4746383,10.4829919 20.40794,9.54093854 C21.3412417,8.59888516 22.6105708,8.06615217 23.942,8.058 Z" id="Path"></path>
            <path d="M24.006,19.686 C22.0730034,19.686 20.506,21.2530034 20.506,23.186 C20.506,25.1189966 22.0730034,26.686 24.006,26.686 C25.9389966,26.686 27.506,25.1189966 27.506,23.186 C27.506,21.2530034 25.9389966,19.686 24.006,19.686 Z M24.006,21.686 C24.8344271,21.686 25.506,22.3575729 25.506,23.186 C25.506,24.0144271 24.8344271,24.686 24.006,24.686 C23.1775729,24.686 22.506,24.0144271 22.506,23.186 C22.506,22.3575729 23.1775729,21.686 24.006,21.686 Z" id="Oval"></path>
        </g>
    </g>
</svg>