<?xml version="1.0" encoding="UTF-8"?>
<svg width="54px" height="54px" viewBox="0 0 54 54" version="1.1" xmlns="http://www.w3.org/2000/svg" xmlns:xlink="http://www.w3.org/1999/xlink">
    <!-- Generator: Sketch 63.1 (92452) - https://sketch.com -->
    <title>Group 6</title>
    <desc>Created with Sketch.</desc>
    <g id="Page-1" stroke="none" stroke-width="1" fill="none" fill-rule="evenodd">
        <g id="3" transform="translate(-984.000000, -646.000000)" fill="#7044B6" fill-rule="nonzero">
            <g id="Group-2" transform="translate(960.000000, 622.000000)">
                <g id="Group-6" transform="translate(24.000000, 24.000000)">
                    <path d="M9.56032,11.76 C10.4881584,11.76 11.24032,12.5121616 11.24032,13.44 C11.24032,14.2905185 10.6082953,14.9934198 9.78828605,15.1046636 L9.56032,15.12 L5.04,15.12 C4.18948149,15.12 3.48658025,15.7520247 3.37533642,16.572034 L3.36,16.8 L3.36,48.72 C3.36,49.5705185 3.99202469,50.2734198 4.81203395,50.3846636 L5.04,50.4 L9.56032,50.4 C10.4881584,50.4 11.24032,51.1521616 11.24032,52.08 C11.24032,52.9305185 10.6082953,53.6334198 9.78828605,53.7446636 L9.56032,53.76 L5.04,53.76 C2.37246466,53.76 0.188955388,51.687638 0.0116274201,49.0650693 L0,48.72 L0,16.8 C0,14.1324647 2.07236196,11.9489554 4.69493066,11.7716274 L5.04,11.76 L9.56032,11.76 Z" id="Path"></path>
                    <path d="M41.7410854,6.72036794 L38.3810854,6.72036794 C35.5975703,6.72036794 33.3410854,8.9768528 33.3410854,11.7603679 L33.3410854,48.7203679 C33.3410854,51.5038831 35.5975703,53.7603679 38.3810854,53.7603679 L41.7410854,53.7603679 C44.5246006,53.7603679 46.7810854,51.5038831 46.7810854,48.7203679 L46.7810854,11.7603679 C46.7810854,8.9768528 44.5246006,6.72036794 41.7410854,6.72036794 Z M38.3810854,10.0803679 L41.7410854,10.0803679 C42.6689238,10.0803679 43.4210854,10.8325296 43.4210854,11.7603679 L43.4210854,48.7203679 C43.4210854,49.6482063 42.6689238,50.4003679 41.7410854,50.4003679 L38.3810854,50.4003679 C37.4532471,50.4003679 36.7010854,49.6482063 36.7010854,48.7203679 L36.7010854,11.7603679 C36.7010854,10.8325296 37.4532471,10.0803679 38.3810854,10.0803679 Z" id="Rectangle" transform="translate(40.061085, 30.240368) rotate(-20.824000) translate(-40.061085, -30.240368) "></path>
                    <path d="M25.2,0 L18.48,0 C15.6964849,0 13.44,2.25648486 13.44,5.04 L13.44,48.72 C13.44,51.5035151 15.6964849,53.76 18.48,53.76 L25.2,53.76 C27.9835151,53.76 30.24,51.5035151 30.24,48.72 L30.24,5.04 C30.24,2.25648486 27.9835151,0 25.2,0 Z M18.48,3.36 L25.2,3.36 C26.1278384,3.36 26.88,4.11216162 26.88,5.04 L26.88,48.72 C26.88,49.6478384 26.1278384,50.4 25.2,50.4 L18.48,50.4 C17.5521616,50.4 16.8,49.6478384 16.8,48.72 L16.8,5.04 C16.8,4.11216162 17.5521616,3.36 18.48,3.36 Z" id="Rectangle"></path>
                    <path d="M21.84,6.72 C22.6905185,6.72 23.3934198,7.35202469 23.5046636,8.17203395 L23.52,8.4 L23.52,35.28 C23.52,36.2078384 22.7678384,36.96 21.84,36.96 C20.9894815,36.96 20.2865802,36.3279753 20.1753364,35.507966 L20.16,35.28 L20.16,8.4 C20.16,7.47216162 20.9121616,6.72 21.84,6.72 Z" id="Path"></path>
                    <path d="M21.84,41.16 L22.1145818,41.174787 C23.3771755,41.3116035 24.36,42.3810263 24.36,43.68 C24.36,45.0717576 23.2317576,46.2 21.84,46.2 C20.4482424,46.2 19.32,45.0717576 19.32,43.68 C19.32,42.3810263 20.3028245,41.3116035 21.5654182,41.174787 L21.84,41.16 Z" id="Path"></path>
                </g>
            </g>
        </g>
    </g>
</svg>