<svg width="548" height="405" viewBox="0 0 548 405" fill="none" xmlns="http://www.w3.org/2000/svg">
<path opacity="0.1" d="M237.728 15.5553C215.779 6.61451 192.583 -0.870691 168.903 0.0819712C134.062 1.45475 100.692 22.437 84.2992 53.2476C70.4101 79.3482 68.6976 109.946 62.7157 138.91C55.346 174.603 41.2325 208.52 26.1506 241.691C18.0487 259.484 9.50381 277.709 8.17514 297.241C6.32681 324.354 19.2651 351.378 39.5495 369.431C59.8339 387.484 86.7912 396.981 113.819 399.058C128.21 400.164 143.245 399.141 156.03 392.431C169.553 385.33 179.408 372.496 192.985 365.502C205.569 358.993 220.284 358.105 234.41 358.951C252.911 360.061 271.142 363.942 288.495 370.466C308.237 377.898 326.596 388.656 346.296 396.188C365.995 403.721 388.004 407.928 408.141 401.638C427.038 395.721 442.001 381.401 455.483 366.875C477.611 343.031 497.793 317.446 515.834 290.366C527.993 272.117 539.307 252.863 544.687 231.591C554.962 190.928 540.819 145.046 509.439 117.271C483.456 94.2653 448.562 84.2772 414.412 78.218C383.274 72.6914 347.27 72.3482 318.606 57.9458C291.265 44.1884 266.392 27.2358 237.728 15.5553Z" fill="#F35627"/>
<g clip-path="url(#clip0)">
<path d="M324.161 120.585C331.747 120.585 337.897 114.435 337.897 106.849C337.897 99.2632 331.747 93.1135 324.161 93.1135C316.575 93.1135 310.426 99.2632 310.426 106.849C310.426 114.435 316.575 120.585 324.161 120.585Z" stroke="#3F3D56" stroke-miterlimit="10"/>
<path d="M352.157 81.0166L348.836 77.6782C348.673 77.5118 348.479 77.3793 348.265 77.2883C348.05 77.1973 347.82 77.1496 347.588 77.148C347.355 77.1464 347.124 77.1909 346.909 77.2789C346.693 77.367 346.497 77.4968 346.332 77.6609L325.485 98.3342L316.67 89.4494C316.508 89.2849 316.315 89.154 316.102 89.0641C315.889 88.9743 315.661 88.9272 315.43 88.9256C315.199 88.9239 314.97 88.9678 314.756 89.0547C314.542 89.1416 314.348 89.2698 314.183 89.432L310.828 92.753C310.495 93.0838 310.307 93.5324 310.304 94.0013C310.3 94.4701 310.482 94.9213 310.81 95.2567L324.198 108.749C324.529 109.081 324.978 109.27 325.447 109.273C325.915 109.276 326.367 109.094 326.702 108.766L352.139 83.5204C352.306 83.3576 352.438 83.1635 352.529 82.9493C352.62 82.735 352.668 82.5049 352.67 82.2721C352.671 82.0394 352.627 81.8086 352.539 81.5931C352.451 81.3776 352.321 81.1817 352.157 81.0166Z" fill="#F86D70"/>
<path d="M235.067 99.9813H13.9871C6.26224 99.9813 0 106.244 0 113.968V114.381C0 122.106 6.26224 128.368 13.9871 128.368H235.067C242.792 128.368 249.054 122.106 249.054 114.381V113.968C249.054 106.244 242.792 99.9813 235.067 99.9813Z" fill="#F2F2F2"/>
<path d="M235.379 149.201H14.2986C6.57376 149.201 0.311523 155.463 0.311523 163.188V163.601C0.311523 171.325 6.57376 177.588 14.2986 177.588H235.379C243.104 177.588 249.366 171.325 249.366 163.601V163.188C249.366 155.463 243.104 149.201 235.379 149.201Z" fill="#F2F2F2"/>
<path d="M235.69 198.42H14.6102C6.88529 198.42 0.623047 204.682 0.623047 212.407V212.82C0.623047 220.545 6.88529 226.807 14.6102 226.807H235.69C243.415 226.807 249.678 220.545 249.678 212.82V212.407C249.678 204.682 243.415 198.42 235.69 198.42Z" fill="#F2F2F2"/>
<path d="M236.001 247.639H14.9207C7.19583 247.639 0.933594 253.902 0.933594 261.626V262.039C0.933594 269.764 7.19583 276.026 14.9207 276.026H236.001C243.726 276.026 249.988 269.764 249.988 262.039V261.626C249.988 253.902 243.726 247.639 236.001 247.639Z" fill="#F2F2F2"/>
<path d="M242.851 92.6556H21.7703C14.0454 92.6556 7.7832 98.9179 7.7832 106.643V107.055C7.7832 114.78 14.0454 121.043 21.7703 121.043H242.851C250.575 121.043 256.838 114.78 256.838 107.055V106.643C256.838 98.9179 250.575 92.6556 242.851 92.6556Z" stroke="#3F3D56" stroke-miterlimit="10"/>
<path d="M243.162 141.875H22.0818C14.357 141.875 8.09473 148.137 8.09473 155.862V156.275C8.09473 164 14.357 170.262 22.0818 170.262H243.162C250.887 170.262 257.149 164 257.149 156.275V155.862C257.149 148.137 250.887 141.875 243.162 141.875Z" stroke="#3F3D56" stroke-miterlimit="10"/>
<path d="M243.474 191.094H22.3934C14.6685 191.094 8.40625 197.357 8.40625 205.081V205.494C8.40625 213.219 14.6685 219.481 22.3934 219.481H243.474C251.199 219.481 257.461 213.219 257.461 205.494V205.081C257.461 197.357 251.199 191.094 243.474 191.094Z" stroke="#3F3D56" stroke-miterlimit="10"/>
<path d="M243.785 240.314H22.7049C14.98 240.314 8.71777 246.576 8.71777 254.301V254.714C8.71777 262.438 14.98 268.701 22.7049 268.701H243.785C251.51 268.701 257.772 262.438 257.772 254.714V254.301C257.772 246.576 251.51 240.314 243.785 240.314Z" stroke="#3F3D56" stroke-miterlimit="10"/>
<path d="M324.161 170.033C331.747 170.033 337.897 163.883 337.897 156.297C337.897 148.711 331.747 142.562 324.161 142.562C316.575 142.562 310.426 148.711 310.426 156.297C310.426 163.883 316.575 170.033 324.161 170.033Z" stroke="#3F3D56" stroke-miterlimit="10"/>
<path d="M324.161 219.481C331.747 219.481 337.897 213.332 337.897 205.746C337.897 198.16 331.747 192.01 324.161 192.01C316.575 192.01 310.426 198.16 310.426 205.746C310.426 213.332 316.575 219.481 324.161 219.481Z" stroke="#3F3D56" stroke-miterlimit="10"/>
<path d="M324.161 268.93C331.747 268.93 337.897 262.78 337.897 255.194C337.897 247.608 331.747 241.458 324.161 241.458C316.575 241.458 310.426 247.608 310.426 255.194C310.426 262.78 316.575 268.93 324.161 268.93Z" stroke="#3F3D56" stroke-miterlimit="10"/>
<path d="M352.157 130.923L348.836 127.584C348.673 127.418 348.479 127.285 348.265 127.194C348.05 127.103 347.82 127.056 347.588 127.054C347.355 127.053 347.124 127.097 346.909 127.185C346.693 127.273 346.497 127.403 346.332 127.567L325.485 148.24L316.67 139.355C316.508 139.191 316.315 139.06 316.102 138.97C315.889 138.88 315.661 138.833 315.43 138.832C315.199 138.83 314.97 138.874 314.756 138.961C314.542 139.048 314.348 139.176 314.183 139.338L310.828 142.659C310.495 142.99 310.307 143.439 310.304 143.907C310.3 144.376 310.482 144.827 310.81 145.163L324.198 158.655C324.529 158.987 324.978 159.176 325.447 159.179C325.915 159.182 326.367 159 326.702 158.673L352.139 133.427C352.306 133.264 352.438 133.07 352.529 132.855C352.62 132.641 352.668 132.411 352.67 132.178C352.671 131.946 352.627 131.715 352.539 131.499C352.451 131.284 352.321 131.088 352.157 130.923Z" fill="#F86D70"/>
<path d="M352.157 230.735L348.836 227.397C348.673 227.23 348.479 227.098 348.265 227.007C348.05 226.916 347.82 226.868 347.588 226.866C347.355 226.865 347.124 226.909 346.909 226.997C346.693 227.085 346.497 227.215 346.332 227.379L325.485 248.053L316.67 239.168C316.508 239.003 316.315 238.872 316.102 238.783C315.889 238.693 315.661 238.646 315.43 238.644C315.199 238.642 314.97 238.686 314.756 238.773C314.542 238.86 314.348 238.988 314.183 239.15L310.828 242.471C310.495 242.802 310.307 243.251 310.304 243.72C310.3 244.189 310.482 244.64 310.81 244.975L324.198 258.467C324.529 258.8 324.978 258.988 325.447 258.991C325.915 258.994 326.367 258.813 326.702 258.485L352.139 233.239C352.306 233.076 352.438 232.882 352.529 232.668C352.62 232.453 352.668 232.223 352.67 231.991C352.671 231.758 352.627 231.527 352.539 231.311C352.451 231.096 352.321 230.9 352.157 230.735Z" fill="#F86D70"/>
<path d="M441.965 381.496C488.416 381.496 526.073 375.627 526.073 368.388C526.073 361.149 488.416 355.28 441.965 355.28C395.514 355.28 357.857 361.149 357.857 368.388C357.857 375.627 395.514 381.496 441.965 381.496Z" fill="#F2F2F2"/>
<path d="M455.619 376.58C502.071 376.58 539.727 370.712 539.727 363.473C539.727 356.233 502.071 350.365 455.619 350.365C409.168 350.365 371.512 356.233 371.512 363.473C371.512 370.712 409.168 376.58 455.619 376.58Z" stroke="#3F3D56" stroke-miterlimit="10"/>
<path d="M496.916 125.005C496.673 124.728 496.423 124.459 496.166 124.197C498.138 121.96 500.178 119.667 500.16 116.792C500.138 113.299 497.039 110.619 495.881 107.317C494.306 102.822 496.492 98.0077 497.391 93.3366C498.091 89.5413 497.944 85.6385 496.961 81.9066C495.978 78.1747 494.183 74.7058 491.705 71.7475C490.795 70.6714 489.737 69.6307 488.382 69.2036C486.321 68.5537 484.128 69.4566 481.98 69.7219C474.889 70.5975 468.438 64.4877 461.313 65.0347C460.841 65.0519 460.376 65.156 459.941 65.3418C459.019 65.7827 458.52 66.7555 457.95 67.5941C455.737 70.8504 452.02 72.4688 448.323 74.1414C447.858 74.2779 447.416 74.4808 447.009 74.7438C445.899 75.2608 444.805 75.7998 443.774 76.4105C436.793 80.5425 437.805 86.3237 441.921 89.8947C441.117 93.9035 437.019 97.4336 437.725 101.555C438.279 104.786 441.643 106.985 442.291 110.199C442.668 112.065 442.075 113.844 441.252 115.61C433.44 117.418 424.615 120.747 423.926 126.623C422.728 136.844 419.121 165.075 419.121 165.075C419.121 165.075 414.943 187.694 430.819 177.001L430.616 177.603C427.754 186.264 425.802 195.2 424.789 204.265C424.628 205.613 424.304 206.676 423.717 207.023C423.504 207.149 423.925 207.348 424.842 207.597C424.739 207.978 424.627 208.356 424.527 208.738C422.783 215.348 421.668 222.109 421.198 228.93C420.751 234.972 419.918 240.979 418.703 246.914C414.943 265.832 418.703 290.096 418.703 290.096L426.909 328.729L428.313 335.334C429.24 336.359 430.373 337.177 431.638 337.734C432.188 340.101 432.569 342.504 432.779 344.925C432.801 345.194 432.819 345.467 432.836 345.74C432.345 345.803 431.873 345.971 431.452 346.233C431.032 346.496 430.674 346.846 430.402 347.26C427.477 351.373 430.819 354.663 419.539 362.888C416.625 365.013 415.219 366.945 414.863 368.586V368.587C414.479 370.353 415.312 371.782 416.8 372.75L416.803 372.752C417.057 372.916 417.32 373.063 417.592 373.193L417.605 373.199C417.743 373.265 417.884 373.328 418.029 373.387L418.031 373.388C418.176 373.448 418.325 373.504 418.477 373.557L418.503 373.566C418.646 373.615 418.791 373.661 418.939 373.704L418.971 373.714C419.124 373.758 419.28 373.799 419.439 373.837C419.452 373.84 419.466 373.843 419.48 373.847C419.625 373.881 419.773 373.912 419.922 373.941C419.941 373.944 419.96 373.948 419.98 373.952C420.139 373.982 420.301 374.008 420.464 374.031C420.481 374.034 420.499 374.036 420.517 374.039C420.663 374.059 420.81 374.076 420.959 374.091C420.987 374.094 421.015 374.097 421.044 374.099C421.206 374.114 421.37 374.126 421.535 374.135C421.557 374.137 421.578 374.137 421.599 374.138C421.745 374.145 421.892 374.149 422.04 374.151C422.074 374.152 422.109 374.152 422.144 374.152C422.308 374.153 422.474 374.151 422.64 374.146C422.662 374.145 422.684 374.143 422.705 374.143C422.852 374.137 422.999 374.128 423.147 374.117C423.186 374.114 423.225 374.112 423.264 374.108C423.43 374.094 423.595 374.078 423.761 374.058C423.781 374.055 423.8 374.052 423.82 374.05C423.969 374.031 424.117 374.009 424.265 373.984C424.306 373.978 424.348 373.971 424.389 373.964C424.554 373.935 424.718 373.904 424.882 373.868C424.898 373.865 424.913 373.861 424.929 373.857C425.079 373.824 425.228 373.788 425.377 373.749C425.419 373.738 425.461 373.727 425.503 373.715C425.665 373.671 425.826 373.625 425.987 373.573L426.013 373.564C426.166 373.515 426.317 373.462 426.467 373.406C426.508 373.391 426.548 373.376 426.589 373.361C426.747 373.3 426.904 373.237 427.059 373.169C434.579 369.879 450.038 361.243 450.038 361.243L450.038 361.164L450.037 361.112L450.037 361.036L450.036 360.967L450.035 360.847L450.034 360.74C450.034 360.698 450.034 360.655 450.033 360.607L450.031 360.481C450.031 360.424 450.03 360.368 450.029 360.305C450.028 360.262 450.028 360.215 450.027 360.17C450.026 360.104 450.025 360.04 450.023 359.969C450.021 359.855 450.019 359.736 450.016 359.61C449.94 356.016 449.585 347.761 447.949 348.083C447.391 348.193 447.012 348.976 446.621 349.878C446.558 349.759 446.494 349.637 446.428 349.51C444.836 346.439 442.532 341.168 442.308 336.017C443.592 335.086 444.782 334.031 445.86 332.867C445.86 332.867 445.02 329.33 444.306 325.6C443.687 322.367 443.161 318.987 443.353 317.65C443.771 314.771 438.34 292.564 438.34 292.564C438.34 292.564 438.899 287.678 440.023 280.888C442.208 267.691 446.512 247.297 452.933 241.531C453.083 241.399 453.23 241.272 453.38 241.157C453.38 241.157 457.976 241.979 461.736 267.888L462.826 279.428C463.139 282.624 463.68 285.793 464.447 288.912C465.569 293.884 465.922 298.999 465.496 304.079C465.02 310.881 464.815 318.888 464.727 324.51C464.66 328.746 464.66 331.633 464.66 331.633C465.438 332.29 466.278 332.87 467.167 333.365V337.138C467.158 337.939 466.844 338.706 466.288 339.283L466.273 339.299C465.68 339.965 465.249 340.759 465.012 341.619C464.282 342.932 463.665 345.065 463.407 348.494C462.572 359.598 462.154 358.364 462.154 358.364C461.674 359.565 461.355 360.824 461.206 362.109V362.109C461.183 362.349 461.168 362.591 461.163 362.833C461.163 362.871 461.163 362.909 461.163 362.947C461.162 363.058 461.164 363.169 461.169 363.279C461.171 363.333 461.174 363.387 461.177 363.441C461.183 363.523 461.19 363.605 461.198 363.686C461.206 363.76 461.215 363.833 461.225 363.906C461.233 363.958 461.24 364.01 461.249 364.062C461.266 364.16 461.286 364.258 461.309 364.354C461.319 364.397 461.33 364.44 461.341 364.482C461.368 364.583 461.397 364.682 461.431 364.78C461.441 364.81 461.453 364.84 461.465 364.87C461.498 364.959 461.534 365.046 461.573 365.132C461.585 365.157 461.596 365.184 461.609 365.209C461.657 365.309 461.712 365.405 461.77 365.499C461.786 365.525 461.802 365.55 461.819 365.576C461.881 365.67 461.948 365.76 462.019 365.847C462.036 365.867 462.054 365.886 462.071 365.906C462.15 365.997 462.234 366.084 462.323 366.165C462.332 366.173 462.343 366.181 462.352 366.189C462.444 366.269 462.54 366.343 462.641 366.412C462.657 366.423 462.671 366.434 462.687 366.445C462.798 366.517 462.913 366.582 463.031 366.641C463.055 366.653 463.078 366.664 463.102 366.676C463.23 366.736 463.361 366.789 463.494 366.835C463.517 366.843 463.541 366.85 463.565 366.858C463.717 366.908 463.872 366.949 464.029 366.983L464.046 366.986C464.209 367.019 464.382 367.045 464.562 367.065C464.586 367.068 464.61 367.071 464.636 367.074C464.814 367.091 465.002 367.101 465.198 367.104C465.234 367.105 465.271 367.105 465.307 367.105C465.506 367.106 465.712 367.1 465.929 367.086C465.962 367.083 465.997 367.08 466.031 367.077C466.261 367.06 466.499 367.036 466.749 367.001C475.523 365.767 479.701 364.944 479.283 360.009C479.031 357.035 478.324 352.716 477.802 349.753C477.537 348.248 477.05 346.791 476.357 345.428C476.379 345.197 476.399 344.959 476.417 344.715C476.568 342.675 476.559 340.249 475.941 338.624L476.133 335.023C478.31 334.471 480.277 333.292 481.79 331.633C481.79 331.633 481.853 328.964 482.036 325.427C482.312 319.961 482.864 312.419 483.879 309.425C485.55 304.49 483.879 287.217 483.879 287.217C483.879 287.217 477.612 257.607 483.461 244.858C488.621 233.612 488.576 222.363 483.613 211.398C483.711 211.321 483.8 211.232 483.879 211.135C483.879 211.135 482.626 210.313 483.043 200.854C483.362 193.635 481.249 186.182 480.229 183.054C481.827 183.739 483.464 184.327 485.132 184.815C494.742 187.694 495.577 177.001 495.577 177.001L497.666 160.962L500.144 137.055L500.144 137.054C500.823 135.178 501.733 130.494 496.916 125.005ZM454.443 109.158C454.432 109.423 454.414 109.687 454.387 109.95C454.309 110.801 454.13 111.64 453.851 112.447C454.137 111.356 454.311 110.238 454.37 109.111C454.394 109.127 454.419 109.142 454.443 109.158L454.443 109.158ZM479.701 167.542C479.85 167.814 479.99 168.078 480.126 168.338L479.071 167.799C479.462 165.86 480.094 163.978 480.954 162.196C481.993 160.123 482.847 157.963 483.508 155.74C483.478 158.308 483.602 160.876 483.879 163.43C484.715 170.01 479.701 167.542 479.701 167.542Z" fill="url(#paint0_linear)"/>
<path d="M444.273 78.1279C442.938 79.0386 441.542 80.0914 441.066 81.6364C440.3 84.1284 442.224 86.6303 442.414 89.2305C442.76 93.9588 437.413 97.8663 438.202 102.541C438.742 105.745 442.026 107.926 442.659 111.114C443.582 115.762 438.543 119.861 438.94 124.584C439.151 127.099 440.9 129.236 442.886 130.795C445.672 132.975 449.007 134.344 452.523 134.749C452.289 130.705 449.289 127.026 449.804 123.008C450.157 120.254 452.095 118.001 453.217 115.46C455.186 110.998 454.556 105.834 453.375 101.103C452.193 96.3717 450.489 91.6945 450.403 86.8188C450.351 83.884 451.728 79.5701 450.718 76.7853C449.49 73.3998 446.562 76.5676 444.273 78.1279Z" fill="#3F3D56"/>
<path opacity="0.1" d="M444.273 78.2404C442.938 79.1511 441.542 80.2038 441.066 81.7489C440.3 84.2408 442.224 86.7428 442.414 89.343C442.76 94.0712 437.413 97.9788 438.202 102.654C438.742 105.858 442.026 108.039 442.659 111.226C443.582 115.874 438.543 119.974 438.94 124.696C439.151 127.212 440.9 129.348 442.886 130.907C445.672 133.088 449.007 134.456 452.523 134.862C452.289 130.818 449.289 127.139 449.804 123.121C450.157 120.366 452.095 118.113 453.217 115.572C455.186 111.111 454.556 105.947 453.375 101.216C452.193 96.4842 450.489 91.807 450.403 86.9312C450.351 83.9965 451.728 79.6825 450.718 76.8977C449.49 73.5123 446.562 76.6801 444.273 78.2404Z" fill="black"/>
<path d="M448.182 351.109L444.511 354.78C444.511 354.78 431.46 361.713 433.091 352.332C433.537 349.544 433.632 346.71 433.372 343.898C433.035 339.973 432.257 336.098 431.052 332.348L443.287 329.901C441.252 336.296 444.605 344.347 446.697 348.446C447.541 350.097 448.182 351.109 448.182 351.109Z" fill="#8358CE"/>
<path d="M475.973 343.69C475.881 344.947 475.726 346.198 475.508 347.438C475.508 347.438 465.311 354.372 464.496 346.623C463.965 341.573 465.165 339.293 466.07 338.319L466.084 338.303C466.628 337.728 466.935 336.968 466.943 336.176V327.046L475.916 329.901L475.508 337.65C476.111 339.261 476.119 341.667 475.973 343.69Z" fill="#8358CE"/>
<path opacity="0.05" d="M448.182 351.109L444.511 354.78C444.511 354.78 431.46 361.713 433.091 352.332C433.538 349.544 433.632 346.71 433.373 343.898C436.232 343.478 439.617 346.623 439.617 346.623C444.397 353.368 445.686 350.815 446.697 348.446C447.542 350.097 448.182 351.109 448.182 351.109Z" fill="black"/>
<path d="M439.617 347.438C439.617 347.438 433.907 342.136 431.052 346.215C428.197 350.293 431.46 353.556 420.448 361.713C409.436 369.87 420.448 375.172 427.789 371.909C435.13 368.647 450.221 360.082 450.221 360.082C450.221 360.082 450.221 346.623 448.182 347.03C446.143 347.438 446.55 357.227 439.617 347.438Z" fill="#3F3D56"/>
<path opacity="0.05" d="M475.973 343.69C475.881 344.947 475.726 346.198 475.508 347.438C475.508 347.438 465.311 354.372 464.496 346.623C463.965 341.573 465.165 339.293 466.07 338.319C466.424 338.051 466.844 337.886 467.286 337.84C467.727 337.794 468.173 337.869 468.574 338.058C470.206 337.332 472 338.543 473.485 340.109C474.491 341.17 475.33 342.377 475.973 343.69Z" fill="black"/>
<path d="M468.575 338.873C468.575 338.873 464.089 336.426 463.273 347.438C462.457 358.45 462.05 357.227 462.05 357.227C462.05 357.227 457.971 367.015 466.536 365.792C475.101 364.568 479.179 363.752 478.772 358.858C478.526 355.908 477.835 351.625 477.326 348.687C476.84 345.777 475.505 343.076 473.487 340.923C471.999 339.357 470.207 338.148 468.575 338.873Z" fill="#3F3D56"/>
<path d="M483.257 286.668C483.257 286.668 484.889 303.798 483.257 308.692C482.266 311.661 481.728 319.141 481.459 324.562C481.279 328.069 481.218 330.716 481.218 330.716C473.469 338.873 464.496 330.716 464.496 330.716C464.496 330.716 464.496 327.853 464.561 323.652C464.647 318.077 464.847 310.136 465.312 303.39C465.728 298.353 465.383 293.282 464.288 288.349C463.539 285.255 463.01 282.112 462.706 278.943L461.641 267.499C457.971 241.804 453.484 240.989 453.484 240.989C453.337 241.103 453.195 241.229 453.048 241.36C446.779 247.078 442.578 267.303 440.445 280.391C439.348 287.125 438.801 291.97 438.801 291.97C438.801 291.97 444.104 313.994 443.696 316.849C443.508 318.175 444.022 321.527 444.626 324.733C445.323 328.432 446.143 331.94 446.143 331.94C435.947 342.952 429.013 334.387 429.013 334.387L427.643 327.837L419.632 289.523C419.632 289.523 415.962 265.46 419.632 246.699C420.818 240.81 421.631 234.853 422.067 228.863C422.526 222.101 423.614 215.397 425.318 208.838C425.815 206.896 426.367 204.97 426.974 203.058C426.974 203.058 442.289 200.395 456.71 200.395C467.527 200.395 477.837 201.892 480.81 207.137C481.496 208.344 482.118 209.554 482.678 210.767C487.842 221.864 487.997 233.264 482.85 244.659C477.14 257.303 483.257 286.668 483.257 286.668Z" fill="#3F3D56"/>
<path d="M448.998 138.617C448.998 138.617 427.382 116.593 443.696 118.225C447.395 118.596 449.899 117.935 451.559 116.695C453.452 115.284 454.247 113.123 454.467 110.867C454.916 106.369 453.076 101.503 453.076 101.503C453.076 101.503 475.1 83.9652 470.614 105.989C470.121 108.227 469.835 110.506 469.758 112.796C469.684 117.47 471.222 119.261 473.379 119.995C477.017 121.239 482.425 119.497 484.889 123.527C489.375 130.868 448.998 138.617 448.998 138.617Z" fill="#AE6E79"/>
<path opacity="0.1" d="M448.998 138.617C448.998 138.617 427.382 116.593 443.696 118.225C447.395 118.596 449.899 117.935 451.559 116.695C453.452 115.284 454.247 113.123 454.467 110.867C454.916 106.369 453.076 101.503 453.076 101.503C453.076 101.503 475.1 83.9652 470.614 105.989C470.121 108.227 469.835 110.506 469.758 112.796C469.684 117.47 471.222 119.261 473.379 119.995C477.017 121.239 482.425 119.497 484.889 123.527C489.375 130.868 448.998 138.617 448.998 138.617Z" fill="#DEA1AB"/>
<path d="M481.626 95.3851C481.624 100.035 479.775 104.493 476.486 107.78C473.197 111.067 468.738 112.913 464.088 112.913C459.439 112.913 454.98 111.067 451.691 107.78C448.402 104.493 446.553 100.035 446.551 95.3851C446.551 95.0588 446.559 94.7325 446.579 94.4103C446.833 89.8506 448.855 85.5696 452.216 82.4778C455.577 79.386 460.012 77.7272 464.577 77.8542C469.142 77.9812 473.477 79.8839 476.661 83.1577C479.845 86.4316 481.626 90.8183 481.626 95.3851Z" fill="#C28690"/>
<path opacity="0.05" d="M448.998 138.617C448.998 138.617 427.382 116.593 443.696 118.225C447.395 118.596 449.899 117.935 451.559 116.695C448.402 121.932 444.85 131.35 460.826 130.46C475.447 129.649 475.198 123.821 473.379 119.995C477.017 121.239 482.425 119.497 484.889 123.527C489.375 130.868 448.998 138.617 448.998 138.617Z" fill="black"/>
<path opacity="0.1" d="M483.258 212.439C479.547 217.264 432.236 210.938 425.318 208.838C425.816 206.896 426.368 204.97 426.974 203.058C426.974 203.058 442.289 200.395 456.711 200.395C467.527 200.395 477.838 201.892 480.811 207.137C481.496 208.344 482.119 209.554 482.679 210.767C482.94 212.227 483.258 212.439 483.258 212.439Z" fill="black"/>
<path d="M453.484 114.554C453.484 114.554 425.954 116.797 424.73 127.402C423.56 137.539 420.04 165.536 420.04 165.536C420.04 165.536 415.961 187.968 431.46 177.364L431.261 177.96C428.466 186.557 426.56 195.417 425.572 204.402C425.415 205.739 425.1 206.793 424.526 207.137C422.487 208.36 479.178 216.517 483.257 211.215C483.257 211.215 482.033 210.4 482.441 201.019C482.849 191.638 479.178 181.85 479.178 181.85C479.178 181.85 475.916 172.061 480.402 162.681C484.888 153.3 483.257 150.445 483.257 150.445L498.755 138.617C498.755 138.617 502.102 132.88 495.983 125.797C494.146 123.702 491.914 121.99 489.415 120.758C486.915 119.526 484.197 118.8 481.416 118.62L470.726 117.859C470.726 117.859 482.441 130.46 460.417 131.684C438.393 132.908 453.484 114.554 453.484 114.554Z" fill="#575A89"/>
<path opacity="0.05" d="M435.131 136.986C435.131 136.986 435.947 143.512 434.315 145.551C432.684 147.59 432.276 156.971 434.315 162.681" fill="black"/>
<path opacity="0.1" d="M453.048 241.36C446.78 247.078 442.579 267.303 440.446 280.391C437.476 262.172 449.814 232.016 449.814 232.016L453.048 241.36Z" fill="black"/>
<path opacity="0.1" d="M446.143 331.94C435.946 342.952 429.013 334.387 429.013 334.387L427.643 327.837C431.497 329.839 438.01 331.393 444.626 324.733C445.323 328.432 446.143 331.94 446.143 331.94Z" fill="black"/>
<path opacity="0.1" d="M481.459 324.562C481.279 328.069 481.218 330.716 481.218 330.716C473.469 338.873 464.496 330.716 464.496 330.716C464.496 330.716 464.496 327.853 464.561 323.652C467.926 325.789 473.975 328.143 481.459 324.562Z" fill="black"/>
<path d="M462.856 150.853H439.218C438.087 150.853 437.17 151.77 437.17 152.901V160.225C437.17 161.356 438.087 162.273 439.218 162.273H462.856C463.987 162.273 464.904 161.356 464.904 160.225V152.901C464.904 151.77 463.987 150.853 462.856 150.853Z" fill="#CDD0DB"/>
<path opacity="0.05" d="M462.856 150.853H439.218C438.087 150.853 437.17 151.77 437.17 152.901V160.225C437.17 161.356 438.087 162.273 439.218 162.273H462.856C463.987 162.273 464.904 161.356 464.904 160.225V152.901C464.904 151.77 463.987 150.853 462.856 150.853Z" fill="black"/>
<path d="M462.856 151.261H439.218C438.087 151.261 437.17 152.178 437.17 153.309V160.633C437.17 161.764 438.087 162.681 439.218 162.681H462.856C463.987 162.681 464.904 161.764 464.904 160.633V153.309C464.904 152.178 463.987 151.261 462.856 151.261Z" fill="#3F3D56"/>
<path d="M458.99 157.99C459.666 157.99 460.214 157.443 460.214 156.767C460.214 156.091 459.666 155.543 458.99 155.543C458.314 155.543 457.767 156.091 457.767 156.767C457.767 157.443 458.314 157.99 458.99 157.99Z" fill="#9DA7C0"/>
<path opacity="0.05" d="M425.367 168.937C425.735 167.841 426.338 166.839 427.134 166C427.929 165.162 428.899 164.508 429.974 164.083C431.696 163.444 433.111 162.175 433.93 160.531C435.539 156.971 438.394 153.3 445.735 155.747C453.077 158.194 443.696 159.826 443.696 159.826C443.696 159.826 460.418 157.379 453.892 162.273C447.367 167.167 439.21 170.022 439.21 170.022L435.193 174.275C434.618 174.896 433.917 175.389 433.137 175.72C432.358 176.051 431.517 176.214 430.67 176.197C429.823 176.18 428.99 175.985 428.224 175.623C427.458 175.261 426.778 174.741 426.227 174.097C425.64 173.39 425.251 172.54 425.1 171.633C424.949 170.727 425.041 169.796 425.367 168.937Z" fill="black"/>
<path d="M424.959 168.121C425.326 167.025 425.929 166.023 426.725 165.185C427.521 164.346 428.491 163.692 429.566 163.267C431.288 162.629 432.702 161.359 433.522 159.715C435.131 156.155 437.986 152.484 445.327 154.932C452.669 157.379 443.288 159.01 443.288 159.01C443.288 159.01 460.01 156.563 453.484 161.457C446.959 166.351 438.802 169.206 438.802 169.206L434.785 173.459C434.209 174.081 433.509 174.573 432.729 174.904C431.95 175.236 431.109 175.398 430.262 175.382C429.415 175.365 428.581 175.169 427.816 174.807C427.05 174.445 426.369 173.925 425.819 173.281C425.232 172.574 424.843 171.724 424.692 170.818C424.541 169.911 424.633 168.981 424.959 168.121Z" fill="#C28690"/>
<path opacity="0.05" d="M482.441 176.548L479.586 183.481L475.932 180.794L465.719 173.285L458.786 168.799C448.998 161.457 458.786 160.234 458.786 160.234C455.115 158.602 458.786 156.971 458.786 156.971C471.837 154.116 469.39 164.72 469.39 164.72L477.657 169.007L480.402 170.43L482.441 176.548Z" fill="black"/>
<path d="M483.258 175.732L480.403 182.666L476.749 179.978L466.536 172.469L459.602 167.983C449.814 160.642 459.602 159.418 459.602 159.418C455.932 157.787 459.602 156.155 459.602 156.155C472.654 153.3 470.207 163.904 470.207 163.904L478.474 168.191L481.219 169.614L483.258 175.732Z" fill="#C28690"/>
<path opacity="0.05" d="M483.257 175.732L480.402 182.666L476.748 179.978C480.056 180.096 483.963 178.497 478.473 168.191L481.218 169.614L483.257 175.732Z" fill="black"/>
<path d="M498.348 134.539L499.135 137.748L496.716 161.457L494.677 177.364C494.677 177.364 493.861 187.968 484.481 185.113C475.1 182.258 474.284 179.403 474.284 179.403C474.284 179.403 487.743 183.889 479.178 167.983C479.178 167.983 484.073 170.43 483.257 163.904C482.441 157.379 483.257 145.959 483.257 145.959L498.348 134.539Z" fill="#575A89"/>
<path opacity="0.05" d="M481.626 95.3851C481.626 99.3625 480.274 103.222 477.792 106.33C475.31 109.438 471.846 111.61 467.967 112.49C467.38 110.794 466.964 109.105 467.392 107.388C468.22 104.056 472.066 101.625 471.638 98.2196C471.602 97.8362 471.468 97.4684 471.25 97.151C470.39 96.0172 468.636 96.5801 467.241 96.8615C465.423 97.1628 463.558 96.796 461.989 95.8288C460.421 94.8617 459.256 93.3597 458.709 91.6002C457.142 93.141 455.18 94.2189 453.04 94.7148C450.899 95.2107 448.663 95.1053 446.579 94.4103C446.833 89.8506 448.855 85.5696 452.216 82.4778C455.577 79.386 460.012 77.7272 464.577 77.8542C469.142 77.9812 473.477 79.8839 476.661 83.1577C479.845 86.4316 481.626 90.8183 481.626 95.3851Z" fill="black"/>
<path d="M459.119 90.7857C459.665 92.5449 460.829 94.0467 462.397 95.0135C463.965 95.9804 465.83 96.3467 467.647 96.0449C469.043 95.7662 470.796 95.203 471.657 96.3371C471.877 96.6523 472.01 97.0194 472.044 97.402C472.475 100.81 468.629 103.239 467.8 106.573C466.947 110.006 469.448 113.321 469.981 116.818C470.272 118.731 469.964 120.68 469.986 122.615C470.008 124.549 470.442 126.628 471.877 127.927C473.311 129.226 475.962 129.239 476.923 127.559C481.513 129.984 479.68 137.501 483.165 141.348C485.087 143.469 488.249 143.98 491.099 143.708C491.766 143.698 492.416 143.488 492.963 143.106C493.436 142.641 493.754 142.043 493.876 141.391C494.595 138.669 494.471 135.792 493.52 133.141C493.063 131.875 492.407 130.594 492.577 129.257C492.785 128.221 493.274 127.262 493.992 126.485C496.183 123.769 499.173 121.142 499.151 117.652C499.13 114.188 496.104 111.53 494.974 108.255C493.436 103.798 495.57 99.0233 496.448 94.3907C497.133 90.633 496.992 86.7711 496.033 83.0736C495.075 79.3762 493.322 75.9318 490.898 72.9802C490.009 71.913 488.977 70.8809 487.654 70.4573C485.641 69.8128 483.501 70.7083 481.404 70.9714C474.481 71.8398 468.184 65.7805 461.228 66.3229C460.767 66.3401 460.313 66.4434 459.889 66.6275C458.989 67.0647 458.502 68.0295 457.945 68.8612C454.875 73.4511 448.839 74.759 444.106 77.6046C430.286 85.9148 448.549 100.958 459.119 90.7857Z" fill="#3F3D56"/>
<path opacity="0.3" d="M427.789 370.278C423.023 372.396 416.712 370.904 415.883 367.364C414.884 372.037 422.345 374.329 427.789 371.909C435.131 368.647 450.221 360.082 450.221 360.082C450.221 360.082 450.221 359.448 450.2 358.462C449.761 358.711 435.021 367.064 427.789 370.278Z" fill="white"/>
<path opacity="0.3" d="M478.75 358.623C478.28 362.293 474.211 363.064 466.536 364.16C462.633 364.718 461.359 362.988 461.125 360.94C460.87 363.563 461.614 366.495 466.536 365.792C475.101 364.568 479.179 363.752 478.772 358.858C478.765 358.782 478.757 358.701 478.75 358.623Z" fill="white"/>
<g opacity="0.1">
<path opacity="0.1" d="M492.73 141.911C489.88 142.182 486.718 141.672 484.796 139.55C481.311 135.704 483.144 128.187 478.554 125.762C477.593 127.442 474.942 127.428 473.508 126.13C472.073 124.831 471.639 122.752 471.617 120.817C471.595 118.883 471.903 116.934 471.612 115.021C471.079 111.524 468.578 108.208 469.432 104.776C470.26 101.442 474.106 99.0126 473.675 95.6048C473.641 95.2222 473.508 94.8551 473.288 94.5399C472.427 93.4058 470.674 93.969 469.278 94.2477C467.461 94.5495 465.596 94.1832 464.028 93.2163C462.461 92.2495 461.296 90.7476 460.75 88.9885C451.302 98.0814 435.71 87.027 442.377 78.6429C431.974 87.098 449.042 100.318 459.118 90.6199C459.665 92.379 460.829 93.8809 462.397 94.8477C463.965 95.8146 465.83 96.1809 467.647 95.8791C469.043 95.6004 470.796 95.0372 471.657 96.1713C471.876 96.4865 472.01 96.8536 472.044 97.2362C472.475 100.644 468.629 103.073 467.8 106.407C466.947 109.84 469.448 113.155 469.98 116.652C470.272 118.565 469.964 120.514 469.986 122.449C470.007 124.384 470.442 126.462 471.876 127.761C473.311 129.06 475.962 129.073 476.923 127.393C481.512 129.818 479.68 137.335 483.164 141.182C485.087 143.304 488.248 143.814 491.098 143.542C491.766 143.532 492.415 143.322 492.963 142.94C493.317 142.617 493.577 142.205 493.716 141.746C493.393 141.83 493.063 141.885 492.73 141.911Z" fill="black"/>
<path opacity="0.1" d="M459.576 67.064C459.716 66.8545 459.852 66.6366 459.991 66.4208C459.957 66.4353 459.922 66.4455 459.889 66.4616C458.989 66.8989 458.501 67.8637 457.945 68.6954C457.753 68.9815 457.551 69.2551 457.337 69.5165C458.196 68.81 458.951 67.9841 459.576 67.064Z" fill="black"/>
</g>
<path opacity="0.1" d="M437.17 181.158C437.17 181.158 436.114 184.829 443.048 186.461C449.981 188.092 437.17 181.158 437.17 181.158Z" fill="black"/>
<path opacity="0.1" d="M434.135 192.034C434.135 192.034 430.595 194.618 439.133 199.104C447.67 203.59 434.135 192.034 434.135 192.034Z" fill="black"/>
<path opacity="0.1" d="M426.19 235.131C426.19 235.131 435.8 232.412 437.113 228.333C438.426 224.255 426.19 235.131 426.19 235.131Z" fill="black"/>
<path opacity="0.1" d="M426.19 286.792C426.19 286.792 430.33 288.832 432.951 288.56C435.571 288.288 426.19 286.792 426.19 286.792Z" fill="black"/>
<path opacity="0.1" d="M427.643 292.502C427.643 292.502 429.514 293.454 432.95 293.59C436.386 293.726 427.643 292.502 427.643 292.502Z" fill="black"/>
<path d="M497.94 308.147C499.174 308.596 500.496 308.752 501.801 308.603C503.106 308.454 504.358 308.003 505.46 307.287C506.561 306.572 507.481 305.61 508.147 304.478C508.813 303.346 509.207 302.074 509.298 300.764C509.389 299.454 509.175 298.14 508.671 296.927C508.168 295.714 507.39 294.634 506.398 293.773C505.406 292.912 504.228 292.293 502.956 291.964C501.684 291.636 500.354 291.608 499.069 291.882L499.281 296.247L497.216 292.506C495.189 293.458 493.623 295.177 492.863 297.283C492.592 298.021 492.428 298.793 492.375 299.577C492.244 301.416 492.717 303.248 493.721 304.795C494.726 306.341 496.206 307.518 497.94 308.147Z" fill="#57B894"/>
<path d="M508.159 358.776C507.43 355.064 510.589 351.773 513.71 349.634C516.83 347.494 520.476 345.392 521.541 341.762C523.071 336.544 518.513 331.766 514.966 327.645C512.334 324.588 510.074 321.228 508.232 317.638C507.432 316.228 506.887 314.688 506.622 313.088C506.342 310.775 507.085 308.474 507.834 306.268C510.327 298.919 512.994 291.631 515.832 284.406" stroke="#3F3D56" stroke-miterlimit="10"/>
<path d="M498.289 307.023C499.524 307.472 500.846 307.628 502.151 307.479C503.455 307.33 504.708 306.879 505.809 306.164C506.91 305.448 507.83 304.486 508.497 303.354C509.163 302.222 509.557 300.951 509.648 299.64C509.739 298.33 509.524 297.016 509.021 295.803C508.518 294.59 507.739 293.51 506.748 292.649C505.756 291.788 504.578 291.169 503.306 290.841C502.034 290.512 500.703 290.484 499.419 290.758L499.631 295.123L497.566 291.382C495.539 292.335 493.973 294.053 493.212 296.159C492.942 296.897 492.778 297.669 492.724 298.453C492.594 300.293 493.067 302.124 494.071 303.671C495.075 305.217 496.556 306.394 498.289 307.023V307.023Z" stroke="#3F3D56" stroke-miterlimit="10"/>
<path d="M507.122 282.898C507.606 281.561 508.419 280.368 509.486 279.428C510.553 278.488 511.839 277.832 513.226 277.52L513.924 281.67L515.219 277.311C517.017 277.338 518.759 277.935 520.195 279.017C521.631 280.098 522.686 281.608 523.208 283.329C523.73 285.049 523.692 286.891 523.099 288.588C522.506 290.285 521.389 291.75 519.909 292.77C518.429 293.791 516.664 294.316 514.866 294.267C513.069 294.219 511.334 293.601 509.911 292.503C508.488 291.404 507.451 289.882 506.95 288.155C506.448 286.429 506.509 284.588 507.122 282.898Z" fill="#57B894"/>
<path d="M507.588 281.399C508.072 280.063 508.885 278.87 509.952 277.93C511.019 276.99 512.305 276.334 513.692 276.021L514.39 280.171L515.685 275.813C517.482 275.84 519.225 276.437 520.661 277.518C522.097 278.6 523.152 280.11 523.674 281.83C524.196 283.55 524.158 285.392 523.565 287.089C522.972 288.786 521.855 290.251 520.375 291.272C518.895 292.293 517.129 292.817 515.332 292.769C513.535 292.721 511.8 292.103 510.377 291.004C508.954 289.906 507.917 288.383 507.416 286.657C506.914 284.93 506.974 283.089 507.588 281.399V281.399Z" stroke="#3F3D56" stroke-miterlimit="10"/>
<path d="M513.476 327.73C515.434 328.44 517.584 328.405 519.518 327.631C521.452 326.858 523.033 325.4 523.96 323.535C524.888 321.671 525.097 319.53 524.548 317.521C523.999 315.512 522.729 313.776 520.982 312.643L519.987 315.992L519.282 311.793C519.275 311.79 519.268 311.787 519.26 311.785C517.146 311.018 514.813 311.123 512.776 312.075C510.739 313.028 509.163 314.751 508.396 316.865C507.629 318.98 507.733 321.312 508.686 323.35C509.639 325.387 511.362 326.963 513.476 327.73H513.476Z" fill="#57B894"/>
<path d="M513.88 326.212C515.837 326.922 517.988 326.887 519.921 326.113C521.855 325.34 523.436 323.882 524.364 322.017C525.291 320.153 525.5 318.012 524.951 316.003C524.402 313.995 523.133 312.258 521.385 311.125L520.391 314.474L519.685 310.276C519.678 310.272 519.671 310.27 519.664 310.267C518.617 309.888 517.505 309.718 516.393 309.768C515.28 309.817 514.188 310.086 513.179 310.557C512.171 311.029 511.264 311.695 510.513 312.517C509.761 313.339 509.179 314.301 508.799 315.348C508.42 316.395 508.25 317.506 508.299 318.619C508.349 319.731 508.618 320.823 509.089 321.832C509.561 322.841 510.227 323.747 511.049 324.498C511.871 325.25 512.833 325.832 513.88 326.212V326.212Z" stroke="#3F3D56" stroke-miterlimit="10"/>
<path d="M504.647 341.814C504.983 343.729 505.968 345.47 507.437 346.746C508.905 348.021 510.767 348.753 512.71 348.818C514.654 348.884 516.561 348.279 518.111 347.105C519.662 345.932 520.762 344.26 521.226 342.372C521.691 340.484 521.492 338.493 520.664 336.734C519.835 334.975 518.426 333.554 516.674 332.71C514.922 331.866 512.933 331.65 511.041 332.098C509.149 332.547 507.468 333.632 506.281 335.173L510.06 340.86L504.897 337.841C504.496 339.126 504.411 340.489 504.647 341.814Z" fill="#57B894"/>
<path d="M504.996 340.69C505.333 342.605 506.318 344.347 507.786 345.622C509.254 346.897 511.116 347.629 513.06 347.695C515.003 347.76 516.91 347.155 518.461 345.981C520.011 344.808 521.111 343.137 521.576 341.248C522.041 339.36 521.842 337.369 521.013 335.61C520.184 333.851 518.776 332.43 517.024 331.586C515.272 330.742 513.283 330.526 511.391 330.975C509.498 331.423 507.818 332.508 506.631 334.049L510.409 339.736L505.246 336.717C504.846 338.002 504.76 339.365 504.996 340.69V340.69Z" stroke="#3F3D56" stroke-miterlimit="10"/>
<path d="M496.384 363.805C496.384 363.805 503.868 360.872 506.123 359.266C508.379 357.66 517.635 355.742 518.195 358.318C518.754 360.894 529.442 371.129 520.992 371.197C512.543 371.265 501.36 372.583 499.109 371.212C496.858 369.841 496.384 363.805 496.384 363.805Z" fill="#656380"/>
<path opacity="0.2" d="M521.143 370.3C512.694 370.369 501.511 371.687 499.26 370.315C497.545 369.271 496.862 365.524 496.634 363.795C496.475 363.802 496.384 363.805 496.384 363.805C496.384 363.805 496.858 369.841 499.109 371.212C501.36 372.583 512.543 371.265 520.993 371.197C523.432 371.177 524.274 370.31 524.228 369.024C523.889 369.801 522.959 370.286 521.143 370.3Z" fill="black"/>
</g>
<defs>
<linearGradient id="paint0_linear" x1="457.73" y1="374.153" x2="457.73" y2="65" gradientUnits="userSpaceOnUse">
<stop stop-color="#808080" stop-opacity="0.25"/>
<stop offset="0.53514" stop-color="#808080" stop-opacity="0.12"/>
<stop offset="1" stop-color="#808080" stop-opacity="0.1"/>
</linearGradient>
<clipPath id="clip0">
<rect y="65" width="540" height="316.496" fill="white"/>
</clipPath>
</defs>
</svg>
