<svg width="540" height="405" viewBox="0 0 540 405" fill="none" xmlns="http://www.w3.org/2000/svg">
<path opacity="0.1" d="M229.728 15.5553C207.779 6.61451 184.583 -0.870691 160.903 0.0819712C126.062 1.45475 92.6921 22.437 76.2992 53.2476C62.4101 79.3482 60.6976 109.946 54.7157 138.91C47.346 174.603 33.2325 208.52 18.1506 241.691C10.0487 259.484 1.50381 277.709 0.175142 297.241C-1.67319 324.354 11.2651 351.378 31.5495 369.431C51.8339 387.484 78.7912 396.981 105.819 399.058C120.21 400.164 135.245 399.141 148.03 392.431C161.553 385.33 171.408 372.496 184.985 365.502C197.569 358.993 212.284 358.105 226.41 358.951C244.911 360.061 263.142 363.942 280.495 370.466C300.237 377.898 318.596 388.656 338.296 396.188C357.995 403.721 380.004 407.928 400.141 401.638C419.038 395.721 434.001 381.401 447.483 366.875C469.611 343.031 489.793 317.446 507.834 290.366C519.993 272.117 531.307 252.863 536.687 231.591C546.962 190.928 532.819 145.046 501.439 117.271C475.456 94.2653 440.562 84.2772 406.412 78.218C375.274 72.6914 339.27 72.3482 310.606 57.9458C283.265 44.1884 258.392 27.2358 229.728 15.5553Z" fill="#F35627"/>
<path d="M63.6338 355.816H133.372" stroke="#3F3D56" stroke-miterlimit="10"/>
<path d="M467.193 98.0786H173.87C169.369 98.0786 165.721 101.727 165.721 106.228V299.564C165.721 304.065 169.369 307.714 173.87 307.714H467.193C471.693 307.714 475.342 304.065 475.342 299.564V106.228C475.342 101.727 471.693 98.0786 467.193 98.0786Z" fill="#F2F2F2"/>
<path d="M457.74 84.8452H164.417C159.917 84.8452 156.268 88.4937 156.268 92.9943V286.331C156.268 290.832 159.917 294.48 164.417 294.48H457.74C462.241 294.48 465.889 290.832 465.889 286.331V92.9943C465.889 88.4937 462.241 84.8452 457.74 84.8452Z" stroke="#3F3D56" stroke-miterlimit="10"/>
<path d="M156.268 104.943H465.889" stroke="#3F3D56" stroke-miterlimit="10"/>
<path opacity="0.3" d="M422.789 152.063H344.306C342.661 152.063 341.327 153.397 341.327 155.042V162.107C341.327 163.752 342.661 165.086 344.306 165.086H422.789C424.435 165.086 425.769 163.752 425.769 162.107V155.042C425.769 153.397 424.435 152.063 422.789 152.063Z" fill="#F86D70"/>
<path opacity="0.3" d="M438.963 188.192H328.132C326.486 188.192 325.152 189.526 325.152 191.172V195.715C325.152 197.361 326.486 198.695 328.132 198.695H438.963C440.609 198.695 441.943 197.361 441.943 195.715V191.172C441.943 189.526 440.609 188.192 438.963 188.192Z" fill="#F86D70"/>
<path opacity="0.3" d="M438.963 216.76H328.132C326.486 216.76 325.152 218.094 325.152 219.739V224.283C325.152 225.928 326.486 227.262 328.132 227.262H438.963C440.609 227.262 441.943 225.928 441.943 224.283V219.739C441.943 218.094 440.609 216.76 438.963 216.76Z" fill="#F86D70"/>
<path opacity="0.3" d="M438.963 245.327H328.132C326.486 245.327 325.152 246.661 325.152 248.307V252.85C325.152 254.496 326.486 255.83 328.132 255.83H438.963C440.609 255.83 441.943 254.496 441.943 252.85V248.307C441.943 246.661 440.609 245.327 438.963 245.327Z" fill="#F86D70"/>
<path d="M426.99 147.862H348.507C346.861 147.862 345.527 149.196 345.527 150.841V157.905C345.527 159.551 346.861 160.885 348.507 160.885H426.99C428.635 160.885 429.969 159.551 429.969 157.905V150.841C429.969 149.196 428.635 147.862 426.99 147.862Z" stroke="#3F3D56" stroke-miterlimit="10"/>
<path d="M443.164 183.991H332.333C330.688 183.991 329.354 185.325 329.354 186.971V191.514C329.354 193.16 330.688 194.494 332.333 194.494H443.164C444.81 194.494 446.144 193.16 446.144 191.514V186.971C446.144 185.325 444.81 183.991 443.164 183.991Z" stroke="#3F3D56" stroke-miterlimit="10"/>
<path d="M443.164 212.559H332.333C330.688 212.559 329.354 213.893 329.354 215.538V220.082C329.354 221.727 330.688 223.061 332.333 223.061H443.164C444.81 223.061 446.144 221.727 446.144 220.082V215.538C446.144 213.893 444.81 212.559 443.164 212.559Z" stroke="#3F3D56" stroke-miterlimit="10"/>
<path d="M443.164 241.126H332.333C330.688 241.126 329.354 242.46 329.354 244.106V248.649C329.354 250.295 330.688 251.629 332.333 251.629H443.164C444.81 251.629 446.144 250.295 446.144 248.649V244.106C446.144 242.46 444.81 241.126 443.164 241.126Z" stroke="#3F3D56" stroke-miterlimit="10"/>
<path opacity="0.3" d="M179.794 103.75C183.275 103.75 186.096 100.929 186.096 97.4484C186.096 93.9681 183.275 91.1467 179.794 91.1467C176.314 91.1467 173.493 93.9681 173.493 97.4484C173.493 100.929 176.314 103.75 179.794 103.75Z" fill="#F86D70"/>
<path opacity="0.3" d="M197.439 103.75C200.92 103.75 203.741 100.929 203.741 97.4484C203.741 93.9681 200.92 91.1467 197.439 91.1467C193.959 91.1467 191.138 93.9681 191.138 97.4484C191.138 100.929 193.959 103.75 197.439 103.75Z" fill="#F86D70"/>
<path opacity="0.3" d="M215.083 103.75C218.564 103.75 221.385 100.929 221.385 97.4484C221.385 93.9681 218.564 91.1467 215.083 91.1467C211.603 91.1467 208.782 93.9681 208.782 97.4484C208.782 100.929 211.603 103.75 215.083 103.75Z" fill="#F86D70"/>
<path d="M182.315 101.229C185.795 101.229 188.616 98.4081 188.616 94.9277C188.616 91.4474 185.795 88.6261 182.315 88.6261C178.835 88.6261 176.013 91.4474 176.013 94.9277C176.013 98.4081 178.835 101.229 182.315 101.229Z" stroke="#3F3D56" stroke-miterlimit="10"/>
<path d="M199.959 101.229C203.44 101.229 206.261 98.4081 206.261 94.9277C206.261 91.4474 203.44 88.6261 199.959 88.6261C196.479 88.6261 193.658 91.4474 193.658 94.9277C193.658 98.4081 196.479 101.229 199.959 101.229Z" stroke="#3F3D56" stroke-miterlimit="10"/>
<path d="M217.604 101.229C221.085 101.229 223.906 98.4081 223.906 94.9277C223.906 91.4474 221.085 88.6261 217.604 88.6261C214.124 88.6261 211.303 91.4474 211.303 94.9277C211.303 98.4081 214.124 101.229 217.604 101.229Z" stroke="#3F3D56" stroke-miterlimit="10"/>
<path d="M254.092 285.658C253.037 280.798 252.758 274.16 253.112 269.542C253.112 269.542 247.778 246.106 243.58 243.919L243.579 243.92C243.515 244.003 241.478 246.674 241.219 254.937C240.957 263.332 237.984 268.842 237.984 268.842C237.984 268.842 238.946 279.305 238.396 285.658L254.092 285.658Z" fill="#F86D70"/>
<path d="M292.9 136.519H196.082C194.771 136.519 193.472 136.777 192.261 137.279C191.049 137.781 189.948 138.516 189.021 139.444C188.093 140.371 187.358 141.472 186.856 142.684C186.354 143.895 186.096 145.194 186.096 146.505V275.671C186.096 276.982 186.354 278.281 186.856 279.493C187.358 280.704 188.093 281.805 189.021 282.733C189.948 283.66 191.049 284.396 192.261 284.898C193.472 285.399 194.771 285.658 196.082 285.658H230.05C228.916 280.953 227.506 273.604 228.934 268.495L228.933 268.492L228.934 268.494C229.001 268.256 229.072 268.02 229.151 267.792C230.132 264.476 230.459 261.002 230.114 257.561C230.745 254.621 230.745 251.581 230.114 248.641C229.065 243.745 228.33 238.934 228.33 238.934C228.33 238.934 227.752 232.464 228.257 228.497C228.268 228.41 228.281 228.327 228.293 228.243C228.115 228.202 228.015 228.179 228.015 228.179C228.015 228.179 229.501 221.445 230.026 217.16C230.15 216.149 230.313 214.866 230.489 213.499C230.005 213.419 229.528 213.298 229.064 213.138C224.342 211.476 222.855 196.435 222.855 196.435V191.669C222.855 191.669 221.281 184.367 226.791 181.132C232.096 178.016 234.214 177.163 234.363 177.105C234.404 177.076 234.443 177.049 234.485 177.017C235.084 176.547 235.559 175.936 235.867 175.239C235.874 175.119 235.876 174.999 235.872 174.881C235.782 173.172 234.593 171.619 233.464 170.263C232.502 169.107 231.539 167.95 230.577 166.794C230.247 166.45 229.994 166.039 229.833 165.59C229.772 165.343 229.746 165.088 229.755 164.833C229.754 164.738 229.754 164.644 229.756 164.55C229.772 163.688 229.795 162.826 229.826 161.964C229.854 161.211 230.043 160.261 230.78 160.106C231.164 160.026 231.672 160.166 231.874 159.831C231.942 159.693 231.96 159.535 231.923 159.385C231.921 159.396 231.92 159.408 231.917 159.419C231.915 159.405 231.912 159.391 231.91 159.377C231.758 158.773 231.666 158.156 231.636 157.534C231.628 157.254 231.668 156.974 231.755 156.707C232.182 155.457 233.653 154.944 234.952 154.708C236.252 154.472 237.711 154.269 238.527 153.231C238.745 152.886 238.982 152.553 239.236 152.233C239.61 151.893 240.07 151.661 240.566 151.563C242.18 151.154 243.884 151.305 245.4 151.992C246.029 152.278 246.66 152.665 247.35 152.621C248.066 152.576 248.678 152.071 249.385 151.949C250.528 151.751 251.62 152.607 252.183 153.62C252.54 154.265 252.719 154.993 252.701 155.73C252.714 156.464 252.449 157.176 251.96 157.722C251.468 158.244 250.734 158.602 250.53 159.289C250.447 159.569 250.466 159.87 250.393 160.152C250.384 160.187 250.369 160.22 250.357 160.255C250.37 160.272 250.385 160.289 250.398 160.306C251.258 161.439 251.835 162.762 252.079 164.163C252.324 165.564 252.23 167.004 251.805 168.361C251.381 169.719 250.637 170.955 249.637 171.967C248.638 172.979 247.41 173.737 246.058 174.178C246.054 174.266 246.051 174.355 246.051 174.444C246.026 174.995 246.12 175.545 246.325 176.057C246.531 176.57 246.845 177.031 247.244 177.412L255.036 180.607C255.036 180.607 259.727 180.039 261.42 187.039C261.691 188.202 261.789 189.4 261.71 190.592C261.648 191.647 261.791 193.506 262.994 195.911C264.918 199.758 264.48 208.59 260.545 209.465C256.818 210.293 255.368 209.945 255.225 209.906L255.217 210.061C255.278 211.718 255.868 226.012 258.009 227.742C258.602 228.22 258.488 228.543 258.003 228.761L258.004 228.762C258.004 228.762 258.008 228.854 258.017 229.019C258.081 230.065 258.412 234.046 259.845 236.311C261.507 238.934 261.333 254.064 261.333 254.064L262.469 262.983C262.469 262.983 261.77 268.493 262.469 269.454C262.866 269.999 263.347 278.446 263.689 285.658H292.9C295.548 285.658 298.088 284.605 299.961 282.733C301.834 280.86 302.886 278.32 302.886 275.671V146.505C302.886 145.194 302.628 143.895 302.126 142.684C301.624 141.472 300.889 140.371 299.961 139.444C299.034 138.516 297.933 137.781 296.721 137.279C295.51 136.777 294.211 136.519 292.9 136.519Z" fill="#F86D70"/>
<path d="M282.817 125.176H186C180.484 125.176 176.013 129.647 176.013 135.162V264.328C176.013 269.844 180.484 274.315 186 274.315H282.817C288.333 274.315 292.804 269.844 292.804 264.328V135.162C292.804 129.647 288.333 125.176 282.817 125.176Z" stroke="#3F3D56" stroke-miterlimit="10"/>
<path d="M105.991 179.529C105.991 179.529 102.074 178.37 101.234 179.631C100.393 180.891 102.379 190.028 102.379 190.028L111.011 190.552L107.998 182.945L105.991 179.529Z" fill="#2F2E41"/>
<path d="M75.7936 254.556C75.7936 254.556 83.6474 271.798 77.5991 271.257C71.5507 270.715 69.2036 254.556 69.2036 254.556H75.7936Z" fill="#A0616A"/>
<path d="M127.159 252.76C127.159 252.76 123.713 271.391 129.451 269.401C135.188 267.411 133.553 251.164 133.553 251.164L127.159 252.76Z" fill="#A0616A"/>
<path d="M104.32 175.205C104.32 175.205 104.23 183.872 107.57 184.323C110.91 184.774 105.674 189.378 105.674 189.378L99.7161 190.552L91.1401 189.92L87.3486 185.045C87.3486 185.045 94.0289 181.886 91.1401 172.046L104.32 175.205Z" fill="#A0616A"/>
<path opacity="0.1" d="M104.32 175.205C104.32 175.205 104.23 183.872 107.57 184.323C110.91 184.774 105.674 189.378 105.674 189.378L99.7161 190.552L91.1401 189.92L87.3486 185.045C87.3486 185.045 94.0289 181.886 91.1401 172.046L104.32 175.205Z" fill="black"/>
<path d="M119.667 248.508C119.667 248.508 123.909 257.625 120.569 286.242C120.569 286.242 121.562 296.353 120.75 298.249C119.937 300.144 113.257 325.872 113.257 325.872C113.257 325.872 104.681 327.768 103.508 322.081C103.508 322.081 104.681 313.956 104.591 312.692C104.501 311.429 106.487 297.617 106.487 297.617L102.424 270.896L99.355 294.999C99.355 294.999 99.355 301.95 98.362 303.484C97.369 305.019 98.362 335.893 98.362 335.893C98.362 335.893 101.16 340.587 96.9176 340.677C92.6747 340.768 88.8833 340.587 88.5221 337.608C88.161 334.629 87.9805 331.65 87.0778 329.844C86.175 328.039 85.0015 307.366 85.2723 300.144C85.5431 292.922 79.3142 255.82 81.3002 251.938C83.2863 248.056 119.667 248.508 119.667 248.508Z" fill="#2F2E41"/>
<path d="M99.7162 178.455C105.699 178.455 110.549 173.605 110.549 167.622C110.549 161.64 105.699 156.79 99.7162 156.79C93.7333 156.79 88.8833 161.64 88.8833 167.622C88.8833 173.605 93.7333 178.455 99.7162 178.455Z" fill="#A0616A"/>
<path d="M88.8836 185.226C88.8836 185.226 95.4736 190.101 105.043 186.219C105.043 186.219 108.202 184.684 107.931 182.337C107.661 179.99 114.521 201.204 114.521 201.204L121.472 238.126L121.111 253.202C121.111 253.202 118.042 251.667 108.473 255.098C98.904 258.528 83.2866 251.216 83.2866 251.216L83.8283 212.488L84.3699 189.92L85.8143 184.955C85.8143 184.955 86.5365 183.601 88.8836 185.226Z" fill="#F2F2F2"/>
<path d="M104.622 179.166C104.622 179.166 106.216 178.907 107.751 181.344C109.286 183.781 112.897 185.316 112.897 185.316C112.897 185.316 121.653 185.858 122.917 190.552C124.181 195.246 127.34 201.656 128.875 213.482C130.41 225.307 133.479 244.175 133.93 245.709C134.382 247.244 133.298 251.938 134.562 253.383C135.826 254.827 125.625 254.827 125.625 254.827C125.625 254.827 124.722 247.424 124.09 247.424C123.459 247.424 123.639 252.39 124.271 256C124.903 259.611 119.667 256 119.667 256C119.667 256 115.605 239.48 111.723 224.585C107.841 209.69 105.584 201.475 106.307 198.135C107.029 194.795 109.015 185.226 107.57 184.323C106.126 183.42 104.622 179.166 104.622 179.166Z" fill="#2F2E41"/>
<path d="M91.6026 179.158C91.6026 179.158 89.2441 180.441 83.286 184.684C77.328 188.927 73.2657 192.177 73.2657 192.177C73.2657 192.177 70.9185 193.982 69.4742 204.725C68.0298 215.468 64.7799 243.272 66.0438 246.793C67.3076 250.313 67.759 252.39 67.3076 254.466C66.8562 256.542 76.7863 256.452 76.9669 256C77.1474 255.549 76.6961 247.334 77.1474 247.154C77.5988 246.973 80.0362 252.028 80.4876 256.271C80.9389 260.514 86.1748 263.854 87.3484 263.854C88.5219 263.854 94.5703 239.39 94.6606 222.689C94.7508 205.989 92.6745 191.906 91.1399 189.92C89.6052 187.934 91.6026 179.158 91.6026 179.158Z" fill="#2F2E41"/>
<path d="M107.48 326.685C107.48 326.685 108.202 324.699 110.73 325.331C113.257 325.963 114.973 323.706 114.973 323.706C114.973 323.706 116.327 323.525 115.424 325.24C114.521 326.956 113.799 328.129 113.799 328.129C113.799 328.129 119.215 340.497 115.695 343.476C112.174 346.455 108.112 344.649 108.112 344.649C108.112 344.649 104.14 341.851 104.32 334.448C104.32 334.448 104.14 332.101 101.973 328.31C99.8066 324.518 98.1817 318.741 100.8 317.657C103.418 316.574 104.091 316.534 104.091 316.534C104.091 316.534 102.866 322.137 106.031 324.095L107.48 326.685Z" fill="#3F3D56"/>
<path d="M90.6891 340.677C90.6891 340.677 88.5226 336.615 92.1335 336.164C95.7445 335.712 99.6262 335.441 99.4457 337.337C99.2651 339.233 98.8138 342.122 98.8138 342.122L99.4457 344.198C99.4457 344.198 99.6262 349.344 100.258 349.975C100.89 350.607 104.32 356.024 97.0083 356.024C89.6961 356.024 87.5296 355.211 88.1615 353.496C88.7934 351.781 88.9739 343.295 88.9739 343.295L90.6891 340.677Z" fill="#3F3D56"/>
<path d="M96.2859 158.956C96.2859 158.956 101.341 160.31 103.959 160.852C106.577 161.394 106.306 159.859 106.306 159.859C106.306 159.859 109.737 160.31 109.556 159.949C109.376 159.588 111.001 157.692 109.105 155.526C107.209 153.359 107.751 151.734 107.751 151.734H106.126L105.674 151.102H103.147C103.147 151.102 101.251 150.38 96.2859 151.102C91.3208 151.825 84.5503 152.005 84.0087 154.984C83.467 157.963 80.6685 161.664 81.6616 163.38C82.6546 165.095 88.3418 172.136 88.8835 175.115C89.4251 178.094 91.9542 178.756 91.8632 176.891C91.7722 175.025 89.2445 168.525 91.4111 168.254C93.5777 167.984 97.2789 162.477 96.2859 158.956Z" fill="#2F2E41"/>
</svg>
