<svg fill="none" height="72" viewBox="0 0 72 72" width="72" xmlns="http://www.w3.org/2000/svg"><path clip-rule="evenodd" d="m34.9229 2.19372c.0333-1.244271 1.0708-2.2260684 2.3175-2.19290394 2.5335.06739804 5.0514.41839094 7.5065 1.04638394 1.2081.30902 1.9364 1.53698 1.6268 2.74272-.3096 1.20575-1.5399 1.93269-2.748 1.62367-2.1277-.54426-4.3099-.84845-6.5057-.90687-1.2466-.03316-2.2303-1.06873-2.1971-2.313zm-9.5206 1.61173c.4766 1.15022-.0712 2.4683-1.2237 2.94402-2.0535.84771-4.022 1.88774-5.879 3.10613-1.0421.6837-2.4422.3948-3.1273-.64526-.685-1.0401-.3956-2.43755.6465-3.12129 2.0954-1.37481 4.3166-2.54835 6.6338-3.50489 1.1524-.47572 2.473.07107 2.9497 1.22129zm29.6566 4.187c.7704-.97882 2.19-1.14897 3.1707-.38005 1.978 1.55089 3.7961 3.2948 5.4272 5.2059.8088.9476.6948 2.37-.2546 3.1772-.9493.8072-2.3745.6934-3.1832-.2541-1.4364-1.683-3.0374-3.2187-4.7793-4.5844-.9807-.7689-1.1512-2.18574-.3808-3.16455zm-19.0589 7.72375c-11.224 0-20.3228 9.0814-20.3228 20.2838 0 11.2025 9.0988 20.2838 20.3228 20.2838 11.2239 0 20.3228-9.0813 20.3228-20.2838 0-11.2024-9.0989-20.2838-20.3228-20.2838zm-24.839 20.2838c0-13.6918 11.1208-24.7913 24.839-24.7913s24.8389 11.0995 24.8389 24.7913c0 13.6919-11.1207 24.7913-24.8389 24.7913s-24.839-11.0994-24.839-24.7913zm-2.63858-19.7954c1.05006.6715 1.3559 2.0654.68311 3.1135-1.18214 1.8415-2.14589 3.8138-2.87185 5.8774-.41316 1.1744-1.70199 1.7921-2.87866 1.3798-1.17668-.4124-1.79563-1.6988-1.38246-2.8732.84187-2.393 1.95948-4.6802 3.33036-6.8157.67279-1.0481 2.06944-1.3533 3.1195-.6818zm59.39578 8.3125c1.1993-.3413 2.4488.3523 2.7908 1.5493.6926 2.4238 1.1238 4.9145 1.2862 7.4297.0803 1.2421-.8635 2.314-2.1081 2.3941-1.2445.08-2.3184-.862-2.3987-2.1041-.1418-2.1949-.518-4.3684-1.1224-6.4835-.342-1.197.353-2.4441 1.5522-2.7855zm-38.4722 8.1708c.2174-.0432.419-.1497.5781-.3084.159-.1588.2657-.36.309-.577.0143-.0719.0217-.1455.0217-.2198 0-.1487-.0295-.2952-.086-.4313-.0281-.0678-.063-.1331-.1043-.1948-.0828-.1236-.1888-.2291-.3115-.3109-.0612-.0408-.1265-.0758-.1952-.1041-.1376-.0569-.2845-.0858-.4321-.0858-.0736 0-.1473.0072-.2202.0216-.219.0435-.4202.1508-.5781.3084s-.2655.3584-.309.577c-.0145.0728-.0217.1464-.0217.2199 0 .1472.0289.2938.0859.4312.0285.0685.0635.1337.1044.1948.0819.1225.1876.2283.3115.3109.0618.0412.1272.076.1952.1042.1363.0563.283.0857.432.0857.0745 0 .1483-.0073.2203-.0216zm-2.6153-3.4957c.6352-.634 1.4967-.9902 2.395-.9902.6699 0 1.3248.1983 1.8818.5698.557.3714.9912.8994 1.2475 1.5171.2564.6178.3235 1.2975.1928 1.9533s-.4533 1.2581-.927 1.7309-1.0772.7948-1.7343.9252c-.657.1305-1.3381.0635-1.957-.1923-.6189-.2559-1.1479-.6892-1.5201-1.2452-.3721-.5559-.5708-1.2095-.5708-1.8781 0-.8966.3569-1.7565.9921-2.3905zm14.2123-.4204c.557-.3715 1.2118-.5698 1.8818-.5698.8983 0 1.7598.3562 2.395.9902s.9921 1.4939.9921 2.3905c0 .6686-.1987 1.3222-.5709 1.8781-.3721.556-.9011.9893-1.52 1.2452-.619.2558-1.3.3228-1.957.1923-.6571-.1304-1.2606-.4524-1.7343-.9252s-.7963-1.0751-.927-1.7309-.0636-1.3355.1928-1.9533c.2563-.6177.6905-1.1457 1.2475-1.5171zm2.3138 3.852c.068-.0282.1334-.063.1952-.1042.1239-.0826.2295-.1884.3115-.3109.0409-.0611.0759-.1263.1043-.1948.0571-.1374.086-.284.086-.4312 0-.0735-.0072-.1471-.0217-.2199-.0436-.2186-.1511-.4194-.309-.577s-.3591-.2649-.5781-.3084c-.0729-.0144-.1466-.0216-.2202-.0216-.1476 0-.2945.0289-.4321.0858-.0687.0283-.134.0633-.1952.1041-.1227.0818-.2287.1873-.3115.3109-.0413.0617-.0762.127-.1044.1948-.0564.1361-.0859.2826-.0859.4313 0 .0743.0074.1479.0217.2198.0432.217.1499.4182.309.577.159.1587.3607.2652.5781.3084.072.0143.1457.0216.2203.0216.1489 0 .2957-.0294.432-.0857zm-41.24393 3.4861c1.24452-.0801 2.31846.8619 2.3987 2.104.1418 2.1949.51807 4.3684 1.12242 6.4836.34201 1.197-.35295 2.444-1.55224 2.7854s-2.44877-.3523-2.79078-1.5493c-.692542-2.4237-1.123724-4.9144-1.28620977-7.4296-.08024413-1.2422.86358977-2.314 2.10810977-2.3941zm25.94303 6.4844c.6029-1.0896 1.9766-1.4851 3.0683-.8834 1.4929.8228 3.1704 1.2544 4.8758 1.2544s3.3829-.4316 4.8758-1.2544c1.0917-.6017 2.4654-.2062 3.0683.8834.6029 1.0897.2066 2.4607-.8851 3.0625-2.1614 1.1912-4.59 1.816-7.059 1.816s-4.8976-.6248-7.059-1.816c-1.0917-.6018-1.4879-1.9728-.8851-3.0625zm40.4942 2.8312c1.1762.4136 1.7939 1.7005 1.3796 2.8745-.8441 2.3917-1.9623 4.6779-3.3324 6.8133-.6725 1.0481-2.0691 1.3537-3.1193.6824-1.0502-.6712-1.3564-2.0651-.6838-3.1133 1.1824-1.8428 2.1474-3.8159 2.8759-5.8799.4143-1.174 1.7037-1.7905 2.88-1.377zm-59.96961 10.581c.94828-.8084 2.37361-.6965 3.18361.2499 1.4408 1.6837 3.0466 3.2194 4.7933 4.5844.982.7673 1.1548 2.1839.386 3.1639-.7688.9801-2.1881 1.1525-3.17.3852-1.9836-1.5501-3.80713-3.294-5.44333-5.2059-.80997-.9465-.69785-2.3691.25042-3.1775zm48.24721 6.7832c.6851 1.0401.3957 2.4375-.6464 3.1213-2.0954 1.3748-4.3166 2.5483-6.6338 3.5049-1.1525.4757-2.4731-.0711-2.9497-1.2213s.0712-2.4683 1.2236-2.944c2.0536-.8478 4.0221-1.8878 5.8791-3.1062 1.0421-.6837 2.4422-.3948 3.1272.6453zm-31.2014 5.4204c.3096-1.2058 1.5399-1.9327 2.748-1.6237 2.1277.5443 4.3099.8485 6.5056.9069 1.2467.0331 2.2304 1.0687 2.1972 2.313-.0333 1.2443-1.0708 2.2261-2.3175 2.1929-2.5335-.0674-5.0514-.4184-7.5065-1.0464-1.2081-.309-1.9364-1.537-1.6268-2.7427z" fill="#000" fill-rule="evenodd"/></svg>