<svg fill="none" height="63" viewBox="0 0 72 63" width="72" xmlns="http://www.w3.org/2000/svg"><g clip-rule="evenodd" fill="#000" fill-rule="evenodd"><path d="m4.5 15.0001c-.39782 0-.77935.1581-1.06066.4394-.2813.2813-.43934.6628-.43934 1.0606v42c0 .3978.15804.7794.43934 1.0607s.66283.4393 1.06066.4393h63c.3978 0 .7794-.158 1.0607-.4393s.4393-.6629.4393-1.0607v-42c0-.3978-.158-.7793-.4393-1.0606s-.6629-.4394-1.0607-.4394zm-3.18198-1.682c.84391-.8439 1.9885-1.318 3.18198-1.318h63c1.1935 0 2.3381.4741 3.182 1.318.8439.844 1.318 1.9886 1.318 3.182v42c0 1.1935-.4741 2.3381-1.318 3.182s-1.9885 1.318-3.182 1.318h-63c-1.19347 0-2.33806-.4741-3.18198-1.318-.843915-.8439-1.31802-1.9885-1.31802-3.182v-42c0-1.1935.474106-2.338 1.31802-3.182z"/><path d="m24.8789.87868c.5626-.562609 1.3256-.87868 2.1213-.87868h18c.7956 0 1.5587.316071 2.1213.87868.5332.53314.8449 1.24628.8761 1.99658l1.4875 10.41264c.1172.8201-.4527 1.5799-1.2728 1.697-.8201.1172-1.5799-.4527-1.697-1.2728l-1.5-10.49997c-.0101-.07026-.0151-.14115-.0151-.21213h-18c0 .07098-.005.14187-.0151.21213l-1.5 10.49997c-.1171.8201-.8769 1.39-1.697 1.2728-.8201-.1171-1.39-.8769-1.2728-1.697l1.4875-10.41265c.0312-.75029.3429-1.46343.8761-1.99657z"/><path d="m11.999 25.506c0-.8284.6716-1.5 1.5-1.5h45c.8284 0 1.5.6716 1.5 1.5s-.6716 1.5-1.5 1.5h-45c-.8284 0-1.5-.6716-1.5-1.5z"/><path d="m11.999 37.506c0-.8284.6716-1.5 1.5-1.5h45c.8284 0 1.5.6716 1.5 1.5 0 .8285-.6716 1.5-1.5 1.5h-45c-.8284 0-1.5-.6715-1.5-1.5z"/><path d="m11.999 49.5061c0-.8285.6716-1.5 1.5-1.5h45c.8284 0 1.5.6715 1.5 1.5 0 .8284-.6716 1.5-1.5 1.5h-45c-.8284 0-1.5-.6716-1.5-1.5z"/></g></svg>