<svg width="72" height="73" viewBox="0 0 72 73" fill="none" xmlns="http://www.w3.org/2000/svg">
<path fill-rule="evenodd" clip-rule="evenodd" d="M61.4994 25.5047C58.6 25.5047 56.2495 27.8552 56.2495 30.7547C56.2495 33.6542 58.6 36.0047 61.4994 36.0047C64.3989 36.0047 66.7494 33.6542 66.7494 30.7547C66.7494 27.8552 64.3989 25.5047 61.4994 25.5047ZM53.2495 30.7547C53.2495 26.1984 56.9431 22.5048 61.4994 22.5048C66.0558 22.5048 69.7494 26.1984 69.7494 30.7547C69.7494 35.311 66.0558 39.0046 61.4994 39.0046C56.9431 39.0046 53.2495 35.311 53.2495 30.7547Z" fill="black"/>
<path fill-rule="evenodd" clip-rule="evenodd" d="M54.0749 42.077C56.044 40.1079 58.7147 39.0017 61.4994 39.0017C64.2842 39.0017 66.9549 40.1079 68.924 42.077C70.8931 44.0461 71.9993 46.7168 71.9993 49.5016V57.0015C71.9993 57.83 71.3278 58.5015 70.4994 58.5015H67.3419L65.9902 70.6671C65.9058 71.4267 65.2637 72.0014 64.4994 72.0014H58.4994C57.7351 72.0014 57.093 71.4267 57.0086 70.6671L55.6569 58.5015H52.4995C51.6711 58.5015 50.9995 57.83 50.9995 57.0015V49.5016C50.9995 46.7168 52.1057 44.0461 54.0749 42.077ZM61.4994 42.0017C59.5103 42.0017 57.6027 42.7918 56.1962 44.1983C54.7897 45.6048 53.9995 47.5125 53.9995 49.5016V55.5015H56.9995C57.7638 55.5015 58.4059 56.0762 58.4903 56.8359L59.842 69.0014H63.1568L64.5086 56.8359C64.593 56.0762 65.2351 55.5015 65.9994 55.5015H68.9994V49.5016C68.9994 47.5125 68.2092 45.6048 66.8027 44.1983C65.3962 42.7918 63.4885 42.0017 61.4994 42.0017Z" fill="black"/>
<path fill-rule="evenodd" clip-rule="evenodd" d="M10.4999 25.5047C7.60046 25.5047 5.24998 27.8552 5.24998 30.7547C5.24998 33.6542 7.60046 36.0047 10.4999 36.0047C13.3994 36.0047 15.7499 33.6542 15.7499 30.7547C15.7499 27.8552 13.3994 25.5047 10.4999 25.5047ZM2.25 30.7547C2.25 26.1984 5.94362 22.5048 10.4999 22.5048C15.0562 22.5048 18.7499 26.1984 18.7499 30.7547C18.7499 35.311 15.0562 39.0046 10.4999 39.0046C5.94362 39.0046 2.25 35.311 2.25 30.7547Z" fill="black"/>
<path fill-rule="evenodd" clip-rule="evenodd" d="M3.07535 42.077C5.04447 40.1079 7.71516 39.0017 10.4999 39.0017C13.2847 39.0017 15.9554 40.1079 17.9245 42.077C19.8936 44.0461 20.9998 46.7168 20.9998 49.5016V57.0015C20.9998 57.83 20.3283 58.5015 19.4998 58.5015H16.3424L14.9907 70.6671C14.9063 71.4267 14.2642 72.0014 13.4999 72.0014H7.49994C6.73562 72.0014 6.09353 71.4267 6.00912 70.6671L4.6574 58.5015H1.49999C0.671567 58.5015 0 57.83 0 57.0015V49.5016C0 46.7168 1.10624 44.0461 3.07535 42.077ZM10.4999 42.0017C8.51081 42.0017 6.60317 42.7918 5.19666 44.1983C3.79015 45.6048 2.99998 47.5125 2.99998 49.5016V55.5015H5.99995C6.76427 55.5015 7.40636 56.0762 7.49076 56.8359L8.84249 69.0014H12.1573L13.5091 56.8359C13.5935 56.0762 14.2356 55.5015 14.9999 55.5015H17.9999V49.5016C17.9999 47.5125 17.2097 45.6048 15.8032 44.1983C14.3967 42.7918 12.489 42.0017 10.4999 42.0017Z" fill="black"/>
<path fill-rule="evenodd" clip-rule="evenodd" d="M35.9999 18.0019C32.272 18.0019 29.25 21.0239 29.25 24.7518C29.25 28.4797 32.272 31.5018 35.9999 31.5018C39.7278 31.5018 42.7499 28.4797 42.7499 24.7518C42.7499 21.0239 39.7278 18.0019 35.9999 18.0019ZM26.25 24.7518C26.25 19.3671 30.6152 15.0019 35.9999 15.0019C41.3847 15.0019 45.7498 19.3671 45.7498 24.7518C45.7498 30.1365 41.3847 34.5017 35.9999 34.5017C30.6152 34.5017 26.25 30.1365 26.25 24.7518Z" fill="black"/>
<path fill-rule="evenodd" clip-rule="evenodd" d="M27.5147 38.0164C29.7651 35.766 32.8173 34.5017 35.9999 34.5017C39.1825 34.5017 42.2347 35.766 44.4851 38.0164C46.7355 40.2668 47.9998 43.3191 47.9998 46.5016V55.5016C47.9998 56.33 47.3282 57.0016 46.4998 57.0016H43.1309L41.9947 70.6261C41.9298 71.4035 41.28 72.0014 40.4999 72.0014H31.4999C30.7198 72.0014 30.07 71.4035 30.0051 70.6261L28.8689 57.0016H25.5C24.6716 57.0016 24 56.33 24 55.5016V46.5016C24 43.3191 25.2643 40.2668 27.5147 38.0164ZM35.9999 37.5017C33.613 37.5017 31.3238 38.4499 29.636 40.1377C27.9482 41.8255 27 44.1147 27 46.5016V54.0016H30.2489C31.029 54.0016 31.6789 54.5995 31.7437 55.3769L32.88 69.0015H39.1198L40.2561 55.3769C40.3209 54.5995 40.9708 54.0016 41.7509 54.0016H44.9998V46.5016C44.9998 44.1147 44.0516 41.8255 42.3638 40.1377C40.676 38.4499 38.3868 37.5017 35.9999 37.5017Z" fill="black"/>
<path fill-rule="evenodd" clip-rule="evenodd" d="M35.3102 3.16797L2.20622 20.8253C1.47527 21.2151 0.566671 20.9386 0.176795 20.2077C-0.213081 19.4768 0.0634085 18.5682 0.794351 18.1783L33.9165 0.511334C34.5596 0.175397 35.2744 0 36 0C36.7256 0 37.4404 0.175446 38.0835 0.511384L38.0949 0.517372L71.2057 18.1783C71.9366 18.5682 72.2131 19.4768 71.8232 20.2077C71.4333 20.9386 70.5247 21.2151 69.7938 20.8253L36.6945 3.17044C36.6929 3.16961 36.6913 3.16879 36.6898 3.16797C36.4766 3.0576 36.2401 2.99998 36 2.99998C35.7599 2.99998 35.5234 3.0576 35.3102 3.16797Z" fill="black"/>
</svg>
