<svg width="72" height="72" viewBox="0 0 72 72" fill="none" xmlns="http://www.w3.org/2000/svg">
<path fill-rule="evenodd" clip-rule="evenodd" d="M34.9229 2.19372C34.9562 0.949449 35.9937 -0.0323484 37.2404 0.000816062C39.7739 0.0682141 42.2918 0.419207 44.7469 1.0472C45.955 1.35622 46.6833 2.58418 46.3737 3.78992C46.0641 4.99567 44.8338 5.72261 43.6257 5.41359C41.498 4.86933 39.3158 4.56514 37.12 4.50672C35.8734 4.47356 34.8897 3.43799 34.9229 2.19372ZM25.4023 3.80545C25.8789 4.95567 25.3311 6.27375 24.1786 6.74947C22.1251 7.59718 20.1566 8.63721 18.2996 9.8556C17.2575 10.5393 15.8574 10.2504 15.1723 9.21034C14.4873 8.17024 14.7767 6.77279 15.8188 6.08905C17.9142 4.71424 20.1354 3.5407 22.4526 2.58416C23.605 2.10844 24.9256 2.65523 25.4023 3.80545ZM55.0589 7.99245C55.8293 7.01363 57.2489 6.84348 58.2296 7.6124C60.2076 9.16329 62.0257 10.9072 63.6568 12.8183C64.4656 13.7659 64.3516 15.1883 63.4022 15.9955C62.4529 16.8027 61.0277 16.6889 60.219 15.7414C58.7826 14.0584 57.1816 12.5227 55.4397 11.157C54.459 10.3881 54.2885 8.97126 55.0589 7.99245ZM36 15.7162C24.776 15.7162 15.6772 24.7976 15.6772 36C15.6772 47.2025 24.776 56.2838 36 56.2838C47.2239 56.2838 56.3228 47.2025 56.3228 36C56.3228 24.7976 47.2239 15.7162 36 15.7162ZM11.161 36C11.161 22.3082 22.2818 11.2087 36 11.2087C49.7182 11.2087 60.8389 22.3082 60.8389 36C60.8389 49.6919 49.7182 60.7913 36 60.7913C22.2818 60.7913 11.161 49.6919 11.161 36ZM8.52242 16.2046C9.57248 16.8761 9.87832 18.27 9.20553 19.3181C8.02339 21.1596 7.05964 23.1319 6.33368 25.1955C5.92052 26.3699 4.63169 26.9876 3.45502 26.5753C2.27834 26.1629 1.65939 24.8765 2.07256 23.7021C2.91443 21.3091 4.03204 19.0219 5.40292 16.8864C6.07571 15.8383 7.47236 15.5331 8.52242 16.2046ZM67.9182 24.5171C69.1175 24.1758 70.367 24.8694 70.709 26.0664C71.4016 28.4902 71.8328 30.9809 71.9952 33.4961C72.0755 34.7382 71.1317 35.8101 69.8871 35.8902C68.6426 35.9702 67.5687 35.0282 67.4884 33.7861C67.3466 31.5912 66.9704 29.4177 66.366 27.3026C66.024 26.1056 66.719 24.8585 67.9182 24.5171ZM29.446 32.6879C29.6634 32.6447 29.865 32.5382 30.0241 32.3795C30.1831 32.2207 30.2898 32.0195 30.3331 31.8025C30.3474 31.7306 30.3548 31.657 30.3548 31.5827C30.3548 31.434 30.3253 31.2875 30.2688 31.1514C30.2407 31.0836 30.2058 31.0183 30.1645 30.9566C30.0817 30.833 29.9757 30.7275 29.853 30.6457C29.7918 30.6049 29.7265 30.5699 29.6578 30.5416C29.5202 30.4847 29.3733 30.4558 29.2257 30.4558C29.1521 30.4558 29.0784 30.463 29.0055 30.4774C28.7865 30.5209 28.5853 30.6282 28.4274 30.7858C28.2695 30.9434 28.1619 31.1442 28.1184 31.3628C28.1039 31.4356 28.0967 31.5092 28.0967 31.5827C28.0967 31.7299 28.1256 31.8765 28.1826 32.0139C28.2111 32.0824 28.2461 32.1476 28.287 32.2087C28.3689 32.3312 28.4746 32.437 28.5985 32.5196C28.6603 32.5608 28.7257 32.5956 28.7937 32.6238C28.93 32.6801 29.0767 32.7095 29.2257 32.7095C29.3002 32.7095 29.374 32.7022 29.446 32.6879ZM26.8307 29.1922C27.4659 28.5582 28.3274 28.202 29.2257 28.202C29.8956 28.202 30.5505 28.4003 31.1075 28.7718C31.6645 29.1432 32.0987 29.6712 32.355 30.2889C32.6114 30.9067 32.6785 31.5864 32.5478 32.2422C32.4171 32.898 32.0945 33.5003 31.6208 33.9731C31.1471 34.4459 30.5436 34.7679 29.8865 34.8983C29.2295 35.0288 28.5484 34.9618 27.9295 34.706C27.3106 34.4501 26.7816 34.0168 26.4094 33.4608C26.0373 32.9049 25.8386 32.2513 25.8386 31.5827C25.8386 30.6861 26.1955 29.8262 26.8307 29.1922ZM41.043 28.7718C41.6 28.4003 42.2548 28.202 42.9248 28.202C43.8231 28.202 44.6846 28.5582 45.3198 29.1922C45.955 29.8262 46.3119 30.6861 46.3119 31.5827C46.3119 32.2513 46.1132 32.9049 45.741 33.4608C45.3689 34.0168 44.8399 34.4501 44.221 34.706C43.602 34.9618 42.921 35.0288 42.264 34.8983C41.6069 34.7679 41.0034 34.4459 40.5297 33.9731C40.056 33.5003 39.7334 32.898 39.6027 32.2422C39.472 31.5864 39.5391 30.9067 39.7955 30.2889C40.0518 29.6712 40.486 29.1432 41.043 28.7718ZM43.3568 32.6238C43.4248 32.5956 43.4902 32.5608 43.552 32.5196C43.6759 32.437 43.7815 32.3312 43.8635 32.2087C43.9044 32.1476 43.9394 32.0824 43.9678 32.0139C44.0249 31.8765 44.0538 31.7299 44.0538 31.5827C44.0538 31.5092 44.0466 31.4356 44.0321 31.3628C43.9885 31.1442 43.881 30.9434 43.7231 30.7858C43.5652 30.6282 43.364 30.5209 43.145 30.4774C43.0721 30.463 42.9984 30.4558 42.9248 30.4558C42.7772 30.4558 42.6303 30.4847 42.4927 30.5416C42.424 30.5699 42.3587 30.6049 42.2975 30.6457C42.1748 30.7275 42.0688 30.833 41.986 30.9566C41.9447 31.0183 41.9098 31.0836 41.8816 31.1514C41.8252 31.2875 41.7957 31.434 41.7957 31.5827C41.7957 31.657 41.8031 31.7306 41.8174 31.8025C41.8606 32.0195 41.9673 32.2207 42.1264 32.3795C42.2854 32.5382 42.4871 32.6447 42.7045 32.6879C42.7765 32.7022 42.8502 32.7095 42.9248 32.7095C43.0737 32.7095 43.2205 32.6801 43.3568 32.6238ZM2.11287 36.1099C3.35739 36.0298 4.43133 36.9718 4.51157 38.2139C4.65337 40.4088 5.02964 42.5823 5.63399 44.6975C5.976 45.8945 5.28104 47.1415 4.08175 47.4829C2.88246 47.8243 1.63298 47.1306 1.29097 45.9336C0.598428 43.5099 0.167246 41.0192 0.00476023 38.504C-0.0754839 37.2618 0.86835 36.19 2.11287 36.1099ZM28.0559 42.5943C28.6588 41.5047 30.0325 41.1092 31.1242 41.7109C32.6171 42.5337 34.2946 42.9653 36 42.9653C37.7054 42.9653 39.3829 42.5337 40.8758 41.7109C41.9675 41.1092 43.3412 41.5047 43.9441 42.5943C44.547 43.684 44.1507 45.055 43.059 45.6568C40.8976 46.848 38.469 47.4728 36 47.4728C33.531 47.4728 31.1024 46.848 28.941 45.6568C27.8493 45.055 27.4531 43.684 28.0559 42.5943ZM68.5501 45.4255C69.7263 45.8391 70.344 47.126 69.9297 48.3C69.0856 50.6917 67.9674 52.9779 66.5973 55.1133C65.9248 56.1614 64.5282 56.467 63.478 55.7957C62.4278 55.1245 62.1216 53.7306 62.7942 52.6824C63.9766 50.8396 64.9416 48.8665 65.6701 46.8025C66.0844 45.6285 67.3738 45.012 68.5501 45.4255ZM8.58049 56.0065C9.52877 55.1981 10.9541 55.31 11.7641 56.2564C13.2049 57.9401 14.8107 59.4758 16.5574 60.8408C17.5394 61.6081 17.7122 63.0247 16.9434 64.0047C16.1746 64.9848 14.7553 65.1572 13.7734 64.3899C11.7898 62.8398 9.96627 61.0959 8.33007 59.184C7.5201 58.2375 7.63222 56.8149 8.58049 56.0065ZM56.8277 62.7897C57.5128 63.8298 57.2234 65.2272 56.1813 65.911C54.0859 67.2858 51.8647 68.4593 49.5475 69.4159C48.395 69.8916 47.0744 69.3448 46.5978 68.1946C46.1212 67.0444 46.669 65.7263 47.8214 65.2506C49.875 64.4028 51.8435 63.3628 53.7005 62.1444C54.7426 61.4607 56.1427 61.7496 56.8277 62.7897ZM25.6263 68.2101C25.9359 67.0043 27.1662 66.2774 28.3743 66.5864C30.502 67.1307 32.6842 67.4349 34.8799 67.4933C36.1266 67.5264 37.1103 68.562 37.0771 69.8063C37.0438 71.0506 36.0063 72.0324 34.7596 71.9992C32.2261 71.9318 29.7082 71.5808 27.2531 70.9528C26.045 70.6438 25.3167 69.4158 25.6263 68.2101Z" fill="black"/>
</svg>
