<svg width="568" height="347" viewBox="0 0 568 347" fill="none" xmlns="http://www.w3.org/2000/svg">
<g clip-path="url(#clip0)">
<path opacity="0.1" d="M568 206.216C568.031 222.649 563.545 238.775 555.032 252.831C555.032 270.021 547.018 285.602 534.02 296.958C530.766 299.796 527.263 302.335 523.553 304.545C523.404 304.639 523.25 304.728 523.096 304.818C522.818 304.982 522.54 305.146 522.257 305.314L521.994 305.468C509.686 312.324 495.816 315.882 481.728 315.796H107.826C104.847 315.796 101.894 315.677 98.9681 315.439C88.5696 314.62 78.3516 312.253 68.6516 308.418C66.7583 307.67 64.9014 306.865 63.0808 306.005C62.2136 305.597 61.3547 305.179 60.504 304.748C59.9727 304.48 59.4415 304.202 58.9152 303.924C52.7983 300.7 47.0597 296.805 41.8057 292.31C24.9245 277.796 14.4582 257.746 14.4582 235.601C4.98865 221.018 -0.0348153 203.996 5.82752e-05 186.608C5.82752e-05 137.381 39.343 97.4748 87.8812 97.4748C89.3707 97.4748 90.8602 97.5195 92.3497 97.5989C92.5632 97.5989 92.7718 97.5989 92.9853 97.6287C101.168 83.6811 112.106 70.8655 125.258 59.5842C161.125 28.8487 213.546 9.47394 271.94 9.47394C321.005 9.47394 365.854 23.1535 400.207 45.7557C413.224 38.3965 427.928 34.5387 442.881 34.5589C491.41 34.5589 530.762 74.4654 530.762 123.692C530.755 126.807 530.589 129.919 530.266 133.017C541.964 141.298 551.498 152.271 558.066 165.011C564.633 177.751 568.04 191.883 568 206.216Z" fill="#F86D70"/>
<g opacity="0.2">
<path opacity="0.2" d="M68.7015 307.747C68.7015 307.976 68.6767 308.199 68.6518 308.418C66.7585 307.669 64.9016 306.865 63.0811 306.004C62.1085 305.877 61.204 305.436 60.5042 304.748C59.973 304.48 59.4417 304.202 58.9154 303.924C59.0346 303.674 59.1689 303.432 59.3176 303.199C60.3404 301.58 61.8944 300.567 63.6074 300.622C65.3203 300.677 66.8048 301.784 67.7234 303.457C68.4259 304.775 68.7635 306.256 68.7015 307.747Z" fill="#3F3D56"/>
<path opacity="0.2" d="M68.9696 299.247C68.9357 300.736 68.5055 302.189 67.7233 303.457C66.7005 305.071 65.1465 306.084 63.4335 306.029L63.081 306.004C62.1085 305.876 61.204 305.435 60.5042 304.748C60.0296 304.297 59.6291 303.775 59.3175 303.199C58.6323 301.877 58.2972 300.402 58.3442 298.914C58.3911 297.426 58.8185 295.974 59.5856 294.698C60.6084 293.08 62.1625 292.067 63.8754 292.121C65.5884 292.176 67.0729 293.283 67.9914 294.956C68.6939 296.274 69.0316 297.755 68.9696 299.247Z" fill="#3F3D56"/>
<path opacity="0.2" d="M69.2392 290.761C69.3606 286.921 67.0816 283.733 64.149 283.64C61.2164 283.548 58.7407 286.585 58.6194 290.425C58.498 294.265 60.777 297.454 63.7096 297.546C66.6422 297.639 69.1179 294.601 69.2392 290.761Z" fill="#3F3D56"/>
<path opacity="0.2" d="M69.5052 282.26C69.6266 278.42 67.3476 275.232 64.415 275.139C61.4824 275.047 59.0067 278.084 58.8854 281.924C58.764 285.764 61.043 288.953 63.9756 289.045C66.9082 289.138 69.3839 286.1 69.5052 282.26Z" fill="#3F3D56"/>
<path opacity="0.2" d="M69.8159 273.198C69.9311 269.356 67.646 266.171 64.712 266.083C61.7779 265.995 59.306 269.038 59.1907 272.88C59.0755 276.722 61.3606 279.907 64.2946 279.995C67.2287 280.083 69.7006 277.04 69.8159 273.198Z" fill="#3F3D56"/>
<path opacity="0.2" d="M46.4084 214.776C45.7092 213.829 45.0786 212.834 44.5216 211.797L58.5528 209.945L43.4492 209.582C42.1014 206.385 41.4198 202.947 41.4463 199.477C41.4728 196.007 42.2067 192.579 43.6031 189.403L63.5228 200.55L45.2763 186.225C47.117 183.248 49.5518 180.682 52.4286 178.688C55.3054 176.694 58.5624 175.315 61.9962 174.636C65.4299 173.958 68.9668 173.994 72.3857 174.744C75.8047 175.494 79.0323 176.941 81.8671 178.994C84.7018 181.047 87.0828 183.663 88.8613 186.678C90.6397 189.693 91.7775 193.042 92.2035 196.517C92.6295 199.991 92.3346 203.516 91.3372 206.871C90.3398 210.226 88.6614 213.34 86.4067 216.017C87.4931 217.491 88.4171 219.077 89.1623 220.749L70.747 229.593L90.2744 223.719C91.5042 227.777 91.7024 232.077 90.851 236.231C89.9997 240.385 88.1257 244.261 85.3988 247.508C88.2339 251.354 89.9293 255.922 90.2911 260.687C90.6529 265.452 89.6665 270.222 87.4447 274.453C85.223 278.684 81.8555 282.204 77.7274 284.611C73.5993 287.018 68.8772 288.215 64.1011 288.064C59.325 287.914 54.6876 286.422 50.7194 283.76C46.7511 281.097 43.612 277.372 41.6612 273.01C39.7104 268.647 39.0265 263.824 39.6877 259.091C40.349 254.358 42.3287 249.907 45.4005 246.246C42.0133 241.649 40.2698 236.047 40.4499 230.339C40.63 224.632 42.7233 219.151 46.3935 214.776H46.4084Z" fill="#F86D70"/>
<path opacity="0.1" d="M91.3568 231.946C91.1807 237.657 89.0813 243.14 85.3988 247.508C88.2339 251.354 89.9293 255.922 90.2911 260.687C90.6529 265.452 89.6665 270.222 87.4447 274.453C85.223 278.684 81.8555 282.204 77.7274 284.611C73.5993 287.018 68.8772 288.215 64.1011 288.064C59.325 287.914 54.6876 286.422 50.7194 283.76C46.7511 281.097 43.612 277.372 41.6612 273.01C39.7104 268.647 39.0265 263.824 39.6877 259.091C40.349 254.358 42.3287 249.907 45.4005 246.246C42.1384 241.812 91.4462 229.086 91.3568 231.946Z" fill="black"/>
</g>
<path d="M475.65 68.7254V306.655C475.65 309.079 474.687 311.404 472.973 313.119C471.259 314.833 468.934 315.796 466.51 315.796H101.49C100.637 315.797 99.7876 315.677 98.968 315.439C97.0598 314.893 95.3814 313.741 94.1871 312.156C92.9928 310.571 92.3477 308.64 92.3496 306.655V200.476C92.3496 199.935 92.3496 199.398 92.3496 198.862V97.5989C92.5631 97.5989 92.7716 97.5989 92.9851 97.6287C101.168 83.681 112.105 70.8654 125.258 59.5842H466.51C468.934 59.5842 471.259 60.5473 472.973 62.2616C474.687 63.9759 475.65 66.301 475.65 68.7254Z" fill="white"/>
<path d="M413.101 90.4835H362.522C357.592 90.4835 353.595 94.4806 353.595 99.4112C353.595 104.342 357.592 108.339 362.522 108.339H413.101C418.031 108.339 422.028 104.342 422.028 99.4112C422.028 94.4806 418.031 90.4835 413.101 90.4835Z" fill="#3F3D56"/>
<path opacity="0.1" d="M411.621 93.4677H363.997C360.714 93.4677 358.054 96.1276 358.054 99.4087C358.054 102.69 360.714 105.35 363.997 105.35H411.621C414.904 105.35 417.564 102.69 417.564 99.4087C417.564 96.1276 414.904 93.4677 411.621 93.4677Z" fill="black"/>
<path d="M410.787 94.1182H399.874C396.954 94.1182 394.586 96.4857 394.586 99.4063V99.4112C394.586 102.332 396.954 104.699 399.874 104.699H410.787C413.707 104.699 416.075 102.332 416.075 99.4112V99.4063C416.075 96.4857 413.707 94.1182 410.787 94.1182Z" fill="#F86D70"/>
<path d="M405.167 102.718C406.993 102.718 408.474 101.238 408.474 99.4112C408.474 97.5848 406.993 96.1042 405.167 96.1042C403.341 96.1042 401.86 97.5848 401.86 99.4112C401.86 101.238 403.341 102.718 405.167 102.718Z" fill="white"/>
<path d="M413.101 208.187H362.522C357.592 208.187 353.595 212.184 353.595 217.115C353.595 222.045 357.592 226.042 362.522 226.042H413.101C418.031 226.042 422.028 222.045 422.028 217.115C422.028 212.184 418.031 208.187 413.101 208.187Z" fill="#3F3D56"/>
<path opacity="0.1" d="M411.621 211.171H363.997C360.714 211.171 358.054 213.831 358.054 217.112C358.054 220.393 360.714 223.053 363.997 223.053H411.621C414.904 223.053 417.564 220.393 417.564 217.112C417.564 213.831 414.904 211.171 411.621 211.171Z" fill="black"/>
<path d="M410.787 211.822H399.874C396.954 211.822 394.586 214.189 394.586 217.11V217.115C394.586 220.035 396.954 222.403 399.874 222.403H410.787C413.707 222.403 416.075 220.035 416.075 217.115V217.11C416.075 214.189 413.707 211.822 410.787 211.822Z" fill="#F86D70"/>
<path d="M405.167 220.422C406.993 220.422 408.474 218.941 408.474 217.115C408.474 215.288 406.993 213.808 405.167 213.808C403.341 213.808 401.86 215.288 401.86 217.115C401.86 218.941 403.341 220.422 405.167 220.422Z" fill="white"/>
<path d="M413.101 267.036H362.522C357.592 267.036 353.595 271.033 353.595 275.964C353.595 280.895 357.592 284.892 362.522 284.892H413.101C418.031 284.892 422.028 280.895 422.028 275.964C422.028 271.033 418.031 267.036 413.101 267.036Z" fill="#3F3D56"/>
<path opacity="0.1" d="M411.621 270.025H363.997C360.714 270.025 358.054 272.685 358.054 275.966C358.054 279.248 360.714 281.908 363.997 281.908H411.621C414.904 281.908 417.564 279.248 417.564 275.966C417.564 272.685 414.904 270.025 411.621 270.025Z" fill="black"/>
<path d="M410.787 270.676H399.874C396.954 270.676 394.586 273.044 394.586 275.964V275.969C394.586 278.89 396.954 281.257 399.874 281.257H410.787C413.707 281.257 416.075 278.89 416.075 275.969V275.964C416.075 273.044 413.707 270.676 410.787 270.676Z" fill="#F86D70"/>
<path d="M405.167 279.271C406.993 279.271 408.474 277.79 408.474 275.964C408.474 274.138 406.993 272.657 405.167 272.657C403.341 272.657 401.86 274.138 401.86 275.964C401.86 277.79 403.341 279.271 405.167 279.271Z" fill="white"/>
<path d="M180.688 79.242H151.26C148.339 79.242 145.972 81.6096 145.972 84.5301V84.5351C145.972 87.4556 148.339 89.8232 151.26 89.8232H180.688C183.608 89.8232 185.975 87.4556 185.975 84.5351V84.5301C185.975 81.6096 183.608 79.242 180.688 79.242Z" fill="#F86D70"/>
<path d="M251.767 94.1182H151.26C148.339 94.1182 145.972 96.4857 145.972 99.4063V99.4112C145.972 102.332 148.339 104.699 151.26 104.699H251.767C254.687 104.699 257.055 102.332 257.055 99.4112V99.4063C257.055 96.4857 254.687 94.1182 251.767 94.1182Z" fill="#F86D70"/>
<path d="M251.767 108.999H151.26C148.339 108.999 145.972 111.367 145.972 114.287V114.292C145.972 117.213 148.339 119.58 151.26 119.58H251.767C254.687 119.58 257.055 117.213 257.055 114.292V114.287C257.055 111.367 254.687 108.999 251.767 108.999Z" fill="#F86D70"/>
<g opacity="0.5">
<path opacity="0.5" d="M180.688 138.091H151.26C148.339 138.091 145.972 140.459 145.972 143.379V143.384C145.972 146.305 148.339 148.672 151.26 148.672H180.688C183.608 148.672 185.975 146.305 185.975 143.384V143.379C185.975 140.459 183.608 138.091 180.688 138.091Z" fill="#F86D70"/>
<path opacity="0.5" d="M223.6 152.972H151.26C148.339 152.972 145.972 155.34 145.972 158.261V158.265C145.972 161.186 148.339 163.554 151.26 163.554H223.6C226.521 163.554 228.888 161.186 228.888 158.265V158.261C228.888 155.34 226.521 152.972 223.6 152.972Z" fill="#F86D70"/>
<path opacity="0.5" d="M251.767 167.849H151.26C148.339 167.849 145.972 170.216 145.972 173.137V173.142C145.972 176.062 148.339 178.43 151.26 178.43H251.767C254.687 178.43 257.055 176.062 257.055 173.142V173.137C257.055 170.216 254.687 167.849 251.767 167.849Z" fill="#F86D70"/>
</g>
<path d="M180.688 196.946H151.26C148.339 196.946 145.972 199.313 145.972 202.234V202.239C145.972 205.159 148.339 207.527 151.26 207.527H180.688C183.608 207.527 185.975 205.159 185.975 202.239V202.234C185.975 199.313 183.608 196.946 180.688 196.946Z" fill="#F86D70"/>
<path d="M251.767 211.822H151.26C148.339 211.822 145.972 214.189 145.972 217.11V217.115C145.972 220.035 148.339 222.403 151.26 222.403H251.767C254.687 222.403 257.055 220.035 257.055 217.115V217.11C257.055 214.189 254.687 211.822 251.767 211.822Z" fill="#F86D70"/>
<path d="M209.698 226.703H151.26C148.339 226.703 145.972 229.07 145.972 231.991V231.996C145.972 234.916 148.339 237.284 151.26 237.284H209.698C212.619 237.284 214.986 234.916 214.986 231.996V231.991C214.986 229.07 212.619 226.703 209.698 226.703Z" fill="#F86D70"/>
<path d="M180.688 255.795H151.26C148.339 255.795 145.972 258.162 145.972 261.083V261.088C145.972 264.008 148.339 266.376 151.26 266.376H180.688C183.608 266.376 185.975 264.008 185.975 261.088V261.083C185.975 258.162 183.608 255.795 180.688 255.795Z" fill="#F86D70"/>
<path d="M251.767 270.676H151.26C148.339 270.676 145.972 273.044 145.972 275.964V275.969C145.972 278.89 148.339 281.257 151.26 281.257H251.767C254.687 281.257 257.055 278.89 257.055 275.969V275.964C257.055 273.044 254.687 270.676 251.767 270.676Z" fill="#F86D70"/>
<path d="M230.055 285.552H151.26C148.339 285.552 145.972 287.92 145.972 290.84V290.845C145.972 293.766 148.339 296.133 151.26 296.133H230.055C232.975 296.133 235.343 293.766 235.343 290.845V290.84C235.343 287.92 232.975 285.552 230.055 285.552Z" fill="#F86D70"/>
<path opacity="0.7" d="M129.091 129.094H452.811" stroke="#3F3D56" stroke-miterlimit="10" stroke-linecap="round"/>
<path opacity="0.7" d="M129.091 188.926H452.811" stroke="#3F3D56" stroke-miterlimit="10" stroke-linecap="round"/>
<path opacity="0.7" d="M129.091 248.759H452.811" stroke="#3F3D56" stroke-miterlimit="10" stroke-linecap="round"/>
<path opacity="0.7" d="M129.091 310.081H452.811" stroke="#3F3D56" stroke-miterlimit="10" stroke-linecap="round"/>
<path opacity="0.1" d="M394.72 346.576C435.216 346.576 468.044 344.242 468.044 341.363C468.044 338.483 435.216 336.149 394.72 336.149C354.225 336.149 321.397 338.483 321.397 341.363C321.397 344.242 354.225 346.576 394.72 346.576Z" fill="#F86D70"/>
<path opacity="0.1" d="M35.0133 80.8408C40.9445 80.8408 45.7527 76.0323 45.7527 70.1008C45.7527 64.1692 40.9445 59.3607 35.0133 59.3607C29.0821 59.3607 24.2739 64.1692 24.2739 70.1008C24.2739 76.0323 29.0821 80.8408 35.0133 80.8408Z" fill="#F86D70"/>
<path opacity="0.1" d="M79.7732 21.4801C85.7044 21.4801 90.5125 16.6716 90.5125 10.74C90.5125 4.80848 85.7044 0 79.7732 0C73.842 0 69.0338 4.80848 69.0338 10.74C69.0338 16.6716 73.842 21.4801 79.7732 21.4801Z" fill="#F86D70"/>
<path opacity="0.1" d="M76.1339 69.5198C86.074 69.5198 94.1321 61.4612 94.1321 51.5204C94.1321 41.5797 86.074 33.5211 76.1339 33.5211C66.1937 33.5211 58.1356 41.5797 58.1356 51.5204C58.1356 61.4612 66.1937 69.5198 76.1339 69.5198Z" fill="#F86D70"/>
<path d="M413.101 149.333H362.522C357.592 149.333 353.595 153.33 353.595 158.261C353.595 163.191 357.592 167.188 362.522 167.188H413.101C418.031 167.188 422.028 163.191 422.028 158.261C422.028 153.33 418.031 149.333 413.101 149.333Z" fill="#3F3D56"/>
<path opacity="0.1" d="M411.621 152.322H363.997C360.714 152.322 358.054 154.982 358.054 158.263C358.054 161.544 360.714 164.204 363.997 164.204H411.621C414.904 164.204 417.564 161.544 417.564 158.263C417.564 154.982 414.904 152.322 411.621 152.322Z" fill="black"/>
<path d="M360.05 328.209C360.829 328.095 361.609 327.936 362.373 327.758C362.273 328.523 362.052 329.267 361.718 329.962C360.958 331.402 359.474 332.271 358.108 333.155C357.92 332.979 357.677 332.874 357.42 332.856C357.163 332.839 356.908 332.911 356.698 333.061C355.055 334.054 353.744 335.454 352.001 336.308C351.391 336.606 350.755 336.844 350.159 337.177C348.714 338.058 347.517 339.293 346.684 340.767C346.187 341.536 345.785 342.549 346.272 343.314C346.458 343.573 346.699 343.788 346.977 343.945C347.684 344.438 348.532 344.691 349.395 344.665C349.891 344.62 350.388 344.431 350.929 344.347C351.609 344.228 352.304 344.287 352.989 344.228C353.983 344.099 354.957 343.847 355.889 343.478L359.3 342.286C360.263 341.975 361.201 341.59 362.105 341.134C362.646 340.841 363.158 340.499 363.709 340.231C364.329 339.955 364.97 339.73 365.625 339.555L367.562 338.989C367.84 338.883 368.139 338.844 368.436 338.875C368.704 338.925 368.932 339.093 369.205 339.163C369.622 339.237 370.051 339.196 370.446 339.044L372.691 338.408C373.164 338.301 373.616 338.113 374.026 337.852C375.054 337.122 375.238 335.672 375.233 334.406C375.228 332.488 375.011 330.577 374.587 328.706C374.3 328.823 374.048 329.013 373.857 329.257C373.628 328.934 373.381 328.624 373.118 328.329C372.084 327.126 371.32 325.716 370.878 324.192C371.689 323.59 372.365 322.826 372.864 321.948C371.678 317.425 370.461 312.832 368.048 308.84C367.259 307.539 366.355 306.317 365.566 305.036C363.217 301.312 362.736 296.595 360.05 293.119C359.794 292.767 359.657 292.343 359.657 291.908C359.657 291.473 359.794 291.049 360.05 290.696C360.358 290.289 360.854 289.907 360.76 289.4C360.69 289.038 360.313 288.705 360.457 288.368C360.526 288.204 360.695 288.114 360.824 287.995C361.281 287.568 361.221 286.848 361.266 286.222C361.365 284.643 362.304 283.243 363.207 281.972C363.391 281.668 363.634 281.404 363.922 281.198C364.166 281.049 364.454 280.979 364.697 280.83C365.551 280.289 365.491 279.033 365.898 278.099C366.435 276.868 367.785 276.247 368.669 275.249C369.796 273.978 370.084 272.21 371.271 271.103C371.392 270.986 371.524 270.88 371.663 270.785C371.148 272.669 370.912 274.618 370.963 276.57C370.849 283.288 372.517 290.239 371.737 296.928C371.122 302.221 374.354 307.499 378.937 310.146C380.731 311.102 382.607 311.898 384.542 312.524C387.412 313.552 390.272 314.609 393.087 315.791C395.073 316.625 397.033 317.521 398.966 318.477C401.351 319.643 403.672 320.937 405.917 322.355C408.677 324.128 411.443 325.925 413.404 328.572C414.604 328.511 415.757 328.087 416.711 327.355C417.465 327.951 418.379 328.403 419.089 329.063C420.069 330.085 420.726 331.374 420.976 332.768H420.678C420.712 333.428 420.742 334.088 420.777 334.754C420.803 334.923 420.777 335.096 420.703 335.25C420.631 335.349 420.539 335.432 420.434 335.494L418.905 336.531C417.793 337.281 416.567 338.23 416.507 339.575C416.476 339.967 416.595 340.355 416.84 340.663C417.214 341.011 417.692 341.227 418.2 341.278C420.861 341.839 423.587 342.386 426.283 342.023C427.564 341.849 428.89 341.427 429.724 340.434C430.489 339.53 430.717 338.304 430.926 337.137C431.258 335.151 431.536 333.12 431.755 331.104C431.822 329.734 432.1 328.383 432.579 327.097C432.616 326.985 432.692 326.89 432.792 326.829C432.907 326.779 433.041 326.829 433.16 326.779C433.279 326.73 433.358 326.546 433.398 326.397C433.89 324.436 434.128 322.42 434.108 320.399C434.131 319.874 434.052 319.349 433.875 318.855C433.665 318.441 433.365 318.079 432.998 317.795C432.63 317.512 432.204 317.314 431.75 317.216C430.845 317.032 429.927 316.923 429.004 316.888C428.234 316.814 427.472 316.675 426.725 316.471C426.423 316.357 426.098 316.315 425.777 316.347C425.617 316.369 425.471 316.448 425.365 316.569C425.259 316.691 425.201 316.846 425.201 317.008C425.218 317.122 425.259 317.232 425.32 317.33L424.545 317.176C423.92 317.062 423.056 316.789 422.118 316.561C422.118 316.402 422.127 316.236 422.147 316.064C422.149 315.887 422.101 315.712 422.008 315.561C421.915 315.41 421.781 315.288 421.621 315.21L408.503 308.199L406.051 306.888C400.679 304.013 395.128 301.357 389.741 298.482C389.383 298.591 389.085 298.179 388.981 297.812C388.877 297.444 388.802 297.007 388.46 296.843C388.291 296.764 388.067 296.769 387.963 296.625C387.874 296.496 387.84 296.337 387.869 296.183C388.043 293.566 389.914 291.153 389.542 288.561C389.383 287.454 388.812 286.362 389.045 285.274C389.219 284.524 389.755 283.914 390.038 283.199C390.684 281.6 390.038 279.678 390.744 278.114C391.213 277.086 391.533 275.996 391.692 274.877C392.024 272.647 392.694 270.48 393.678 268.452C394.153 267.428 394.775 266.48 395.525 265.636C395.917 265.209 396.359 264.827 396.736 264.385C397.878 263.019 398.3 261.202 398.623 259.42C399.209 256.237 399.616 252.935 398.881 249.777C398.633 248.704 398.256 247.637 398.271 246.534C398.271 245.214 398.802 243.699 398.161 242.642C398.821 242.112 399.261 241.357 399.398 240.521C399.407 240.221 399.466 239.924 399.571 239.643C399.79 239.336 400.073 239.082 400.401 238.898C400.913 238.507 401.305 237.98 401.531 237.376C401.758 236.773 401.81 236.118 401.682 235.487C402.362 235.794 403.077 235.104 403.399 234.424C403.722 233.744 403.965 232.934 404.656 232.627C405.122 232.428 405.649 232.547 406.145 232.418C406.935 232.214 407.416 231.425 407.972 230.844C409.104 229.622 410.708 228.992 412.192 228.242C416.591 226.003 420.176 222.462 423.687 218.977C425.517 217.277 427.18 215.405 428.652 213.386C429.044 212.805 429.401 212.204 429.739 211.588L429.828 211.544L429.858 211.653C429.913 211.871 429.977 212.09 430.042 212.303C430.201 212.8 430.379 213.331 430.538 213.838C431.075 215.327 431.655 216.916 432.748 218.043C433.083 218.387 433.464 218.683 433.88 218.922C434.782 219.407 435.774 219.704 436.794 219.796C437.181 219.846 437.574 219.875 437.966 219.895C438.358 219.915 438.75 219.93 439.138 219.94L447.171 220.154C444.411 216.151 444.192 210.948 444.376 206.077C444.838 193.564 447.275 180.937 445.011 168.623C444.738 167.134 444.376 165.644 443.467 164.447C442.276 162.883 440.319 162.129 438.413 161.687C436.506 161.245 434.525 161.031 432.743 160.232C431.253 159.552 429.883 158.459 428.274 158.102C427.089 157.903 425.877 157.923 424.699 158.161C423.25 158.376 421.808 158.631 420.375 158.926L420.027 159H420.042L419.804 159.055H419.739L419.526 159.105H419.446L419.248 159.159L419.158 159.184L418.975 159.244L418.87 159.278L418.702 159.333L418.592 159.378L418.434 159.437L418.314 159.487L418.17 159.551L418.051 159.611L417.917 159.676L417.798 159.745L417.674 159.815L417.555 159.894L417.441 159.969L417.321 160.053L417.222 160.132L417.108 160.232L417.014 160.316C416.975 160.352 416.938 160.39 416.904 160.43L416.82 160.515C416.781 160.559 416.744 160.605 416.711 160.654C416.711 160.679 416.666 160.703 416.646 160.733C416.626 160.763 416.557 160.862 416.512 160.937V160.967C416.4 161.153 416.308 161.351 416.239 161.557C416.204 161.662 416.169 161.766 416.145 161.87C416.093 162.083 416.057 162.298 416.035 162.516C416.035 162.625 416.035 162.739 416.011 162.848C416.011 163.067 416.011 163.29 416.011 163.509C416.031 163.882 416.072 164.253 416.135 164.621C414.374 165.662 412.905 167.132 411.867 168.894C410.828 170.657 410.253 172.653 410.196 174.698C410.138 176.743 410.6 178.769 411.538 180.587C412.476 182.405 413.859 183.955 415.559 185.093C415.583 185.289 415.596 185.487 415.598 185.684V185.813C415.571 186.516 415.498 187.216 415.38 187.909C413.417 187.527 411.421 187.349 409.422 187.377C408.23 187.377 407.029 187.487 405.827 187.581C404.539 186.027 403.339 184.403 402.233 182.715L399.581 178.827C398.671 177.557 397.842 176.23 397.099 174.855C396.448 173.593 395.942 172.253 395.217 171.031C393.728 168.514 391.295 166.374 390.992 163.459L390.292 163.603C389.909 162.978 389.428 162.317 389.249 161.955C388.29 159.886 387.551 157.723 387.045 155.5C386.801 154.348 386.618 153.146 385.987 152.153C385.557 151.533 385.037 150.98 384.443 150.515C383.485 149.613 382.362 148.905 381.136 148.429C380.589 148.23 380.007 148.145 379.425 148.179C378.844 148.213 378.275 148.366 377.755 148.628C377.593 148.553 377.427 148.486 377.258 148.429C376.644 148.195 375.982 148.113 375.328 148.189C374.675 148.265 374.05 148.497 373.505 148.866C372.462 149.665 372.015 151.036 371.857 152.342C371.582 154.149 371.892 155.996 372.74 157.615C373.733 159.393 375.511 160.594 376.98 162.004C378.003 162.995 378.899 164.109 379.647 165.321C379.877 168.003 379.809 170.703 379.443 173.37C379.254 174.512 378.947 175.634 378.857 176.786C378.495 180.947 380.66 185.108 379.885 189.2C379.757 189.815 379.824 190.454 380.075 191.03C380.327 191.605 380.752 192.089 381.29 192.412C382.402 193.013 383.703 193.092 384.925 193.405C387.323 194.021 389.393 195.555 391.816 196.126C392.933 196.394 394.095 196.444 395.207 196.742L395.381 196.797C394.524 197.766 393.913 198.928 393.598 200.183C393.102 202.268 393.569 204.498 393.072 206.583C392.665 208.301 391.642 209.801 390.634 211.256C388.695 214.063 386.752 216.876 384.805 219.697C383.505 221.675 382.07 223.561 380.511 225.342C377.834 228.267 373.217 230.586 371.857 234.101C371.827 234.017 371.787 233.932 371.757 233.848C369.831 235.263 369.111 237.9 367.577 239.732C366.827 240.621 365.903 241.341 365.094 242.165C364.092 243.229 363.173 244.369 362.348 245.576C360.065 248.744 357.766 251.927 356.132 255.477C355.278 257.324 354.618 259.246 353.938 261.157C351.267 268.69 346.907 275.835 345.095 283.626C344.653 285.527 343.496 287.245 343.322 289.192C343.129 291.267 344.077 293.263 345.06 295.096C346.55 297.896 348.208 300.617 349.529 303.497C350.308 305.175 350.984 306.908 351.852 308.547C352.801 310.334 353.963 311.993 354.956 313.755C357.374 318.279 358.764 323.279 360.05 328.209ZM392.898 185.927L392.66 185.808C391.77 185.423 390.954 184.883 390.252 184.214C388.112 181.93 387.194 178.489 386.523 175.416C386.444 175.048 386.374 174.686 386.31 174.318C388.906 178.008 391.359 181.821 392.898 185.937V185.927Z" fill="url(#paint0_linear)"/>
<path d="M383.142 156.111C382.898 154.964 382.72 153.772 382.089 152.789C381.657 152.171 381.135 151.622 380.54 151.16C379.577 150.264 378.451 149.562 377.223 149.09C376.608 148.859 375.947 148.777 375.294 148.852C374.642 148.928 374.016 149.157 373.47 149.522C372.422 150.316 371.98 151.676 371.816 152.997C371.542 154.793 371.852 156.629 372.7 158.236C373.718 160.003 375.476 161.185 376.95 162.595C378.021 163.628 378.953 164.797 379.721 166.071C380.071 166.732 380.494 167.351 380.982 167.918C381.229 168.196 381.536 168.413 381.881 168.551C382.226 168.69 382.598 168.747 382.968 168.718C383.587 168.554 384.149 168.222 384.591 167.759C385.197 167.228 386.826 166.27 386.875 165.44C386.915 164.76 385.644 163.221 385.331 162.58C384.376 160.507 383.642 158.338 383.142 156.111Z" fill="#FBBEBE"/>
<path opacity="0.1" d="M383.142 156.111C382.898 154.964 382.72 153.772 382.089 152.789C381.657 152.171 381.135 151.622 380.54 151.16C379.577 150.264 378.451 149.562 377.223 149.09C376.608 148.859 375.947 148.777 375.294 148.852C374.642 148.928 374.016 149.157 373.47 149.522C372.422 150.316 371.98 151.676 371.816 152.997C371.542 154.793 371.852 156.629 372.7 158.236C373.718 160.003 375.476 161.185 376.95 162.595C378.021 163.628 378.953 164.797 379.721 166.071C380.071 166.732 380.494 167.351 380.982 167.918C381.229 168.196 381.536 168.413 381.881 168.551C382.226 168.69 382.598 168.747 382.968 168.718C383.587 168.554 384.149 168.222 384.591 167.759C385.197 167.228 386.826 166.27 386.875 165.44C386.915 164.76 385.644 163.221 385.331 162.58C384.376 160.507 383.642 158.338 383.142 156.111Z" fill="black"/>
<path d="M417.485 188.797C414.866 188.095 412.162 187.761 409.452 187.804C404.928 187.869 400.271 188.966 395.962 187.576C394.853 187.198 393.774 186.739 392.734 186.201C391.843 185.819 391.026 185.283 390.321 184.617C388.176 182.347 387.253 178.926 386.588 175.878C386 172.81 385.659 169.7 385.57 166.577C384.453 167.099 383.271 167.61 382.045 167.506C380.818 167.402 379.562 166.458 379.562 165.227C379.746 168.117 379.88 171.041 379.398 173.891C379.21 175.024 378.902 176.141 378.817 177.283C378.45 181.419 380.62 185.55 379.845 189.627C379.715 190.238 379.781 190.875 380.033 191.447C380.285 192.019 380.711 192.498 381.25 192.814C382.362 193.415 383.668 193.49 384.89 193.807C387.288 194.418 389.358 195.943 391.791 196.514C392.908 196.777 394.075 196.826 395.187 197.124C396.771 197.546 398.216 198.455 399.834 198.738C401.046 198.956 402.317 198.808 403.523 198.912C404.591 199.001 405.633 199.279 406.706 199.309C409.327 199.374 411.8 197.894 413.538 195.928C415.276 193.961 416.383 191.166 417.485 188.797Z" fill="#F86D70"/>
<path opacity="0.1" d="M417.485 188.797C414.866 188.095 412.162 187.761 409.452 187.804C404.928 187.869 400.271 188.966 395.962 187.576C394.853 187.198 393.774 186.739 392.734 186.201C391.843 185.819 391.026 185.283 390.321 184.617C388.176 182.347 387.253 178.926 386.588 175.878C386 172.81 385.659 169.7 385.57 166.577C384.453 167.099 383.271 167.61 382.045 167.506C380.818 167.402 379.562 166.458 379.562 165.227C379.746 168.117 379.88 171.041 379.398 173.891C379.21 175.024 378.902 176.141 378.817 177.283C378.45 181.419 380.62 185.55 379.845 189.627C379.715 190.238 379.781 190.875 380.033 191.447C380.285 192.019 380.711 192.498 381.25 192.814C382.362 193.415 383.668 193.49 384.89 193.807C387.288 194.418 389.358 195.943 391.791 196.514C392.908 196.777 394.075 196.826 395.187 197.124C396.771 197.546 398.216 198.455 399.834 198.738C401.046 198.956 402.317 198.808 403.523 198.912C404.591 199.001 405.633 199.279 406.706 199.309C409.327 199.374 411.8 197.894 413.538 195.928C415.276 193.961 416.383 191.166 417.485 188.797Z" fill="black"/>
<path d="M424.664 316.625C425.475 316.726 426.26 316.971 426.983 317.35C427.926 318.021 428.632 318.974 428.999 320.071C430.081 322.743 430.305 325.682 430.354 328.567C430.394 330.896 430.315 333.279 429.481 335.454C429.253 336.14 428.859 336.759 428.334 337.256C427.868 337.621 427.33 337.882 426.755 338.021C425.509 338.364 424.069 338.359 423.051 337.564C421.919 336.68 421.636 335.116 421.397 333.701C421.075 331.794 420.618 329.764 419.198 328.448C418.145 327.455 416.636 326.958 415.871 325.757C414.958 324.312 415.439 322.425 416.02 320.816C416.517 319.421 417.267 316.596 418.726 315.881C420.186 315.166 423.15 316.352 424.664 316.625Z" fill="#FBBEBE"/>
<path d="M370.888 323.477C371.326 325.036 372.102 326.479 373.162 327.703C373.807 328.448 374.617 329.351 374.279 330.275C374.137 330.589 373.929 330.868 373.668 331.094C368.872 335.782 362.164 338.046 355.511 338.9C355.406 338.927 355.294 338.927 355.189 338.9C354.995 338.815 354.945 338.567 354.925 338.354C354.816 337.661 354.816 336.956 354.925 336.263C355.248 334.64 356.673 333.493 358.068 332.594C359.463 331.695 360.988 330.831 361.762 329.366C362.73 327.549 362.323 325.181 363.475 323.477C364.409 322.092 366.146 321.491 367.8 321.243C368.371 321.154 369.587 320.528 370.074 320.816C370.56 321.104 370.719 322.906 370.888 323.477Z" fill="#FBBEBE"/>
<path d="M425.32 316.456C425.32 316.296 425.378 316.141 425.484 316.02C425.59 315.899 425.737 315.822 425.896 315.801C426.217 315.769 426.541 315.81 426.844 315.92C427.59 316.128 428.352 316.269 429.123 316.342C430.047 316.374 430.967 316.482 431.874 316.665C432.327 316.76 432.754 316.955 433.122 317.236C433.491 317.517 433.792 317.877 434.004 318.289C434.181 318.782 434.26 319.305 434.237 319.828C434.257 321.836 434.019 323.839 433.527 325.786C433.487 325.935 433.428 326.109 433.284 326.164C433.14 326.218 433.036 326.164 432.921 326.218C432.87 326.247 432.824 326.285 432.788 326.331C432.751 326.377 432.724 326.43 432.708 326.487C432.227 327.76 431.947 329.1 431.879 330.459C431.66 332.445 431.382 334.461 431.05 336.447C430.856 337.609 430.613 338.83 429.848 339.724C429.009 340.717 427.683 341.129 426.402 341.303C423.701 341.661 420.975 341.119 418.309 340.563C417.8 340.513 417.321 340.298 416.944 339.953C416.699 339.647 416.58 339.26 416.611 338.87C416.671 337.534 417.902 336.591 419.009 335.846L420.544 334.818C420.65 334.759 420.742 334.676 420.812 334.575C420.887 334.421 420.913 334.248 420.886 334.079L420.787 332.092C421.803 332.111 422.795 332.404 423.658 332.94C424.521 333.477 425.222 334.238 425.687 335.141C425.896 335.563 426.099 336.055 426.536 336.219C426.82 336.284 427.119 336.235 427.368 336.084C427.617 335.933 427.798 335.691 427.872 335.409C428.003 334.84 427.988 334.248 427.827 333.686C426.929 328.885 427.142 323.949 426.596 319.098C426.561 318.552 426.39 318.023 426.099 317.559C425.866 317.226 425.374 316.903 425.32 316.456Z" fill="#F86D70"/>
<path d="M364.831 163.554H375.744C378.664 163.554 381.031 161.186 381.031 158.265V158.261C381.031 155.34 378.664 152.972 375.744 152.972H364.831C361.91 152.972 359.543 155.34 359.543 158.261V158.265C359.543 161.186 361.91 163.554 364.831 163.554Z" fill="#F86D70"/>
<path d="M370.451 161.567C372.277 161.567 373.758 160.087 373.758 158.26C373.758 156.434 372.277 154.954 370.451 154.954C368.625 154.954 367.145 156.434 367.145 158.26C367.145 160.087 368.625 161.567 370.451 161.567Z" fill="white"/>
<path d="M358.53 335.072C358.307 335.444 357.954 335.732 357.746 336.114C357.627 336.296 357.579 336.515 357.61 336.729C357.641 336.944 357.75 337.14 357.914 337.281C358.138 337.379 358.386 337.403 358.624 337.351C363.42 336.752 367.921 334.712 371.534 331.501C372.135 330.995 372.667 330.413 373.117 329.769C373.539 329.128 373.897 328.344 374.607 328.075C375.039 329.94 375.262 331.847 375.272 333.761C375.272 335.022 375.093 336.457 374.066 337.187C373.653 337.444 373.2 337.628 372.725 337.733L370.481 338.369C370.084 338.518 369.653 338.56 369.235 338.488C368.972 338.418 368.738 338.249 368.465 338.2C368.169 338.168 367.869 338.207 367.591 338.314L365.65 338.88C364.994 339.05 364.353 339.275 363.733 339.55C363.177 339.813 362.666 340.151 362.125 340.444C361.22 340.898 360.28 341.28 359.315 341.586L355.904 342.773C354.969 343.138 353.994 343.388 352.999 343.518C352.314 343.577 351.614 343.518 350.934 343.632C350.437 343.721 349.941 343.91 349.394 343.95C348.533 343.976 347.685 343.726 346.977 343.235C346.7 343.078 346.46 342.865 346.271 342.609C345.775 341.849 346.207 340.846 346.684 340.077C347.523 338.614 348.719 337.388 350.159 336.511C350.755 336.184 351.395 335.945 352.006 335.648C353.749 334.803 355.065 333.393 356.708 332.43C358.262 331.521 359.26 333.87 358.53 335.072Z" fill="#F86D70"/>
<path d="M406.482 197.591C408.287 198.829 410.353 199.633 412.52 199.94C413.653 200.08 414.794 200.141 415.936 200.123C420.699 200.118 425.453 199.721 430.151 198.937C428.284 196.876 426.392 194.671 425.682 191.985C425.332 190.561 425.258 189.083 425.464 187.63C425.75 185.775 426.195 183.948 426.794 182.169C424.791 182.274 422.782 182.222 420.787 182.015C419.65 181.896 416.859 180.863 415.871 181.647C414.883 182.432 415.643 184.959 415.658 186.146C415.66 186.189 415.66 186.232 415.658 186.275C415.61 188.083 415.22 189.865 414.511 191.528C413.091 194.736 410.013 197.377 406.482 197.591Z" fill="#FBBEBE"/>
<path opacity="0.1" d="M415.663 186.121C417.095 187.057 418.712 187.675 420.404 187.932C422.096 188.189 423.823 188.079 425.469 187.611C425.755 185.755 426.2 183.928 426.799 182.149C424.796 182.254 422.787 182.202 420.792 181.995C419.655 181.876 416.864 180.843 415.876 181.627C414.888 182.412 415.648 184.934 415.663 186.121Z" fill="black"/>
<path d="M422.217 187.516C428.828 187.516 434.187 182.157 434.187 175.545C434.187 168.933 428.828 163.573 422.217 163.573C415.605 163.573 410.246 168.933 410.246 175.545C410.246 182.157 415.605 187.516 422.217 187.516Z" fill="#FBBEBE"/>
<path d="M371.429 236.117C371.425 237.083 371.672 238.033 372.145 238.875C372.619 239.716 373.303 240.421 374.13 240.919C375.052 241.403 376.038 241.751 377.06 241.951C382.521 243.272 388.142 244.335 393.767 244.012C394.986 244.002 396.192 243.748 397.312 243.267C397.87 243.02 398.36 242.643 398.741 242.166C399.122 241.69 399.383 241.129 399.502 240.531C399.507 240.234 399.564 239.94 399.67 239.662C399.889 239.358 400.172 239.105 400.5 238.923C401.012 238.537 401.404 238.014 401.632 237.415C401.859 236.816 401.913 236.164 401.786 235.536C402.466 235.844 403.181 235.154 403.503 234.479C403.826 233.803 404.074 232.989 404.76 232.696C405.226 232.497 405.753 232.617 406.249 232.487C407.039 232.284 407.52 231.494 408.076 230.923C409.208 229.712 410.822 229.086 412.301 228.336C416.71 226.117 420.3 222.596 423.82 219.136C425.65 217.45 427.313 215.59 428.785 213.584C429.18 213.008 429.544 212.411 429.878 211.797C430.939 209.758 431.859 207.65 432.633 205.486C433.08 204.324 433.532 203.103 433.348 201.871C433.348 201.762 433.308 201.653 433.284 201.538C433.054 200.748 432.686 200.005 432.196 199.344C430.98 197.556 429.386 195.868 427.291 195.312C425.196 194.756 423.11 195.426 420.98 195.878C420.275 196.036 419.56 196.145 418.84 196.206C416.586 196.365 414.372 195.759 412.177 195.158L409.804 194.503C408.617 194.175 408.022 192.74 406.825 192.487C406.287 192.406 405.738 192.434 405.211 192.571C402.774 193.033 400.311 193.634 398.161 194.875C397.681 195.15 397.222 195.462 396.791 195.808C395.231 196.974 394.108 198.63 393.603 200.511C393.107 202.581 393.573 204.796 393.077 206.866C392.67 208.574 391.642 210.064 390.639 211.504L384.79 219.88C383.486 221.843 382.05 223.715 380.491 225.481C377.343 228.902 371.514 231.475 371.429 236.117Z" fill="#F86D70"/>
<path d="M387.039 156.111C386.796 154.964 386.617 153.772 385.987 152.789C385.555 152.171 385.033 151.622 384.438 151.16C383.475 150.264 382.349 149.562 381.121 149.09C380.506 148.859 379.845 148.777 379.192 148.852C378.54 148.928 377.914 149.157 377.368 149.522C376.32 150.316 375.878 151.676 375.714 152.997C375.44 154.793 375.75 156.629 376.598 158.236C377.591 160.003 379.373 161.185 380.848 162.595C381.919 163.628 382.85 164.797 383.619 166.071C383.969 166.732 384.392 167.351 384.88 167.918C385.126 168.196 385.434 168.413 385.779 168.551C386.123 168.69 386.495 168.747 386.866 168.718C387.485 168.554 388.047 168.222 388.489 167.759C389.095 167.228 390.723 166.27 390.773 165.44C390.813 164.76 389.542 163.221 389.229 162.58C388.274 160.507 387.54 158.338 387.039 156.111Z" fill="#FBBEBE"/>
<path d="M344.976 294.763C346.465 297.543 348.123 300.225 349.469 303.105C350.248 304.778 350.924 306.496 351.793 308.125C352.741 309.897 353.908 311.546 354.901 313.294C357.383 317.713 358.788 322.698 360.074 327.609C363.668 327.074 367.126 325.857 370.262 324.024C370.473 323.905 370.677 323.774 370.873 323.631C371.713 323.031 372.414 322.257 372.929 321.362C371.742 316.893 370.526 312.31 368.108 308.343C367.318 307.052 366.415 305.86 365.625 304.564C363.277 300.865 362.79 296.203 360.104 292.742C359.848 292.394 359.709 291.973 359.709 291.54C359.709 291.108 359.848 290.687 360.104 290.339C360.412 289.937 360.908 289.554 360.814 289.053C360.745 288.69 360.367 288.363 360.511 288.025C360.581 287.861 360.749 287.772 360.879 287.653C361.335 287.235 361.276 286.515 361.32 285.9C361.42 284.331 362.358 282.955 363.267 281.674C363.451 281.373 363.694 281.111 363.982 280.905C364.225 280.756 364.513 280.686 364.756 280.537C365.61 280.006 365.551 278.755 365.963 277.826C366.499 276.605 367.849 275.984 368.738 274.996C369.865 273.735 370.148 271.982 371.34 270.88C371.463 270.764 371.594 270.658 371.732 270.562C371.215 272.438 370.98 274.381 371.032 276.327C370.918 283 372.586 289.902 371.807 296.531C371.191 301.784 374.428 307.027 379.016 309.659C380.815 310.609 382.694 311.4 384.631 312.022C387.501 313.04 390.371 314.088 393.186 315.265C395.172 316.089 397.158 316.983 399.075 317.931C401.46 319.087 403.781 320.374 406.026 321.784C408.791 323.542 411.562 325.33 413.523 327.956C415.424 327.907 417.167 326.765 418.369 325.29C419.57 323.815 420.32 322.033 421.02 320.27C421.631 318.746 422.236 317.181 422.281 315.538C422.282 315.361 422.233 315.188 422.14 315.038C422.047 314.888 421.913 314.767 421.755 314.689L408.617 307.737L406.135 306.436C400.758 303.581 395.212 300.94 389.805 298.09C389.442 298.194 389.145 297.782 389.04 297.424C388.936 297.067 388.862 296.62 388.519 296.461C388.345 296.382 388.127 296.382 388.022 296.243C387.937 296.114 387.905 295.957 387.933 295.806C388.107 293.204 389.984 290.81 389.606 288.233C389.447 287.131 388.876 286.049 389.11 284.971C389.284 284.221 389.82 283.616 390.103 282.906C390.743 281.317 390.103 279.43 390.808 277.856C391.278 276.835 391.598 275.751 391.756 274.638C392.094 272.422 392.773 270.272 393.767 268.263C394.243 267.244 394.865 266.301 395.614 265.462C396.011 265.04 396.453 264.658 396.825 264.221C397.972 262.865 398.389 261.058 398.717 259.315C399.303 256.152 399.71 252.86 398.975 249.737C398.727 248.67 398.35 247.612 398.365 246.515C398.365 245.07 399.015 243.376 398.012 242.329C397.589 241.953 397.076 241.693 396.523 241.574C394.187 240.944 391.804 240.504 389.398 240.258L378.445 238.833C377.18 238.75 375.941 238.428 374.796 237.885C373.306 237.066 372.313 235.541 371.717 233.952C369.791 235.357 369.066 237.974 367.532 239.792C366.782 240.68 365.858 241.395 365.049 242.21C364.043 243.265 363.124 244.399 362.299 245.601C360.01 248.744 357.706 251.912 356.067 255.432C355.218 257.265 354.578 259.176 353.873 261.073C351.197 268.556 346.832 275.656 345.02 283.387C344.573 285.279 343.417 286.982 343.243 288.919C343.039 290.969 343.988 292.956 344.976 294.763Z" fill="#434175"/>
<path opacity="0.1" d="M402.431 232.646C402.697 233.144 402.836 233.7 402.833 234.265C402.59 233.054 400.922 232.383 400.817 231.187C400.768 230.635 400.867 230.66 401.21 230.953C401.731 231.385 401.954 232.17 402.431 232.646Z" fill="black"/>
<path opacity="0.1" d="M397.362 236.321C397.711 236.62 397.974 237.007 398.121 237.443C398.399 238.056 398.452 238.747 398.27 239.394C398.027 239.28 397.943 238.982 397.868 238.719C397.756 238.313 397.589 237.923 397.372 237.562C397.173 237.249 396.264 236.504 396.274 236.162C396.259 235.645 397.118 236.137 397.362 236.321Z" fill="black"/>
<path opacity="0.1" d="M396.776 195.808C397.546 196.468 398.392 197.031 399.298 197.487C401.671 198.688 404.298 199.319 406.686 200.466C407.864 201.064 409.007 201.727 410.112 202.452C412.48 203.942 414.843 205.431 417.207 206.946C417.776 207.274 418.301 207.673 418.771 208.132C419.625 209.046 419.62 210.615 420.399 211.608C420.83 212.099 421.359 212.494 421.951 212.768C422.544 213.041 423.187 213.188 423.84 213.197C425.147 213.208 426.446 212.99 427.678 212.552C428.425 212.33 429.158 212.063 429.873 211.752C430.62 211.437 431.327 211.034 431.978 210.551C432.629 210.093 433.183 209.511 433.609 208.839C434.035 208.167 434.324 207.417 434.46 206.633C434.546 205.549 434.402 204.46 434.038 203.435C433.841 202.768 433.589 202.119 433.284 201.494C433.109 201.139 432.906 200.799 432.678 200.476C431.049 198.167 428.18 197.08 425.404 196.538C423.939 196.255 422.45 196.082 420.98 195.833C420.275 195.991 419.56 196.101 418.84 196.161C416.586 196.32 414.372 195.714 412.177 195.113L409.804 194.458C408.617 194.13 408.022 192.695 406.825 192.442C406.287 192.361 405.738 192.39 405.211 192.526C402.774 192.988 400.311 193.589 398.161 194.83C397.674 195.119 397.211 195.446 396.776 195.808Z" fill="black"/>
<path d="M390.992 164.035C391.294 166.93 393.737 169.055 395.227 171.553C395.952 172.769 396.458 174.1 397.109 175.356C397.852 176.731 398.681 178.058 399.591 179.328L402.247 183.187C403.811 185.456 405.39 187.745 407.386 189.641C410.862 190.232 413.791 192.819 417.093 194.076C419.739 195.069 422.619 195.218 425.394 195.759C428.17 196.3 431.04 197.382 432.668 199.696C433.277 200.611 433.736 201.616 434.028 202.676C434.392 203.698 434.536 204.786 434.451 205.868C434.315 206.653 434.026 207.404 433.6 208.077C433.174 208.75 432.62 209.333 431.968 209.791C430.662 210.696 429.209 211.368 427.673 211.777C426.441 212.213 425.142 212.431 423.835 212.423C423.182 212.412 422.538 212.266 421.944 211.992C421.351 211.719 420.821 211.324 420.39 210.834C419.615 209.841 419.62 208.257 418.766 207.358C418.297 206.898 417.771 206.499 417.202 206.171L410.107 201.702C409.002 200.978 407.859 200.315 406.681 199.716C404.293 198.549 401.666 197.919 399.293 196.737C396.92 195.555 394.71 193.554 394.244 190.937C392.799 182.899 387.233 176.121 382.477 169.482C382.63 169.452 382.586 169.095 382.64 168.946C383.329 167.388 384.566 166.137 386.116 165.43C387.645 164.601 389.343 164.388 390.992 164.035Z" fill="#F86D70"/>
<path d="M416.07 164.095C415.981 163.223 416.154 162.345 416.566 161.572C417.356 160.261 419.004 159.8 420.504 159.492C422.003 159.184 423.383 158.946 424.833 158.737C426.013 158.5 427.226 158.478 428.413 158.673C430.032 159.03 431.392 160.118 432.882 160.788C434.669 161.587 436.655 161.781 438.562 162.238C440.468 162.695 442.429 163.424 443.626 164.979C444.534 166.155 444.897 167.66 445.17 169.125C447.439 181.354 444.996 193.897 444.534 206.325C444.351 211.161 444.569 216.33 447.335 220.307L439.286 220.094C437.226 220.039 435.012 219.93 433.393 218.659C431.963 217.542 431.288 215.739 430.682 214.036C430.134 212.713 429.785 211.316 429.649 209.89C429.525 206.971 431.183 204.106 430.642 201.231C430.24 199.086 428.656 197.348 427.008 195.943C425.36 194.537 423.483 193.311 422.127 191.598C419.719 188.544 419.257 184.378 419.555 180.5C419.734 178.196 420.151 175.887 419.948 173.584C419.846 171.821 419.21 170.131 418.125 168.737C416.859 167.208 416.189 166.255 416.07 164.095Z" fill="#434175"/>
<path opacity="0.1" d="M416.566 161.572C417.341 160.281 418.95 159.815 420.424 159.512C419.642 159.787 418.971 160.31 418.513 161.001C418.103 161.777 417.93 162.656 418.016 163.529C418.125 165.689 418.796 166.642 420.077 168.171C421.166 169.562 421.803 171.254 421.904 173.018C422.102 175.321 421.69 177.625 421.512 179.934C421.209 183.807 421.671 187.978 424.084 191.032C425.434 192.745 427.296 193.966 428.964 195.376C430.632 196.787 432.196 198.52 432.599 200.665C433.135 203.535 431.476 206.404 431.606 209.324C431.737 210.748 432.083 212.145 432.633 213.465C433.244 215.173 433.919 216.976 435.344 218.093C436.963 219.364 439.182 219.473 441.243 219.528L446.943 219.677C447.067 219.885 447.201 220.094 447.34 220.298L439.291 220.084C437.231 220.029 435.017 219.92 433.398 218.649C431.968 217.532 431.293 215.729 430.687 214.026C430.139 212.703 429.79 211.306 429.654 209.88C429.53 206.961 431.188 204.096 430.647 201.221C430.245 199.076 428.661 197.338 427.013 195.933C425.365 194.527 423.488 193.301 422.132 191.588C419.724 188.534 419.263 184.368 419.56 180.49C419.739 178.186 420.156 175.878 419.953 173.574C419.851 171.811 419.215 170.121 418.13 168.727C416.849 167.198 416.179 166.245 416.065 164.085C415.98 163.216 416.154 162.342 416.566 161.572Z" fill="black"/>
<path opacity="0.1" d="M356.102 287.608L370.888 323.631C371.728 323.031 372.429 322.257 372.944 321.362C371.757 316.893 370.541 312.31 368.123 308.343C367.333 307.052 366.43 305.86 365.64 304.564C363.292 300.865 362.805 296.203 360.119 292.742C359.863 292.394 359.724 291.973 359.724 291.54C359.724 291.108 359.863 290.687 360.119 290.339C360.427 289.937 360.923 289.554 360.829 289.053C360.76 288.69 360.382 288.363 360.526 288.025C360.596 287.861 360.764 287.772 360.894 287.652C361.35 287.235 361.291 286.515 361.335 285.9C361.435 284.331 362.373 282.955 363.282 281.674C363.466 281.373 363.709 281.111 363.997 280.905C364.24 280.756 364.528 280.686 364.771 280.537C365.625 280.006 365.566 278.755 365.978 277.826C366.514 276.605 367.864 275.984 368.753 274.996C369.88 273.735 370.163 271.982 371.355 270.88L371.459 270.621L370.342 263.67L356.102 287.608Z" fill="black"/>
<path d="M485.109 330.633C494.418 330.633 501.965 329.181 501.965 327.39C501.965 325.599 494.418 324.148 485.109 324.148C475.799 324.148 468.252 325.599 468.252 327.39C468.252 329.181 475.799 330.633 485.109 330.633Z" fill="#F86D70"/>
<path d="M485.392 328.577C486.475 328.577 487.353 327.428 487.353 326.01C487.353 324.592 486.475 323.443 485.392 323.443C484.309 323.443 483.431 324.592 483.431 326.01C483.431 327.428 484.309 328.577 485.392 328.577Z" fill="#3F3D56"/>
<path d="M485.392 325.439C486.475 325.439 487.353 324.289 487.353 322.872C487.353 321.454 486.475 320.305 485.392 320.305C484.309 320.305 483.431 321.454 483.431 322.872C483.431 324.289 484.309 325.439 485.392 325.439Z" fill="#3F3D56"/>
<path d="M485.392 322.296C486.475 322.296 487.353 321.146 487.353 319.729C487.353 318.311 486.475 317.162 485.392 317.162C484.309 317.162 483.431 318.311 483.431 319.729C483.431 321.146 484.309 322.296 485.392 322.296Z" fill="#3F3D56"/>
<path d="M485.392 319.158C486.475 319.158 487.353 318.008 487.353 316.591C487.353 315.173 486.475 314.023 485.392 314.023C484.309 314.023 483.431 315.173 483.431 316.591C483.431 318.008 484.309 319.158 485.392 319.158Z" fill="#3F3D56"/>
<path d="M485.392 316.014C486.475 316.014 487.353 314.865 487.353 313.447C487.353 312.03 486.475 310.88 485.392 310.88C484.309 310.88 483.431 312.03 483.431 313.447C483.431 314.865 484.309 316.014 485.392 316.014Z" fill="#3F3D56"/>
<path d="M485.392 312.876C486.475 312.876 487.353 311.727 487.353 310.309C487.353 308.892 486.475 307.742 485.392 307.742C484.309 307.742 483.431 308.892 483.431 310.309C483.431 311.727 484.309 312.876 485.392 312.876Z" fill="#3F3D56"/>
<path d="M485.392 309.738C486.475 309.738 487.353 308.589 487.353 307.171C487.353 305.754 486.475 304.604 485.392 304.604C484.309 304.604 483.431 305.754 483.431 307.171C483.431 308.589 484.309 309.738 485.392 309.738Z" fill="#3F3D56"/>
<path d="M478.043 285.681C477.775 285.339 477.531 284.979 477.314 284.604L482.467 283.755L476.892 283.799C476.358 282.635 476.067 281.374 476.036 280.094C476.005 278.813 476.235 277.54 476.713 276.351L484.195 280.229L477.294 275.16C477.937 274.037 478.806 273.059 479.845 272.287C480.884 271.515 482.071 270.966 483.332 270.674C484.593 270.383 485.901 270.354 487.174 270.591C488.446 270.828 489.656 271.325 490.727 272.052C491.799 272.778 492.709 273.717 493.401 274.811C494.092 275.905 494.551 277.13 494.747 278.41C494.943 279.689 494.874 280.996 494.542 282.247C494.21 283.498 493.624 284.667 492.819 285.681C493.239 286.211 493.599 286.785 493.892 287.394L487.199 290.87L494.339 288.477C494.666 289.448 494.834 290.466 494.835 291.491C494.838 293.601 494.127 295.65 492.819 297.305C493.91 298.692 494.588 300.357 494.776 302.111C494.965 303.864 494.656 305.636 493.886 307.222C493.115 308.809 491.913 310.147 490.418 311.083C488.923 312.018 487.195 312.515 485.431 312.515C483.668 312.515 481.939 312.018 480.444 311.083C478.949 310.147 477.748 308.809 476.977 307.222C476.207 305.636 475.898 303.864 476.086 302.111C476.275 300.357 476.953 298.692 478.043 297.305C476.741 295.648 476.033 293.601 476.033 291.493C476.033 289.385 476.741 287.338 478.043 285.681Z" fill="#F86D70"/>
<path opacity="0.1" d="M494.835 291.491C494.838 293.601 494.127 295.65 492.819 297.305C493.91 298.692 494.588 300.357 494.776 302.111C494.965 303.865 494.656 305.636 493.886 307.223C493.115 308.809 491.913 310.147 490.418 311.083C488.923 312.019 487.195 312.515 485.431 312.515C483.668 312.515 481.939 312.019 480.444 311.083C478.949 310.147 477.748 308.809 476.977 307.223C476.207 305.636 475.898 303.865 476.086 302.111C476.275 300.357 476.953 298.692 478.043 297.305C476.782 295.706 494.835 290.438 494.835 291.491Z" fill="black"/>
<path d="M517.938 293.561C524.198 293.561 529.273 292.585 529.273 291.382C529.273 290.178 524.198 289.202 517.938 289.202C511.677 289.202 506.602 290.178 506.602 291.382C506.602 292.585 511.677 293.561 517.938 293.561Z" fill="#F86D70"/>
<path d="M518.131 292.186C518.861 292.186 519.452 291.412 519.452 290.458C519.452 289.504 518.861 288.73 518.131 288.73C517.402 288.73 516.811 289.504 516.811 290.458C516.811 291.412 517.402 292.186 518.131 292.186Z" fill="#3F3D56"/>
<path d="M518.131 290.076C518.861 290.076 519.452 289.302 519.452 288.348C519.452 287.393 518.861 286.62 518.131 286.62C517.402 286.62 516.811 287.393 516.811 288.348C516.811 289.302 517.402 290.076 518.131 290.076Z" fill="#3F3D56"/>
<path d="M518.131 287.96C518.861 287.96 519.452 287.187 519.452 286.232C519.452 285.278 518.861 284.504 518.131 284.504C517.402 284.504 516.811 285.278 516.811 286.232C516.811 287.187 517.402 287.96 518.131 287.96Z" fill="#3F3D56"/>
<path d="M518.131 285.85C518.861 285.85 519.452 285.076 519.452 284.122C519.452 283.168 518.861 282.394 518.131 282.394C517.402 282.394 516.811 283.168 516.811 284.122C516.811 285.076 517.402 285.85 518.131 285.85Z" fill="#3F3D56"/>
<path d="M518.131 283.74C518.861 283.74 519.452 282.966 519.452 282.012C519.452 281.058 518.861 280.284 518.131 280.284C517.402 280.284 516.811 281.058 516.811 282.012C516.811 282.966 517.402 283.74 518.131 283.74Z" fill="#3F3D56"/>
<path d="M518.131 281.63C518.861 281.63 519.452 280.856 519.452 279.902C519.452 278.947 518.861 278.174 518.131 278.174C517.402 278.174 516.811 278.947 516.811 279.902C516.811 280.856 517.402 281.63 518.131 281.63Z" fill="#3F3D56"/>
<path d="M518.131 279.514C518.861 279.514 519.452 278.741 519.452 277.786C519.452 276.832 518.861 276.058 518.131 276.058C517.402 276.058 516.811 276.832 516.811 277.786C516.811 278.741 517.402 279.514 518.131 279.514Z" fill="#3F3D56"/>
<path d="M513.191 263.342C513.006 263.114 512.84 262.872 512.695 262.617L516.17 262.046L512.422 262.076C512.038 261.248 511.84 260.347 511.841 259.434C511.84 258.623 511.995 257.819 512.297 257.066L517.332 259.678L512.69 256.267C513.12 255.508 513.703 254.846 514.402 254.323C515.101 253.801 515.901 253.429 516.751 253.23C517.6 253.032 518.482 253.012 519.34 253.171C520.198 253.33 521.014 253.665 521.736 254.155C522.458 254.646 523.071 255.28 523.536 256.018C524.001 256.757 524.308 257.584 524.437 258.447C524.567 259.31 524.516 260.19 524.289 261.033C524.062 261.875 523.662 262.662 523.116 263.342C523.397 263.699 523.639 264.085 523.836 264.494L519.338 266.833L524.134 265.219C524.474 266.218 524.559 267.287 524.381 268.327C524.203 269.368 523.768 270.347 523.116 271.177C523.852 272.11 524.311 273.231 524.44 274.412C524.568 275.593 524.362 276.787 523.843 277.856C523.325 278.925 522.517 279.826 521.51 280.457C520.503 281.088 519.339 281.423 518.151 281.423C516.963 281.423 515.799 281.088 514.792 280.457C513.786 279.826 512.977 278.925 512.459 277.856C511.941 276.787 511.734 275.593 511.863 274.412C511.991 273.231 512.45 272.11 513.186 271.177C512.308 270.064 511.831 268.688 511.831 267.27C511.831 265.852 512.308 264.475 513.186 263.362L513.191 263.342Z" fill="#F86D70"/>
<path opacity="0.1" d="M524.477 267.25C524.478 268.667 524.002 270.043 523.126 271.158C523.862 272.09 524.321 273.211 524.449 274.392C524.578 275.573 524.371 276.767 523.853 277.836C523.335 278.905 522.526 279.807 521.52 280.437C520.513 281.068 519.349 281.403 518.161 281.403C516.973 281.403 515.809 281.068 514.802 280.437C513.796 279.807 512.987 278.905 512.469 277.836C511.951 276.767 511.744 275.573 511.873 274.392C512.001 273.211 512.46 272.09 513.196 271.158C512.342 270.08 524.477 266.54 524.477 267.25Z" fill="black"/>
</g>
<defs>
<linearGradient id="paint0_linear" x1="395.202" y1="344.684" x2="395.202" y2="148.226" gradientUnits="userSpaceOnUse">
<stop stop-color="#808080" stop-opacity="0.25"/>
<stop offset="0.54" stop-color="#808080" stop-opacity="0.12"/>
<stop offset="1" stop-color="#808080" stop-opacity="0.1"/>
</linearGradient>
<clipPath id="clip0">
<rect width="568" height="346.576" fill="white"/>
</clipPath>
</defs>
</svg>
