<svg width="72" height="72" viewBox="0 0 72 72" fill="none" xmlns="http://www.w3.org/2000/svg">
<path fill-rule="evenodd" clip-rule="evenodd" d="M52.9673 0.00302124C53.7957 0.00302124 54.4673 0.674594 54.4673 1.50302V13.503C54.4673 14.3314 53.7957 15.003 52.9673 15.003C52.1389 15.003 51.4673 14.3314 51.4673 13.503V1.50302C51.4673 0.674594 52.1389 0.00302124 52.9673 0.00302124Z" fill="black"/>
<path fill-rule="evenodd" clip-rule="evenodd" d="M45.4673 7.50302C45.4673 6.67459 46.1389 6.00302 46.9673 6.00302H58.9673C59.7957 6.00302 60.4673 6.67459 60.4673 7.50302C60.4673 8.33145 59.7957 9.00302 58.9673 9.00302H46.9673C46.1389 9.00302 45.4673 8.33145 45.4673 7.50302Z" fill="black"/>
<path fill-rule="evenodd" clip-rule="evenodd" d="M59.9208 16.9424C60.5066 16.3566 61.4563 16.3566 62.0421 16.9424L70.5291 25.4294C71.1149 26.0151 71.1149 26.9649 70.5291 27.5507C69.9433 28.1365 68.9936 28.1365 68.4078 27.5507L59.9208 19.0637C59.335 18.4779 59.335 17.5281 59.9208 16.9424Z" fill="black"/>
<path fill-rule="evenodd" clip-rule="evenodd" d="M70.5291 16.9424C71.1149 17.5281 71.1149 18.4779 70.5291 19.0637L62.0421 27.5507C61.4563 28.1365 60.5066 28.1365 59.9208 27.5507C59.335 26.9649 59.335 26.0151 59.9208 25.4294L68.4078 16.9424C68.9936 16.3566 69.9433 16.3566 70.5291 16.9424Z" fill="black"/>
<path fill-rule="evenodd" clip-rule="evenodd" d="M31.9673 25.491C31.9673 24.6626 32.6389 23.991 33.4673 23.991H45.4673C46.2957 23.991 46.9673 24.6626 46.9673 25.491C46.9673 26.3194 46.2957 26.991 45.4673 26.991H33.4673C32.6389 26.991 31.9673 26.3194 31.9673 25.491Z" fill="black"/>
<path fill-rule="evenodd" clip-rule="evenodd" d="M37.8763 17.9C38.2983 17.478 38.8706 17.241 39.4673 17.241C40.2957 17.241 40.9673 17.9126 40.9673 18.741C40.9673 19.3493 40.6052 19.8731 40.0847 20.1084C39.8494 20.6289 39.3256 20.991 38.7173 20.991C37.8889 20.991 37.2173 20.3194 37.2173 19.491C37.2173 18.8942 37.4543 18.322 37.8763 17.9Z" fill="black"/>
<path fill-rule="evenodd" clip-rule="evenodd" d="M37.9673 18.75C37.9673 17.9216 38.6389 17.25 39.4673 17.25C40.064 17.25 40.6363 17.487 41.0583 17.909C41.4802 18.331 41.7173 18.9033 41.7173 19.5C41.7173 20.3284 41.0457 21 40.2173 21C39.609 21 39.0852 20.6379 38.8498 20.1174C38.3294 19.8821 37.9673 19.3583 37.9673 18.75Z" fill="black"/>
<path fill-rule="evenodd" clip-rule="evenodd" d="M40.2173 17.991C41.0457 17.991 41.7173 18.6626 41.7173 19.491C41.7173 20.0877 41.4802 20.66 41.0583 21.082C40.6363 21.5039 40.064 21.741 39.4673 21.741C38.6389 21.741 37.9673 21.0694 37.9673 20.241C37.9673 19.6327 38.3294 19.1089 38.8498 18.8735C39.0852 18.3531 39.609 17.991 40.2173 17.991Z" fill="black"/>
<path fill-rule="evenodd" clip-rule="evenodd" d="M40.0847 18.8826C39.8494 18.3621 39.3256 18 38.7173 18C37.8889 18 37.2173 18.6716 37.2173 19.5C37.2173 20.0967 37.4543 20.669 37.8763 21.091C38.2983 21.513 38.8706 21.75 39.4673 21.75C40.2957 21.75 40.9673 21.0784 40.9673 20.25C40.9673 19.6417 40.6052 19.1179 40.0847 18.8826Z" fill="black"/>
<path fill-rule="evenodd" clip-rule="evenodd" d="M37.8763 29.9C38.2983 29.478 38.8706 29.241 39.4673 29.241C40.2957 29.241 40.9673 29.9126 40.9673 30.741C40.9673 31.3493 40.6052 31.8731 40.0847 32.1084C39.8494 32.6289 39.3256 32.991 38.7173 32.991C37.8889 32.991 37.2173 32.3194 37.2173 31.491C37.2173 30.8942 37.4543 30.322 37.8763 29.9Z" fill="black"/>
<path fill-rule="evenodd" clip-rule="evenodd" d="M37.9673 30.75C37.9673 29.9216 38.6389 29.25 39.4673 29.25C40.064 29.25 40.6363 29.487 41.0583 29.909C41.4802 30.331 41.7173 30.9033 41.7173 31.5C41.7173 32.3284 41.0457 33 40.2173 33C39.609 33 39.0852 32.6379 38.8498 32.1174C38.3294 31.8821 37.9673 31.3583 37.9673 30.75Z" fill="black"/>
<path fill-rule="evenodd" clip-rule="evenodd" d="M40.2173 29.991C41.0457 29.991 41.7173 30.6626 41.7173 31.491C41.7173 32.0877 41.4802 32.66 41.0583 33.082C40.6363 33.5039 40.064 33.741 39.4673 33.741C38.6389 33.741 37.9673 33.0694 37.9673 32.241C37.9673 31.6327 38.3294 31.1089 38.8498 30.8735C39.0852 30.3531 39.609 29.991 40.2173 29.991Z" fill="black"/>
<path fill-rule="evenodd" clip-rule="evenodd" d="M40.0847 30.8826C39.8494 30.3621 39.3256 30 38.7173 30C37.8889 30 37.2173 30.6716 37.2173 31.5C37.2173 32.0967 37.4543 32.669 37.8763 33.091C38.2983 33.513 38.8706 33.75 39.4673 33.75C40.2957 33.75 40.9673 33.0784 40.9673 32.25C40.9673 31.6417 40.6052 31.1179 40.0847 30.8826Z" fill="black"/>
<path fill-rule="evenodd" clip-rule="evenodd" d="M27.5444 1.02868C27.7486 0.416166 28.3218 0.00302124 28.9674 0.00302124H39.4674C40.2959 0.00302124 40.9674 0.674594 40.9674 1.50302C40.9674 2.33145 40.2959 3.00302 39.4674 3.00302H30.0486L27.3905 10.9774C27.2093 11.5209 26.7344 11.9137 26.1665 11.9897C25.5987 12.0658 25.0372 11.8118 24.7194 11.3351L21.7194 6.83507C21.2598 6.14578 21.4461 5.21447 22.1354 4.75495C22.8247 4.29542 23.756 4.48168 24.2155 5.17097L25.5143 7.11911L27.5444 1.02868Z" fill="black"/>
<path fill-rule="evenodd" clip-rule="evenodd" d="M16.5722 17.9863C17.1315 18.5975 17.0894 19.5463 16.4783 20.1056C13.2849 23.0279 10.9987 27.0448 9.09034 31.702C7.63576 35.2518 6.4393 39.0683 5.21572 42.9714C4.8281 44.2078 4.43777 45.4529 4.03565 46.701L10.3626 46.701C11.191 46.701 11.8626 47.3726 11.8626 48.201V55.635C11.8623 56.4143 12.0155 57.1866 12.3136 57.9066C12.6117 58.6266 13.0487 59.2808 13.5998 59.8318C14.1508 60.3829 14.805 60.8199 15.525 61.118C16.245 61.416 17.0167 61.5693 17.796 61.569H20.5536C21.382 61.569 22.0536 62.2406 22.0536 63.069V70.5C22.0536 71.3284 21.382 72 20.5536 72C19.7252 72 19.0536 71.3284 19.0536 70.5V64.569H17.7972C17.797 64.569 17.7974 64.569 17.7972 64.569C16.624 64.5694 15.4615 64.3386 14.3775 63.8898C13.2933 63.441 12.3082 62.7829 11.4784 61.9532C10.6487 61.1234 9.99058 60.1383 9.54174 59.0541C9.09298 57.97 8.86221 56.8082 8.8626 55.635C8.8626 55.6348 8.8626 55.6352 8.8626 55.635V49.701H4.0296L4.02356 49.701C3.55195 49.6991 3.08744 49.586 2.66771 49.371C2.24799 49.1559 1.88487 48.845 1.60783 48.4633C1.33079 48.0816 1.14763 47.64 1.07322 47.1743C0.998812 46.7086 1.03524 46.232 1.17956 45.783C1.56415 44.5893 1.9437 43.3784 2.32465 42.1629C3.55661 38.2322 4.80658 34.2441 6.31436 30.5645C8.29549 25.7297 10.7883 21.2461 14.4529 17.8924C15.0641 17.3331 16.0129 17.3752 16.5722 17.9863Z" fill="black"/>
<path fill-rule="evenodd" clip-rule="evenodd" d="M55.2483 36.168C56.0767 36.1678 56.7484 36.8392 56.7486 37.6676C56.7496 41.7015 55.7975 45.6785 53.9701 49.2747C52.2592 52.6416 49.8263 55.5854 46.8486 57.8981V70.5C46.8486 71.3284 46.1771 72 45.3486 72C44.5202 72 43.8486 71.3284 43.8486 70.5V57.15C43.8486 56.6709 44.0775 56.2206 44.4646 55.9382C47.3417 53.8393 49.6823 51.0905 51.2956 47.9156C52.909 44.7407 53.7495 41.2296 53.7486 37.6684C53.7484 36.8399 54.4199 36.1682 55.2483 36.168Z" fill="black"/>
</svg>
