<svg width="541" height="400" viewBox="0 0 541 400" fill="none" xmlns="http://www.w3.org/2000/svg">
<path opacity="0.1" d="M229.293 25.7669C211.541 18.5633 192.781 12.5325 173.63 13.3001C145.452 14.4061 118.464 31.3115 105.206 56.1356C93.9731 77.1648 92.5881 101.817 87.7502 125.154C81.7899 153.911 70.3755 181.238 58.1779 207.965C51.6254 222.3 44.7148 236.984 43.6402 252.721C42.1453 274.566 52.6093 296.339 69.0144 310.884C85.4195 325.43 107.221 333.082 129.081 334.755C140.719 335.647 152.879 334.822 163.219 329.415C174.155 323.695 182.126 313.354 193.106 307.719C203.283 302.475 215.185 301.759 226.609 302.441C241.572 303.335 256.316 306.462 270.351 311.719C286.317 317.707 301.165 326.374 317.097 332.443C333.03 338.512 350.829 341.901 367.115 336.834C382.398 332.066 394.5 320.529 405.403 308.825C423.299 289.614 439.621 269 454.213 247.182C464.046 232.479 473.197 216.966 477.547 199.827C485.857 167.065 474.419 130.098 449.04 107.719C428.026 89.1836 399.806 81.1361 372.187 76.2542C347.004 71.8014 317.885 71.5249 294.703 59.921C272.591 48.8366 252.475 35.1779 229.293 25.7669Z" fill="#F35627"/>
<path d="M415.509 57.5375C408.685 57.8088 408.341 75.3595 408.766 76.1259C409.191 76.8923 407.218 84.8132 407.218 84.8132C407.218 84.8132 404.121 96.823 404.479 99.0556C404.838 101.288 402.812 102.749 402.812 102.749C399.782 103.939 395.983 107.776 394.975 108.828L394.721 109.099C394.721 109.099 391.787 111.004 391.271 111.756C390.755 112.508 389.36 111.908 389.36 111.908C389.36 111.908 385.393 111.527 384.877 111.679C384.524 111.784 383.969 111.137 383.654 110.727C383.506 110.532 383.41 110.385 383.41 110.385L383.291 106.843C383.141 106.73 382.981 106.631 382.813 106.548C382.894 106.148 382.994 105.734 383.119 105.31C384.902 104.444 386.406 103.099 387.463 101.426C387.577 101.245 387.682 101.06 387.783 100.874C388.047 101.057 388.365 101.145 388.686 101.126C388.827 101.13 388.968 101.117 389.106 101.088C389.552 100.968 389.968 100.759 390.33 100.474C391.316 99.8111 392.103 98.8928 392.604 97.8179C392.692 97.6128 392.764 97.4011 392.819 97.1848C392.748 97.3038 392.671 97.4228 392.595 97.5371C392.974 96.5207 392.881 95.3893 392.342 94.4477C391.969 93.8479 391.386 93.3624 391.147 92.696C390.745 91.5488 391.505 90.3635 391.974 89.2401C392.427 88.2181 392.574 87.0876 392.399 85.9842C392.21 84.867 391.571 83.8751 390.631 83.2376C388.753 82.0237 386.206 82.6901 384.031 82.1046C383.255 81.8536 382.496 81.5498 381.762 81.1955C380.645 80.7155 379.48 80.3549 378.287 80.1197C377.107 79.8864 375.678 79.8626 374.942 80.7813C374.737 81.073 374.555 81.3801 374.398 81.7C373.919 82.4728 373.15 83.023 372.261 83.228C371.828 83.31 371.388 83.3562 370.947 83.3661C370.987 83.1873 370.987 83.0022 370.947 82.8234C370.393 81.0146 371.98 79.6722 374.044 78.863C376.108 78.0537 383.96 71.8941 384.872 70.4327C385.785 68.9714 392.174 64.3873 392.174 64.3873C392.174 64.3873 401.732 61.6931 404.867 51.8777C408.001 42.0622 389.871 58.7323 388.046 59.2321C386.22 59.7319 383.606 61.6122 383.606 61.6122L371.98 68.3097C369.763 69.5556 367.665 70.9991 365.71 72.6224C362.895 75.0453 361.113 79.1629 361.113 79.1629C361.113 79.1629 359.999 80.9717 358.375 83.5898C357.478 85.0818 356.269 86.3631 354.829 87.3456L354.881 87.2504C354.752 87.4075 350.753 92.4389 350.399 94.6381C350.045 96.8373 348.416 105.801 348.416 105.801C348.416 105.801 346.982 112.841 345.998 114.226C345.998 114.226 345.2 118.268 344.727 118.81C344.254 119.353 342.337 125.079 342.662 125.66C342.662 125.66 340.837 129.625 341.157 131.125L337.864 138.979C337.864 138.979 336.077 142.863 336.197 145.134C336.254 146.233 336.302 147.514 336.335 148.561C336.335 148.728 336.335 148.885 336.335 149.037C336.335 149.204 336.335 149.366 336.335 149.513C336.158 149.808 335.704 150.56 335.231 151.47C334.553 152.793 333.831 154.445 333.874 155.463C333.951 157.253 333.955 161.623 333.129 163.227L332.885 163.132C332.595 163.611 332.431 164.154 332.407 164.712L332.464 164.741C332.464 164.879 332.421 165.022 332.407 165.174C332.206 166.997 332.498 169.534 332.039 170.091C331.404 170.863 331.719 187.951 331.719 187.951C331.719 187.951 330.687 198.648 332.751 205.426L332.594 210.734C332.594 210.734 332.512 215.736 332.751 216.446C332.99 217.155 333.071 222.22 333.071 222.22L334.261 230.688C334.261 230.688 332.67 243.774 334.022 247.006C334.806 248.789 335.29 250.688 335.456 252.628C336.144 253.005 336.88 253.288 337.645 253.47V253.946L337.334 261.905V262.343C337.334 262.343 337.296 262.553 337.267 262.9C337.267 262.962 337.267 263.029 337.267 263.095C337.265 263.114 337.265 263.133 337.267 263.152C337.267 263.205 337.267 263.262 337.267 263.319C337.265 263.362 337.265 263.405 337.267 263.448C337.269 263.486 337.269 263.524 337.267 263.562V263.657C337.267 263.852 337.267 264.062 337.267 264.281C337.267 264.366 337.267 264.457 337.267 264.547C337.267 264.638 337.267 264.6 337.267 264.623V264.742C337.267 264.795 337.267 264.847 337.267 264.899V264.976C337.267 265.056 337.291 265.133 337.305 265.214C337.303 265.233 337.303 265.252 337.305 265.271C337.305 265.361 337.339 265.447 337.358 265.533C337.358 265.618 337.396 265.704 337.42 265.79C337.422 265.799 337.422 265.809 337.42 265.818C337.42 265.861 337.444 265.909 337.458 265.951C337.456 265.972 337.456 265.993 337.458 266.013C337.458 266.066 337.492 266.118 337.506 266.175V266.213C337.554 266.346 337.602 266.48 337.659 266.613C337.657 266.627 337.657 266.642 337.659 266.656C337.659 266.703 337.702 266.756 337.726 266.803L337.754 266.87L337.817 266.999L337.855 267.07L337.922 267.189L337.965 267.26C337.965 267.299 338.008 267.337 338.032 267.375C338.056 267.413 338.065 267.422 338.079 267.451L338.151 267.56L338.204 267.632L338.28 267.741L338.337 267.813L338.424 267.917L338.481 267.984L338.581 268.098L338.634 268.155L338.796 268.312C338.811 268.331 338.829 268.347 338.849 268.36C338.886 268.399 338.926 268.436 338.968 268.469L339.045 268.531L339.15 268.617L339.241 268.684L339.346 268.76L339.446 268.827L339.551 268.893L339.661 268.955L339.771 269.022L339.886 269.079L340.005 269.136L340.125 269.193L340.244 269.245L340.373 269.298L340.502 269.345L340.636 269.393L340.779 269.436L341.004 269.502L341.19 269.55L341.339 269.579L341.491 269.612H341.654L341.812 269.636H341.979H342.146H342.318H342.495H342.672H343.427H343.647H343.828L344.086 269.612H344.244L344.679 269.564C344.679 269.564 350.093 270.369 350.27 268.236C350.27 268.127 350.27 268.013 350.294 267.894V267.622C350.291 267.589 350.291 267.556 350.294 267.522C350.294 267.417 350.294 267.303 350.294 267.189V267.137C350.294 267.018 350.294 266.899 350.294 266.775V266.518C350.294 266.308 350.294 266.094 350.294 265.88C350.294 265.799 350.294 265.723 350.294 265.642C350.294 265.423 350.294 265.209 350.294 264.995V264.961C350.294 264.909 350.294 264.866 350.294 264.814C350.26 263.757 350.208 262.776 350.174 262.229C350.174 261.939 350.146 261.753 350.146 261.753C350.146 261.753 348.301 258.983 348.602 257.945C348.903 256.907 348.836 253.385 348.836 253.385C348.836 253.385 348.119 251.695 347.637 250.2C347.599 250.086 347.565 249.972 347.532 249.862C347.932 249.406 348.309 248.929 348.659 248.434C349.345 244.764 348.874 240.973 347.312 237.581C347.129 237.454 347.02 237.246 347.02 237.024C347.018 237.005 347.018 236.986 347.02 236.967L347.943 225.728L347.384 219.188C347.384 219.188 346.987 214.718 347.861 212.795L349.606 195.863L352.081 186.014C352.081 186.014 352.874 185.629 353.515 187.48C354.155 189.332 355.732 197.715 355.732 197.715L359.555 211.571C359.555 211.571 360.19 216.498 360.745 217.193C361.299 217.888 361.304 220.963 361.304 220.963C361.304 220.963 362.494 223.429 362.336 224.505C362.178 225.581 362.336 228.508 362.728 229.508C363.12 230.507 363.287 237.6 363.287 237.6C362.83 239.919 362.884 242.31 363.445 244.607C364.401 248.148 363.841 252.613 363.841 252.613C363.942 252.768 364.051 252.917 364.166 253.061C364.128 253.166 364.085 253.27 364.047 253.366C363.798 254.008 363.602 254.46 363.602 254.46C363.602 254.46 363.545 257.983 363.841 259.021C364.138 260.058 362.293 262.829 362.293 262.829C362.293 262.829 362.293 263 362.264 263.305C362.231 263.852 362.178 264.828 362.145 265.889C362.145 265.937 362.145 265.985 362.145 266.037V266.075V266.713C362.145 266.794 362.145 266.875 362.145 266.956C362.145 267.17 362.145 267.384 362.145 267.594C362.145 267.632 362.145 267.675 362.145 267.713C362.145 267.751 362.145 267.775 362.145 267.803V267.846C362.145 267.97 362.145 268.093 362.145 268.212V268.265C362.145 268.379 362.145 268.493 362.145 268.603C362.143 268.633 362.143 268.663 362.145 268.693C362.145 268.784 362.145 268.879 362.145 268.969C362.145 269.06 362.145 269.203 362.169 269.312C362.35 271.445 367.765 270.64 367.765 270.64L368.2 270.693H368.353H368.615H368.792H369.017H369.762H369.939H370.116H370.288H370.455H370.618L370.78 270.664L370.938 270.64L371.091 270.607L371.244 270.578L371.43 270.531L371.655 270.464L371.793 270.421L371.927 270.374C371.971 270.361 372.014 270.345 372.056 270.326L372.185 270.274L372.309 270.221L372.429 270.169L372.548 270.107L372.658 270.05L372.773 269.988L372.878 269.921L372.988 269.855L373.083 269.788L373.189 269.712C373.221 269.692 373.251 269.67 373.279 269.645C373.316 269.621 373.352 269.594 373.384 269.564L373.466 269.498L373.585 269.393L373.638 269.341L373.8 269.184L373.848 269.126L373.953 269.017L374.006 268.946C374.038 268.913 374.069 268.878 374.096 268.841L374.149 268.769L374.23 268.66L374.278 268.589L374.355 268.479C374.369 268.453 374.385 268.427 374.402 268.403C374.402 268.365 374.445 268.327 374.469 268.289L374.512 268.217C374.512 268.174 374.555 268.136 374.574 268.098C374.589 268.075 374.602 268.052 374.613 268.027C374.613 267.984 374.656 267.941 374.675 267.898L374.708 267.832C374.708 267.784 374.751 267.736 374.775 267.684V267.641C374.828 267.508 374.88 267.375 374.923 267.241V267.203C374.923 267.151 374.957 267.099 374.976 267.046C374.974 267.024 374.974 267.002 374.976 266.98C374.976 266.937 374.976 266.889 375.014 266.846V266.823C375.016 266.813 375.016 266.803 375.014 266.794C375.014 266.708 375.062 266.623 375.081 266.542C375.081 266.456 375.119 266.37 375.133 266.285V266.223C375.133 266.142 375.162 266.066 375.172 265.989C375.181 265.913 375.172 265.937 375.172 265.909C375.172 265.88 375.172 265.804 375.172 265.751C375.172 265.699 375.172 265.671 375.172 265.632C375.172 265.594 375.172 265.585 375.172 265.556C375.172 265.528 375.172 265.38 375.172 265.29C375.172 265.071 375.172 264.861 375.172 264.666V264.457C375.169 264.414 375.169 264.371 375.172 264.328C375.172 264.271 375.172 264.219 375.172 264.162C375.169 264.143 375.169 264.123 375.172 264.104C375.172 264.038 375.172 263.971 375.172 263.914C375.143 263.567 375.11 263.357 375.11 263.357V262.924L374.809 255.222V254.746C375.253 254.498 375.707 254.218 376.18 253.889C376.18 253.889 376.099 249.5 377.37 247.734C378.641 245.968 376.734 241.341 376.734 241.341L375.941 224.79L376.256 217.174C375.627 216.044 375.298 214.773 375.301 213.48C375.175 211.829 374.744 210.215 374.03 208.72C374.03 208.72 373.236 206.102 374.192 205.331C375.148 204.56 373.16 187.718 373.16 187.718C373.16 187.718 373.638 175.413 372.73 168.106V167.987L372.983 167.873C372.907 167.288 372.825 166.74 372.735 166.231L372.467 166.312C372.355 165.666 372.195 165.03 371.989 164.408L370.718 158.596C370.718 158.596 370.689 158.291 370.656 157.848C370.613 157.325 370.565 156.615 370.555 155.992C370.551 155.729 370.58 155.467 370.642 155.211L370.575 155.154C370.581 155.017 370.603 154.881 370.642 154.749L370.364 154.516C370.364 154.516 370.326 154.254 370.297 153.854C370.235 152.969 370.202 151.427 370.642 150.556C371.277 149.285 377.81 144.472 377.81 144.472L381.47 137.175C381.47 137.175 385.121 132.053 387.897 131.053C390.674 130.054 399.323 124.322 399.323 124.322C399.323 124.322 402.339 121.243 402.578 120.514L402.678 120.362H402.735V120.262L410.859 108.138C414.109 105.52 414.228 99.9409 414.228 99.9409L415.074 87.1932L414.797 79.6532L415.189 75.369C415.189 75.369 422.328 57.2709 415.509 57.5375ZM368.974 90.5254C368.091 92.0652 367.627 93.8075 367.626 95.5806C367.626 95.6663 367.626 95.752 367.626 95.8377C367.626 95.9234 367.626 95.9757 367.626 96.0424C367.626 97.6259 367.998 99.1874 368.711 100.603C368.35 101.005 368.081 101.481 367.922 101.997C367.521 101.493 366.345 99.9505 366.279 98.927C366.197 97.6989 365.007 96.8516 365.007 96.8516C365.007 96.8516 364.788 94.5191 365.084 94.1193L365.127 94.0812C365.127 94.0812 365.16 94.0241 365.227 93.9289C365.567 93.4195 366.709 91.7011 367.889 89.7447C368.085 89.8284 368.288 89.8953 368.496 89.9446L369.222 90.1255L368.974 90.5254Z" fill="url(#paint0_linear)"/>
<path d="M392.89 90.297C393.021 90.0563 393.125 89.8014 393.229 89.5466C392.897 90.11 392.607 90.6892 392.359 91.2809C392.542 90.9482 392.725 90.6226 392.89 90.297Z" fill="url(#paint1_linear)"/>
<path d="M371.872 99.6376C371.872 99.6376 370.445 106.626 367.813 107.53C365.181 108.434 371.006 116.429 371.006 116.429L383.079 115.75L383.298 113.16C383.298 113.16 381.017 107.975 384.835 101.666C388.652 95.3565 371.872 99.6376 371.872 99.6376Z" fill="#F6BAC2"/>
<path d="M351.434 269.253C351.258 271.472 345.912 270.634 345.912 270.634C337.047 271.89 338.511 263.015 338.511 263.015V262.561L338.819 254.283L338.907 251.974C338.907 251.974 348.671 247.417 348.422 248.374C348.329 248.733 348.534 249.596 348.817 250.528C349.305 252.079 350.003 253.834 350.003 253.834C350.003 253.834 350.062 257.495 349.769 258.572C349.476 259.649 351.297 262.531 351.297 262.531C351.297 262.531 351.297 262.71 351.326 263.03C351.471 265.1 351.507 267.178 351.434 269.253Z" fill="#B77983"/>
<path d="M366.608 270.632C366.608 270.632 361.26 271.475 361.085 269.252C361.003 267.174 361.034 265.094 361.177 263.019C361.177 262.72 361.202 262.521 361.202 262.521C361.202 262.521 363.023 259.641 362.73 258.565C362.437 257.489 362.496 253.826 362.496 253.826C362.496 253.826 362.686 253.363 362.935 252.695C363.458 251.295 364.244 249.023 364.083 248.375C363.849 247.414 373.601 251.968 373.601 251.968L373.699 254.549L373.997 262.546V262.999C373.997 262.999 375.481 271.893 366.608 270.632Z" fill="#B77983"/>
<path d="M403.31 52.7785C400.208 62.6791 390.793 65.4 390.793 65.4C390.793 65.4 384.49 70.038 383.593 71.4904C382.695 72.9428 374.949 79.1785 372.91 79.9967C370.871 80.8149 369.314 82.1705 369.861 83.9908C370.349 85.6805 365.012 93.9495 364.207 95.1792L364.109 95.3341L362.427 97.0819L356.714 99.9528L352.06 98.4762L351.47 92.928L353.939 88.5708C355.366 87.5722 356.559 86.2791 357.436 84.78C359.041 82.1366 360.139 80.3162 360.139 80.3162C360.139 80.3162 361.9 76.1623 364.675 73.7126C366.596 72.0741 368.665 70.6155 370.856 69.3554L382.324 62.5775C382.324 62.5775 384.905 60.6748 386.715 60.1568C388.525 59.6388 406.403 42.8779 403.31 52.7785Z" fill="#F6BAC2"/>
<path opacity="0.05" d="M356.786 96.414L364.52 94.9131C364.436 94.9972 364.387 95.108 364.381 95.2248L364.282 95.3782L362.577 97.1093L356.786 99.9528L352.069 98.4903L351.47 92.995L353.972 88.6794C351.604 93.4746 353.913 96.8791 353.913 96.8791L356.786 96.414Z" fill="black"/>
<path opacity="0.05" d="M403.669 121.433C403.647 121.487 403.627 121.543 403.612 121.599C403.534 121.784 403.432 121.959 403.308 122.118L400.009 123.715L394.974 124.234L392.359 117.952L394.101 111.069L395.063 109.782L395.329 109.492C395.429 110.737 395.936 117.231 395.904 119.182C395.863 121.345 397.473 121.516 397.473 121.516L403.669 121.433Z" fill="black"/>
<path d="M400.189 122.989C400.169 123.039 400.151 123.091 400.137 123.144C399.91 123.881 397.03 126.994 397.03 126.994C397.03 126.994 388.759 132.788 386.107 133.782C383.454 134.776 379.959 139.964 379.959 139.964L376.469 147.349C376.469 147.349 370.213 152.198 369.608 153.497C369.187 154.379 369.22 155.921 369.282 156.833C369.282 157.235 369.338 157.502 369.338 157.502L367.494 159.476L366.023 161.047L363.952 163.258L360.581 162.773L350.073 161.061L348.059 159.897L336.875 153.439C336.875 153.439 336.875 153.036 336.847 152.421C336.847 152.149 336.847 151.839 336.818 151.494C336.785 150.447 336.738 149.143 336.686 148.032C336.573 145.739 338.28 141.811 338.28 141.811L341.424 133.874C341.122 132.361 342.867 128.351 342.867 128.351C342.564 127.769 344.385 121.975 344.839 121.432C345.292 120.889 346.054 116.802 346.054 116.802C347 115.405 348.366 108.287 348.366 108.287C348.366 108.287 349.922 99.2635 350.258 97.0088C350.593 94.7541 354.419 89.7017 354.542 89.5466C351.813 94.6766 354.202 98.4101 354.202 98.4101L356.935 97.9252L364.335 96.4464C363.995 96.6791 364.222 99.2441 364.222 99.2441C364.877 99.7551 365.312 100.509 365.432 101.344C365.503 102.483 366.851 104.253 367.102 104.568L367.139 104.612C367.332 103.516 367.984 102.563 368.922 102.003L370.629 104.34L371.202 107.138C371.202 107.138 371.045 107.531 370.062 108.306C369.078 109.082 370.478 111.104 370.478 111.104C370.951 111.924 371.088 114.954 371.088 114.954C372.341 113.829 374.308 113.829 374.308 113.829C375.109 113.005 375.764 112.043 376.242 110.988C376.323 110.638 376.556 110.345 376.874 110.194C377.193 110.043 377.561 110.049 377.874 110.212C378.445 109.703 379.068 109.26 379.732 108.888C380.645 108.403 381.704 109.373 381.704 109.373L381.818 112.956C381.818 112.956 381.907 113.102 382.054 113.301C382.352 113.727 382.886 114.382 383.222 114.27C383.695 114.115 387.506 114.503 387.506 114.503C387.506 114.503 388.835 115.085 389.327 114.348C389.819 113.611 392.637 111.667 392.637 111.667C392.637 111.667 393.181 118.886 393.181 120.904C393.181 122.921 394.6 123.086 394.6 123.086L400.189 122.989Z" fill="#D39999"/>
<path d="M371.48 116.429C371.96 116.429 372.35 116.041 372.35 115.562C372.35 115.083 371.96 114.695 371.48 114.695C370.999 114.695 370.61 115.083 370.61 115.562C370.61 116.041 370.999 116.429 371.48 116.429Z" fill="#4B4442"/>
<path d="M365.39 127.703C365.87 127.703 366.26 127.315 366.26 126.836C366.26 126.357 365.87 125.969 365.39 125.969C364.91 125.969 364.52 126.357 364.52 126.836C364.52 127.315 364.91 127.703 365.39 127.703Z" fill="#4B4442"/>
<path d="M354.081 150.25C354.561 150.25 354.951 149.862 354.951 149.383C354.951 148.904 354.561 148.515 354.081 148.515C353.6 148.515 353.211 148.904 353.211 149.383C353.211 149.862 353.6 150.25 354.081 150.25Z" fill="#4B4442"/>
<path d="M360.171 138.976C360.651 138.976 361.041 138.588 361.041 138.109C361.041 137.63 360.651 137.242 360.171 137.242C359.69 137.242 359.301 137.63 359.301 138.109C359.301 138.588 359.69 138.976 360.171 138.976Z" fill="#4B4442"/>
<path opacity="0.05" d="M347.991 250.115C344.477 253.767 340.682 253.706 338.421 253.191L338.505 251.3C338.505 251.3 347.85 247.566 347.612 248.35C347.523 248.644 347.701 249.351 347.991 250.115Z" fill="black"/>
<path opacity="0.05" d="M374.09 256.319C367.525 260.017 363.675 255.682 362.78 254.455C363.33 253.047 364.158 250.762 363.988 250.111C363.742 249.143 374.008 253.723 374.008 253.723L374.09 256.319Z" fill="black"/>
<path d="M377.152 247.716C375.941 249.471 376.012 253.819 376.012 253.819C368.201 259.466 364.106 252.596 364.106 252.596C364.106 252.596 364.636 248.172 363.728 244.661C363.19 242.383 363.138 240.016 363.576 237.716C363.576 237.716 363.425 230.694 363.042 229.705C362.659 228.715 362.512 225.813 362.664 224.743C362.815 223.673 361.68 221.237 361.68 221.237C361.68 221.237 361.68 218.183 361.146 217.498C360.612 216.813 360.011 211.922 360.011 211.922L356.375 198.188C356.375 198.188 354.857 189.873 354.252 188.041C353.647 186.21 352.885 186.59 352.885 186.59L350.701 196.433L349.032 213.221C348.195 215.124 348.559 219.558 348.559 219.558L349.088 226.042L348.209 237.183C348.206 237.202 348.206 237.221 348.209 237.24C348.207 237.458 348.309 237.663 348.483 237.792C349.975 241.168 350.418 244.919 349.755 248.553C343.991 256.949 337.012 252.596 337.012 252.596C336.86 250.679 336.4 248.8 335.65 247.03C334.359 243.824 335.877 230.856 335.877 230.856L334.737 222.459C334.737 222.459 334.662 217.422 334.435 216.751C334.208 216.08 334.283 211.104 334.283 211.104L334.435 205.838C332.463 199.121 333.446 188.517 333.446 188.517C333.446 188.517 333.144 171.576 333.754 170.81C334.194 170.259 333.915 167.747 334.104 165.934C334.124 165.384 334.276 164.847 334.548 164.369L334.624 164.293C335.612 163.07 335.612 158.19 335.532 156.277C335.494 155.269 336.18 153.632 336.832 152.319C337.305 151.396 337.735 150.635 337.896 150.359L337.962 150.25C337.962 150.25 342.284 151.32 353.736 156.815C355.787 157.836 357.987 158.522 360.252 158.846C361.38 158.998 362.521 159.015 363.652 158.898C365.378 158.731 367.047 158.186 368.541 157.3C369.331 156.847 370.045 156.27 370.655 155.592C370.499 156.068 370.593 157.695 370.655 158.665C370.683 159.108 370.716 159.407 370.716 159.407L371.979 165.068C372.185 165.74 372.343 166.425 372.452 167.119C372.542 167.623 372.617 168.17 372.688 168.751C373.572 175.991 373.1 188.193 373.1 188.193C373.1 188.193 374.991 204.905 374.088 205.667C373.185 206.428 373.932 209.025 373.932 209.025C374.618 210.514 375.03 212.116 375.147 213.754C375.141 215.033 375.454 216.292 376.06 217.417L375.752 224.971L376.547 241.36C376.547 241.36 378.367 245.96 377.152 247.716Z" fill="#8499F0"/>
<path opacity="0.05" d="M368 220.492C368 220.492 374.312 217.889 375.688 219.061C377.064 220.232 368 220.492 368 220.492Z" fill="black"/>
<path opacity="0.05" d="M372.531 220.492C372.531 220.492 371.73 221.17 373.495 222.038C375.261 222.906 372.531 220.492 372.531 220.492Z" fill="black"/>
<path opacity="0.05" d="M336.686 213.625C336.486 213.681 341.617 216.899 346.25 214.234C346.231 214.234 337.842 213.294 336.686 213.625Z" fill="black"/>
<path opacity="0.05" d="M346.251 218.758C346.251 218.758 344.774 221.747 341.748 222.191C338.722 222.635 346.251 218.758 346.251 218.758Z" fill="black"/>
<path opacity="0.05" d="M364.52 226.562C364.52 226.562 370.787 236.874 369.587 239.306C368.387 241.739 364.52 226.562 364.52 226.562Z" fill="black"/>
<path opacity="0.05" d="M354.68 161.523L354.081 182.336C354.081 182.336 357.638 182.162 358.246 175.305C358.855 168.448 359.3 162.862 359.3 162.862L354.68 161.523Z" fill="black"/>
<path d="M354.679 161.523L354.081 182.336C354.081 182.336 357.633 182.162 358.24 175.3C358.847 168.438 359.3 162.862 359.3 162.862L354.679 161.523Z" fill="#8499F0"/>
<path opacity="0.05" d="M344.511 162.054C344.511 162.054 341.071 169.263 333.201 165.772C333.222 165.311 333.387 164.86 333.681 164.459C335.835 165.166 340.826 166.199 342.867 161.523L344.511 162.054Z" fill="black"/>
<path opacity="0.05" d="M344.511 162.05C344.511 162.05 341.071 169.265 333.201 165.771C333.223 165.31 333.387 164.859 333.681 164.458C335.835 165.168 340.826 166.198 342.867 161.523L344.511 162.05Z" fill="black"/>
<path d="M344.511 162.05C344.511 162.05 341.071 169.265 333.201 165.771C333.223 165.31 333.387 164.859 333.681 164.458C335.835 165.168 340.826 166.198 342.867 161.523L344.511 162.05Z" fill="#8499F0"/>
<path opacity="0.05" d="M374.09 167.659C365.814 170.902 362.78 163.258 362.78 163.258L364.734 163.306C365.076 168.194 371.618 166.879 373.86 166.279C373.939 166.722 374.017 167.168 374.09 167.659Z" fill="black"/>
<path opacity="0.05" d="M374.09 167.661C365.819 170.899 362.78 163.258 362.78 163.258L364.734 163.306C365.076 168.192 371.618 166.881 373.86 166.282C373.939 166.708 374.017 167.171 374.09 167.661Z" fill="black"/>
<path d="M374.09 167.661C365.819 170.899 362.78 163.258 362.78 163.258L364.734 163.306C365.076 168.196 371.618 166.881 373.86 166.282C373.939 166.708 374.017 167.171 374.09 167.661Z" fill="#8499F0"/>
<path opacity="0.1" d="M344.511 162.05C344.511 162.05 341.071 169.265 333.201 165.771C333.223 165.31 333.387 164.859 333.681 164.458C335.835 165.168 340.826 166.198 342.867 161.523L344.511 162.05Z" fill="white"/>
<path opacity="0.1" d="M374.09 167.661C365.819 170.899 362.78 163.258 362.78 163.258L364.734 163.306C365.076 168.196 371.618 166.881 373.86 166.282C373.939 166.708 374.017 167.171 374.09 167.661Z" fill="white"/>
<path opacity="0.05" d="M351.471 266.077C351.471 266.649 351.471 267.183 351.412 267.624C351.237 269.69 345.899 268.91 345.899 268.91C341.024 269.556 339.269 267.327 338.689 265.195C338.507 264.503 338.417 263.791 338.421 263.077C338.418 262.652 338.447 262.226 338.509 261.805V261.382C339.559 261.08 340.699 261.302 341.541 261.972C343.71 263.649 346.586 262.362 346.586 262.362C346.586 262.362 348.697 262.529 349.511 263.198C349.969 263.574 350.725 262.669 351.3 261.805C351.334 262.362 351.388 263.37 351.422 264.447C351.461 265 351.471 265.557 351.471 266.077Z" fill="black"/>
<path opacity="0.05" d="M344.511 266.863C344.511 266.863 342.811 268.3 339.603 266.08C339.391 265.352 339.286 264.603 339.291 263.851C340.929 264.927 343.967 266.863 344.511 266.863Z" fill="black"/>
<path opacity="0.05" d="M351.47 267.116C351.206 267.281 350.87 267.351 350.54 267.308C350.211 267.265 349.918 267.114 349.73 266.89C350.355 266.504 350.929 266.067 351.444 265.586C351.46 266.107 351.47 266.629 351.47 267.116Z" fill="black"/>
<path opacity="0.05" d="M361.042 267.81C361.042 268.386 361.042 268.92 361.095 269.356C361.271 271.428 366.608 270.643 366.608 270.643C371.482 271.293 373.237 269.064 373.817 266.927C374.104 265.818 374.166 264.667 373.998 263.536V263.114C372.945 262.817 371.807 263.038 370.961 263.703C368.792 265.38 365.921 264.094 365.921 264.094C365.921 264.094 363.81 264.266 362.996 264.934C362.538 265.311 361.783 264.405 361.212 263.541C361.178 264.098 361.12 265.106 361.086 266.184C361.047 266.727 361.037 267.285 361.042 267.81Z" fill="black"/>
<path opacity="0.05" d="M370.61 268.596C370.61 268.596 372.31 270.035 375.512 267.813C375.726 267.085 375.833 266.337 375.83 265.586C374.186 266.658 371.148 268.596 370.61 268.596Z" fill="black"/>
<path opacity="0.05" d="M362.782 268.85C363.046 269.016 363.382 269.085 363.711 269.042C364.041 268.999 364.333 268.848 364.52 268.624C363.894 268.239 363.318 267.802 362.803 267.32C362.787 267.837 362.776 268.359 362.782 268.85Z" fill="black"/>
<path opacity="0.05" d="M354.95 120.765C354.95 120.765 347.527 141.424 350.385 143.217C353.244 145.011 354.95 120.765 354.95 120.765Z" fill="black"/>
<path opacity="0.05" d="M362.78 114.695C362.78 114.695 360.062 121.819 361.421 122.464C362.78 123.11 362.78 114.695 362.78 114.695Z" fill="black"/>
<path opacity="0.05" d="M375.83 131.172C375.83 131.172 367.462 139.952 368.028 140.674C368.594 141.396 375.83 131.172 375.83 131.172Z" fill="black"/>
<path opacity="0.05" d="M383.659 112.146C380.297 113.175 372.439 115.581 372.35 115.562L372.786 113.767C374.028 112.677 375.979 112.677 375.979 112.677C376.773 111.878 377.422 110.946 377.897 109.924C377.977 109.584 378.208 109.301 378.523 109.154C378.839 109.008 379.204 109.014 379.514 109.172C380.082 108.681 380.7 108.251 381.357 107.889C382.262 107.419 383.312 108.359 383.312 108.359L383.425 111.827C383.425 111.827 383.514 111.953 383.659 112.146Z" fill="black"/>
<path d="M383.659 112.149C380.297 113.178 372.439 115.586 372.35 115.562L372.786 113.771C374.028 112.68 375.979 112.68 375.979 112.68C376.773 111.881 377.422 110.948 377.897 109.925C377.977 109.586 378.208 109.302 378.523 109.155C378.839 109.008 379.204 109.015 379.514 109.173C380.081 108.679 380.698 108.249 381.357 107.889C382.262 107.419 383.312 108.359 383.312 108.359L383.425 111.834C383.425 111.834 383.514 111.947 383.659 112.149Z" fill="#D39999"/>
<path opacity="0.05" d="M373.175 109.521C373.777 110.382 373.945 113.565 373.945 113.565L372.266 114.695L369.075 106.914L368.93 102.871L368.87 102.642L368.918 102.687C369.162 101.538 369.992 100.537 371.188 99.9528L373.361 102.402L374.09 105.34C374.09 105.34 373.891 105.753 372.639 106.568C371.387 107.382 373.175 109.521 373.175 109.521Z" fill="black"/>
<path d="M373.175 109.508C373.777 110.368 373.952 113.55 373.952 113.55L372.272 114.695L369.081 106.917L368.936 102.875L368.87 102.646L368.918 102.692C369.163 101.541 369.993 100.54 371.188 99.9528L373.361 102.406L374.09 105.344C374.09 105.344 373.891 105.756 372.639 106.571C371.387 107.385 373.175 109.508 373.175 109.508Z" fill="#D39999"/>
<path opacity="0.05" d="M388.88 97.3563C388.877 103.103 384.202 107.759 378.437 107.758C372.672 107.756 368 103.096 368 97.3499C368.001 91.6034 372.675 86.9454 378.44 86.9454C381.217 86.9221 383.886 88.0116 385.849 89.9693C387.812 91.9269 388.904 94.5885 388.88 97.3563Z" fill="black"/>
<path d="M388.88 97.3464C388.882 101.556 386.339 105.352 382.438 106.964C378.536 108.576 374.045 107.686 371.058 104.709C368.072 101.733 367.179 97.2556 368.796 93.3667C370.413 89.4778 374.222 86.9432 378.445 86.945C381.217 86.9297 383.88 88.0206 385.841 89.9745C387.801 91.9285 388.895 94.5831 388.88 97.3464Z" fill="#F6BAC2"/>
<path opacity="0.05" d="M388.879 96.4144C388.882 98.1481 388.392 99.8488 387.461 101.329C387.317 101.08 387.232 100.791 387.088 100.538C386.885 100.184 386.417 99.8872 386.07 100.101C385.925 100.216 385.814 100.367 385.75 100.538C385.467 101.119 384.963 101.7 384.301 101.687C383.712 101.626 383.222 101.22 383.067 100.665C382.928 100.119 382.904 99.5514 382.995 98.9961C383.094 97.8603 383.112 96.5498 382.243 95.7854C381.682 95.3873 381.041 95.1089 380.361 94.9685C379.7 94.7588 379.011 94.4268 378.741 93.8065C378.561 93.3697 378.606 92.9066 378.444 92.496C378.103 91.8284 377.45 91.3625 376.692 91.2467C375.832 91.9362 374.742 92.298 373.626 92.2645C372.604 92.2411 371.59 92.0854 370.61 91.8015C372.771 88.0385 377.28 86.1672 381.577 87.2492C385.875 88.3312 388.876 92.0934 388.879 96.4013V96.4144Z" fill="black"/>
<path d="M376.097 92.3782C376.266 92.8507 376.219 93.3609 376.407 93.7956C376.685 94.4665 377.409 94.8255 378.101 95.0523C378.811 95.2036 379.481 95.503 380.068 95.9311C380.976 96.7626 380.957 98.1799 380.854 99.4083C380.758 100.009 380.784 100.623 380.929 101.213C381.093 101.812 381.604 102.25 382.218 102.319C382.91 102.319 383.437 101.704 383.733 101.076C383.801 100.891 383.916 100.728 384.067 100.604C384.43 100.363 384.919 100.684 385.131 101.076C385.279 101.485 385.483 101.872 385.738 102.224C386.078 102.519 386.541 102.625 386.975 102.508C387.401 102.391 387.797 102.185 388.137 101.903C389.08 101.244 389.828 100.341 390.302 99.2902C390.769 98.2262 390.719 97.0046 390.165 95.983C389.812 95.3877 389.252 94.9106 389.031 94.2539C388.645 93.1247 389.37 91.9625 389.817 90.857C390.245 89.8459 390.384 88.7349 390.217 87.649C390.042 86.5568 389.436 85.5812 388.537 84.9419C386.749 83.7466 384.331 84.4033 382.261 83.8269C381.52 83.5828 380.798 83.2843 380.101 82.934C379.044 82.4627 377.94 82.1079 376.807 81.8757C375.683 81.6489 374.323 81.6206 373.612 82.5229C373.418 82.8122 373.245 83.1154 373.095 83.43C372.646 84.1853 371.913 84.7269 371.062 84.9324C370.455 85.0789 369.82 85.0411 369.18 85.1309C368.548 85.175 367.97 85.5075 367.613 86.0332C367.303 86.6002 367.434 87.29 367.51 87.923C367.585 88.5561 367.547 89.312 367.039 89.7042C366.799 89.8884 366.47 89.9782 366.324 90.238C366.186 90.5515 366.277 90.9188 366.545 91.131C366.81 91.332 367.117 91.4679 367.444 91.5278C368.614 91.8947 369.828 92.1028 371.053 92.1467C372.291 92.1871 373.496 91.7414 374.412 90.9042C374.332 90.9845 373.815 90.9514 373.721 90.9467C374.633 91.0459 375.753 91.4522 376.097 92.3782Z" fill="#7E646B"/>
<g opacity="0.05">
<path opacity="0.05" d="M390.233 99.8036C389.893 100.069 389.499 100.264 389.076 100.378C388.644 100.484 388.186 100.383 387.848 100.106C387.593 99.7749 387.387 99.4105 387.239 99.0243C387.029 98.6636 386.541 98.3607 386.181 98.5789C386.032 98.6982 385.917 98.8514 385.848 99.0243C385.558 99.6165 385.028 100.209 384.34 100.195C383.727 100.134 383.219 99.7192 383.061 99.1534C382.915 98.5972 382.888 98.0187 382.981 97.4523C383.089 96.2945 383.103 94.963 382.204 94.1793C381.618 93.7736 380.949 93.4899 380.241 93.3465C379.557 93.1328 378.835 92.7943 378.554 92.162C378.367 91.7167 378.414 91.2446 378.245 90.826C377.969 90.118 377.186 89.7306 376.423 89.5524C375.524 90.2505 374.393 90.6201 373.233 90.5945C372.013 90.5494 370.805 90.3518 369.64 90.0067C369.316 89.9497 369.01 89.8233 368.745 89.6371C368.69 89.589 368.642 89.5352 368.6 89.4767C368.393 89.5609 368.212 89.6944 368.075 89.8642C367.938 90.1596 368.029 90.5058 368.295 90.7058C368.559 90.8953 368.865 91.0234 369.19 91.0799C370.355 91.4257 371.563 91.6219 372.783 91.6632C373.942 91.6926 375.072 91.3243 375.968 90.6257C376.732 90.8038 377.519 91.1867 377.795 91.8948C377.964 92.3401 377.917 92.821 378.105 93.2307C378.386 93.8631 379.102 94.2015 379.791 94.4153C380.498 94.5578 381.165 94.84 381.749 95.2435C382.653 96.0273 382.635 97.3632 382.531 98.5211C382.436 99.0871 382.462 99.6656 382.606 100.222C382.769 100.787 383.278 101.199 383.89 101.264C384.579 101.264 385.103 100.685 385.398 100.093C385.465 99.919 385.58 99.7652 385.731 99.6477C386.092 99.4206 386.579 99.7234 386.79 100.093C386.937 100.48 387.142 100.844 387.399 101.175C387.735 101.453 388.196 101.553 388.626 101.442C389.05 101.332 389.444 101.138 389.783 100.872C390.722 100.251 391.466 99.4003 391.938 98.4097C392.021 98.2191 392.089 98.0226 392.139 97.8219C391.66 98.6041 391.01 99.2798 390.233 99.8036Z" fill="black"/>
<path opacity="0.05" d="M391.17 91.0665C391.268 90.8616 391.362 90.6568 391.451 90.4564C391.54 90.256 391.573 90.1447 391.624 89.9844C391.452 90.3368 391.3 90.6981 391.17 91.0665Z" fill="black"/>
<path opacity="0.05" d="M369.265 88.2655C369.734 87.887 369.766 87.2101 369.691 86.6268C369.636 86.2863 369.606 85.9425 369.602 85.5981C369.502 85.6908 369.416 85.7956 369.345 85.9098C369.036 86.4442 369.167 87.0943 369.242 87.6911C369.266 87.8816 369.274 88.0737 369.265 88.2655Z" fill="black"/>
</g>
<path opacity="0.05" d="M369.74 159.549C368.881 159.611 367.676 159.678 366.226 159.731C365.22 159.765 364.093 159.789 362.888 159.789C361.835 159.789 360.722 159.789 359.568 159.736C355.917 159.638 352.279 159.248 348.685 158.569C343.888 157.608 339.451 155.951 336.681 153.146C337.142 152.214 337.563 151.441 337.72 151.167C337.72 150.898 337.72 150.586 337.692 150.25C342.563 152.651 357.749 159.323 369.389 155.533C369.389 155.932 369.444 156.196 369.444 156.196L369.707 156.427C369.574 156.926 369.657 158.569 369.74 159.549Z" fill="black"/>
<path d="M369.74 159.553C368.881 159.616 367.676 159.683 366.226 159.731C365.22 159.77 364.093 159.789 362.888 159.789C361.835 159.789 360.722 159.789 359.568 159.736C355.917 159.64 352.279 159.251 348.685 158.574C343.888 157.613 339.451 155.951 336.681 153.146C337.142 152.214 337.563 151.446 337.72 151.167C337.72 150.898 337.72 150.591 337.692 150.25C342.563 152.651 357.749 159.328 369.389 155.557C369.389 155.956 369.444 156.22 369.444 156.22L369.707 156.451C369.574 156.931 369.657 158.574 369.74 159.553Z" fill="#4B4442"/>
<path d="M132.01 367.047C130.854 365.658 130.324 363.855 130.546 362.063L151.602 190.156L153.348 175.877C153.752 172.591 156.537 170.115 159.854 170.089L221.529 169.68C223.303 169.669 224.998 168.946 226.231 167.673C227.464 166.4 228.132 164.686 228.083 162.916L228.059 162.264C227.998 160.479 228.666 158.747 229.91 157.462C231.154 156.178 232.867 155.453 234.656 155.453H299.465C303.102 155.453 306.054 158.391 306.062 162.021C306.061 162.317 306.042 162.613 306.004 162.907C305.756 164.759 306.309 166.63 307.525 168.052C308.74 169.474 310.505 170.313 312.378 170.36L374.619 171.945C376.535 171.992 378.334 172.868 379.551 174.345C380.767 175.822 381.279 177.753 380.954 179.637L349.838 360.983L349.251 364.41C349.106 365.285 348.782 366.122 348.297 366.866L132.01 367.047Z" fill="#B7B6CC"/>
<g opacity="0.5">
<path opacity="0.5" d="M247.439 219.468L318.116 117.508L349.393 139.046L278.717 241.006L247.439 219.468Z" fill="url(#paint2_linear)"/>
</g>
<path d="M320.525 118.988L350.575 139.683L280.11 241.348L250.06 220.653L320.525 118.988Z" fill="#F9FAFB"/>
<path d="M322.69 123.805L343.862 138.476L329.145 159.58L307.972 144.91L322.69 123.805Z" fill="#F7B643"/>
<path opacity="0.5" d="M306.104 149.238L327.347 163.868L312.67 185.043L291.427 170.413L306.104 149.238Z" fill="#F7B643"/>
<path opacity="0.3" d="M288.38 174.803L309.623 189.433L294.947 210.608L273.703 195.979L288.38 174.803Z" fill="#F7B643"/>
<g opacity="0.5">
<path opacity="0.5" d="M242.335 230.139L278.068 109.885L315.593 120.67L279.861 240.923L242.335 230.139Z" fill="url(#paint3_linear)"/>
</g>
<path d="M278.069 112.621L313.126 122.833L278.485 240.993L243.428 230.781L278.069 112.621Z" fill="#F9FAFB"/>
<path d="M282.671 116.032L307.454 123.251L300.212 147.955L275.428 140.736L282.671 116.032Z" fill="#F97878"/>
<path opacity="0.5" d="M273.926 145.856L298.71 153.076L291.467 177.78L266.684 170.56L273.926 145.856Z" fill="#F97878"/>
<path opacity="0.3" d="M265.183 175.676L289.967 182.896L282.724 207.6L257.941 200.38L265.183 175.676Z" fill="#F97878"/>
<g opacity="0.5">
<path opacity="0.5" d="M241.913 237.963L251.943 114.275L290.203 117.329L280.172 241.018L241.913 237.963Z" fill="url(#paint4_linear)"/>
</g>
<path d="M253.235 114.484L289.642 117.404L279.737 240.109L243.331 237.189L253.235 114.484Z" fill="#F9FAFB"/>
<path d="M258.417 116.897L284.154 118.961L282.083 144.616L256.346 142.552L258.417 116.897Z" fill="#73B53B"/>
<path opacity="0.5" d="M255.914 147.863L281.651 149.927L279.58 175.581L253.843 173.517L255.914 147.863Z" fill="#73B53B"/>
<path opacity="0.3" d="M253.416 178.838L279.153 180.902L277.082 206.557L251.345 204.493L253.416 178.838Z" fill="#73B53B"/>
<g opacity="0.5">
<path opacity="0.5" d="M235.159 117.776L273.457 116.029L279.146 240.917L240.847 242.664L235.159 117.776Z" fill="url(#paint5_linear)"/>
</g>
<path d="M236.857 119.418L273.343 117.76L278.967 240.734L242.481 242.392L236.857 119.418Z" fill="white"/>
<path d="M242.296 121.156L268.089 119.984L269.265 145.695L243.472 146.867L242.296 121.156Z" fill="#F35627"/>
<path opacity="0.5" d="M244.726 151.212L270.546 149.925L271.837 175.662L246.017 176.949L244.726 151.212Z" fill="#F35627"/>
<path opacity="0.3" d="M245.134 183.236L270.927 182.064L272.103 207.775L246.31 208.947L245.134 183.236Z" fill="#F35627"/>
<path d="M253.163 282.255L220.686 294.865L173.22 313.281C171.426 309.92 168.785 305.377 165.517 299.955C154.274 281.256 135.672 252.169 119.108 226.607C100.449 197.795 84.3877 173.481 84.3877 173.481L96.0139 170.12L190.985 142.445L253.163 282.255Z" fill="#E6ECF8"/>
<path opacity="0.1" d="M251.423 280.945L219.06 293.437C200.981 297.195 182.532 298.887 164.069 298.48C152.865 279.955 134.328 251.141 117.822 225.819L94.8276 169.842L189.462 142.445L251.423 280.945Z" fill="black"/>
<path d="M275.782 274.62C275.782 274.62 225.236 304.255 149.769 297.552L89.6074 152.181L118.44 147.269L218.113 130.304L274.675 271.794L275.782 274.62Z" fill="#F35627"/>
<path opacity="0.1" d="M275.782 270.458C263.851 271.032 250.047 270.975 236.16 269.352C221.13 267.62 206.013 264.053 193.054 257.512C182.219 252.049 172.955 246.105 164.878 238.976C143.865 220.468 130.863 193.993 119.187 147.109L219.102 130.304L275.782 270.458Z" fill="black"/>
<path d="M312.322 260.501C312.322 260.501 274.894 267.715 236.798 263.274C221.737 261.529 206.588 257.937 193.602 251.348C182.744 245.846 173.466 239.859 165.367 232.679C139.308 209.601 125.547 174.233 111.357 102.809C111.357 102.809 173.577 117.593 235.103 85.2106C235.084 85.2343 255.822 212.629 312.322 260.501Z" fill="#F9FAFB"/>
<path opacity="0.1" d="M236.634 267.32C221.775 265.579 206.831 261.993 194.02 255.417C183.309 249.924 174.155 243.948 166.166 236.781C188.054 235.011 191.199 223.094 191.199 223.094C207.425 248.741 236.634 267.32 236.634 267.32Z" fill="black"/>
<path opacity="0.3" d="M145.286 130.659C145.286 130.659 194.658 127.703 208.444 116.429L210.534 123.547C210.534 123.547 177.913 138.792 145.286 138.976V130.659Z" fill="#F35627"/>
<path opacity="0.3" d="M145.286 164.561C145.286 164.561 193.154 161.902 229.321 144.179L230.544 147.015C230.544 147.015 201.844 164.012 145.286 168.461V164.561Z" fill="#F35627"/>
<path opacity="0.3" d="M148.766 177.569C148.766 177.569 196.637 174.91 232.8 157.187L234.024 160.023C234.024 160.023 205.322 177.015 148.766 181.469V177.569Z" fill="#F35627"/>
<path opacity="0.3" d="M153.116 190.577C153.116 190.577 200.986 187.918 237.155 170.195L238.373 173.03C238.373 173.03 209.672 190.028 153.116 194.476V190.577Z" fill="#F35627"/>
<path opacity="0.3" d="M158.335 203.585C158.335 203.585 206.206 200.926 242.37 183.203L243.593 186.038C243.593 186.038 214.892 203.036 158.335 207.484V203.585Z" fill="#F35627"/>
<path opacity="0.3" d="M160.076 216.592C160.076 216.592 207.946 213.934 244.115 196.211L245.333 199.046C245.333 199.046 216.632 216.039 160.076 220.492V216.592Z" fill="#F35627"/>
<path d="M501.6 380.081C501.6 380.081 481.537 378.871 483.901 392.922C483.901 392.922 483.426 395.403 485.685 396.531C485.685 396.531 485.718 395.488 487.739 395.844C488.46 395.965 489.193 396 489.922 395.948C490.906 395.882 491.841 395.496 492.584 394.848C492.584 394.848 498.226 392.519 500.418 383.31C500.418 383.31 502.041 381.299 501.975 380.783L498.591 382.205C498.591 382.205 499.749 384.647 498.838 386.672C498.838 386.672 498.729 382.295 498.079 382.404C497.946 382.404 496.318 383.249 496.318 383.249C496.318 383.249 498.307 387.516 496.793 390.589C496.793 390.589 497.362 385.349 495.683 383.557L493.31 384.946C493.31 384.946 495.635 389.337 494.06 392.922C494.06 392.922 494.463 387.426 492.807 385.283L490.648 386.966C490.648 386.966 492.835 391.296 491.502 394.269C491.502 394.269 491.327 387.867 490.178 387.384C490.178 387.384 488.28 389.048 488.005 389.755C488.005 389.755 489.5 392.894 488.57 394.554C488.57 394.554 488 390.286 487.535 390.286C487.535 390.286 485.637 393.131 485.457 395.028C485.457 395.028 485.538 392.145 487.08 389.997C485.993 390.204 484.991 390.723 484.195 391.49C484.195 391.49 484.489 389.489 487.545 389.318C487.545 389.318 489.101 387.175 489.514 387.042C489.514 387.042 486.477 386.791 484.636 387.607C484.636 387.607 486.259 385.71 490.074 386.578L492.204 384.842C492.204 384.842 488.204 384.292 486.51 384.899C486.51 384.899 488.461 383.23 492.779 384.425L495.099 383.04C495.099 383.04 491.692 382.305 489.661 382.566C489.661 382.566 491.801 381.409 495.782 382.66L497.438 381.916C497.438 381.916 494.942 381.442 494.212 381.347C493.481 381.252 493.438 381.072 493.438 381.072C495.02 380.805 496.646 380.986 498.131 381.594C498.131 381.594 501.657 380.304 501.6 380.081Z" fill="#F35627"/>
<path opacity="0.1" d="M488.057 400C495.744 400 501.976 398.835 501.976 397.398C501.976 395.962 495.744 394.797 488.057 394.797C480.369 394.797 474.137 395.962 474.137 397.398C474.137 398.835 480.369 400 488.057 400Z" fill="#F35627"/>
<path opacity="0.1" d="M389.314 393.062C415.981 393.062 437.598 390.927 437.598 388.293C437.598 385.659 415.981 383.523 389.314 383.523C362.648 383.523 341.031 385.659 341.031 388.293C341.031 390.927 362.648 393.062 389.314 393.062Z" fill="#F35627"/>
<path d="M511.3 333.242C511.3 333.242 498.883 332.541 500.358 340.677C500.202 341.522 500.646 342.365 501.457 342.766C501.457 342.766 501.483 342.162 502.734 342.366C503.18 342.435 503.633 342.455 504.083 342.425C504.692 342.388 505.27 342.166 505.73 341.792C505.73 341.792 509.221 340.443 510.581 335.111C510.581 335.111 511.586 333.948 511.545 333.651L509.461 334.483C509.461 334.483 510.174 335.9 509.612 337.074C509.612 337.074 509.544 334.537 509.143 334.595C509.059 334.595 508.054 335.082 508.054 335.082C508.054 335.082 509.283 337.517 508.356 339.333C508.356 339.333 508.71 336.299 507.668 335.257L506.194 336.066C506.194 336.066 507.632 338.607 506.657 340.682C506.657 340.682 506.908 337.497 505.881 336.26L504.547 337.234C504.547 337.234 505.897 339.742 505.068 341.461C505.068 341.461 504.959 337.755 504.25 337.478C503.744 337.879 503.291 338.335 502.901 338.836C502.901 338.836 503.828 340.657 503.255 341.616C503.255 341.616 502.901 339.148 502.614 339.138C502.614 339.138 501.447 340.769 501.327 341.889C501.384 340.85 501.73 339.843 502.333 338.968C501.659 339.086 501.037 339.388 500.546 339.834C500.546 339.834 500.728 338.676 502.63 338.578C502.63 338.578 503.594 337.337 503.849 337.259C503.849 337.259 501.968 337.113 500.827 337.585C500.827 337.585 501.833 336.494 504.193 336.991L505.516 335.983C505.516 335.983 503.036 335.666 501.989 336.017C501.989 336.017 503.198 335.043 505.871 335.754L507.309 334.951C506.202 334.724 505.069 334.634 503.938 334.683C503.938 334.683 505.266 334.011 507.726 334.736L508.768 334.308C508.768 334.308 507.205 334.021 506.767 333.977C506.329 333.933 506.287 333.816 506.287 333.816C507.268 333.664 508.274 333.768 509.195 334.118C509.195 334.118 511.342 333.368 511.3 333.242Z" fill="#F35627"/>
<path opacity="0.1" d="M504.152 344.5C508.236 344.5 511.546 343.723 511.546 342.766C511.546 341.808 508.236 341.031 504.152 341.031C500.068 341.031 496.757 341.808 496.757 342.766C496.757 343.723 500.068 344.5 504.152 344.5Z" fill="#F35627"/>
<path d="M444.263 339.315C444.263 339.315 429.957 338.485 431.647 348.101C431.467 349.1 431.979 350.097 432.915 350.57C432.915 350.57 432.915 349.855 434.406 350.094C434.92 350.177 435.442 350.201 435.962 350.165C436.664 350.12 437.331 349.856 437.861 349.412C437.861 349.412 441.882 347.82 443.448 341.517C443.448 341.517 444.606 340.144 444.556 339.787L442.116 340.778C442.116 340.778 442.941 342.447 442.29 343.834C442.29 343.834 442.21 340.84 441.748 340.907C441.653 340.907 440.495 341.489 440.495 341.489C440.495 341.489 441.912 344.397 440.843 346.513C440.843 346.513 441.251 342.928 440.053 341.698L438.353 342.652C438.353 342.652 440.008 345.66 438.885 348.11C438.885 348.11 439.173 344.349 437.995 342.866L436.454 344.02C436.454 344.02 438.015 346.981 437.06 349.016C437.06 349.016 436.941 344.635 436.121 344.306C436.121 344.306 434.774 345.445 434.57 345.913C434.57 345.913 435.634 348.063 434.973 349.197C434.973 349.197 434.565 346.28 434.232 346.265C434.232 346.265 432.895 348.201 432.741 349.521C432.808 348.297 433.207 347.111 433.899 346.079C433.125 346.221 432.411 346.577 431.846 347.104C431.846 347.104 432.055 345.736 434.232 345.617C434.232 345.617 435.34 344.149 435.639 344.063C435.639 344.063 433.471 343.887 432.159 344.444C432.159 344.444 433.312 343.157 436.031 343.744L437.552 342.552C437.552 342.552 434.704 342.18 433.491 342.59C433.491 342.59 434.883 341.451 437.965 342.285L439.62 341.331C439.62 341.331 437.19 340.831 435.738 341.012C435.738 341.012 437.269 340.221 440.102 341.079L441.286 340.569C441.286 340.569 439.506 340.235 438.984 340.182C438.462 340.13 438.437 339.992 438.437 339.992C439.565 339.808 440.723 339.931 441.783 340.345C441.783 340.345 444.308 339.463 444.263 339.315Z" fill="#F35627"/>
<path opacity="0.1" d="M435.423 354.039C440.468 354.039 444.558 353.262 444.558 352.305C444.558 351.347 440.468 350.57 435.423 350.57C430.378 350.57 426.289 351.347 426.289 352.305C426.289 353.262 430.378 354.039 435.423 354.039Z" fill="#F35627"/>
<path opacity="0.1" d="M25.2297 393.063C32.9173 393.063 39.1493 391.898 39.1493 390.461C39.1493 389.024 32.9173 387.859 25.2297 387.859C17.5421 387.859 11.3101 389.024 11.3101 390.461C11.3101 391.898 17.5421 393.063 25.2297 393.063Z" fill="#F35627"/>
<path d="M15.6597 379.059C15.6597 379.059 23.6055 378.821 26.0042 377.147C28.4028 375.473 38.2303 373.488 38.8265 376.155C39.4227 378.821 50.7732 389.518 41.798 389.591C32.8229 389.664 20.946 388.219 18.552 386.788C16.158 385.356 15.6597 379.059 15.6597 379.059Z" fill="#A8A8A8"/>
<path opacity="0.2" d="M41.9591 388.568C32.9862 388.646 21.1123 387.104 18.7189 385.577C16.9029 384.415 16.1765 380.243 15.9251 378.32H15.6597C15.6597 378.32 16.1626 385.04 18.5513 386.567C20.94 388.095 32.8511 389.641 41.8007 389.593C44.3897 389.568 45.2837 388.617 45.2372 387.153C44.874 388.012 43.8868 388.553 41.9591 388.568Z" fill="black"/>
<path d="M376.66 77.499L401.887 0.154606L540.742 45.1536L515.516 122.498L376.66 77.499Z" fill="url(#paint6_linear)"/>
<path d="M377.792 77.2797L402.671 1.00029L539.608 45.3775L514.729 121.657L377.792 77.2797Z" fill="#F6F7F9"/>
<g opacity="0.2">
<path opacity="0.2" d="M417.56 57.3343C426.035 57.3343 432.906 50.7633 432.906 42.6576C432.906 34.5519 426.035 27.9809 417.56 27.9809C409.084 27.9809 402.213 34.5519 402.213 42.6576C402.213 50.7633 409.084 57.3343 417.56 57.3343Z" fill="#F35627"/>
</g>
<g opacity="0.2">
<path opacity="0.2" d="M454.588 41.669L455.847 37.7797L517.429 57.892L516.17 61.7814L454.588 41.669Z" fill="#F35627"/>
</g>
<g opacity="0.2">
<path opacity="0.2" d="M450.742 51.2881L451.996 47.8146L483.256 56.9645L482.002 60.4381L450.742 51.2881Z" fill="#F35627"/>
</g>
<g opacity="0.2">
<path opacity="0.2" d="M446.5 59.6246L447.791 55.7176L499.812 72.3636L498.522 76.2706L446.5 59.6246Z" fill="#F35627"/>
</g>
<g opacity="0.2">
<path opacity="0.2" d="M444.864 70.9159L446.123 67.0266L507.705 87.139L506.446 91.0283L444.864 70.9159Z" fill="#F35627"/>
</g>
<g opacity="0.5">
<path opacity="0.5" d="M482.293 103.131L484.829 95.1013L502.58 101.044L500.045 109.074L482.293 103.131Z" fill="#F35627"/>
</g>
<path d="M446.287 231.824C446.28 231.665 446.264 231.506 446.24 231.349C446.24 231.183 446.188 231.017 446.159 230.875C446.098 230.552 446.031 230.234 445.955 229.926C445.918 229.779 445.88 229.627 445.837 229.484C445.388 227.801 444.58 226.236 443.467 224.896C443.405 224.82 443.339 224.749 443.278 224.678C443.216 224.607 443.022 224.403 442.894 224.274C442.766 224.146 442.647 224.033 442.524 223.923C442.401 223.814 442.287 223.715 442.173 223.62C441.946 223.435 441.732 223.278 441.548 223.145C441.363 223.012 441.277 222.965 441.164 222.898C440.892 222.736 440.588 222.637 440.273 222.609L438.306 222.414L435.618 222.149L426.011 218.414L425.631 218.547C425.35 217.771 425.112 216.979 424.921 216.175C425.212 216.049 425.471 215.859 425.679 215.62C425.905 215.443 426.085 215.214 426.2 214.951C426.442 214.391 425.977 213.2 426.072 212.517C426.224 211.42 426.793 210.362 427.257 209.371C428.243 207.24 428.964 204.929 428.845 202.59C428.727 200.251 427.66 197.878 425.688 196.573C424.669 195.895 423.47 195.534 422.408 194.917C421.584 194.443 420.859 193.807 420.072 193.266C416.135 190.639 411.109 190.279 406.838 192.317C404.843 193.299 403.141 194.77 401.26 195.952C399.378 197.133 397.16 198.04 394.956 197.689C394.925 197.778 394.903 197.87 394.89 197.964L394.705 197.94C394.326 198.974 395.255 199.999 396.127 200.706C397.752 202.049 399.596 203.387 401.715 203.435C402.535 203.435 403.402 203.278 404.146 203.615C404.315 203.69 404.475 203.785 404.62 203.9C403.658 207.758 404.94 211.83 407.938 214.438L403.032 212.673C403.032 212.673 402.829 212.777 402.511 212.977L395.705 208.441C395.705 208.441 382.059 203.487 378.267 211.202C374.476 218.917 394.7 214.936 394.7 214.936L399.027 217.309C398.882 218.204 399.049 219.123 399.501 219.909L411.299 227.207C408.929 227.942 404.999 229.105 404.303 229.105C403.293 229.105 400.511 230.101 398.743 234.082C396.975 238.063 390.652 257.484 385.093 260.72C379.533 263.957 364.873 285.617 364.873 285.617L364.939 285.788C364.678 285.859 364.423 285.93 364.171 286.016C361.093 287.086 358.428 289.097 356.555 291.767C356.049 292.47 355.954 293.389 356.305 294.181C356.657 294.972 357.401 295.518 358.261 295.615C364.048 296.35 367.21 293.679 368.731 291.662C368.831 291.534 368.921 291.406 369.006 291.278C369.456 291.472 369.961 291.495 370.428 291.344L377.504 285.617C377.504 285.617 371.968 291.074 375.215 296.056L374.968 296.402C369.496 304.224 365.482 312.972 363.119 322.224C363.119 322.224 360.086 324.464 359.834 333.427C359.583 342.391 356.545 356.829 356.545 356.829C356.545 356.829 354.526 374.011 355.787 379.235C355.787 379.235 355.934 379.444 356.204 379.762C356.109 379.876 356.005 379.999 355.891 380.122C354.787 381.318 352.796 382.969 350.478 382.495C346.942 381.745 346.942 387.971 351.995 388.469C355.251 388.787 361.65 390.243 365.797 391.24C366.714 391.471 367.686 391.242 368.403 390.624C369.119 390.007 369.491 389.079 369.399 388.137C369.153 385.906 368.703 383.207 367.883 381.285C367.83 381.166 367.778 381.048 367.726 380.938C367.873 380.796 368.025 380.654 368.172 380.502C368.172 380.502 368.172 369.546 369.944 366.561C369.944 366.561 374.746 343.904 374.49 338.177C374.295 333.698 386.951 316.251 392.458 308.882L392.411 308.602C393.833 306.704 394.714 305.565 394.714 305.565L398.975 332.706C398.975 332.706 400.999 338.68 403.525 341.916C403.525 341.916 414.394 362.58 415.659 369.052C416.607 373.963 418.588 376.863 419.489 377.982L419.162 378.296C418.01 379.354 416.318 380.412 414.394 380.008C410.858 379.259 410.858 385.484 415.91 385.982C419.166 386.305 425.565 387.762 429.708 388.758C430.626 388.99 431.599 388.759 432.317 388.141C433.034 387.523 433.406 386.594 433.315 385.65C433.025 383.059 432.461 379.838 431.371 377.935C431.283 377.772 431.187 377.613 431.082 377.46C431.468 377.306 431.812 377.064 432.087 376.753C432.087 376.753 425.513 361.067 425.513 356.825C425.513 356.825 422.735 340.644 413.384 334.67C413.384 334.67 414.266 314.429 416.929 303.164C416.996 302.889 417.062 302.614 417.128 302.348C419.611 301.959 422.072 301.446 424.503 300.811L424.755 293.342L426.02 299.316L440.173 290.604C440.173 290.604 440.05 289.034 439.813 286.628C439.69 285.423 439.543 284.009 439.367 282.476C439.225 281.252 439.064 279.952 438.893 278.623C438.846 278.291 438.803 277.954 438.756 277.622C438.571 276.279 438.367 274.922 438.149 273.593C438.064 273.094 437.978 272.6 437.893 272.113C437.775 271.463 437.656 270.827 437.533 270.215C437.471 269.907 437.405 269.598 437.343 269.299C437.282 269 437.211 268.701 437.144 268.412C437.078 268.123 437.012 267.843 436.945 267.563C436.907 267.425 436.874 267.287 436.841 267.155C436.77 266.884 436.699 266.618 436.628 266.362C436.331 265.298 436.159 264.202 436.116 263.098C436.116 262.661 436.116 262.22 436.116 261.783C436.116 261.347 436.182 260.91 436.244 260.474C436.272 260.26 436.31 260.042 436.353 259.828C436.513 258.961 436.753 258.109 437.068 257.285C437.225 256.872 437.405 256.464 437.599 256.061C438.073 255.112 438.547 254.101 439.05 253.024C439.306 252.488 439.562 251.938 439.817 251.378C440.073 250.818 440.334 250.248 440.595 249.669C443.055 244.18 445.481 238.063 446.131 234.044C446.197 233.622 446.249 233.223 446.273 232.849C446.301 232.508 446.305 232.165 446.287 231.824Z" fill="url(#paint7_linear)"/>
<path d="M403.669 214.918L395.207 209.094C395.207 209.094 381.77 204.024 378.036 211.881C374.303 219.738 394.211 215.682 394.211 215.682L402.673 220.492L403.669 214.918Z" fill="#AE6E79"/>
<path d="M312.29 262.352L355.784 194.912L461.108 262.404L417.614 329.844L312.29 262.352Z" fill="#F9FAFB"/>
<path d="M327.896 257.648L340.1 238.503L344.619 241.365L332.416 260.51L327.896 257.648Z" fill="#B7B6CC"/>
<path d="M342.342 261.526L369.143 219.479L373.287 222.103L346.486 264.151L342.342 261.526Z" fill="#B7B6CC"/>
<path d="M351.195 267.128L377.996 225.081L382.14 227.705L355.339 269.752L351.195 267.128Z" fill="#B7B6CC"/>
<path d="M360.045 272.738L386.846 230.691L390.99 233.315L364.189 275.363L360.045 272.738Z" fill="#B7B6CC"/>
<path d="M369.203 280.867L396.19 239.021L400.315 241.664L373.327 283.51L369.203 280.867Z" fill="#B7B6CC"/>
<path d="M377.747 283.948L404.547 241.9L408.691 244.525L381.891 286.572L377.747 283.948Z" fill="white"/>
<path d="M386.599 289.549L413.4 247.502L417.544 250.126L390.743 292.174L386.599 289.549Z" fill="white"/>
<path d="M423.764 265.664L430.704 254.776L441.627 261.694L434.687 272.582L423.764 265.664Z" fill="#B7B6CC"/>
<path d="M427.99 387.782C423.945 386.791 417.709 385.347 414.536 385.026C409.605 384.547 409.605 378.328 413.059 379.083C414.927 379.49 416.585 378.433 417.704 377.385C418.044 377.057 418.363 376.707 418.657 376.337C419.065 375.84 419.627 375.494 420.253 375.356C422.102 374.954 425.97 374.342 428.309 375.619C428.856 375.961 429.298 376.448 429.586 377.026C430.649 378.94 431.201 382.122 431.492 384.681C431.591 385.608 431.236 386.526 430.54 387.142C429.844 387.758 428.893 387.997 427.99 387.782Z" fill="#BEBED0"/>
<path d="M365.342 391.248C361.303 390.256 355.069 388.809 351.897 388.488C346.968 388.009 346.968 381.781 350.416 382.542C352.674 383.021 354.617 381.388 355.688 380.2C355.822 380.056 355.941 379.917 356.041 379.787C356.45 379.299 357.01 378.962 357.632 378.829C359.479 378.422 363.347 377.809 365.69 379.093C366.385 379.466 366.938 380.291 367.38 381.359C368.176 383.275 368.614 385.958 368.857 388.177C368.946 389.102 368.584 390.014 367.886 390.624C367.189 391.233 366.241 391.466 365.342 391.248Z" fill="#BEBED0"/>
<path opacity="0.1" d="M368.87 381.093C362.305 386.695 356.676 380.988 355.82 380.046C355.969 379.914 356.102 379.787 356.214 379.668C356.671 379.219 357.296 378.91 357.989 378.788C360.051 378.414 364.368 377.851 366.983 379.03C367.759 379.355 368.402 380.112 368.87 381.093Z" fill="black"/>
<path opacity="0.1" d="M431.509 376.984C428.715 378.696 419.31 378.274 419.31 378.274C419 377.981 418.716 377.668 418.459 377.336C418.832 377.014 419.18 376.671 419.503 376.308C419.95 375.82 420.566 375.482 421.253 375.346C423.279 374.952 427.519 374.352 430.083 375.605C430.692 375.936 431.186 376.414 431.509 376.984Z" fill="black"/>
<path d="M429.768 375.373C428.054 377.597 418.285 377.1 418.285 377.1C418.285 377.1 415.351 374.137 414.128 367.723C412.904 361.309 402.398 340.817 402.398 340.817C399.956 337.605 398.001 331.682 398.001 331.682L393.848 304.776C393.848 304.776 373.814 331.434 374.06 337.113C374.306 342.792 369.657 365.27 369.657 365.27C367.947 368.233 367.947 379.109 367.947 379.109C361.599 385.791 356.223 377.873 356.223 377.873C354.999 372.691 356.955 355.658 356.955 355.658C356.955 355.658 359.889 341.342 360.129 332.456C360.37 323.57 363.309 321.35 363.309 321.35C365.59 312.191 369.476 303.519 374.783 295.742C376.257 293.609 377.235 292.469 377.235 292.469L416.816 297.16C416.057 298.857 415.486 300.633 415.115 302.457C412.541 313.624 411.685 333.692 411.685 333.692C420.727 339.614 423.415 355.644 423.415 355.644C423.415 359.82 429.768 375.373 429.768 375.373Z" fill="#5C5C8E"/>
<g opacity="0.05">
<path opacity="0.05" d="M392.235 308.582L391.714 305.245C391.714 305.245 371.244 332.3 371.495 338.064C371.746 343.827 367.001 366.64 367.001 366.64C365.249 369.647 365.249 380.685 365.249 380.685C364.204 381.869 362.853 382.739 361.345 383.199C363.309 383.717 365.689 383.335 368.247 380.685C368.247 380.685 368.247 369.662 369.994 366.64C369.994 366.64 374.738 343.842 374.488 338.064C374.294 333.555 386.79 315.993 392.235 308.582Z" fill="black"/>
<path opacity="0.05" d="M424.916 356.851C424.916 356.851 422.17 340.568 412.936 334.572C412.936 334.572 413.81 314.206 416.436 302.872C416.816 301.021 417.401 299.218 418.178 297.496L377.736 292.745C377.736 292.745 377.64 292.851 377.466 293.064L415.181 297.506C414.405 299.228 413.822 301.031 413.443 302.882C410.813 314.215 409.939 334.581 409.939 334.581C419.177 340.592 421.923 356.861 421.923 356.861C421.923 361.118 428.415 376.903 428.415 376.903C427.382 378.23 423.492 378.603 420.466 378.685C422.879 378.748 429.96 378.772 431.408 376.903C431.408 376.893 424.916 361.108 424.916 356.851Z" fill="black"/>
</g>
<path d="M370.61 290.151C370.283 290.948 369.853 291.699 369.33 292.385C367.706 294.572 364.326 297.464 358.141 296.67C357.214 296.552 356.418 295.955 356.043 295.1C355.669 294.244 355.771 293.255 356.313 292.494C358.298 289.601 361.149 287.408 364.457 286.231C365.576 285.862 366.735 285.627 367.909 285.531L370.61 290.151Z" fill="#AE6E79"/>
<path d="M422.809 220.401L402.52 213.555C402.52 213.555 396.699 216.357 398.978 220.324L418.734 231.765L422.809 220.401Z" fill="#42383C"/>
<path opacity="0.1" d="M422.809 220.403L402.519 213.555C402.519 213.555 396.7 216.353 398.978 220.326L418.706 231.765L422.809 220.403Z" fill="black"/>
<path d="M423.937 209.713C423.937 209.713 423.687 221.49 428.912 225.501C434.137 229.513 413.742 231.765 413.742 231.765C413.742 231.765 416.977 219.736 413.742 213.472C410.507 207.208 423.937 209.713 423.937 209.713Z" fill="#AE6E79"/>
<path opacity="0.1" d="M416.719 297.369C415.949 299.141 415.371 300.997 414.995 302.902C391.04 306.71 374.344 296.337 374.344 296.337C374.253 296.187 374.167 296.038 374.09 295.888C375.585 293.66 376.577 292.469 376.577 292.469L416.719 297.369Z" fill="black"/>
<path opacity="0.1" d="M369.74 289.032C369.462 289.639 369.097 290.212 368.654 290.734C366.532 290.416 364.835 286.756 364.52 286.064C365.469 285.783 366.453 285.604 367.449 285.531L369.74 289.032Z" fill="black"/>
<path d="M424.612 220.492L415.673 223.666L411.947 228.556C411.947 228.556 404.266 230.998 403.258 230.998C402.25 230.998 399.532 231.976 397.794 235.883C396.057 239.789 389.849 258.86 384.386 262.029C378.922 265.199 364.52 286.461 364.52 286.461C364.52 286.461 367.002 293.075 369.983 292.083L376.935 286.461C376.935 286.461 371.472 291.837 374.698 296.727C374.698 296.727 395.063 308.697 423.123 301.365L423.368 294.039L424.612 299.901L438.534 291.351C438.534 291.351 437.291 275.578 435.049 267.552C434.12 264.177 434.461 260.585 436.009 257.438C439.614 250.045 445.178 237.697 444.501 233.195C443.7 227.89 440.661 225.584 439.489 224.89C439.224 224.731 438.925 224.632 438.616 224.602L434.069 224.158L424.612 220.492Z" fill="#42383C"/>
<path opacity="0.05" d="M408.889 244.773C408.889 244.773 403.876 267.749 398.364 271.455C392.852 275.162 378.074 287.022 377.57 289" fill="black"/>
<path d="M407.149 243.039C407.149 243.039 402.14 266.017 396.627 269.724C391.114 273.431 376.329 285.293 375.83 287.266" fill="#42383C"/>
<path opacity="0.1" d="M410.629 228.297C410.629 228.297 428.179 221.65 433.248 223.381L410.629 228.297Z" fill="black"/>
<g opacity="0.05">
<path opacity="0.05" d="M436.05 256.655C439.614 249.107 445.113 236.498 444.444 231.901C443.652 226.485 440.648 224.131 439.49 223.422C439.228 223.259 438.932 223.159 438.627 223.128L436.728 222.935C436.93 222.982 437.122 223.061 437.298 223.171C438.446 223.885 441.46 226.234 442.247 231.655C442.916 236.247 437.416 248.861 433.857 256.409C432.328 259.621 431.991 263.287 432.908 266.731C435.129 274.931 436.358 291.032 436.358 291.032L424.523 298.551L424.822 299.998L438.584 291.268C438.584 291.268 437.355 275.163 435.139 266.968C434.213 263.531 434.536 259.869 436.05 256.655Z" fill="black"/>
<path opacity="0.05" d="M431.926 222.419L434.052 222.636L424.808 218.926L423.978 219.23L431.926 222.419Z" fill="black"/>
</g>
<path opacity="0.05" d="M407.149 269.055C407.149 269.055 415.1 264.843 417.689 265.835C420.278 266.827 429.769 265.586 429.769 265.586" fill="black"/>
<path opacity="0.05" d="M421.889 211.785C421.589 209.328 422.809 209.702 422.809 209.702C422.809 209.702 408.614 207.254 412.029 213.375C412.891 215.062 413.381 216.892 413.473 218.758H413.61C417.554 218.762 419.856 214.653 421.889 211.785Z" fill="black"/>
<path d="M413.239 218.758C419.485 218.758 424.549 213.71 424.549 207.484C424.549 201.258 419.485 196.211 413.239 196.211C406.993 196.211 401.929 201.258 401.929 207.484C401.929 213.71 406.993 218.758 413.239 218.758Z" fill="#AE6E79"/>
<path opacity="0.1" d="M426.472 210.417C427.423 208.365 428.131 206.143 428.017 203.892C427.903 201.642 426.867 199.359 424.946 198.099C423.958 197.451 422.789 197.103 421.757 196.511C420.954 196.048 420.246 195.441 419.48 194.922C415.669 192.392 410.761 192.038 406.609 193.996C404.67 194.922 403.016 196.363 401.186 197.497C399.356 198.632 397.199 199.502 395.055 199.169C394.684 200.164 395.592 201.146 396.424 201.831C398.007 203.123 399.798 204.411 401.861 204.452C402.66 204.452 403.501 204.304 404.238 204.628C404.726 204.891 405.14 205.266 405.445 205.721C406.438 207.007 407.279 208.397 407.955 209.866C408.161 210.497 408.551 211.057 409.076 211.477C410.027 212.07 411.258 211.574 412.403 211.533C414.152 211.463 415.73 212.538 417.023 213.686C418.316 214.834 419.552 216.149 421.187 216.756C422.408 217.219 424.851 217.191 425.464 215.77C425.697 215.233 425.246 214.084 425.341 213.427C425.57 212.376 425.951 211.363 426.472 210.417Z" fill="black"/>
<path d="M426.471 210.42C427.422 208.368 428.135 206.145 428.016 203.899C427.897 201.652 426.87 199.36 424.95 198.105C423.956 197.452 422.787 197.104 421.76 196.511C420.957 196.048 420.249 195.446 419.483 194.923C415.672 192.392 410.763 192.038 406.611 193.996C404.672 194.923 403.017 196.359 401.187 197.493C399.357 198.628 397.199 199.503 395.055 199.165C394.685 200.166 395.588 201.148 396.424 201.828C398.007 203.121 399.799 204.408 401.862 204.455C402.661 204.455 403.502 204.302 404.239 204.631C404.729 204.891 405.144 205.266 405.446 205.724C406.439 207.007 407.279 208.396 407.951 209.864C408.16 210.496 408.551 211.056 409.078 211.476C410.029 212.069 411.26 211.573 412.405 211.532C414.155 211.467 415.733 212.541 417.021 213.69C418.309 214.839 419.55 216.149 421.19 216.756C422.412 217.219 424.855 217.191 425.468 215.77C425.706 215.232 425.254 214.084 425.349 213.426C425.575 212.377 425.953 211.365 426.471 210.42Z" fill="#42383C"/>
<path opacity="0.1" d="M349.613 367.667C348.718 368.396 347.594 368.79 346.436 368.781L132.02 367.877C130.857 366.488 130.323 364.685 130.546 362.894L151.73 191.006L165.015 190.863C167.299 190.84 169.311 192.35 169.91 194.537L172.391 203.618C172.996 205.829 175.044 207.345 177.354 207.292L230.371 206.031C233.096 205.966 235.272 203.756 235.271 201.052V195.037C235.271 192.31 237.483 190.09 240.233 190.059L313.701 189.273C316.126 189.251 318.221 190.952 318.677 193.314L351.168 361.79L351.38 362.875C351.731 364.673 351.051 366.517 349.613 367.667Z" fill="black"/>
<path d="M310.537 191.008L237.662 191.793C234.934 191.822 232.738 194.039 232.735 196.766V202.786C232.733 205.486 230.579 207.692 227.879 207.759L175.294 209.021C173.001 209.078 170.966 207.56 170.367 205.347L167.896 196.271C167.304 194.082 165.304 192.571 163.036 192.597L92.7938 193.354C91.3373 193.368 89.9602 194.02 89.0259 195.137C88.0916 196.254 87.694 197.724 87.938 199.16L116.197 365.419C116.602 367.805 118.665 369.554 121.086 369.564L342.994 370.516C344.481 370.521 345.893 369.861 346.843 368.717C347.792 367.573 348.181 366.065 347.902 364.605L315.474 195.048C315.022 192.685 312.943 190.984 310.537 191.008Z" fill="#E6E8EE"/>
<path d="M413.688 76.6061L413.321 80.7676L413.587 88.1274L412.813 100.542C412.813 100.542 412.703 105.98 409.691 108.528L402.004 120.569L401.958 120.592L399.066 122.032L394.651 122.5L392.359 116.837L393.877 110.618L394.72 109.459L394.954 109.197C395.871 108.168 399.409 104.432 402.219 103.268C402.219 103.268 404.094 101.865 403.764 99.6674C403.434 97.4698 406.294 85.7895 406.294 85.7895C406.294 85.7895 408.128 78.0649 407.729 77.3121C407.33 76.5593 407.656 59.4597 413.981 59.1978C420.307 58.936 413.688 76.6061 413.688 76.6061Z" fill="#F6BAC2"/>
<path opacity="0.1" d="M70.9031 335.828C74.9871 335.828 78.2979 335.44 78.2979 334.961C78.2979 334.482 74.9871 334.094 70.9031 334.094C66.8191 334.094 63.5083 334.482 63.5083 334.961C63.5083 335.44 66.8191 335.828 70.9031 335.828Z" fill="#F35627"/>
<path opacity="0.1" d="M41.324 337.562C45.408 337.562 48.7188 337.174 48.7188 336.695C48.7188 336.216 45.408 335.828 41.324 335.828C37.24 335.828 33.9292 336.216 33.9292 336.695C33.9292 337.174 37.24 337.562 41.324 337.562Z" fill="#F35627"/>
<path opacity="0.1" d="M7.3948 334.094C11.4788 334.094 14.7896 333.705 14.7896 333.227C14.7896 332.748 11.4788 332.359 7.3948 332.359C3.31077 332.359 0 332.748 0 333.227C0 333.705 3.31077 334.094 7.3948 334.094Z" fill="#F35627"/>
<path opacity="0.1" d="M54.3736 346.234C57.4967 346.234 60.0284 345.846 60.0284 345.367C60.0284 344.888 57.4967 344.5 54.3736 344.5C51.2505 344.5 48.7188 344.888 48.7188 345.367C48.7188 345.846 51.2505 346.234 54.3736 346.234Z" fill="#F35627"/>
<path opacity="0.1" d="M23.0548 346.234C26.1778 346.234 28.7096 345.846 28.7096 345.367C28.7096 344.888 26.1778 344.5 23.0548 344.5C19.9317 344.5 17.3999 344.888 17.3999 345.367C17.3999 345.846 19.9317 346.234 23.0548 346.234Z" fill="#F35627"/>
<path d="M42.6104 337.562C42.6104 337.562 53.4912 301.859 40.9062 287.557C31.4902 276.858 20.8008 278.137 16.0138 279.46C13.5087 280.13 11.423 281.865 10.3076 284.208C8.6322 287.82 8.93378 293.685 20.7481 300.531C40.5232 311.992 41.7535 327.712 41.7535 327.712L42.6104 337.562Z" fill="#F35627"/>
<path d="M17.3999 283.797C17.3999 283.797 49.6694 293.996 42.4449 337.562" stroke="#565987"/>
<path d="M35.6694 289C35.6694 289 30.9927 292.118 32.4824 296.805" stroke="#565987"/>
<path d="M20.8794 289C20.8794 289 23.2327 286.175 26.0993 287.735" stroke="#565987"/>
<path d="M32.1895 304.779C32.1895 304.779 36.3377 302.034 37.4093 305.476" stroke="#565987"/>
<path d="M42.6288 308.099C42.6288 308.099 39.2087 307.762 39.1489 309.812" stroke="#565987"/>
<path d="M40.8887 335.828C40.8887 335.828 28.778 311.024 25.4536 311.555C23.8755 311.816 23.1478 313.387 22.8159 314.953C22.4077 316.986 22.6382 319.095 23.4753 320.99C25.1943 324.974 29.8103 332.508 40.8887 335.828Z" fill="#F35627"/>
<path d="M26.0996 316.75C26.0996 316.75 38.4938 336.687 40.8892 337.562" stroke="#565987"/>
<path d="M24.3594 318.918H27.8393" stroke="#565987"/>
<path d="M28.709 326.532L33.9288 326.913" stroke="#565987"/>
<path d="M30.4491 321.086L29.5791 324.555" stroke="#565987"/>
<path d="M37.9308 328.023L37.7568 329.758" stroke="#565987"/>
<path d="M41.7588 335.828C41.7588 335.828 53.8679 311.024 57.1932 311.555C58.7762 311.816 59.504 313.387 59.8315 314.953C60.2398 316.986 60.0093 319.095 59.1719 320.99C57.4525 324.974 52.8308 332.508 41.7588 335.828Z" fill="#F35627"/>
<path d="M58.2881 316.75C58.2881 316.75 45.8711 336.687 43.4985 337.562" stroke="#565987"/>
<path d="M60.0282 318.918H56.5483" stroke="#565987"/>
<path d="M55.6784 326.532L50.4585 326.913" stroke="#565987"/>
<path d="M52.1987 321.086L53.0687 324.555" stroke="#565987"/>
<path d="M46.457 328.023L46.631 329.758" stroke="#565987"/>
<path d="M19.8983 343.192C19.5507 342.879 19.298 342.456 19.1739 341.98C19.0515 341.487 19.2654 340.968 19.6824 340.746C20.1622 340.55 20.642 340.905 21.0258 341.276C21.4096 341.646 21.8462 342.038 22.326 341.948C21.808 341.43 21.5748 340.65 21.7119 339.894C21.7315 339.74 21.7897 339.595 21.8798 339.476C22.1389 339.168 22.609 339.301 22.9209 339.544C23.8804 340.307 24.1827 341.784 24.1875 343.118C24.2355 342.629 24.2355 342.135 24.1875 341.646C24.1617 341.146 24.3631 340.663 24.7248 340.36C24.9584 340.219 25.2217 340.15 25.4876 340.159C25.9335 340.088 26.3854 340.231 26.7302 340.55C27.0663 341.055 27.0464 341.748 26.6823 342.229C26.3147 342.684 25.8799 343.067 25.3965 343.362C25.0295 343.605 24.7165 343.936 24.4801 344.331C24.4511 344.384 24.4285 344.44 24.413 344.5H21.6207C20.9957 344.152 20.4163 343.712 19.8983 343.192Z" fill="#F35627"/>
<path d="M67.7527 331.899C67.4019 331.588 67.1472 331.165 67.0233 330.688C66.8994 330.195 67.1125 329.675 67.5305 329.451C68.0135 329.254 68.4965 329.61 68.8829 329.982C69.2693 330.354 69.704 330.757 70.2015 330.678C69.68 330.16 69.4435 329.38 69.5784 328.623C69.5999 328.468 69.6601 328.322 69.7523 328.203C70.0132 327.895 70.4865 328.028 70.8005 328.267C71.7906 329.037 72.0708 330.518 72.0756 331.856C72.124 331.364 72.124 330.867 72.0756 330.375C72.0318 329.879 72.2124 329.39 72.5586 329.069C72.7948 328.931 73.0594 328.863 73.3266 328.872C73.7746 328.803 74.2285 328.943 74.5776 329.26C74.9171 329.768 74.8951 330.467 74.5245 330.948C74.1572 331.406 73.7209 331.79 73.2348 332.085C72.8653 332.327 72.55 332.657 72.3123 333.051C72.284 333.107 72.2613 333.166 72.2447 333.227H69.4963C68.8624 332.874 68.2756 332.427 67.7527 331.899Z" fill="#F35627"/>
<path d="M51.2244 343.178C50.876 342.862 50.6212 342.438 50.4928 341.961C50.3701 341.467 50.5847 340.947 51.003 340.724C51.4843 340.528 51.9656 340.883 52.3507 341.255C52.7357 341.627 53.1641 342.031 53.6646 341.956C53.1457 341.436 52.9104 340.655 53.0437 339.896C53.0651 339.741 53.1251 339.595 53.217 339.476C53.4769 339.168 53.9486 339.301 54.2614 339.545C55.2481 340.31 55.5224 341.792 55.5321 343.13C55.5802 342.639 55.5802 342.144 55.5321 341.653C55.4942 341.153 55.6834 340.663 56.0374 340.347C56.2715 340.205 56.5358 340.135 56.8027 340.145C57.2499 340.075 57.703 340.218 58.0493 340.538C58.3867 341.045 58.3649 341.742 57.9963 342.222C57.6293 342.678 57.1948 343.062 56.7112 343.358C56.3431 343.603 56.029 343.935 55.792 344.33C55.7629 344.383 55.7402 344.44 55.7246 344.5H52.933C52.3127 344.145 51.7381 343.7 51.2244 343.178Z" fill="#F35627"/>
<path d="M6.69832 322.82C6.69832 322.82 5.6544 324.072 7.17938 325.962C8.70436 327.853 9.96476 329.448 9.45483 330.625C9.45483 330.625 7.15052 327.099 5.27436 327.069C3.3982 327.038 4.63454 324.914 6.69832 322.82Z" fill="#F35627"/>
<path opacity="0.1" d="M6.7225 322.82C6.63134 322.941 6.55926 323.073 6.50834 323.212C4.65871 325.182 3.67062 327.02 5.4521 327.069C7.10703 327.113 9.09782 329.792 9.56996 330.471C9.55503 330.523 9.53716 330.574 9.51642 330.625C9.51642 330.625 7.18491 327.099 5.28661 327.069C3.38831 327.038 4.63437 324.914 6.7225 322.82Z" fill="black"/>
<path d="M3.69727 325.008C3.69727 325.716 3.79296 326.289 3.91476 326.289C4.03656 326.289 4.13225 325.716 4.13225 325.008C4.13225 324.3 4.01046 324.633 3.88866 324.633C3.76686 324.633 3.69727 324.3 3.69727 325.008Z" fill="#FFD037"/>
<path d="M3.02476 324.127C3.70464 324.434 4.2918 324.614 4.34588 324.537C4.39996 324.46 3.89006 324.152 3.21018 323.845C2.53031 323.537 2.80071 323.761 2.74663 323.845C2.69255 323.928 2.34489 323.819 3.02476 324.127Z" fill="#FFD037"/>
<path d="M10.7014 322.82C10.7014 322.82 11.75 324.072 10.2203 325.962C8.69062 327.853 7.4351 329.448 7.94501 330.625C7.94501 330.625 10.2492 327.099 12.1252 327.069C14.0013 327.038 12.765 324.914 10.7014 322.82Z" fill="#F35627"/>
<path opacity="0.1" d="M10.6751 322.82C10.7668 322.942 10.8404 323.074 10.894 323.212C12.7424 325.182 13.7298 327.02 11.9495 327.069C10.2957 327.113 8.30628 329.792 7.82959 330.471C7.8439 330.524 7.86344 330.575 7.88796 330.625C7.88796 330.625 10.2179 327.099 12.1149 327.069C14.0119 327.038 12.7618 324.914 10.6751 322.82Z" fill="black"/>
<path d="M13.7021 325.008C13.7021 325.716 13.6064 326.289 13.4846 326.289C13.3628 326.289 13.2671 325.716 13.2671 325.008C13.2671 324.3 13.3889 324.633 13.5107 324.633C13.6325 324.633 13.7021 324.3 13.7021 325.008Z" fill="#FFD037"/>
<path d="M14.3818 324.127C13.6979 324.434 13.0994 324.614 13.0528 324.537C13.0062 324.46 13.5113 324.152 14.1953 323.845C14.8792 323.537 14.6072 323.761 14.6538 323.845C14.7004 323.928 15.0579 323.819 14.3818 324.127Z" fill="#FFD037"/>
<path d="M13.0494 332.113C13.0494 332.113 10.0114 332.027 9.09545 331.437C8.17953 330.848 4.42074 330.14 4.19051 331.088C3.96027 332.036 -0.374099 335.805 3.05436 335.827C6.48282 335.85 11.0274 335.342 11.9433 334.839C12.8593 334.335 13.0494 332.113 13.0494 332.113Z" fill="#A8A8A8"/>
<path opacity="0.2" d="M2.99213 335.375C6.42633 335.413 10.9669 334.701 11.883 333.989C12.5789 333.455 12.8542 331.522 12.9493 330.625H13.0494C13.0494 330.625 12.8592 333.741 11.9431 334.44C11.027 335.14 6.48641 335.865 3.0522 335.827C2.05098 335.827 1.72057 335.369 1.7406 334.707C1.87576 335.121 2.28126 335.343 2.99213 335.375Z" fill="black"/>
<path opacity="0.1" d="M16.5296 70.4684C22.2953 70.4684 26.9693 65.8094 26.9693 60.0621C26.9693 54.3149 22.2953 49.6559 16.5296 49.6559C10.7639 49.6559 6.08984 54.3149 6.08984 60.0621C6.08984 65.8094 10.7639 70.4684 16.5296 70.4684Z" fill="#F35627"/>
<path opacity="0.1" d="M512.416 151.984C518.182 151.984 522.856 147.325 522.856 141.578C522.856 135.831 518.182 131.172 512.416 131.172C506.651 131.172 501.977 135.831 501.977 141.578C501.977 147.325 506.651 151.984 512.416 151.984Z" fill="#F35627"/>
<path opacity="0.1" d="M326.241 37.5153C332.007 37.5153 336.681 32.8562 336.681 27.109C336.681 21.3618 332.007 16.7028 326.241 16.7028C320.475 16.7028 315.801 21.3618 315.801 27.109C315.801 32.8562 320.475 37.5153 326.241 37.5153Z" fill="#F35627"/>
<path opacity="0.1" d="M35.6692 133.773C44.7982 133.773 52.1988 126.396 52.1988 117.297C52.1988 108.197 44.7982 100.82 35.6692 100.82C26.5402 100.82 19.1396 108.197 19.1396 117.297C19.1396 126.396 26.5402 133.773 35.6692 133.773Z" fill="#F35627"/>
<path d="M205.328 280.021L204.668 279.379C204.526 279.249 204.445 279.068 204.445 278.878C204.445 278.688 204.526 278.506 204.668 278.376L210.457 272.741C210.59 272.602 210.777 272.523 210.972 272.523C211.167 272.523 211.354 272.602 211.487 272.741L217.276 278.371C217.415 278.503 217.494 278.684 217.494 278.873C217.494 279.062 217.415 279.243 217.276 279.374L216.616 280.016C216.481 280.152 216.295 280.229 216.1 280.229C215.906 280.229 215.72 280.152 215.585 280.016L212.163 276.506V284.834C212.164 285.019 212.09 285.196 211.956 285.327C211.823 285.458 211.641 285.531 211.451 285.531H210.498C210.102 285.531 209.781 285.219 209.781 284.834V276.516L206.359 280.026C206.223 280.161 206.037 280.237 205.842 280.236C205.648 280.235 205.462 280.158 205.328 280.021Z" fill="#F6F7F9"/>
<path d="M211.404 270.467C217.348 270.467 222.167 275.27 222.167 281.195C222.167 287.12 217.348 291.924 211.404 291.924C205.46 291.924 200.641 287.12 200.641 281.195C200.647 275.272 205.462 270.472 211.404 270.467ZM211.404 269.055C204.678 269.055 199.225 274.49 199.225 281.195C199.225 287.9 204.678 293.336 211.404 293.336C218.131 293.336 223.584 287.9 223.584 281.195C223.584 274.49 218.131 269.055 211.404 269.055Z" fill="#F6F7F9"/>
<defs>
<linearGradient id="paint0_linear" x1="374.985" y1="270.764" x2="374.985" y2="48.7883" gradientUnits="userSpaceOnUse">
<stop stop-color="#808080" stop-opacity="0.25"/>
<stop offset="0.54" stop-color="#808080" stop-opacity="0.12"/>
<stop offset="1" stop-color="#808080" stop-opacity="0.1"/>
</linearGradient>
<linearGradient id="paint1_linear" x1="392.794" y1="91.2809" x2="392.794" y2="89.5466" gradientUnits="userSpaceOnUse">
<stop stop-color="#808080" stop-opacity="0.25"/>
<stop offset="0.54" stop-color="#808080" stop-opacity="0.12"/>
<stop offset="1" stop-color="#808080" stop-opacity="0.1"/>
</linearGradient>
<linearGradient id="paint2_linear" x1="263.141" y1="230.316" x2="333.692" y2="128.198" gradientUnits="userSpaceOnUse">
<stop stop-color="#808080" stop-opacity="0.25"/>
<stop offset="0.54" stop-color="#808080" stop-opacity="0.12"/>
<stop offset="1" stop-color="#808080" stop-opacity="0.1"/>
</linearGradient>
<linearGradient id="paint3_linear" x1="261.347" y1="235.689" x2="296.584" y2="115.11" gradientUnits="userSpaceOnUse">
<stop stop-color="#808080" stop-opacity="0.25"/>
<stop offset="0.54" stop-color="#808080" stop-opacity="0.12"/>
<stop offset="1" stop-color="#808080" stop-opacity="0.1"/>
</linearGradient>
<linearGradient id="paint4_linear" x1="261.076" y1="239.505" x2="271.03" y2="115.786" gradientUnits="userSpaceOnUse">
<stop stop-color="#808080" stop-opacity="0.25"/>
<stop offset="0.54" stop-color="#808080" stop-opacity="0.12"/>
<stop offset="1" stop-color="#808080" stop-opacity="0.1"/>
</linearGradient>
<linearGradient id="paint5_linear" x1="259.999" y1="241.791" x2="254.306" y2="116.902" gradientUnits="userSpaceOnUse">
<stop stop-color="#808080" stop-opacity="0.25"/>
<stop offset="0.54" stop-color="#808080" stop-opacity="0.12"/>
<stop offset="1" stop-color="#808080" stop-opacity="0.1"/>
</linearGradient>
<linearGradient id="paint6_linear" x1="446.108" y1="100.077" x2="471.304" y2="22.5783" gradientUnits="userSpaceOnUse">
<stop stop-color="#808080" stop-opacity="0.25"/>
<stop offset="0.54" stop-color="#808080" stop-opacity="0.12"/>
<stop offset="1" stop-color="#808080" stop-opacity="0.1"/>
</linearGradient>
<linearGradient id="paint7_linear" x1="397.127" y1="391.32" x2="397.127" y2="191.031" gradientUnits="userSpaceOnUse">
<stop stop-color="#808080" stop-opacity="0.25"/>
<stop offset="0.54" stop-color="#808080" stop-opacity="0.12"/>
<stop offset="1" stop-color="#808080" stop-opacity="0.1"/>
</linearGradient>
</defs>
</svg>
